<svg width="678" height="670" viewBox="0 0 678 670" fill="none" xmlns="http://www.w3.org/2000/svg">
<g filter="url(#filter0_d)">
<path d="M614.233 318.627L638.141 294.719C640.487 292.373 640.487 288.569 638.141 286.222L621.311 269.392C619.303 267.385 618.991 264.256 620.529 261.87C629.132 248.527 635.053 233.959 638.3 218.929C638.9 216.151 641.332 214.157 644.174 214.157H667.992C671.31 214.157 674 211.467 674 208.149V174.338C674 171.019 671.31 168.329 667.992 168.329H644.174C641.332 168.329 638.9 166.335 638.3 163.558C635.053 148.527 629.132 133.959 620.529 120.616C618.991 118.23 619.303 115.102 621.311 113.094L638.141 96.2644C640.487 93.9178 640.487 90.114 638.141 87.7674L614.233 63.8594C611.886 61.5128 608.082 61.5128 605.736 63.8594L588.906 80.6894C586.898 82.6967 583.77 83.0087 581.384 81.4707C568.041 72.8683 553.472 66.9474 538.442 63.7004C535.665 63.1002 533.671 60.6677 533.671 57.8263V34.0085C533.671 30.6901 530.981 28 527.662 28H493.851C490.533 28 487.843 30.6901 487.843 34.0085V57.8263C487.843 60.6677 485.848 63.1002 483.071 63.7004C468.04 66.9474 453.472 72.8683 440.13 81.4707C437.744 83.0087 434.615 82.6967 432.608 80.6894L415.778 63.8594C413.431 61.5128 409.627 61.5128 407.281 63.8594L383.373 87.7674C381.026 90.114 381.026 93.9178 383.373 96.2644L400.203 113.094C402.21 115.102 402.522 118.23 400.984 120.616C392.382 133.959 386.461 148.528 383.214 163.559C382.614 166.336 380.181 168.33 377.34 168.33H353.522C350.203 168.33 347.513 171.02 347.513 174.339V208.15C347.513 211.468 350.203 214.158 353.522 214.158H377.34C380.181 214.158 382.614 216.153 383.214 218.93C386.461 233.961 392.382 248.529 400.984 261.871C402.522 264.257 402.21 267.386 400.203 269.393L383.373 286.223C381.026 288.57 381.026 292.374 383.373 294.72L407.281 318.628C409.627 320.975 413.431 320.975 415.778 318.628L432.608 301.798C434.615 299.791 437.744 299.479 440.13 301.017C453.473 309.619 468.041 315.54 483.071 318.787C485.849 319.387 487.843 321.82 487.843 324.661V348.479C487.843 351.797 490.533 354.487 493.851 354.487H527.662C530.981 354.487 533.671 351.797 533.671 348.479V324.661C533.671 321.82 535.665 319.387 538.442 318.787C553.473 315.54 568.041 309.619 581.385 301.017C583.77 299.479 586.899 299.791 588.907 301.798L605.737 318.628C608.082 320.974 611.886 320.974 614.233 318.627V318.627Z" fill="#9FACBA"/>
<path d="M620.527 261.872C618.995 264.254 619.301 267.388 621.315 269.392L638.141 286.219C640.487 288.565 640.487 292.373 638.141 294.719L614.232 318.628C611.885 320.974 608.077 320.974 605.731 318.628L599.945 312.842L619.17 293.608C621.516 291.262 621.516 287.453 619.17 285.108L602.344 268.281C600.339 266.268 600.024 263.142 601.565 260.753C610.162 247.411 616.089 235.653 619.328 220.622C619.932 217.847 622.366 215.85 625.202 215.85H640.006C639.166 216.665 638.561 217.723 638.299 218.932C635.051 233.963 629.133 248.531 620.527 261.872V261.872Z" fill="#8D9CA8"/>
<path d="M640.706 167.209H625.202C622.366 167.209 619.931 165.223 619.328 162.438C616.088 147.406 610.162 132.839 601.565 119.497C600.025 117.116 600.339 113.982 602.344 111.977L619.17 95.1421C621.516 92.7964 621.516 88.9968 619.17 86.6502L601.057 68.5373L605.732 63.8534C608.079 61.5069 611.887 61.5069 614.232 63.8534L638.141 87.7623C640.488 90.108 640.488 93.9161 638.141 96.2627L621.316 113.088C619.302 115.102 618.995 118.227 620.527 120.617C629.133 133.959 635.051 148.526 638.299 163.558C638.631 165.082 639.507 166.36 640.706 167.209V167.209Z" fill="#8D9CA8"/>
<path d="M673.999 174.336V208.146C673.999 211.464 671.311 214.16 667.993 214.16H653.189C654.328 213.074 655.027 211.542 655.027 209.843V173.224C655.027 171.211 654.029 169.416 652.506 168.33H667.993C671.311 168.33 673.999 171.018 673.999 174.336V174.336Z" fill="#8D9CA8"/>
<path d="M510.756 268.955C553.675 268.955 588.469 234.162 588.469 191.243C588.469 148.323 553.675 113.53 510.756 113.53C467.836 113.53 433.043 148.323 433.043 191.243C433.043 234.162 467.836 268.955 510.756 268.955Z" fill="#596C76"/>
<path d="M565.707 246.193C541.886 270.014 506.448 275.144 477.628 261.565C502.561 266.932 529.621 259.929 548.995 240.555C579.347 210.203 579.347 161.003 548.995 130.651C542.465 124.121 535.067 118.991 527.162 115.279C541.291 118.308 554.73 125.311 565.708 136.289C596.059 166.641 596.059 215.841 565.707 246.193V246.193Z" fill="#465A61"/>
<path d="M510.756 235.871C535.404 235.871 555.384 215.89 555.384 191.243C555.384 166.595 535.404 146.614 510.756 146.614C486.108 146.614 466.127 166.595 466.127 191.243C466.127 215.89 486.108 235.871 510.756 235.871Z" fill="#FDF6EC"/>
<path d="M542.315 222.801C524.885 240.231 496.625 240.231 479.204 222.801C478.652 222.249 478.127 221.697 477.61 221.128C494.016 228.473 513.95 225.418 527.415 211.945C544.293 195.067 544.827 168.041 529.017 150.515C533.841 152.677 538.358 155.733 542.315 159.69C559.745 177.111 559.745 205.371 542.315 222.801V222.801Z" fill="#FEF1DA"/>
</g>
<g filter="url(#filter1_i)">
<path d="M450.341 512.262C446.397 535.864 441.689 586.543 454.407 600.447C467.125 614.35 489.627 617.012 499.288 616.605" stroke="#F9F9F9" stroke-width="5" stroke-linecap="round" stroke-linejoin="round"/>
</g>
<g filter="url(#filter2_i)">
<path d="M483.481 471.526C540.445 449.217 441.264 208.101 466.297 190.717" stroke="#F9F9F9" stroke-width="5" stroke-linecap="round" stroke-linejoin="round"/>
</g>
<path d="M516.758 520.775C521.827 520.333 532.315 517.805 538.958 505.05L481.123 469.551H307.758L304.065 485.983C302.377 490.786 299.857 501.895 307.758 511.863C315.762 521.959 329.296 523.321 334.523 523.449C336.135 525.374 339.094 528.01 343.377 528.315C344.236 528.378 345.972 530.027 347.51 531.489L347.531 531.509C350.1 533.953 353.294 536.99 358.016 539.071C364.271 541.829 370.767 542.343 374.345 542.38C375.889 544.205 378.741 546.556 383.952 549.617C389.757 553.029 396.271 553.741 400.713 553.741C406.193 553.741 411.626 552.635 414.556 550.924C415.922 550.126 420.391 549.515 424.34 548.974L424.356 548.972C429.148 548.318 434.577 547.573 439.952 546.106C446.885 544.212 450.717 542.357 452.784 541.04C455.499 541.667 460.739 542.687 466.17 542.687C470.554 542.687 474.284 542.019 477.255 540.693C483.941 537.716 487.728 532.129 489.597 528.465C492.365 529.154 496.441 529.936 500.623 529.936C502.258 529.936 503.817 529.814 505.25 529.575C511.998 528.451 515.277 523.895 516.758 520.775Z" fill="#914100"/>
<path d="M308.901 408.931C302.962 415.257 301.954 424.838 301.833 429.375C287.924 438.021 289.094 457.119 293.363 467.654C296.642 475.748 301.691 482.811 304.196 486.052C326.704 469.209 387.144 480.709 423.071 486.052C451.813 490.327 463.022 479.277 465.033 473.217C465.033 456.794 422.738 434.607 396.587 418.76C375.667 406.082 394.224 381.975 406.117 371.506C397.455 371.506 390.155 377.272 387.144 380.043C386.752 380.019 386.357 380.008 385.967 380.008C379.539 380.008 374.504 383.199 371.638 385.582C369.323 384.335 366.548 383.67 363.534 383.67C359.012 383.67 354.553 385.162 351.609 387.66C349.881 389.124 348.061 389.35 344.429 389.69L344.428 389.69C342.314 389.887 339.915 390.111 337.061 390.731C330.137 392.24 325.561 399.089 323.496 402.915C317.525 402.95 312.615 404.973 308.901 408.931Z" fill="#DE8843"/>
<path d="M412.054 372.635C409.968 371.881 407.78 371.501 405.548 371.501C393.62 381.96 375.011 406.043 395.991 418.709C422.216 434.54 464.632 456.705 464.632 473.112C464.632 489.52 487.322 501.898 504.637 501.898C521.951 501.898 527.594 497.686 538.594 504.973C546.404 490.02 536.415 469.579 533.852 464.799C533.875 459.649 532.412 455.456 529.49 452.321C527.075 449.73 524.196 448.453 521.951 447.827C521.593 444.828 520.588 439.912 517.985 432.295C514.2 421.226 503.868 416.554 498.089 414.758C498.516 410.315 497.59 402.997 490.246 394.284C483.125 385.838 472.386 384.065 464.632 384.065C462.057 384.065 459.846 384.264 458.283 384.461C455.697 381.667 450.053 377.271 440.151 377.271L439.284 377.283C427.494 377.584 423.729 376.845 412.054 372.635Z" fill="#F7CA63"/>
<g filter="url(#filter3_i)">
<path d="M314.178 464.094C317.629 472.587 323.837 479.947 323.899 480.019C324.788 481.067 324.968 482.546 324.355 483.774C324.306 483.869 319.69 493.34 325.972 501.252C331.557 508.285 341.894 508.831 344.93 508.831C345.363 508.831 345.626 508.819 345.662 508.817L345.74 508.823C344.739 506.721 343.666 503.813 342.912 499.974C341.747 499.4 338.339 497.455 335.7 493.166C335.451 492.763 335.577 492.235 335.982 491.988C336.382 491.739 336.91 491.864 337.159 492.268C338.929 495.143 341.116 496.874 342.534 497.781C342.003 494.229 341.759 490.009 342.051 485.048C342.08 484.576 342.493 484.208 342.957 484.243C343.43 484.269 343.789 484.676 343.763 485.148C342.986 498.37 346.178 506.206 348.161 509.721C348.414 509.952 348.64 510.213 348.819 510.513C348.835 510.538 350.335 512.959 352.388 513.107C355.597 513.336 357.866 515.489 360.27 517.773C362.237 519.64 364.469 521.757 367.525 523.101C372.287 525.197 377.495 525.423 379.511 525.423C380.247 525.423 380.698 525.397 380.746 525.391C381.704 525.325 382.635 525.65 383.332 526.299C383.768 526.701 384.084 527.203 384.263 527.758C384.582 528.177 386.011 529.772 391.021 532.711C394.794 534.923 399.225 535.387 402.28 535.387C406.468 535.387 409.892 534.487 410.988 533.85C413.365 532.46 417.233 531.934 422.127 531.268C426.128 530.72 430.664 530.101 434.956 528.932C442.459 526.887 444.675 525.117 444.709 525.117V525.121C445.216 524.543 445.893 524.194 446.619 524.051C449.221 520.984 452.113 516.023 453.685 508.167C453.777 507.702 454.232 507.402 454.692 507.495C455.156 507.588 455.457 508.04 455.364 508.504C453.874 515.949 451.268 520.929 448.74 524.219C450.28 524.607 455.021 525.695 459.795 525.695C462.681 525.695 465.022 525.304 466.75 524.535C467.897 524.026 468.906 523.372 469.792 522.649C469.796 522.297 469.878 521.944 470.104 521.641C470.75 520.778 485.537 500.457 467.566 480.812C465.495 482.264 460.924 484.745 452.742 485.984C456.412 487.779 461.953 491.912 464.645 500.923C466.142 499.704 467.077 498.58 467.098 498.554C467.399 498.188 467.94 498.135 468.304 498.435C468.669 498.735 468.725 499.274 468.425 499.641C468.314 499.776 466.931 501.432 464.787 502.978C464.723 503.042 464.652 503.091 464.57 503.134C462.645 504.481 460.15 505.705 457.401 505.705C457.117 505.705 456.827 505.693 456.538 505.666C456.067 505.621 455.719 505.201 455.765 504.73C455.81 504.259 456.213 503.928 456.7 503.957C459.09 504.193 461.369 503.199 463.182 502.002C459.744 489.577 450.621 486.794 449.085 486.415C447.457 486.564 445.743 486.678 443.873 486.717C443.555 486.724 443.24 486.726 442.926 486.726C430.605 486.726 425.428 481.588 423.356 478.227C422.735 481.17 422.291 486.893 426.584 491.565C426.905 491.915 426.882 492.456 426.533 492.778C426.369 492.928 426.161 493.003 425.951 493.003C425.721 493.003 425.491 492.91 425.322 492.726C419.401 486.282 421.411 478.326 422.109 476.181C420.014 476.401 414.724 476.363 406.879 472.138C405.648 471.476 404.392 470.767 403.122 470.045C394.183 464.992 384.943 459.755 377.388 466.682C377.041 467.001 376.496 466.981 376.178 466.629C375.857 466.28 375.882 465.738 376.231 465.419C384.699 457.654 394.939 463.445 403.967 468.555C405.226 469.268 406.472 469.972 407.693 470.63C417.11 475.701 422.632 474.379 422.684 474.365C422.902 474.308 423.14 474.338 423.342 474.456C423.539 474.573 423.683 474.766 423.738 474.989C423.843 475.412 426.609 485.374 443.838 485.004C445.618 484.967 447.248 484.859 448.799 484.718C448.917 484.681 449.038 484.667 449.165 484.686C459.292 483.706 464.606 480.779 466.666 479.331C466.602 478.851 466.713 478.35 467.048 477.962C467.237 477.743 471.631 472.458 466.754 460.908C462.062 449.796 450.844 448.008 450.372 447.938C449.79 447.852 449.291 447.474 449.052 446.938C448.989 446.795 442.553 432.593 432.633 431.566C432 431.501 431.455 431.089 431.217 430.5C431.17 430.377 426.196 418.28 414.956 418.622C414.146 418.704 413.357 418.031 413.213 417.185C413.203 417.129 412.183 411.527 405.188 405.231C398.713 399.404 389.233 397.88 382.448 398.909C380.693 400.089 379.641 401.288 379.624 401.305C379.008 402.04 378.109 402.483 377.15 402.525C376.194 402.576 375.255 402.203 374.577 401.524C373.491 400.438 371.71 399.84 369.564 399.84C367.229 399.84 364.849 400.577 363.501 401.717C360.268 404.452 356.926 404.763 353.387 405.092C351.64 405.254 349.834 405.422 347.729 405.878C343.816 406.729 340.454 412.704 339.586 414.724L339.547 414.785C338.676 418.414 337.815 424.412 339.175 431.215C339.268 431.681 338.968 432.133 338.503 432.225C338.446 432.236 338.39 432.241 338.334 432.241C337.934 432.241 337.576 431.96 337.494 431.554C336.321 425.683 336.707 420.444 337.389 416.653C336.984 416.773 336.563 416.84 336.123 416.801C331.891 416.417 328.786 417.414 326.503 419.832C321.639 424.983 322.134 434.799 322.138 434.891C322.224 436.274 321.465 437.572 320.218 438.181C310.682 442.834 310.945 456.134 314.178 464.094V464.094ZM479.542 512.713C479.593 512.73 484.856 514.51 490.068 514.51C491.129 514.51 492.118 514.434 493.005 514.288C497.338 513.565 498.406 509.635 498.505 509.226C498.645 508.584 498.959 508.02 499.391 507.575C496.294 504.971 493.353 500.304 494.13 492.173C493.474 492.322 492.767 492.418 491.98 492.418C491.117 492.418 490.171 492.314 489.139 492.075C488.679 491.969 488.391 491.509 488.498 491.048C488.605 490.586 489.061 490.296 489.526 490.406C496.121 491.93 498.312 487.108 498.403 486.902C498.589 486.47 499.091 486.274 499.526 486.455C499.96 486.641 500.162 487.142 499.979 487.577C499.96 487.617 498.808 490.178 495.903 491.556C494.865 499.914 497.901 504.368 500.879 506.67C501.28 506.552 501.709 506.503 502.153 506.539C502.205 506.543 502.355 506.55 502.589 506.55H502.591C504.883 506.55 512.744 505.816 517.672 496.368C523.18 485.809 514.554 469.333 513.319 467.08C512.172 470.036 510.423 473.121 507.754 475.458C507.591 475.599 507.39 475.67 507.188 475.67C506.95 475.67 506.714 475.57 506.543 475.378C506.233 475.021 506.27 474.478 506.623 474.168C509.971 471.238 511.755 466.896 512.707 463.353C512.464 458.891 510.243 457.01 508.29 456.224C508.222 456.229 508.154 456.241 508.085 456.229C506.521 455.942 502.206 455.609 500.149 457.154C501.479 459.456 500.873 461.518 500.862 461.55C500.748 461.914 500.41 462.147 500.047 462.147C499.96 462.147 499.874 462.132 499.788 462.106C499.336 461.962 499.087 461.48 499.229 461.029C499.241 460.995 500.279 457.517 495.102 455.012C494.677 454.808 494.498 454.294 494.703 453.869C494.908 453.442 495.42 453.266 495.848 453.47C497.303 454.174 498.341 454.966 499.104 455.772C500.211 454.944 501.677 454.54 503.123 454.372C502.566 453.64 502.307 452.77 502.449 451.852C502.453 451.817 502.692 448.196 499.182 437.921C495.914 428.349 483.714 426.217 483.598 426.199C483.025 426.108 482.505 425.85 482.063 425.492C477.741 426.393 471.96 428.489 467.845 433.365C467.675 433.567 467.435 433.671 467.19 433.671C466.995 433.671 466.798 433.604 466.637 433.469C466.277 433.163 466.228 432.622 466.534 432.261C470.766 427.245 476.483 424.988 480.972 423.961C480.666 423.121 480.678 422.175 481.04 421.353C481.143 421.119 483.477 415.51 476.09 406.737C471.541 401.336 464.212 400.201 458.864 400.201C455.228 400.201 452.579 400.736 452.561 400.741C451.151 401.036 449.681 400.374 448.921 399.156C448.795 398.956 445.746 394.234 437.387 394.234L436.803 394.241C435.488 394.275 434.275 394.294 433.141 394.294C429.369 394.294 426.385 394.061 423.559 393.582C427.807 396.101 432.341 399.822 435.494 405.109C439.397 404.197 442.79 405.359 443.002 405.436C443.448 405.595 443.68 406.085 443.522 406.529C443.361 406.975 442.874 407.208 442.424 407.048C442.238 406.984 439.251 405.972 435.841 406.79C435.778 406.869 435.702 406.94 435.607 406.992C435.476 407.066 435.332 407.1 435.192 407.1C435.114 407.1 435.046 407.061 434.972 407.041C433.486 407.534 431.959 408.395 430.578 409.876C430.411 410.056 430.181 410.148 429.953 410.148C429.744 410.148 429.534 410.072 429.367 409.917C429.022 409.594 429.003 409.052 429.326 408.707C430.738 407.194 432.278 406.225 433.796 405.626C426.658 394.106 412.007 390.542 411.855 390.506C411.604 390.447 411.413 390.281 411.3 390.07C410.995 389.961 410.722 389.868 410.408 389.753C409.327 389.363 408.193 389.166 407.029 389.166C400.246 389.166 394.151 395.646 394.095 395.706C394.017 395.791 393.917 395.853 393.83 395.931C398.555 396.939 403.414 399.022 407.481 402.682C413.335 407.949 415.482 412.855 416.23 415.203C425.717 415.593 431.079 422.995 433.256 426.89C434.479 425.113 437.167 422.249 442.326 421.027C442.788 420.923 443.248 421.205 443.357 421.664C443.468 422.124 443.182 422.587 442.722 422.695C437.448 423.945 435.13 427.026 434.339 428.378C444.031 430.306 450.218 441.527 451.796 444.722C454.963 445.416 465.225 448.475 469.913 459.575C474.311 469.995 471.988 476.361 470.511 478.936C481.428 491.186 480.789 503.83 478.148 512.543C478.614 512.505 479.089 512.559 479.542 512.713V512.713ZM315.278 433.086C315.385 429.106 316.272 420.699 321.497 415.148C324.764 411.675 329.084 409.899 334.337 409.868C336.154 406.511 340.18 400.502 346.272 399.178C348.784 398.633 350.894 398.437 352.754 398.264C355.95 397.966 357.551 397.768 359.072 396.482C361.662 394.291 365.585 392.982 369.564 392.982C372.215 392.982 374.657 393.566 376.694 394.66C379.216 392.568 383.645 389.769 389.301 389.769C389.644 389.769 389.992 389.778 390.336 389.799C392.986 387.367 399.408 382.308 407.029 382.308C408.988 382.308 410.907 382.643 412.737 383.304C422.98 387.003 426.283 387.651 436.626 387.387L437.387 387.377C446.074 387.377 451.026 391.237 453.294 393.691C454.665 393.519 456.605 393.344 458.864 393.344C465.667 393.344 475.088 394.901 481.336 402.319C487.779 409.972 488.591 416.399 488.216 420.303C493.287 421.88 502.351 425.983 505.672 435.706C507.955 442.395 508.837 446.713 509.151 449.348C511.12 449.898 513.646 451.019 515.765 453.295C518.328 456.049 519.612 459.731 519.592 464.255C521.84 468.453 530.604 486.407 523.752 499.541C517.915 510.727 508.699 512.944 504.246 513.332C502.944 516.068 500.063 520.063 494.133 521.05C492.874 521.259 491.505 521.366 490.068 521.366C486.394 521.366 482.811 520.68 480.38 520.076C478.738 523.29 475.41 528.19 469.535 530.8C466.925 531.963 463.647 532.549 459.795 532.549C455.023 532.549 450.419 531.655 448.033 531.104C446.216 532.259 442.849 533.887 436.758 535.548C432.035 536.834 427.265 537.488 423.053 538.061C419.58 538.535 415.645 539.072 414.443 539.773C411.868 541.273 407.095 542.244 402.28 542.244C398.376 542.244 392.653 541.619 387.552 538.626C382.973 535.942 380.467 533.88 379.111 532.28C375.967 532.247 370.259 531.797 364.763 529.378C360.613 527.553 357.806 524.889 355.549 522.745C354.193 521.459 352.658 520 351.899 519.944C348.136 519.677 345.536 517.365 344.12 515.677C339.527 515.565 327.635 514.37 320.602 505.516C313.66 496.773 315.873 487.03 317.357 482.819C315.153 479.975 310.711 473.778 307.825 466.675C304.07 457.431 303.041 440.673 315.278 433.086" fill="#F9F9F9"/>
<path d="M438.524 448.243C438.345 448.243 438.164 448.187 438.009 448.072C437.954 448.028 432.187 443.773 425.8 445.546C425.526 445.623 425.226 445.554 425.01 445.367C424.792 445.177 424.683 444.893 424.722 444.608C424.78 444.165 426.02 433.711 416.045 428.724C415.622 428.513 415.449 427.998 415.663 427.574C415.873 427.152 416.389 426.979 416.81 427.191C425.812 431.691 426.541 440.433 426.49 443.629C433.17 442.383 438.788 446.513 439.04 446.7C439.417 446.984 439.494 447.521 439.21 447.902C439.041 448.126 438.784 448.243 438.524 448.243Z" fill="#F9F9F9"/>
<path d="M367.482 476.085C367.833 476.402 367.862 476.944 367.544 477.296C364.002 481.215 363.432 485.385 365.942 489.036C369.383 494.048 377.509 496.695 382.98 494.587C393.363 490.593 402.082 491.9 405.736 497.994C408.895 503.257 417.557 504.048 417.644 504.056C418.072 504.092 418.406 504.436 418.429 504.862C418.433 504.925 418.873 511.113 427.305 513.222C435.845 515.348 441.495 509.87 441.729 509.636C442.064 509.303 442.607 509.305 442.942 509.639C443.275 509.974 443.275 510.516 442.942 510.85C442.722 511.071 438.266 515.428 431.227 515.428C429.874 515.428 428.424 515.268 426.891 514.883C418.926 512.895 417.19 507.633 416.818 505.687C414.55 505.38 407.355 504.023 404.267 498.875C401.071 493.543 393.145 492.513 383.597 496.187C377.349 498.591 368.437 495.701 364.529 490.006C362.789 487.475 360.706 482.309 366.271 476.145C366.59 475.796 367.13 475.768 367.482 476.085" fill="#F9F9F9"/>
<path d="M411.49 489.294C411.365 489.359 411.229 489.39 411.095 489.39C410.785 489.39 410.487 489.222 410.335 488.93C410.286 488.833 405.419 479.787 393.353 478.822C393.661 480.417 393.718 482.216 393.262 484.158C393.169 484.554 392.818 484.819 392.43 484.819C392.364 484.819 392.296 484.813 392.232 484.796C391.77 484.688 391.484 484.227 391.593 483.765C392.045 481.847 391.91 480.065 391.521 478.526C391.318 478.363 391.182 478.123 391.191 477.843C391.195 477.754 391.221 477.673 391.248 477.593C390.342 474.891 388.776 473.142 388.751 473.115C388.432 472.765 388.455 472.222 388.803 471.904C389.147 471.585 389.69 471.605 390.011 471.952C390.132 472.083 391.887 474.035 392.897 477.071C406.329 477.841 411.633 487.71 411.856 488.139C412.074 488.56 411.91 489.076 411.49 489.294" fill="#F9F9F9"/>
<path d="M377.346 421.637C375.697 421.36 373.854 421.539 371.891 422.617C371.478 422.845 370.957 422.693 370.726 422.279C370.5 421.864 370.65 421.343 371.065 421.115C379.233 416.622 385.809 425.07 385.873 425.157C386.161 425.533 386.088 426.069 385.712 426.356C385.557 426.475 385.374 426.53 385.193 426.53C384.934 426.53 384.679 426.416 384.51 426.195C384.368 426.009 382.231 423.285 379.015 422.078C374.958 430.823 381.004 436.805 382.136 437.813C382.831 437.429 383.598 437.052 384.488 436.692C395.461 432.246 403.131 442.567 408.211 449.396C409.989 451.787 411.526 453.853 412.727 454.685C417.322 457.866 426.838 456.089 426.932 456.072C427.385 455.982 427.82 456.268 427.93 456.713C427.954 456.816 430.552 467.164 439.354 467.867C448.065 468.557 450.206 463.313 450.292 463.084C450.461 462.644 450.952 462.426 451.396 462.585C451.84 462.752 452.064 463.245 451.897 463.689C451.801 463.947 449.559 469.646 440.916 469.646C440.375 469.646 439.808 469.625 439.219 469.577C430.718 468.897 427.34 460.497 426.488 457.884C424.002 458.266 416.167 459.151 411.751 456.094C410.318 455.102 408.781 453.036 406.834 450.419C401.784 443.632 394.863 434.33 385.133 438.28C380.185 440.286 378.069 442.996 379.181 445.911C380.31 448.87 384.652 451.293 387.191 450.393C387.635 450.228 388.126 450.464 388.284 450.912C388.444 451.356 388.212 451.848 387.766 452.006C384.307 453.246 379.066 450.423 377.578 446.523C377.015 445.042 376.439 441.738 380.639 438.742C378.803 436.912 373.419 430.487 377.346 421.637" fill="#F9F9F9"/>
<path d="M378.792 513.962C382.743 514.325 387.502 512.51 387.55 512.493C387.907 512.353 388.312 512.473 388.542 512.777C393.898 519.915 401.449 519.66 401.533 519.672C402.015 519.641 402.405 520.018 402.427 520.49C402.45 520.963 402.084 521.362 401.614 521.387C401.581 521.387 401.492 521.391 401.344 521.391C399.879 521.391 392.912 521.023 387.56 514.308C386.076 514.812 382.142 515.977 378.638 515.668C378.165 515.626 377.82 515.208 377.861 514.738C377.904 514.267 378.34 513.915 378.792 513.962Z" fill="#F9F9F9"/>
<path d="M350.069 437.429C348.372 436.049 345.636 433.545 344.058 430.652C343.831 430.236 343.984 429.716 344.399 429.489C344.816 429.264 345.336 429.416 345.562 429.831C347.72 433.789 352.488 437.122 352.535 437.156C352.825 437.357 352.963 437.713 352.883 438.055C352.804 438.398 352.523 438.656 352.176 438.709C348.226 439.301 343.867 442.272 341.069 446.28C338.909 449.374 336.627 454.494 338.032 461.306C340.06 471.16 348.677 475.063 352.032 476.228C351.843 472.721 351.055 470.165 351.042 470.12C350.897 469.669 351.148 469.188 351.598 469.044C352.044 468.907 352.529 469.15 352.673 469.6C352.741 469.809 353.671 472.836 353.785 476.883C353.986 477.084 354.095 477.372 354.025 477.67C353.99 477.822 353.892 477.932 353.793 478.038C353.761 480.572 353.38 483.409 352.272 486.178C352.138 486.515 351.816 486.717 351.477 486.717C351.372 486.717 351.263 486.697 351.159 486.655C350.718 486.478 350.505 485.981 350.681 485.541C351.688 483.021 352.034 480.399 352.062 478.041C348.931 477.047 338.683 472.976 336.352 461.653C334.825 454.243 337.31 448.671 339.663 445.298C342.337 441.469 346.197 438.581 350.069 437.429" fill="#F9F9F9"/>
<path d="M344.103 458.84C343.67 458.66 343.466 458.169 343.641 457.734C343.817 457.298 344.321 457.087 344.75 457.254C344.795 457.27 349.134 458.827 358.044 452.769C361.743 450.255 365.04 449.353 367.843 450.08C370.918 450.882 372.192 453.37 372.245 453.476C372.457 453.9 372.284 454.415 371.863 454.626C371.431 454.842 370.924 454.667 370.712 454.243C370.704 454.224 369.74 452.347 367.411 451.74C365.099 451.136 362.277 451.962 359.007 454.187C352.881 458.353 348.666 459.163 346.319 459.163C344.915 459.163 344.179 458.872 344.103 458.84Z" fill="#F9F9F9"/>
<path d="M358.237 416.614C358.198 417.018 357.869 417.337 357.466 417.381C357.425 417.387 353.265 417.923 349.389 425.673C349.239 425.975 348.935 426.148 348.621 426.148C348.493 426.148 348.362 426.119 348.238 426.058C347.815 425.845 347.644 425.331 347.856 424.908C351.299 418.022 355.078 416.263 356.615 415.821C357.236 412.002 359.978 407.857 360.099 407.673C360.36 407.277 360.893 407.172 361.287 407.435C361.681 407.698 361.789 408.23 361.526 408.624C361.497 408.667 358.592 413.057 358.237 416.614" fill="#F9F9F9"/>
<path d="M399.672 419.962C399.549 420.024 399.417 420.053 399.288 420.053C398.973 420.053 398.673 419.881 398.521 419.583C398.361 419.264 394.452 411.779 384.938 413.188C384.461 413.244 384.034 412.933 383.964 412.467C383.894 411.998 384.219 411.561 384.686 411.491C395.475 409.902 400.009 418.724 400.055 418.814C400.264 419.237 400.093 419.749 399.672 419.962" fill="#F9F9F9"/>
<path d="M364.444 495.398C364.913 495.456 365.246 495.885 365.186 496.355C365.174 496.462 363.92 507.174 371.504 514.486C371.843 514.816 371.854 515.359 371.525 515.698C371.356 515.873 371.132 515.959 370.906 515.959C370.692 515.959 370.481 515.881 370.312 515.72C362.097 507.799 363.425 496.611 363.486 496.138C363.546 495.67 363.968 495.333 364.444 495.398Z" fill="#F9F9F9"/>
<path d="M320.36 459.92C321.373 460.312 322.244 460.774 323.054 461.254C319.831 447.407 326.213 440.956 326.5 440.675C326.838 440.347 327.38 440.356 327.713 440.694C328.042 441.033 328.035 441.576 327.695 441.907C327.629 441.972 321.137 448.513 325.202 462.751C327.709 464.82 328.762 466.888 328.823 467.016C329.026 467.443 328.847 467.955 328.418 468.159C328.299 468.216 328.173 468.243 328.05 468.243C327.729 468.243 327.424 468.064 327.275 467.756C327.257 467.715 325.263 463.658 319.741 461.519C319.299 461.348 319.079 460.852 319.25 460.411C319.422 459.969 319.913 459.753 320.36 459.92" fill="#F9F9F9"/>
<path d="M476.441 447.536C464.825 440.069 458.283 435.447 458.908 427.322C459.243 422.969 457.712 418.744 455.095 416.808C453.471 415.605 451.536 415.391 449.503 416.186C449.064 416.361 448.564 416.141 448.393 415.7C448.219 415.259 448.439 414.761 448.878 414.589C451.488 413.568 453.994 413.86 456.115 415.43C459.234 417.739 461.002 422.458 460.616 427.453C460.094 434.246 465.32 438.35 477.368 446.095C489.788 454.079 485.474 467.246 485.43 467.377C485.307 467.734 484.976 467.959 484.621 467.959C484.528 467.959 484.434 467.943 484.343 467.913C483.895 467.762 483.655 467.274 483.807 466.825C483.971 466.337 487.716 454.784 476.441 447.536" fill="#F9F9F9"/>
<path d="M464.924 413.29C464.912 413.232 463.539 407.453 458.061 405.628C457.611 405.478 457.369 404.993 457.519 404.544C457.671 404.094 458.15 403.856 458.604 404.001C463.896 405.766 465.863 410.538 466.418 412.276C469.554 412.587 471.495 415.034 471.581 415.145C471.87 415.519 471.803 416.055 471.431 416.346C471.274 416.468 471.09 416.527 470.903 416.527C470.65 416.527 470.397 416.415 470.229 416.199C470.21 416.177 468.429 413.958 465.761 413.958C465.36 413.958 465.012 413.682 464.924 413.29" fill="#F9F9F9"/>
<path d="M492.855 471.559C498.136 475.599 496.026 482.16 496.004 482.226C495.884 482.584 495.549 482.812 495.192 482.812C495.103 482.812 495.01 482.797 494.922 482.767C494.472 482.619 494.23 482.135 494.377 481.686C494.45 481.464 496.112 476.208 491.813 472.922C491.436 472.633 491.365 472.095 491.652 471.719C491.938 471.347 492.476 471.272 492.855 471.559Z" fill="#F9F9F9"/>
</g>
<g filter="url(#filter4_i)">
<path d="M352.256 480.686C331.314 473.454 321.66 417.407 321.66 394.46C321.659 321.46 336.262 225.485 361.296 245.651" stroke="#F9F9F9" stroke-width="5" stroke-linecap="round" stroke-linejoin="round"/>
</g>
<rect x="138.902" y="348.278" width="407.488" height="31.9871" rx="15.9935" transform="rotate(-25.1005 138.902 348.278)" fill="#C4C4C4"/>
<g filter="url(#filter5_d)">
<path d="M270.719 496.642L294.627 472.734C296.974 470.388 296.974 466.584 294.627 464.237L277.797 447.407C275.79 445.4 275.478 442.271 277.016 439.886C285.618 426.542 291.539 411.974 294.786 396.944C295.386 394.166 297.819 392.172 300.66 392.172H324.478C327.797 392.172 330.487 389.482 330.487 386.164V352.353C330.487 349.034 327.797 346.344 324.478 346.344H300.66C297.819 346.344 295.386 344.35 294.786 341.573C291.539 326.542 285.618 311.974 277.016 298.631C275.478 296.246 275.79 293.117 277.797 291.109L294.627 274.279C296.974 271.933 296.974 268.129 294.627 265.782L270.719 241.874C268.373 239.528 264.569 239.528 262.222 241.874L245.392 258.704C243.385 260.712 240.256 261.024 237.87 259.486C224.527 250.883 209.959 244.962 194.929 241.715C192.151 241.115 190.157 238.683 190.157 235.841V212.023C190.157 208.705 187.467 206.015 184.149 206.015H150.338C147.019 206.015 144.329 208.705 144.329 212.023V235.841C144.329 238.683 142.335 241.115 139.558 241.715C124.527 244.962 109.959 250.883 96.6162 259.486C94.2305 261.024 91.1017 260.712 89.0943 258.704L72.2644 241.874C69.9178 239.528 66.114 239.528 63.7674 241.874L39.8594 265.782C37.5128 268.129 37.5128 271.933 39.8594 274.279L56.6893 291.109C58.6967 293.117 59.0087 296.246 57.4707 298.631C48.8683 311.974 42.9474 326.543 39.7004 341.574C39.1002 344.351 36.6677 346.345 33.8263 346.345H10.0084C6.69007 346.345 4 349.035 4 352.354V386.165C4 389.483 6.69007 392.173 10.0084 392.173H33.8263C36.6677 392.173 39.1002 394.168 39.7004 396.945C42.9474 411.976 48.8683 426.544 57.4707 439.886C59.0087 442.272 58.6967 445.401 56.6893 447.408L39.8594 464.238C37.5128 466.585 37.5128 470.389 39.8594 472.735L63.7674 496.643C66.114 498.99 69.9178 498.99 72.2644 496.643L89.0943 479.813C91.1017 477.806 94.2305 477.494 96.6162 479.032C109.959 487.634 124.528 493.555 139.558 496.802C142.335 497.402 144.329 499.835 144.329 502.676V526.494C144.329 529.812 147.019 532.503 150.338 532.503H184.149C187.467 532.503 190.157 529.812 190.157 526.494V502.676C190.157 499.835 192.152 497.402 194.929 496.802C209.96 493.555 224.528 487.634 237.871 479.032C240.257 477.494 243.386 477.806 245.393 479.813L262.223 496.643C264.569 498.989 268.373 498.989 270.719 496.642V496.642Z" fill="#9FACBA"/>
<path d="M277.013 439.887C275.481 442.269 275.787 445.403 277.801 447.407L294.627 464.234C296.974 466.58 296.974 470.388 294.627 472.734L270.718 496.643C268.372 498.989 264.564 498.989 262.218 496.643L256.431 490.857L275.656 471.623C278.003 469.277 278.003 465.468 275.656 463.123L258.831 446.296C256.826 444.283 256.51 441.157 258.052 438.768C266.648 425.426 272.575 413.668 275.814 398.637C276.418 395.862 278.852 393.865 281.689 393.865H296.493C295.652 394.68 295.048 395.738 294.785 396.947C291.537 411.978 285.619 426.546 277.013 439.887V439.887Z" fill="#8D9CA8"/>
<path d="M297.193 345.225H281.689C278.852 345.225 276.418 343.238 275.814 340.453C272.575 325.421 266.648 310.854 258.052 297.512C256.511 295.131 256.826 291.997 258.831 289.992L275.656 273.157C278.003 270.811 278.003 267.012 275.656 264.665L257.543 246.552L262.219 241.869C264.565 239.522 268.373 239.522 270.719 241.869L294.628 265.777C296.975 268.123 296.975 271.931 294.628 274.278L277.802 291.104C275.789 293.117 275.482 296.242 277.014 298.632C285.62 311.974 291.537 326.541 294.786 341.573C295.118 343.097 295.993 344.375 297.193 345.225V345.225Z" fill="#8D9CA8"/>
<path d="M330.486 352.351V386.161C330.486 389.479 327.798 392.175 324.48 392.175H309.676C310.814 391.089 311.514 389.557 311.514 387.858V351.239C311.514 349.226 310.516 347.431 308.993 346.345H324.48C327.798 346.345 330.486 349.033 330.486 352.351V352.351Z" fill="#8D9CA8"/>
<path d="M167.242 446.97C210.162 446.97 244.955 412.177 244.955 369.258C244.955 326.338 210.162 291.545 167.242 291.545C124.323 291.545 89.5297 326.338 89.5297 369.258C89.5297 412.177 124.323 446.97 167.242 446.97Z" fill="#596C76"/>
<path d="M222.193 424.208C198.372 448.029 162.935 453.159 134.115 439.58C159.047 444.947 186.108 437.944 205.482 418.57C235.833 388.218 235.833 339.018 205.482 308.666C198.951 302.136 191.554 297.006 183.648 293.294C197.778 296.323 211.216 303.326 222.194 314.304C252.545 344.656 252.545 393.856 222.193 424.208V424.208Z" fill="#465A61"/>
<path d="M167.243 413.886C191.89 413.886 211.871 393.905 211.871 369.258C211.871 344.61 191.89 324.629 167.243 324.629C142.595 324.629 122.614 344.61 122.614 369.258C122.614 393.905 142.595 413.886 167.243 413.886Z" fill="#FDF6EC"/>
<path d="M198.801 400.816C181.371 418.246 153.112 418.246 135.69 400.816C135.138 400.264 134.614 399.712 134.097 399.143C150.503 406.488 170.437 403.433 183.902 389.96C200.78 373.082 201.314 346.056 185.503 328.53C190.327 330.692 194.845 333.748 198.801 337.705C216.232 355.126 216.232 383.386 198.801 400.816V400.816Z" fill="#FEF1DA"/>
</g>
<g clip-path="url(#clip0)" filter="url(#filter6_i)">
<path d="M163.1 461.807C210.119 461.807 248.235 420.414 248.235 369.352C248.235 318.291 210.119 276.897 163.1 276.897C116.08 276.897 77.964 318.291 77.964 369.352C77.964 420.414 116.08 461.807 163.1 461.807Z" fill="#8DC8D3"/>
<path d="M163.1 276.897C161.58 276.897 160.07 276.942 158.569 277.028C203.482 279.585 239.175 319.941 239.175 369.352C239.175 418.763 203.482 459.119 158.569 461.677C160.07 461.762 161.58 461.807 163.1 461.807C210.119 461.807 248.235 420.414 248.235 369.352C248.235 318.291 210.119 276.897 163.1 276.897V276.897Z" fill="#83B1BB"/>
<path d="M163.1 441.397C199.739 441.397 229.441 409.142 229.441 369.352C229.441 329.563 199.739 297.307 163.1 297.307C126.46 297.307 96.758 329.563 96.758 369.352C96.758 409.142 126.46 441.397 163.1 441.397Z" fill="#F4FBFF"/>
<path d="M163.1 297.307C161.262 297.307 159.443 297.392 157.644 297.551C191.731 300.564 218.53 331.558 218.53 369.352C218.53 407.146 191.731 438.14 157.644 441.154C159.443 441.313 161.262 441.398 163.1 441.398C199.739 441.398 229.441 409.142 229.441 369.353C229.441 329.563 199.739 297.307 163.1 297.307V297.307Z" fill="#DAF1F4"/>
<path d="M163.1 319.481C161.681 319.481 160.53 318.232 160.53 316.691V312.595C160.53 311.054 161.681 309.805 163.1 309.805C164.519 309.805 165.669 311.054 165.669 312.595V316.691C165.669 318.232 164.519 319.481 163.1 319.481V319.481Z" fill="#2B4D66"/>
<path d="M197.249 334.968C196.592 334.968 195.934 334.696 195.432 334.151C194.429 333.061 194.429 331.295 195.433 330.205L198.099 327.309C199.103 326.219 200.73 326.219 201.733 327.309C202.737 328.399 202.737 330.165 201.733 331.255L199.066 334.151C198.564 334.696 197.907 334.968 197.249 334.968Z" fill="#2B4D66"/>
<path d="M215.084 372.143H211.313C209.893 372.143 208.743 370.893 208.743 369.352C208.743 367.811 209.894 366.562 211.313 366.562H215.084C216.503 366.562 217.653 367.811 217.653 369.352C217.653 370.893 216.503 372.143 215.084 372.143Z" fill="#2B4D66"/>
<path d="M199.718 412.124C199.06 412.124 198.403 411.852 197.901 411.307L195.234 408.411C194.231 407.321 194.231 405.555 195.234 404.465C196.238 403.376 197.865 403.376 198.869 404.465L201.535 407.36C202.538 408.45 202.538 410.217 201.535 411.307C201.033 411.852 200.375 412.124 199.718 412.124V412.124Z" fill="#2B4D66"/>
<path d="M162.82 428.597C161.401 428.597 160.25 427.347 160.25 425.806V421.711C160.25 420.169 161.401 418.921 162.82 418.921C164.239 418.921 165.389 420.17 165.389 421.711V425.806C165.389 427.347 164.239 428.597 162.82 428.597V428.597Z" fill="#2B4D66"/>
<path d="M126.003 411.909C125.346 411.909 124.688 411.637 124.186 411.092C123.183 410.002 123.183 408.235 124.186 407.145L126.853 404.25C127.857 403.16 129.483 403.16 130.487 404.25C131.49 405.339 131.49 407.106 130.487 408.196L127.82 411.092C127.318 411.637 126.661 411.909 126.003 411.909V411.909Z" fill="#2B4D66"/>
<path d="M114.607 371.839H110.835C109.416 371.839 108.266 370.59 108.266 369.049C108.266 367.508 109.416 366.258 110.835 366.258H114.607C116.026 366.258 117.176 367.508 117.176 369.049C117.176 370.59 116.026 371.839 114.607 371.839Z" fill="#2B4D66"/>
<path d="M128.868 334.753C128.211 334.753 127.553 334.481 127.051 333.936L124.385 331.04C123.381 329.95 123.381 328.184 124.384 327.094C125.388 326.004 127.014 326.004 128.018 327.094L130.685 329.99C131.688 331.079 131.689 332.846 130.685 333.936C130.183 334.481 129.526 334.753 128.868 334.753Z" fill="#2B4D66"/>
<path d="M163.1 372.143H141.277C139.858 372.143 138.708 370.893 138.708 369.352C138.708 367.811 139.858 366.562 141.277 366.562H160.53V331.062C160.53 329.521 161.68 328.271 163.099 328.271C164.518 328.271 165.669 329.521 165.669 331.062V369.352C165.669 370.893 164.519 372.143 163.1 372.143Z" fill="#2B4D66"/>
<path d="M189.46 386.865C189.065 386.865 188.664 386.765 188.287 386.555L161.925 371.833C160.663 371.129 160.166 369.446 160.815 368.076C161.463 366.705 163.012 366.165 164.275 366.87L190.638 381.592C191.9 382.297 192.397 383.979 191.748 385.349C191.292 386.312 190.393 386.865 189.46 386.865V386.865Z" fill="#DA4A54"/>
<path d="M163.1 376.8C166.887 376.8 169.958 373.465 169.958 369.352C169.958 365.239 166.887 361.905 163.1 361.905C159.312 361.905 156.241 365.239 156.241 369.352C156.241 373.465 159.312 376.8 163.1 376.8Z" fill="#365E7D"/>
</g>
<g filter="url(#filter7_i)">
<path d="M464.906 191.811C470.332 184.965 489.83 187.155 491.061 198.656C492.291 210.158 489.009 215.772 487.214 217.141" stroke="#F9F9F9" stroke-width="5" stroke-linecap="round" stroke-linejoin="round"/>
</g>
<g filter="url(#filter8_i)">
<path d="M348.084 246.049C353.51 239.203 373.007 241.394 374.238 252.895C375.469 264.397 372.187 270.011 370.392 271.38" stroke="#F9F9F9" stroke-width="5" stroke-linecap="round" stroke-linejoin="round"/>
</g>
<g clip-path="url(#clip1)">
<path d="M508.376 616.168C508.381 612.207 508.268 605.517 506.083 604.016C500.517 600.194 490.882 598.953 484.029 598.216C474.362 597.175 471.094 586.683 466.885 586.683C462.676 586.683 464.852 599.355 454.352 599.355C446.422 599.355 446.034 592.688 445.505 592.159C443.527 591.954 441.764 592.159 441.764 592.159C441.764 592.159 437.145 601.001 438.691 616.168H508.376Z" fill="#8DC8D3"/>
<path d="M506.083 604.016C500.517 600.194 490.882 598.953 484.029 598.216C474.362 597.175 471.094 586.683 466.885 586.683C466.081 586.683 465.51 587.147 465.039 587.895C468.306 590.685 471.949 597.395 479.58 598.216C486.432 598.953 496.067 600.194 501.634 604.016C503.818 605.517 503.932 612.207 503.927 616.168H508.376C508.381 612.207 508.268 605.517 506.083 604.016V604.016Z" fill="#B8FFFB"/>
<path d="M454.352 603.8C463.779 603.8 466.56 596.34 467.891 592.576C467.891 592.576 469.642 588.002 467.977 586.914C467.624 586.769 467.27 586.688 466.908 586.684C466.892 586.684 466.874 586.684 466.857 586.685C462.686 586.741 464.828 599.355 454.352 599.355C446.422 599.355 446.034 592.688 445.505 592.159C443.528 591.955 441.765 592.159 441.765 592.159C441.764 602.346 451.031 603.8 454.352 603.8V603.8Z" fill="#FFD54F"/>
<path d="M467.977 586.914C467.624 586.769 467.269 586.687 466.908 586.684C466.892 586.684 466.874 586.684 466.857 586.685C465.52 586.703 464.831 588.013 464.168 589.784C463.966 591.204 463.442 592.576 463.442 592.576C462.227 596.013 459.801 602.53 452.212 603.637C453.047 603.758 453.786 603.8 454.352 603.8C463.779 603.8 466.56 596.34 467.891 592.576C467.891 592.576 469.642 588.002 467.977 586.914Z" fill="#FFC328"/>
<path d="M464.538 607.688H438.424C438.317 610.236 438.376 613.07 438.691 616.167H483.928C483.928 616.167 482.401 614.72 480.156 612.989C475.684 609.542 470.186 607.688 464.538 607.688V607.688Z" fill="#546E7A"/>
<path d="M480.156 612.989C475.684 609.542 470.186 607.688 464.538 607.688H460.089C465.737 607.688 471.235 609.542 475.707 612.989C477.952 614.72 479.479 616.167 479.479 616.167H483.928C483.928 616.167 482.401 614.72 480.156 612.989V612.989Z" fill="#455A64"/>
<path d="M507.924 608.299L498.48 608.851C495.822 609.006 493.441 610.544 492.208 612.901L490.5 616.167H508.376C508.379 613.939 508.344 610.846 507.924 608.299Z" fill="#546E7A"/>
<path d="M507.924 608.299L503.514 608.557C503.896 611.052 503.93 614.013 503.927 616.167H508.376C508.379 613.939 508.344 610.846 507.924 608.299V608.299Z" fill="#455A64"/>
<path d="M471.208 596.476L471.208 596.476C470.219 595.745 470.011 594.352 470.742 593.364L473.388 589.791C474.118 588.805 475.509 588.597 476.496 589.326L476.497 589.327C477.485 590.057 477.694 591.45 476.962 592.438L474.317 596.011C473.586 596.997 472.195 597.205 471.208 596.476V596.476Z" fill="#E4E4E4"/>
<path d="M477.782 600.451L477.781 600.451C476.716 599.837 476.352 598.476 476.966 597.412L479.191 593.564C479.805 592.501 481.164 592.137 482.227 592.75L482.228 592.751C483.292 593.365 483.657 594.725 483.042 595.789L480.818 599.638C480.204 600.7 478.845 601.064 477.782 600.451Z" fill="#E4E4E4"/>
<path d="M485.433 603.854L485.432 603.854C484.266 603.467 483.635 602.207 484.022 601.042L485.425 596.825C485.812 595.66 487.071 595.03 488.236 595.417L488.237 595.417C489.403 595.805 490.034 597.064 489.647 598.23L488.244 602.446C487.856 603.611 486.598 604.241 485.433 603.854Z" fill="#E4E4E4"/>
<path d="M510.23 616.523V621.312C510.23 621.826 509.814 622.242 509.3 622.242H437.451C436.937 622.242 436.521 621.826 436.521 621.312V616.523C436.521 616.009 436.937 615.593 437.451 615.593H509.3C509.814 615.593 510.23 616.009 510.23 616.523Z" fill="#F3F3F3"/>
<path d="M509.34 615.592H504.891C505.383 615.592 505.781 616.028 505.781 616.565V621.269C505.781 621.806 505.383 622.242 504.891 622.242H509.34C509.832 622.242 510.23 621.807 510.23 621.269V616.565C510.23 616.028 509.832 615.592 509.34 615.592V615.592Z" fill="#E4E4E4"/>
<path d="M442.051 619.575V622.242H439.891V619.575C439.891 618.979 440.373 618.495 440.971 618.495C441.567 618.495 442.051 618.979 442.051 619.575Z" fill="#546E7A"/>
<path d="M450.151 619.575V622.242H447.992V619.575C447.992 618.979 448.476 618.495 449.072 618.495C449.668 618.495 450.151 618.979 450.151 619.575Z" fill="#546E7A"/>
<path d="M458.252 619.575V622.242H456.093V619.575C456.093 618.979 456.576 618.495 457.173 618.495C457.769 618.495 458.252 618.979 458.252 619.575Z" fill="#546E7A"/>
<path d="M466.355 619.575V622.242H464.195V619.575C464.195 618.979 464.677 618.495 465.275 618.495C465.871 618.495 466.355 618.979 466.355 619.575Z" fill="#546E7A"/>
<path d="M474.455 619.575V622.242H472.296V619.575C472.296 618.979 472.78 618.495 473.376 618.495C473.972 618.495 474.455 618.979 474.455 619.575Z" fill="#546E7A"/>
<path d="M482.556 619.575V622.242H480.397V619.575C480.397 618.979 480.88 618.495 481.476 618.495C482.074 618.495 482.556 618.979 482.556 619.575Z" fill="#546E7A"/>
<path d="M490.658 619.575V622.242H488.499V619.575C488.499 618.979 488.981 618.495 489.579 618.495C490.175 618.495 490.658 618.979 490.658 619.575Z" fill="#546E7A"/>
<path d="M498.759 619.575V622.242H496.6V619.575C496.6 618.979 497.084 618.495 497.68 618.495C498.276 618.495 498.759 618.979 498.759 619.575Z" fill="#546E7A"/>
<path d="M506.86 619.575V622.242H504.701V619.575C504.701 618.979 505.184 618.495 505.78 618.495C506.378 618.495 506.86 618.979 506.86 619.575Z" fill="#546E7A"/>
</g>
<g filter="url(#filter9_i)">
<path d="M384.859 521.714C380.915 545.315 376.207 595.994 388.926 609.898C401.644 623.802 424.146 626.463 433.806 626.056" stroke="#F9F9F9" stroke-width="5" stroke-linecap="round" stroke-linejoin="round"/>
</g>
<path d="M441.139 635.267C442.275 631.155 444.061 624.171 442.073 621.948C437.008 616.284 426.704 612.064 419.334 609.213C408.938 605.191 408.32 593.299 403.664 592.018C399.007 590.737 397.794 604.562 386.179 601.367C377.407 598.955 378.883 591.911 378.449 591.201C376.32 590.387 374.311 590.063 374.311 590.063C374.311 590.063 366.675 597.842 364.053 614.066L441.139 635.267Z" fill="#8DC8D3"/>
<path d="M442.073 621.948C437.008 616.284 426.704 612.064 419.334 609.213C408.938 605.191 408.32 593.299 403.664 592.018C402.774 591.773 402.011 592.081 401.276 592.715C404.092 596.607 406.206 604.685 414.412 607.859C421.782 610.71 432.086 614.931 437.152 620.594C439.14 622.817 437.354 629.801 436.217 633.914L441.139 635.267C442.275 631.155 444.061 624.171 442.073 621.948V621.948Z" fill="#B8FFFB"/>
<path d="M384.91 605.985C395.338 608.853 400.546 601.95 403.093 598.445C403.093 598.445 406.337 594.226 404.806 592.59C404.457 592.332 404.088 592.14 403.689 592.026C403.671 592.021 403.652 592.016 403.633 592.011C399.002 590.801 397.768 604.555 386.179 601.368C377.407 598.955 378.883 591.911 378.449 591.201C376.32 590.387 374.311 590.063 374.311 590.063C371.401 600.644 381.236 604.974 384.91 605.985V605.985Z" fill="#FFD54F"/>
<path d="M404.806 592.59C404.457 592.332 404.088 592.14 403.689 592.026C403.671 592.021 403.651 592.016 403.633 592.011C402.148 591.623 401.012 592.775 399.772 594.412C399.144 595.826 398.172 597.091 398.172 597.091C395.846 600.292 391.301 606.324 382.589 605.164C383.479 605.544 384.284 605.812 384.909 605.984C395.338 608.853 400.546 601.95 403.093 598.445C403.093 598.445 406.337 594.226 404.806 592.59Z" fill="#FFC328"/>
<path d="M395.067 613.122L366.179 605.177C365.333 607.792 364.589 610.752 364.053 614.066L414.094 627.829C414.094 627.829 412.818 625.861 410.829 623.38C406.867 618.439 401.315 614.84 395.067 613.122V613.122Z" fill="#546E7A"/>
<path d="M410.829 623.38C406.867 618.439 401.315 614.84 395.067 613.122L390.145 611.768C396.393 613.487 401.945 617.086 405.908 622.027C407.897 624.507 409.172 626.475 409.172 626.475L414.094 627.829C414.094 627.829 412.818 625.861 410.829 623.38V623.38Z" fill="#455A64"/>
<path d="M442.886 626.957L432.282 624.657C429.297 624.009 426.224 624.882 424.187 626.955L421.364 629.828L441.139 635.267C441.778 632.953 442.624 629.73 442.886 626.957Z" fill="#546E7A"/>
<path d="M442.886 626.957L437.935 625.883C437.644 628.591 436.835 631.676 436.217 633.914L441.139 635.267C441.779 632.953 442.624 629.73 442.886 626.957V626.957Z" fill="#455A64"/>
<path d="M405.649 603.505L405.648 603.505C404.764 602.446 404.931 600.935 406.022 600.131L409.969 597.225C411.059 596.423 412.657 596.63 413.541 597.688L413.541 597.688C414.426 598.747 414.259 600.258 413.168 601.062L409.22 603.968C408.131 604.77 406.532 604.563 405.649 603.505V603.505Z" fill="#E4E4E4"/>
<path d="M411.785 609.634L411.784 609.634C410.782 608.672 410.767 607.148 411.751 606.23L415.311 602.909C416.294 601.992 417.901 602.027 418.902 602.987L418.903 602.988C419.905 603.95 419.919 605.474 418.935 606.392L415.376 609.713C414.393 610.63 412.786 610.595 411.785 609.634Z" fill="#E4E4E4"/>
<path d="M419.277 615.497L419.275 615.496C418.096 614.739 417.758 613.239 418.52 612.146L421.276 608.193C422.037 607.101 423.609 606.829 424.787 607.586L424.789 607.587C425.968 608.344 426.306 609.844 425.545 610.937L422.788 614.889C422.027 615.981 420.455 616.253 419.277 615.497Z" fill="#E4E4E4"/>
<path d="M443.088 636.2L441.72 641.175C441.573 641.709 440.994 642.015 440.425 641.858L360.945 619.998C360.377 619.842 360.035 619.283 360.182 618.749L361.55 613.774C361.697 613.241 362.276 612.935 362.845 613.091L442.325 634.951C442.894 635.108 443.235 635.666 443.088 636.2Z" fill="#F3F3F3"/>
<path d="M442.37 634.963L437.448 633.609C437.992 633.759 438.308 634.333 438.154 634.891L436.811 639.777C436.657 640.335 436.092 640.666 435.548 640.517L440.47 641.871C441.014 642.02 441.579 641.689 441.732 641.13L443.076 636.245C443.23 635.686 442.913 635.113 442.37 634.963V634.963Z" fill="#E4E4E4"/>
<path d="M366.796 618.627L366.033 621.398L363.645 620.741L364.407 617.97C364.577 617.351 365.249 616.995 365.91 617.177C366.569 617.358 366.966 618.008 366.796 618.627Z" fill="#546E7A"/>
<path d="M375.757 621.092L374.995 623.862L372.606 623.205L373.368 620.435C373.538 619.815 374.211 619.46 374.871 619.641C375.53 619.823 375.927 620.472 375.757 621.092Z" fill="#546E7A"/>
<path d="M384.718 623.556L383.956 626.327L381.567 625.67L382.329 622.899C382.499 622.28 383.173 621.925 383.832 622.106C384.491 622.288 384.888 622.937 384.718 623.556Z" fill="#546E7A"/>
<path d="M393.681 626.021L392.919 628.792L390.53 628.135L391.292 625.364C391.462 624.745 392.134 624.39 392.795 624.571C393.454 624.753 393.851 625.402 393.681 626.021Z" fill="#546E7A"/>
<path d="M402.642 628.486L401.88 631.257L399.491 630.6L400.253 627.829C400.423 627.21 401.096 626.855 401.756 627.036C402.415 627.217 402.812 627.867 402.642 628.486Z" fill="#546E7A"/>
<path d="M411.603 630.951L410.841 633.721L408.452 633.064L409.214 630.294C409.384 629.674 410.058 629.319 410.717 629.501C411.378 629.682 411.773 630.331 411.603 630.951Z" fill="#546E7A"/>
<path d="M420.566 633.416L419.804 636.187L417.415 635.53L418.177 632.759C418.347 632.14 419.019 631.784 419.68 631.966C420.339 632.147 420.736 632.797 420.566 633.416Z" fill="#546E7A"/>
<path d="M429.527 635.88L428.765 638.651L426.376 637.994L427.138 635.223C427.308 634.604 427.982 634.249 428.641 634.43C429.3 634.612 429.697 635.261 429.527 635.88Z" fill="#546E7A"/>
<path d="M438.488 638.345L437.726 641.116L435.337 640.459L436.099 637.688C436.27 637.069 436.943 636.714 437.602 636.895C438.263 637.077 438.658 637.726 438.488 638.345Z" fill="#546E7A"/>
<defs>
<filter id="filter0_d" x="343.513" y="28" width="334.487" height="334.487" filterUnits="userSpaceOnUse" color-interpolation-filters="sRGB">
<feFlood flood-opacity="0" result="BackgroundImageFix"/>
<feColorMatrix in="SourceAlpha" type="matrix" values="0 0 0 0 0 0 0 0 0 0 0 0 0 0 0 0 0 0 127 0"/>
<feOffset dy="4"/>
<feGaussianBlur stdDeviation="2"/>
<feColorMatrix type="matrix" values="0 0 0 0 0 0 0 0 0 0 0 0 0 0 0 0 0 0 0.25 0"/>
<feBlend mode="normal" in2="BackgroundImageFix" result="effect1_dropShadow"/>
<feBlend mode="normal" in="SourceGraphic" in2="effect1_dropShadow" result="shape"/>
</filter>
<filter id="filter1_i" x="443.623" y="509.762" width="58.1646" height="113.381" filterUnits="userSpaceOnUse" color-interpolation-filters="sRGB">
<feFlood flood-opacity="0" result="BackgroundImageFix"/>
<feBlend mode="normal" in="SourceGraphic" in2="BackgroundImageFix" result="shape"/>
<feColorMatrix in="SourceAlpha" type="matrix" values="0 0 0 0 0 0 0 0 0 0 0 0 0 0 0 0 0 0 127 0" result="hardAlpha"/>
<feOffset dy="4"/>
<feGaussianBlur stdDeviation="2"/>
<feComposite in2="hardAlpha" operator="arithmetic" k2="-1" k3="1"/>
<feColorMatrix type="matrix" values="0 0 0 0 0 0 0 0 0 0 0 0 0 0 0 0 0 0 0.25 0"/>
<feBlend mode="normal" in2="shape" result="effect1_innerShadow"/>
</filter>
<filter id="filter2_i" x="459.662" y="188.216" width="44.2552" height="289.811" filterUnits="userSpaceOnUse" color-interpolation-filters="sRGB">
<feFlood flood-opacity="0" result="BackgroundImageFix"/>
<feBlend mode="normal" in="SourceGraphic" in2="BackgroundImageFix" result="shape"/>
<feColorMatrix in="SourceAlpha" type="matrix" values="0 0 0 0 0 0 0 0 0 0 0 0 0 0 0 0 0 0 127 0" result="hardAlpha"/>
<feOffset dy="4"/>
<feGaussianBlur stdDeviation="2"/>
<feComposite in2="hardAlpha" operator="arithmetic" k2="-1" k3="1"/>
<feColorMatrix type="matrix" values="0 0 0 0 0 0 0 0 0 0 0 0 0 0 0 0 0 0 0.25 0"/>
<feBlend mode="normal" in2="shape" result="effect1_innerShadow"/>
</filter>
<filter id="filter3_i" x="305.301" y="382.308" width="221.022" height="163.935" filterUnits="userSpaceOnUse" color-interpolation-filters="sRGB">
<feFlood flood-opacity="0" result="BackgroundImageFix"/>
<feBlend mode="normal" in="SourceGraphic" in2="BackgroundImageFix" result="shape"/>
<feColorMatrix in="SourceAlpha" type="matrix" values="0 0 0 0 0 0 0 0 0 0 0 0 0 0 0 0 0 0 127 0" result="hardAlpha"/>
<feOffset dy="4"/>
<feGaussianBlur stdDeviation="2"/>
<feComposite in2="hardAlpha" operator="arithmetic" k2="-1" k3="1"/>
<feColorMatrix type="matrix" values="0 0 0 0 0 0 0 0 0 0 0 0 0 0 0 0 0 0 0.25 0"/>
<feBlend mode="normal" in2="shape" result="effect1_innerShadow"/>
</filter>
<filter id="filter4_i" x="319.16" y="240.424" width="44.6362" height="246.762" filterUnits="userSpaceOnUse" color-interpolation-filters="sRGB">
<feFlood flood-opacity="0" result="BackgroundImageFix"/>
<feBlend mode="normal" in="SourceGraphic" in2="BackgroundImageFix" result="shape"/>
<feColorMatrix in="SourceAlpha" type="matrix" values="0 0 0 0 0 0 0 0 0 0 0 0 0 0 0 0 0 0 127 0" result="hardAlpha"/>
<feOffset dy="4"/>
<feGaussianBlur stdDeviation="2"/>
<feComposite in2="hardAlpha" operator="arithmetic" k2="-1" k3="1"/>
<feColorMatrix type="matrix" values="0 0 0 0 0 0 0 0 0 0 0 0 0 0 0 0 0 0 0.25 0"/>
<feBlend mode="normal" in2="shape" result="effect1_innerShadow"/>
</filter>
<filter id="filter5_d" x="0" y="206.015" width="334.487" height="334.487" filterUnits="userSpaceOnUse" color-interpolation-filters="sRGB">
<feFlood flood-opacity="0" result="BackgroundImageFix"/>
<feColorMatrix in="SourceAlpha" type="matrix" values="0 0 0 0 0 0 0 0 0 0 0 0 0 0 0 0 0 0 127 0"/>
<feOffset dy="4"/>
<feGaussianBlur stdDeviation="2"/>
<feColorMatrix type="matrix" values="0 0 0 0 0 0 0 0 0 0 0 0 0 0 0 0 0 0 0.25 0"/>
<feBlend mode="normal" in2="BackgroundImageFix" result="effect1_dropShadow"/>
<feBlend mode="normal" in="SourceGraphic" in2="effect1_dropShadow" result="shape"/>
</filter>
<filter id="filter6_i" x="77.964" y="272.897" width="170.271" height="188.91" filterUnits="userSpaceOnUse" color-interpolation-filters="sRGB">
<feFlood flood-opacity="0" result="BackgroundImageFix"/>
<feBlend mode="normal" in="SourceGraphic" in2="BackgroundImageFix" result="shape"/>
<feColorMatrix in="SourceAlpha" type="matrix" values="0 0 0 0 0 0 0 0 0 0 0 0 0 0 0 0 0 0 127 0" result="hardAlpha"/>
<feOffset dy="-4"/>
<feGaussianBlur stdDeviation="2"/>
<feComposite in2="hardAlpha" operator="arithmetic" k2="-1" k3="1"/>
<feColorMatrix type="matrix" values="0 0 0 0 0 0 0 0 0 0 0 0 0 0 0 0 0 0 0.25 0"/>
<feBlend mode="normal" in2="shape" result="effect1_innerShadow"/>
</filter>
<filter id="filter7_i" x="462.406" y="185.435" width="31.4242" height="38.2057" filterUnits="userSpaceOnUse" color-interpolation-filters="sRGB">
<feFlood flood-opacity="0" result="BackgroundImageFix"/>
<feBlend mode="normal" in="SourceGraphic" in2="BackgroundImageFix" result="shape"/>
<feColorMatrix in="SourceAlpha" type="matrix" values="0 0 0 0 0 0 0 0 0 0 0 0 0 0 0 0 0 0 127 0" result="hardAlpha"/>
<feOffset dy="4"/>
<feGaussianBlur stdDeviation="2"/>
<feComposite in2="hardAlpha" operator="arithmetic" k2="-1" k3="1"/>
<feColorMatrix type="matrix" values="0 0 0 0 0 0 0 0 0 0 0 0 0 0 0 0 0 0 0.25 0"/>
<feBlend mode="normal" in2="shape" result="effect1_innerShadow"/>
</filter>
<filter id="filter8_i" x="345.583" y="239.674" width="31.4242" height="38.2057" filterUnits="userSpaceOnUse" color-interpolation-filters="sRGB">
<feFlood flood-opacity="0" result="BackgroundImageFix"/>
<feBlend mode="normal" in="SourceGraphic" in2="BackgroundImageFix" result="shape"/>
<feColorMatrix in="SourceAlpha" type="matrix" values="0 0 0 0 0 0 0 0 0 0 0 0 0 0 0 0 0 0 127 0" result="hardAlpha"/>
<feOffset dy="4"/>
<feGaussianBlur stdDeviation="2"/>
<feComposite in2="hardAlpha" operator="arithmetic" k2="-1" k3="1"/>
<feColorMatrix type="matrix" values="0 0 0 0 0 0 0 0 0 0 0 0 0 0 0 0 0 0 0.25 0"/>
<feBlend mode="normal" in2="shape" result="effect1_innerShadow"/>
</filter>
<filter id="filter9_i" x="378.142" y="519.213" width="58.1646" height="113.381" filterUnits="userSpaceOnUse" color-interpolation-filters="sRGB">
<feFlood flood-opacity="0" result="BackgroundImageFix"/>
<feBlend mode="normal" in="SourceGraphic" in2="BackgroundImageFix" result="shape"/>
<feColorMatrix in="SourceAlpha" type="matrix" values="0 0 0 0 0 0 0 0 0 0 0 0 0 0 0 0 0 0 127 0" result="hardAlpha"/>
<feOffset dy="4"/>
<feGaussianBlur stdDeviation="2"/>
<feComposite in2="hardAlpha" operator="arithmetic" k2="-1" k3="1"/>
<feColorMatrix type="matrix" values="0 0 0 0 0 0 0 0 0 0 0 0 0 0 0 0 0 0 0.25 0"/>
<feBlend mode="normal" in2="shape" result="effect1_innerShadow"/>
</filter>
<clipPath id="clip0">
<rect width="170.271" height="184.91" fill="white" transform="translate(77.964 276.897)"/>
</clipPath>
<clipPath id="clip1">
<rect width="73.7094" height="73.7094" fill="white" transform="translate(436.521 567.608)"/>
</clipPath>
</defs>
</svg>
