<svg width="671" height="727" viewBox="0 0 671 727" fill="none" xmlns="http://www.w3.org/2000/svg">
<ellipse cx="378.452" cy="289.413" rx="254.17" ry="18.689" fill="#041D22"/>
<g filter="url(#filter0_f)">
<ellipse cx="375.648" cy="238.489" rx="234.547" ry="178.013" fill="white" fill-opacity="0.16"/>
</g>
<path d="M178.48 437.529C124.282 388.003 124.282 325.862 124.282 290.353C124.282 290.353 132.652 297.993 184.087 302.034C239.542 306.391 339.669 307.173 378.452 307.173C417.236 307.173 510.354 306.391 565.81 302.034C617.244 297.993 632.623 290.353 632.623 290.353C632.623 290.353 632.623 386.601 578.425 437.529C549.277 464.917 445.318 484.202 421.904 556.671C412.093 587.041 400.879 629.558 400.879 677.682C400.879 677.682 387.303 680.953 378.452 680.953C369.602 680.953 356.026 677.682 356.026 677.682C356.026 629.558 344.812 587.041 335.001 556.671C311.587 484.202 208.006 464.509 178.48 437.529Z" fill="#236B78"/>
<g filter="url(#filter1_d)">
<path d="M178.48 437.529C124.282 388.003 124.282 325.862 124.282 290.353C124.282 290.353 132.652 297.993 184.087 302.034C239.542 306.391 339.669 307.173 378.452 307.173C417.236 307.173 510.354 306.391 565.81 302.034C617.244 297.993 632.623 290.353 632.623 290.353C632.623 290.353 632.623 386.601 578.425 437.529C549.277 464.917 445.318 484.202 421.904 556.671C412.093 587.041 400.879 629.558 400.879 677.682C400.879 677.682 387.303 680.953 378.452 680.953C369.602 680.953 356.026 677.682 356.026 677.682C356.026 629.558 344.812 587.041 335.001 556.671C311.587 484.202 208.006 464.509 178.48 437.529Z" fill="url(#paint0_angular)"/>
</g>
<g filter="url(#filter2_d)">
<path d="M491.199 240.378L494.278 187.373C494.308 186.861 494.371 186.352 494.468 185.849C495.7 180.049 501.022 176.046 506.937 176.471L524.954 177.511L508.607 244.498L491.199 240.378Z" fill="#35495E"/>
<path d="M558.293 253.908C557.698 255.082 556.466 255.794 555.152 255.723L502.127 252.656C498.786 252.456 495.693 250.828 493.637 248.187C491.582 245.546 490.764 242.147 491.391 238.86C492.569 233.314 497.51 229.38 503.179 229.474L516.491 236.853L516.474 236.849L503.097 236.088C501.606 236.001 500.154 236.587 499.141 237.685C498.128 238.783 497.661 240.277 497.868 241.757C498.265 244.155 500.291 245.945 502.72 246.043L543.246 248.386L558.293 253.908Z" fill="#2C3E50"/>
<path d="M516.474 236.844L503.098 236.083C501.606 235.996 500.154 236.582 499.141 237.68C498.128 238.778 497.661 240.273 497.868 241.752C498.265 244.15 500.291 245.94 502.72 246.038L543.246 248.381L516.474 236.844Z" fill="#F9EAB0"/>
<path d="M509.952 212.354L530.969 163.588C531.705 161.914 533.647 161.142 535.331 161.854L583.731 182.712C589.212 184.985 592.178 190.953 590.679 196.695C590.54 197.185 590.369 197.667 590.168 198.136L569.151 246.902L509.952 212.354Z" fill="#E8DAD8"/>
<path d="M571.288 188.163C571.193 188.14 571.1 188.11 571.011 188.072L535.959 172.966C535.182 172.567 534.847 171.633 535.193 170.831C535.54 170.029 536.449 169.633 537.272 169.925L572.324 185.023C573.115 185.363 573.514 186.251 573.245 187.068C572.975 187.885 572.125 188.361 571.288 188.163Z" fill="#3F5C6C"/>
<path d="M561.909 193.151C561.814 193.129 561.721 193.097 561.632 193.058L538.772 183.213C537.954 182.835 537.587 181.876 537.943 181.049C538.299 180.223 539.249 179.831 540.084 180.166L562.947 190.01C563.743 190.346 564.148 191.238 563.877 192.059C563.605 192.88 562.749 193.355 561.909 193.151V193.151Z" fill="#3F5C6C"/>
<path d="M563.573 201.158L531.566 187.352C530.724 186.989 529.747 187.377 529.384 188.219L522.81 203.46C522.447 204.302 522.835 205.279 523.677 205.642L555.684 219.447C556.525 219.81 557.502 219.422 557.865 218.581L564.439 203.339C564.802 202.498 564.414 201.521 563.573 201.158Z" fill="#ECF0F1"/>
<path d="M590.678 196.683C590.54 197.177 590.369 197.66 590.164 198.13L569.144 246.89L557.592 240.148L574.494 200.936L578.491 191.684L582.574 182.214L583.735 182.711C589.209 184.986 592.171 190.946 590.678 196.683V196.683Z" fill="#C8BCBA"/>
<path d="M562.716 231.47L514.309 210.618C514.13 210.542 513.945 210.481 513.756 210.436C512.081 210.044 510.384 210.997 509.847 212.631C509.309 214.265 510.109 216.038 511.689 216.717L560.452 237.722C561.822 238.319 562.852 239.498 563.261 240.935C563.67 242.372 563.415 243.916 562.566 245.145C561.143 247.107 558.534 247.795 556.328 246.79L507.751 225.864C507.572 225.787 507.387 225.726 507.198 225.681C505.522 225.28 503.818 226.229 503.275 227.864C502.733 229.5 503.532 231.278 505.115 231.959L553.894 252.967C556.967 254.287 560.46 254.221 563.48 252.784C566.501 251.347 568.756 248.68 569.671 245.462C571.164 239.717 568.198 233.749 562.716 231.47V231.47Z" fill="#887E7E"/>
<path d="M562.564 245.148C561.14 247.11 558.531 247.797 556.326 246.792L507.749 225.866L511.687 216.72L560.45 237.724C561.819 238.321 562.849 239.5 563.258 240.937C563.668 242.374 563.413 243.918 562.564 245.148V245.148Z" fill="#F9EAB0"/>
<path d="M249.384 238.118C248.871 237.019 247.72 236.373 246.527 236.514L231.737 238.263C230.543 238.404 229.575 239.3 229.332 240.488L225.773 257.946L256.916 254.264L249.384 238.118Z" fill="#595867"/>
<path d="M249.384 238.118C248.871 237.019 247.72 236.373 246.527 236.514L231.737 238.263C230.543 238.404 229.575 239.3 229.332 240.488L225.773 257.946L256.916 254.264L249.384 238.118Z" fill="#595867"/>
<path d="M249.384 238.119C248.871 237.02 247.721 236.374 246.527 236.515L239.132 237.389L241.345 256.105L256.916 254.264L249.384 238.119Z" fill="#363B3D"/>
<path d="M271.297 174.906L193.281 184.13C188.694 184.672 185.407 188.882 185.955 193.514L191.473 240.185C192.02 244.818 196.198 248.145 200.785 247.603L278.801 238.379C283.388 237.837 286.675 233.627 286.127 228.995L280.609 182.324C280.062 177.691 275.884 174.364 271.297 174.906Z" fill="#908DA5"/>
<path d="M271.297 174.906L232.289 179.518L239.793 242.991L278.801 238.379C283.389 237.836 286.675 233.627 286.127 228.994L280.61 182.323C280.062 177.691 275.884 174.364 271.297 174.906Z" fill="#595867"/>
<path d="M193.944 189.734L271.96 180.51C273.491 180.329 274.881 181.436 275.064 182.983L279.92 224.053C280.102 225.6 279.009 227 277.478 227.181L199.461 236.405C197.93 236.586 196.54 235.479 196.357 233.932L191.502 192.862C191.319 191.315 192.412 189.915 193.944 189.734Z" fill="#FEFFFF"/>
<path d="M271.96 180.508L232.952 185.12L238.47 231.791L277.478 227.18C279.009 226.999 280.103 225.598 279.92 224.051L275.064 182.981C274.881 181.434 273.491 180.327 271.96 180.508Z" fill="#EBF3FF"/>
<path d="M267.662 256.736L215.898 262.856C214.366 263.037 212.976 261.93 212.794 260.384C212.611 258.837 213.704 257.437 215.236 257.256L267 251.136C268.531 250.955 269.921 252.062 270.104 253.608C270.287 255.155 269.193 256.555 267.662 256.736Z" fill="#595867"/>
<path d="M267.662 256.736L215.898 262.856C214.366 263.037 212.976 261.93 212.794 260.384C212.611 258.837 213.704 257.437 215.236 257.256L267 251.136C268.531 250.955 269.921 252.062 270.104 253.608C270.287 255.155 269.193 256.555 267.662 256.736Z" fill="#908DA5"/>
<path d="M266.999 251.129L241.117 254.189L241.779 259.79L267.661 256.73C269.193 256.549 270.286 255.148 270.103 253.602C269.92 252.055 268.531 250.948 266.999 251.129Z" fill="#595867"/>
<path d="M260.058 160.712L239.722 163.116C236.009 163.555 232.887 165.658 230.998 168.599C228.475 166.179 224.948 164.862 221.235 165.301L200.899 167.706C199.367 167.887 198.274 169.287 198.457 170.834L203.313 211.904C203.495 213.451 204.885 214.558 206.417 214.377L228.601 211.754C231.15 211.453 233.471 213.301 233.775 215.875C233.958 217.421 235.348 218.528 236.879 218.347C238.411 218.166 239.504 216.766 239.321 215.219C239.017 212.646 240.843 210.307 243.391 210.006L265.576 207.383C267.107 207.202 268.201 205.801 268.018 204.255L263.162 163.184C262.979 161.637 261.59 160.53 260.058 160.712Z" fill="#F9F1F1"/>
<path d="M260.059 160.713L239.723 163.117C236.01 163.556 232.888 165.659 230.999 168.6L236.88 218.349C238.412 218.168 239.505 216.767 239.322 215.22C239.018 212.647 240.844 210.308 243.392 210.007L265.577 207.384C267.108 207.203 268.202 205.802 268.019 204.256L263.163 163.185C262.98 161.639 261.591 160.532 260.059 160.713Z" fill="#E2DFF4"/>
<path d="M252.23 177.728L244.835 178.602C243.304 178.783 241.914 177.676 241.731 176.13C241.548 174.583 242.641 173.182 244.173 173.001L251.568 172.127C253.099 171.946 254.489 173.053 254.672 174.6C254.855 176.146 253.761 177.547 252.23 177.728Z" fill="#595867"/>
<path d="M253.443 187.999L246.048 188.873C244.517 189.054 243.127 187.947 242.944 186.401C242.761 184.854 243.855 183.454 245.386 183.273L252.781 182.398C254.312 182.217 255.702 183.324 255.885 184.871C256.068 186.417 254.975 187.818 253.443 187.999Z" fill="#595867"/>
<path d="M212.481 182.426L219.876 181.551C221.408 181.37 222.501 179.97 222.318 178.423C222.135 176.877 220.746 175.77 219.214 175.951L211.819 176.825C210.288 177.006 209.194 178.407 209.377 179.953C209.56 181.5 210.95 182.607 212.481 182.426Z" fill="#908DA5"/>
<path d="M213.696 192.697L221.091 191.822C222.623 191.641 223.716 190.241 223.533 188.694C223.35 187.148 221.96 186.041 220.429 186.222L213.034 187.096C211.503 187.277 210.409 188.678 210.592 190.224C210.775 191.771 212.165 192.878 213.696 192.697Z" fill="#908DA5"/>
<path d="M214.909 202.961L222.304 202.087C223.836 201.906 224.929 200.505 224.746 198.959C224.563 197.412 223.174 196.305 221.642 196.486L214.247 197.36C212.716 197.541 211.622 198.942 211.805 200.489C211.988 202.035 213.378 203.142 214.909 202.961Z" fill="#908DA5"/>
<path d="M254.656 198.263L247.261 199.137C245.73 199.318 244.34 198.211 244.157 196.665C243.974 195.118 245.068 193.718 246.599 193.537L253.994 192.663C255.526 192.481 256.915 193.588 257.098 195.135C257.281 196.681 256.188 198.082 254.656 198.263Z" fill="#595867"/>
<path d="M361.613 188.317L410.203 186.682L410.439 193.701L361.849 195.336L361.613 188.317Z" fill="#2F4859"/>
<path d="M370.52 127.835L354.423 215.693C354.296 216.257 354.649 216.816 355.213 216.943C355.235 216.948 355.257 216.953 355.279 216.956L359.867 217.796C360.439 217.917 361.001 217.552 361.123 216.98C361.125 216.967 361.128 216.954 361.13 216.94L377.501 127.625L370.52 127.835Z" fill="#595867"/>
<path d="M398.027 126.913L391.086 127.147L413.422 215.16C413.559 215.728 414.131 216.077 414.7 215.94C414.713 215.937 414.727 215.933 414.739 215.929L419.261 214.783C419.824 214.654 420.176 214.093 420.047 213.531C420.042 213.509 420.037 213.487 420.03 213.465L398.027 126.913Z" fill="#595867"/>
<path d="M345.034 122.04L423.066 119.415C424.22 119.376 425.187 120.28 425.226 121.434L426.987 173.779C427.026 174.933 426.122 175.9 424.968 175.939L346.935 178.564C345.781 178.603 344.814 177.699 344.775 176.544L343.014 124.2C342.975 123.046 343.879 122.079 345.034 122.04V122.04Z" fill="#EBF0F3"/>
<path d="M418.239 128.39L350.437 130.67L350.452 131.096L351.591 164.951L419.378 162.671L418.239 128.816L418.225 128.39L418.239 128.39ZM417.943 133.05L408.77 133.358L408.628 129.139L417.801 128.831L417.943 133.05ZM360.541 130.757L369.702 130.449L369.844 134.668L360.683 134.976L360.541 130.757ZM370.153 130.433L379.327 130.125L379.469 134.344L370.308 134.652L370.153 130.433ZM379.779 130.11L388.939 129.802L389.081 134.021L379.921 134.329L379.779 130.11ZM389.39 129.786L398.551 129.478L398.693 133.697L389.532 134.005L389.39 129.786ZM399.015 129.463L408.176 129.154L408.318 133.373L399.157 133.682L399.015 129.463ZM350.916 131.081L360.09 130.772L360.232 134.991L351.058 135.3L350.916 131.081ZM361.21 164.086L352.037 164.395L351.811 157.672L360.984 157.364L361.21 164.086ZM360.966 156.809L351.792 157.118L351.566 150.396L360.739 150.087L360.966 156.809ZM360.721 149.532L351.547 149.84L351.321 143.118L360.495 142.81L360.721 149.532ZM360.476 142.268L351.303 142.576L351.076 135.842L360.25 135.533L360.476 142.268ZM370.823 163.763L361.662 164.071L361.436 157.349L370.597 157.041L370.823 163.763ZM370.578 156.486L361.417 156.794L361.191 150.072L370.352 149.764L370.578 156.486ZM370.333 149.208L361.172 149.517L360.946 142.795L370.107 142.486L370.333 149.208ZM370.089 141.944L360.928 142.253L360.701 135.518L369.862 135.21L370.089 141.944ZM380.448 163.439L371.287 163.747L371.061 157.025L380.222 156.717L380.448 163.439ZM380.203 156.162L371.042 156.47L370.816 149.748L379.977 149.44L380.203 156.162ZM379.958 148.885L370.797 149.193L370.571 142.471L379.732 142.163L379.958 148.885ZM370.553 141.929L370.326 135.194L379.487 134.886L379.714 141.621L370.553 141.929ZM390.06 163.115L380.899 163.424L380.673 156.702L389.834 156.393L390.06 163.115L390.06 163.115ZM389.815 155.839L380.655 156.147L380.428 149.425L389.589 149.117L389.815 155.839L389.815 155.839ZM389.57 148.561L380.41 148.869L380.184 142.147L389.344 141.839L389.571 148.561L389.57 148.561ZM389.326 141.297L380.165 141.605L379.939 134.871L389.1 134.562L389.326 141.297L389.326 141.297ZM399.672 162.792L390.511 163.1L390.285 156.378L399.446 156.07L399.672 162.792ZM399.427 155.515L390.266 155.823L390.04 149.101L399.201 148.793L399.427 155.515ZM399.182 148.238L390.021 148.546L389.795 141.824L398.956 141.516L399.182 148.238ZM398.938 140.974L389.777 141.282L389.55 134.547L398.711 134.239L398.938 140.974ZM409.284 162.469L400.123 162.777L399.897 156.055L409.058 155.747L409.284 162.469ZM409.039 155.192L399.879 155.5L399.652 148.778L408.813 148.47L409.039 155.192ZM408.795 147.915L399.634 148.223L399.408 141.501L408.568 141.192L408.795 147.915ZM408.55 140.651L399.389 140.959L399.163 134.224L408.324 133.916L408.55 140.651ZM418.909 162.145L409.748 162.453L409.522 155.731L418.695 155.422L418.909 162.145ZM418.664 154.868L409.503 155.176L409.277 148.454L418.451 148.146L418.664 154.868ZM418.419 147.591L409.258 147.899L409.032 141.177L418.206 140.868L418.419 147.591ZM418.175 140.327L409.014 140.635L408.787 133.9L417.961 133.592L418.188 140.326L418.175 140.327Z" fill="#D5D6DB"/>
<path d="M352.574 157.272L360.212 157.015L360.469 164.653L352.831 164.91L352.574 157.272Z" fill="#595867"/>
<path d="M361.934 149.488L369.571 149.231L370.079 164.327L362.441 164.584L361.934 149.488Z" fill="#7BC0AD"/>
<path d="M371.315 141.903L378.953 141.646L379.705 164.005L372.067 164.262L371.315 141.903Z" fill="#F7BE56"/>
<path d="M381.058 145.488L388.696 145.231L389.317 163.681L381.679 163.938L381.058 145.488Z" fill="#914100"/>
<path d="M390.89 151.267L398.527 151.01L398.943 163.358L391.305 163.615L390.89 151.267Z" fill="#2D7D8B"/>
<path d="M400.268 144.002L407.906 143.745L408.555 163.046L400.917 163.303L400.268 144.002Z" fill="#7BC0AD"/>
<path d="M409.663 137.241L417.301 136.984L418.166 162.71L410.529 162.967L409.663 137.241Z" fill="#914100"/>
<path d="M352.831 132.32L354.122 132.276L354.176 133.889L352.886 133.933L352.831 132.32Z" fill="#D5D6DB"/>
<path d="M354.959 132.245L356.25 132.201L356.304 133.814L355.014 133.858L354.959 132.245Z" fill="#D5D6DB"/>
<path d="M357.089 132.177L358.38 132.133L358.434 133.746L357.144 133.79L357.089 132.177Z" fill="#D5D6DB"/>
<path d="M362.392 132L363.682 131.956L363.736 133.569L362.446 133.612L362.392 132Z" fill="#D5D6DB"/>
<path d="M364.522 131.925L365.812 131.881L365.866 133.494L364.576 133.537L364.522 131.925Z" fill="#D5D6DB"/>
<path d="M366.65 131.856L367.94 131.813L367.994 133.426L366.704 133.469L366.65 131.856Z" fill="#D5D6DB"/>
<path d="M372.121 131.672L373.411 131.629L373.466 133.242L372.175 133.285L372.121 131.672Z" fill="#D5D6DB"/>
<path d="M374.249 131.597L375.54 131.554L375.594 133.167L374.304 133.21L374.249 131.597Z" fill="#D5D6DB"/>
<path d="M376.378 131.529L377.668 131.486L377.722 133.099L376.432 133.142L376.378 131.529Z" fill="#D5D6DB"/>
<path d="M381.668 131.352L382.958 131.309L383.013 132.921L381.722 132.965L381.668 131.352Z" fill="#D5D6DB"/>
<path d="M383.796 131.277L385.087 131.234L385.141 132.846L383.851 132.89L383.796 131.277Z" fill="#D5D6DB"/>
<path d="M385.926 131.209L387.216 131.166L387.271 132.778L385.98 132.822L385.926 131.209Z" fill="#D5D6DB"/>
<path d="M391.396 131.025L392.686 130.981L392.74 132.594L391.45 132.638L391.396 131.025Z" fill="#D5D6DB"/>
<path d="M393.526 130.95L394.816 130.906L394.87 132.519L393.58 132.563L393.526 130.95Z" fill="#D5D6DB"/>
<path d="M395.654 130.875L396.944 130.832L396.998 132.444L395.708 132.488L395.654 130.875Z" fill="#D5D6DB"/>
<path d="M400.866 130.705L402.156 130.661L402.21 132.274L400.92 132.317L400.866 130.705Z" fill="#D5D6DB"/>
<path d="M402.996 130.63L404.286 130.586L404.34 132.199L403.05 132.242L402.996 130.63Z" fill="#D5D6DB"/>
<path d="M405.124 130.561L406.414 130.518L406.468 132.131L405.178 132.174L405.124 130.561Z" fill="#D5D6DB"/>
<path d="M410.389 130.384L411.679 130.341L411.734 131.954L410.443 131.997L410.389 130.384Z" fill="#D5D6DB"/>
<path d="M412.517 130.309L413.807 130.266L413.862 131.879L412.571 131.922L412.517 130.309Z" fill="#D5D6DB"/>
<path d="M414.659 130.241L415.949 130.198L416.003 131.811L414.713 131.854L414.659 130.241Z" fill="#D5D6DB"/>
</g>
<g filter="url(#filter3_d)">
<g filter="url(#filter4_i)">
<path d="M140.735 640.627C137.899 657.597 134.514 694.038 143.659 704.035C152.804 714.033 168.983 715.946 175.93 715.654M204.839 640.627C202.003 657.597 198.618 694.037 207.763 704.035C216.908 714.032 233.087 715.946 240.034 715.653" stroke="#F9F9F9" stroke-width="5" stroke-linecap="round" stroke-linejoin="round"/>
</g>
<g filter="url(#filter5_i)">
<path d="M118.87 600.123C89.1235 606.197 31.4992 605.356 38.9747 553.4C46.4503 501.445 69.5001 469.767 80.0905 460.422M228.668 611.336C269.628 595.295 348.558 549.008 336.597 492.194" stroke="#F9F9F9" stroke-width="5" stroke-linecap="round" stroke-linejoin="round"/>
</g>
<path d="M252.596 646.748C256.24 646.43 263.782 644.613 268.558 635.441L226.972 609.916H102.316L99.6608 621.731C98.4467 625.184 96.6351 633.172 102.316 640.34C108.072 647.599 117.803 648.579 121.562 648.671C122.72 650.054 124.848 651.95 127.927 652.169C128.545 652.214 129.793 653.4 130.9 654.452L130.915 654.466C132.762 656.223 135.059 658.407 138.454 659.903C142.951 661.887 147.622 662.256 150.195 662.283C151.305 663.595 153.356 665.285 157.103 667.486C161.277 669.939 165.961 670.452 169.155 670.452C173.095 670.452 177.002 669.656 179.108 668.426C180.091 667.852 183.304 667.413 186.144 667.024L186.155 667.022C189.601 666.552 193.504 666.017 197.369 664.962C202.354 663.6 205.109 662.266 206.596 661.319C208.548 661.77 212.316 662.503 216.221 662.503C219.373 662.503 222.055 662.023 224.191 661.07C228.999 658.929 231.722 654.912 233.066 652.277C235.056 652.772 237.987 653.335 240.994 653.335C242.17 653.335 243.29 653.248 244.321 653.076C249.173 652.267 251.531 648.991 252.596 646.748Z" fill="#914100"/>
<path d="M103.138 566.328C98.868 570.876 98.143 577.765 98.0557 581.027C88.0551 587.244 88.8961 600.977 91.9652 608.551C94.3234 614.372 97.954 619.45 99.7549 621.781C115.939 609.67 159.398 617.938 185.231 621.781C205.897 624.854 213.957 616.909 215.403 612.552C215.403 600.743 184.991 584.79 166.188 573.395C151.146 564.279 164.488 546.945 173.04 539.418C166.812 539.418 161.563 543.563 159.398 545.556C159.116 545.538 158.832 545.531 158.552 545.531C153.93 545.531 150.31 547.825 148.249 549.539C146.584 548.642 144.588 548.164 142.421 548.164C139.17 548.164 135.964 549.237 133.847 551.032C132.604 552.086 131.296 552.248 128.684 552.493L128.683 552.493C127.163 552.634 125.438 552.795 123.386 553.241C118.407 554.326 115.117 559.25 113.632 562.001C109.339 562.026 105.808 563.482 103.138 566.328Z" fill="#DE8843"/>
<path d="M177.309 540.229C175.809 539.687 174.236 539.414 172.631 539.414C164.055 546.934 150.674 564.251 165.759 573.358C184.616 584.742 215.115 600.679 215.115 612.476C215.115 624.274 231.43 633.174 243.88 633.174C256.33 633.174 260.387 630.146 268.296 635.385C273.913 624.634 266.73 609.936 264.887 606.499C264.904 602.795 263.851 599.781 261.751 597.527C260.014 595.663 257.944 594.746 256.33 594.295C256.072 592.139 255.349 588.604 253.478 583.127C250.756 575.168 243.327 571.809 239.172 570.518C239.479 567.322 238.813 562.061 233.532 555.796C228.412 549.723 220.69 548.448 215.115 548.448C213.263 548.448 211.673 548.591 210.55 548.732C208.69 546.723 204.632 543.563 197.512 543.563L196.889 543.571C188.411 543.787 185.704 543.257 177.309 540.229Z" fill="#F7CA63"/>
<g filter="url(#filter6_i)">
<path d="M106.933 605.992C109.414 612.099 113.878 617.391 113.922 617.443C114.562 618.196 114.691 619.26 114.25 620.142C114.215 620.211 110.895 627.021 115.413 632.71C119.429 637.767 126.862 638.159 129.045 638.159C129.356 638.159 129.545 638.151 129.57 638.149L129.627 638.154C128.907 636.642 128.136 634.551 127.593 631.791C126.755 631.378 124.305 629.979 122.408 626.895C122.229 626.606 122.319 626.227 122.61 626.049C122.898 625.87 123.278 625.96 123.457 626.25C124.729 628.317 126.302 629.562 127.321 630.214C126.94 627.66 126.764 624.625 126.974 621.059C126.995 620.719 127.292 620.455 127.626 620.48C127.966 620.499 128.224 620.791 128.205 621.13C127.646 630.638 129.941 636.272 131.367 638.799C131.55 638.965 131.712 639.153 131.841 639.369C131.852 639.387 132.931 641.128 134.407 641.234C136.714 641.398 138.346 642.947 140.075 644.589C141.489 645.932 143.094 647.454 145.291 648.42C148.715 649.928 152.46 650.09 153.91 650.09C154.439 650.09 154.763 650.071 154.798 650.066C155.487 650.019 156.156 650.253 156.657 650.719C156.97 651.009 157.198 651.37 157.326 651.769C157.556 652.07 158.583 653.217 162.185 655.33C164.899 656.92 168.085 657.254 170.281 657.254C173.293 657.254 175.755 656.607 176.543 656.149C178.252 655.15 181.033 654.772 184.552 654.293C187.429 653.899 190.691 653.454 193.776 652.613C199.172 651.142 200.765 649.87 200.79 649.87V649.873C201.154 649.457 201.641 649.206 202.163 649.103C204.034 646.898 206.113 643.331 207.244 637.682C207.31 637.348 207.637 637.132 207.968 637.199C208.301 637.266 208.518 637.59 208.451 637.924C207.379 643.278 205.506 646.858 203.688 649.224C204.795 649.503 208.204 650.285 211.637 650.285C213.712 650.285 215.395 650.004 216.638 649.452C217.463 649.085 218.188 648.615 218.825 648.095C218.828 647.842 218.887 647.588 219.05 647.371C219.514 646.75 230.146 632.138 217.224 618.013C215.735 619.056 212.449 620.841 206.565 621.732C209.204 623.022 213.189 625.994 215.124 632.473C216.201 631.597 216.873 630.789 216.888 630.77C217.105 630.507 217.493 630.469 217.755 630.684C218.018 630.9 218.058 631.287 217.842 631.551C217.762 631.649 216.768 632.839 215.227 633.951C215.181 633.997 215.129 634.033 215.07 634.063C213.687 635.032 211.892 635.912 209.915 635.912C209.711 635.912 209.503 635.903 209.295 635.883C208.956 635.852 208.706 635.549 208.739 635.211C208.772 634.872 209.061 634.634 209.412 634.655C211.13 634.824 212.769 634.11 214.072 633.249C211.6 624.315 205.04 622.314 203.936 622.042C202.766 622.149 201.533 622.231 200.189 622.259C199.96 622.264 199.733 622.265 199.507 622.265C190.648 622.265 186.925 618.571 185.436 616.154C184.99 618.27 184.67 622.385 187.757 625.745C187.988 625.996 187.971 626.386 187.72 626.617C187.602 626.725 187.453 626.779 187.302 626.779C187.137 626.779 186.971 626.712 186.85 626.579C182.592 621.946 184.038 616.225 184.539 614.683C183.033 614.841 179.229 614.814 173.588 611.776C172.703 611.3 171.8 610.79 170.887 610.271C164.46 606.637 157.816 602.872 152.383 607.852C152.134 608.082 151.742 608.068 151.513 607.815C151.282 607.564 151.3 607.174 151.551 606.944C157.64 601.361 165.003 605.525 171.494 609.199C172.4 609.712 173.296 610.218 174.174 610.692C180.945 614.338 184.916 613.387 184.952 613.377C185.109 613.336 185.28 613.358 185.425 613.442C185.567 613.527 185.671 613.665 185.711 613.826C185.786 614.13 187.775 621.293 200.163 621.027C201.443 621 202.615 620.923 203.731 620.821C203.815 620.795 203.902 620.785 203.994 620.799C211.275 620.094 215.097 617.989 216.577 616.948C216.532 616.603 216.611 616.243 216.852 615.964C216.988 615.806 220.147 612.006 216.641 603.701C213.267 595.711 205.201 594.425 204.861 594.375C204.443 594.313 204.084 594.041 203.913 593.656C203.867 593.553 199.24 583.341 192.106 582.603C191.651 582.556 191.26 582.26 191.088 581.836C191.054 581.748 187.478 573.05 179.396 573.296C178.813 573.354 178.246 572.871 178.143 572.262C178.135 572.222 177.402 568.194 172.372 563.667C167.717 559.477 160.9 558.381 156.022 559.121C154.759 559.97 154.003 560.832 153.991 560.844C153.548 561.372 152.902 561.691 152.212 561.721C151.525 561.758 150.849 561.49 150.362 561.001C149.581 560.221 148.3 559.79 146.757 559.79C145.079 559.79 143.367 560.321 142.397 561.14C140.073 563.107 137.67 563.331 135.126 563.567C133.869 563.684 132.571 563.804 131.057 564.132C128.243 564.744 125.826 569.04 125.202 570.493L125.174 570.537C124.547 573.146 123.928 577.459 124.907 582.351C124.973 582.686 124.757 583.01 124.423 583.076C124.382 583.085 124.342 583.088 124.302 583.088C124.014 583.088 123.757 582.886 123.698 582.594C122.854 578.373 123.132 574.606 123.622 571.88C123.331 571.966 123.028 572.015 122.712 571.986C119.669 571.71 117.436 572.427 115.794 574.165C112.297 577.87 112.653 584.927 112.656 584.994C112.718 585.988 112.172 586.921 111.275 587.359C104.419 590.705 104.608 600.268 106.933 605.992V605.992ZM225.836 640.951C225.872 640.963 229.657 642.243 233.405 642.243C234.167 642.243 234.878 642.188 235.517 642.084C238.632 641.563 239.4 638.738 239.471 638.444C239.572 637.982 239.798 637.576 240.108 637.256C237.881 635.384 235.766 632.028 236.325 626.182C235.853 626.289 235.345 626.358 234.779 626.358C234.158 626.358 233.479 626.283 232.737 626.111C232.406 626.035 232.199 625.704 232.276 625.373C232.353 625.041 232.681 624.832 233.015 624.911C237.757 626.007 239.332 622.54 239.397 622.392C239.532 622.081 239.893 621.94 240.205 622.071C240.517 622.204 240.662 622.564 240.531 622.877C240.517 622.906 239.689 624.747 237.6 625.738C236.854 631.748 239.037 634.95 241.178 636.606C241.466 636.521 241.775 636.485 242.094 636.511C242.131 636.514 242.239 636.52 242.407 636.52H242.409C244.057 636.52 249.709 635.992 253.253 629.198C257.213 621.606 251.011 609.759 250.123 608.139C249.298 610.264 248.041 612.482 246.121 614.163C246.004 614.265 245.86 614.316 245.715 614.316C245.544 614.316 245.374 614.243 245.251 614.105C245.028 613.849 245.054 613.459 245.308 613.235C247.716 611.129 248.999 608.007 249.683 605.459C249.508 602.251 247.911 600.898 246.507 600.333C246.458 600.337 246.409 600.345 246.359 600.337C245.235 600.13 242.132 599.891 240.653 601.002C241.609 602.657 241.173 604.14 241.166 604.162C241.084 604.424 240.841 604.592 240.58 604.592C240.517 604.592 240.455 604.581 240.393 604.562C240.068 604.459 239.889 604.112 239.991 603.788C240 603.763 240.746 601.262 237.024 599.462C236.718 599.315 236.59 598.945 236.737 598.639C236.885 598.333 237.253 598.206 237.56 598.352C238.607 598.859 239.353 599.428 239.902 600.008C240.698 599.412 241.752 599.122 242.792 599.001C242.391 598.475 242.205 597.849 242.307 597.19C242.31 597.164 242.481 594.56 239.957 587.172C237.608 580.29 228.836 578.757 228.753 578.744C228.34 578.678 227.966 578.493 227.649 578.235C224.541 578.883 220.384 580.39 217.425 583.896C217.303 584.042 217.13 584.116 216.954 584.116C216.814 584.116 216.672 584.068 216.556 583.971C216.298 583.751 216.263 583.362 216.483 583.103C219.526 579.496 223.636 577.873 226.864 577.134C226.644 576.531 226.653 575.85 226.913 575.259C226.987 575.091 228.666 571.058 223.354 564.75C220.082 560.866 214.813 560.05 210.968 560.05C208.353 560.05 206.449 560.435 206.435 560.438C205.421 560.65 204.365 560.174 203.818 559.299C203.728 559.155 201.535 555.76 195.525 555.76L195.105 555.764C194.159 555.789 193.287 555.802 192.471 555.802C189.76 555.802 187.614 555.635 185.582 555.291C188.637 557.102 191.897 559.778 194.164 563.579C196.97 562.923 199.41 563.759 199.562 563.814C199.883 563.929 200.05 564.281 199.936 564.6C199.821 564.921 199.47 565.089 199.147 564.973C199.012 564.928 196.865 564.2 194.413 564.788C194.368 564.844 194.313 564.895 194.245 564.933C194.15 564.986 194.047 565.011 193.946 565.011C193.89 565.011 193.841 564.982 193.788 564.968C192.719 565.323 191.622 565.942 190.629 567.007C190.509 567.136 190.344 567.202 190.179 567.202C190.029 567.202 189.878 567.148 189.758 567.036C189.51 566.804 189.497 566.415 189.729 566.166C190.744 565.078 191.851 564.382 192.943 563.951C187.81 555.667 177.276 553.105 177.166 553.079C176.986 553.037 176.848 552.917 176.767 552.766C176.548 552.687 176.352 552.62 176.125 552.538C175.348 552.257 174.533 552.115 173.696 552.115C168.819 552.115 164.436 556.775 164.396 556.818C164.34 556.88 164.268 556.924 164.205 556.98C167.603 557.704 171.097 559.202 174.021 561.834C178.23 565.621 179.774 569.149 180.312 570.837C187.134 571.118 190.989 576.44 192.554 579.241C193.434 577.963 195.366 575.903 199.076 575.025C199.408 574.95 199.739 575.153 199.818 575.483C199.897 575.814 199.692 576.147 199.361 576.224C195.569 577.123 193.902 579.338 193.333 580.311C200.302 581.697 204.751 589.765 205.886 592.062C208.163 592.562 215.542 594.761 218.912 602.742C222.075 610.235 220.404 614.812 219.342 616.664C227.192 625.472 226.733 634.564 224.833 640.829C225.169 640.802 225.51 640.84 225.836 640.951V640.951ZM107.723 583.696C107.8 580.834 108.438 574.789 112.195 570.797C114.544 568.3 117.651 567.023 121.428 567.001C122.734 564.587 125.629 560.267 130.009 559.314C131.815 558.923 133.333 558.782 134.67 558.658C136.968 558.443 138.12 558.301 139.213 557.376C141.075 555.801 143.896 554.859 146.757 554.859C148.663 554.859 150.419 555.279 151.884 556.066C153.697 554.562 156.882 552.549 160.949 552.549C161.195 552.549 161.445 552.556 161.693 552.571C163.598 550.822 168.216 547.185 173.696 547.185C175.104 547.185 176.485 547.425 177.8 547.901C185.165 550.56 187.54 551.026 194.978 550.836L195.525 550.829C201.771 550.829 205.332 553.605 206.963 555.369C207.948 555.245 209.343 555.12 210.968 555.12C215.859 555.12 222.633 556.239 227.126 561.573C231.758 567.076 232.342 571.697 232.073 574.504C235.719 575.638 242.236 578.589 244.624 585.579C246.266 590.39 246.9 593.494 247.126 595.389C248.542 595.784 250.358 596.59 251.882 598.227C253.725 600.207 254.648 602.855 254.633 606.107C256.25 609.126 262.552 622.036 257.625 631.479C253.428 639.523 246.801 641.117 243.599 641.396C242.663 643.363 240.591 646.236 236.328 646.945C235.422 647.096 234.438 647.173 233.405 647.173C230.762 647.173 228.187 646.679 226.438 646.245C225.258 648.556 222.865 652.079 218.64 653.956C216.764 654.793 214.406 655.213 211.637 655.213C208.205 655.213 204.895 654.571 203.18 654.175C201.873 655.005 199.452 656.176 195.072 657.37C191.676 658.295 188.246 658.765 185.218 659.177C182.721 659.518 179.891 659.904 179.027 660.408C177.176 661.487 173.743 662.185 170.281 662.185C167.474 662.185 163.359 661.735 159.691 659.584C156.399 657.653 154.597 656.171 153.622 655.02C151.361 654.996 147.257 654.673 143.305 652.933C140.321 651.621 138.303 649.706 136.68 648.165C135.705 647.24 134.601 646.19 134.055 646.15C131.35 645.958 129.48 644.296 128.462 643.082C125.159 643.001 116.609 642.142 111.552 635.776C106.56 629.49 108.151 622.484 109.218 619.456C107.634 617.411 104.44 612.955 102.365 607.847C99.6644 601.201 98.9245 589.151 107.723 583.696" fill="#F9F9F9"/>
<path d="M196.342 594.594C196.213 594.594 196.083 594.554 195.972 594.471C195.932 594.44 191.786 591.38 187.193 592.655C186.996 592.711 186.78 592.661 186.625 592.526C186.469 592.39 186.39 592.185 186.418 591.981C186.46 591.662 187.351 584.145 180.179 580.56C179.874 580.408 179.751 580.037 179.904 579.733C180.055 579.429 180.426 579.305 180.729 579.457C187.202 582.693 187.726 588.979 187.689 591.277C192.492 590.381 196.532 593.351 196.713 593.485C196.985 593.689 197.039 594.075 196.835 594.349C196.714 594.51 196.529 594.594 196.342 594.594Z" fill="#F9F9F9"/>
<path d="M145.26 614.614C145.512 614.842 145.533 615.231 145.304 615.484C142.758 618.302 142.348 621.301 144.153 623.926C146.627 627.53 152.47 629.434 156.404 627.917C163.87 625.045 170.139 625.985 172.766 630.368C175.038 634.152 181.266 634.721 181.329 634.726C181.636 634.752 181.877 634.999 181.893 635.306C181.896 635.351 182.212 639.801 188.276 641.317C194.416 642.845 198.478 638.907 198.647 638.739C198.888 638.499 199.278 638.5 199.519 638.74C199.758 638.982 199.758 639.371 199.519 639.611C199.36 639.77 196.157 642.903 191.095 642.903C190.123 642.903 189.08 642.788 187.977 642.511C182.251 641.082 181.002 637.298 180.734 635.899C179.104 635.678 173.931 634.703 171.71 631.001C169.412 627.167 163.713 626.426 156.848 629.068C152.355 630.796 145.947 628.719 143.137 624.623C141.886 622.804 140.388 619.089 144.389 614.657C144.619 614.406 145.007 614.386 145.26 614.614" fill="#F9F9F9"/>
<path d="M176.904 624.112C176.814 624.158 176.716 624.181 176.62 624.181C176.397 624.181 176.183 624.06 176.073 623.85C176.038 623.78 172.538 617.275 163.862 616.582C164.084 617.729 164.125 619.022 163.797 620.419C163.73 620.703 163.478 620.894 163.199 620.894C163.151 620.894 163.103 620.889 163.057 620.878C162.724 620.8 162.519 620.468 162.597 620.136C162.922 618.757 162.825 617.476 162.546 616.369C162.399 616.252 162.302 616.079 162.308 615.878C162.311 615.814 162.33 615.756 162.349 615.698C161.697 613.755 160.571 612.498 160.553 612.478C160.324 612.227 160.341 611.836 160.591 611.607C160.839 611.378 161.229 611.392 161.46 611.642C161.547 611.736 162.808 613.14 163.534 615.322C173.193 615.876 177.007 622.972 177.167 623.281C177.324 623.584 177.205 623.955 176.904 624.112" fill="#F9F9F9"/>
<path d="M152.353 575.463C151.167 575.264 149.842 575.393 148.431 576.168C148.134 576.332 147.758 576.223 147.593 575.925C147.43 575.626 147.538 575.252 147.836 575.088C153.709 571.858 158.438 577.932 158.484 577.994C158.691 578.265 158.639 578.65 158.368 578.856C158.257 578.942 158.125 578.982 157.995 578.982C157.809 578.982 157.626 578.9 157.504 578.741C157.402 578.607 155.865 576.648 153.553 575.781C150.636 582.069 154.983 586.37 155.797 587.095C156.297 586.819 156.848 586.547 157.488 586.288C165.378 583.092 170.893 590.513 174.546 595.423C175.825 597.143 176.93 598.628 177.793 599.226C181.097 601.513 187.939 600.236 188.007 600.224C188.333 600.159 188.646 600.365 188.724 600.684C188.742 600.759 190.61 608.199 196.939 608.705C203.202 609.201 204.742 605.43 204.804 605.265C204.925 604.949 205.278 604.792 205.598 604.907C205.917 605.027 206.078 605.381 205.958 605.7C205.889 605.886 204.277 609.984 198.062 609.984C197.674 609.984 197.266 609.968 196.842 609.935C190.73 609.445 188.3 603.405 187.688 601.526C185.9 601.801 180.267 602.438 177.091 600.239C176.061 599.526 174.956 598.04 173.556 596.159C169.925 591.279 164.948 584.59 157.952 587.431C154.394 588.873 152.873 590.821 153.672 592.918C154.484 595.045 157.606 596.788 159.432 596.14C159.751 596.022 160.104 596.192 160.218 596.513C160.333 596.833 160.166 597.186 159.845 597.3C157.358 598.192 153.59 596.162 152.52 593.357C152.115 592.292 151.701 589.917 154.72 587.763C153.401 586.447 149.529 581.827 152.353 575.463" fill="#F9F9F9"/>
<path d="M153.393 641.849C156.233 642.11 159.656 640.805 159.69 640.792C159.947 640.692 160.238 640.778 160.403 640.997C164.255 646.129 169.684 645.946 169.744 645.955C170.091 645.933 170.371 646.203 170.387 646.543C170.403 646.883 170.141 647.169 169.802 647.187C169.779 647.187 169.715 647.19 169.609 647.19C168.555 647.19 163.545 646.926 159.697 642.098C158.63 642.46 155.802 643.298 153.282 643.076C152.942 643.045 152.694 642.745 152.723 642.407C152.754 642.068 153.068 641.815 153.393 641.849Z" fill="#F9F9F9"/>
<path d="M132.74 586.819C131.519 585.826 129.552 584.026 128.417 581.946C128.254 581.647 128.364 581.273 128.662 581.109C128.963 580.948 129.336 581.057 129.499 581.355C131.05 584.201 134.479 586.598 134.513 586.622C134.721 586.767 134.82 587.023 134.763 587.269C134.706 587.515 134.504 587.701 134.254 587.739C131.414 588.164 128.28 590.301 126.268 593.183C124.715 595.408 123.074 599.089 124.084 603.987C125.543 611.073 131.739 613.879 134.151 614.717C134.015 612.195 133.449 610.357 133.439 610.325C133.335 610.001 133.515 609.654 133.839 609.551C134.16 609.453 134.509 609.627 134.612 609.951C134.661 610.101 135.33 612.278 135.412 615.187C135.556 615.332 135.635 615.539 135.584 615.753C135.559 615.863 135.488 615.942 135.417 616.018C135.394 617.84 135.12 619.88 134.324 621.871C134.227 622.113 133.996 622.259 133.752 622.259C133.677 622.259 133.598 622.244 133.523 622.214C133.206 622.087 133.053 621.73 133.18 621.413C133.904 619.601 134.153 617.716 134.173 616.021C131.921 615.306 124.553 612.378 122.877 604.236C121.778 598.909 123.566 594.902 125.258 592.477C127.18 589.724 129.955 587.647 132.74 586.819" fill="#F9F9F9"/>
<path d="M128.45 602.214C128.138 602.085 127.992 601.731 128.117 601.419C128.244 601.105 128.607 600.953 128.915 601.074C128.947 601.085 132.067 602.205 138.474 597.849C141.134 596.041 143.504 595.392 145.52 595.915C147.731 596.492 148.647 598.281 148.685 598.357C148.838 598.662 148.713 599.032 148.41 599.184C148.1 599.34 147.735 599.213 147.583 598.909C147.577 598.895 146.884 597.545 145.209 597.109C143.547 596.674 141.518 597.268 139.166 598.868C134.762 601.864 131.73 602.446 130.043 602.446C129.033 602.446 128.505 602.237 128.45 602.214Z" fill="#F9F9F9"/>
<path d="M138.613 571.852C138.584 572.142 138.348 572.372 138.059 572.403C138.029 572.407 135.038 572.793 132.251 578.366C132.143 578.583 131.925 578.707 131.698 578.707C131.606 578.707 131.512 578.686 131.423 578.642C131.119 578.49 130.996 578.12 131.148 577.815C133.624 572.864 136.341 571.599 137.446 571.281C137.893 568.536 139.864 565.555 139.951 565.423C140.139 565.138 140.522 565.063 140.806 565.252C141.089 565.441 141.167 565.823 140.977 566.107C140.957 566.137 138.868 569.294 138.613 571.852" fill="#F9F9F9"/>
<path d="M168.406 574.259C168.318 574.304 168.223 574.325 168.13 574.325C167.904 574.325 167.688 574.201 167.578 573.987C167.463 573.757 164.653 568.375 157.812 569.388C157.469 569.429 157.162 569.205 157.111 568.87C157.061 568.533 157.294 568.219 157.63 568.168C165.388 567.026 168.648 573.369 168.681 573.434C168.832 573.738 168.709 574.106 168.406 574.259" fill="#F9F9F9"/>
<path d="M143.076 628.5C143.413 628.543 143.652 628.851 143.609 629.189C143.601 629.266 142.699 636.968 148.152 642.225C148.396 642.463 148.404 642.853 148.167 643.097C148.046 643.223 147.885 643.285 147.722 643.285C147.568 643.285 147.416 643.229 147.295 643.113C141.388 637.417 142.343 629.373 142.387 629.032C142.43 628.696 142.733 628.454 143.076 628.5Z" fill="#F9F9F9"/>
<path d="M111.377 602.99C112.106 603.273 112.732 603.604 113.315 603.95C110.997 593.993 115.586 589.355 115.793 589.153C116.035 588.917 116.425 588.923 116.665 589.166C116.901 589.41 116.897 589.801 116.651 590.038C116.604 590.085 111.936 594.788 114.859 605.026C116.662 606.514 117.419 608.001 117.463 608.093C117.609 608.4 117.48 608.768 117.172 608.915C117.086 608.956 116.995 608.975 116.907 608.975C116.676 608.975 116.457 608.846 116.35 608.625C116.337 608.596 114.903 605.678 110.933 604.14C110.615 604.018 110.457 603.661 110.579 603.344C110.703 603.026 111.056 602.871 111.377 602.99" fill="#F9F9F9"/>
<path d="M223.606 594.086C215.253 588.717 210.55 585.393 210.999 579.551C211.24 576.421 210.139 573.384 208.258 571.991C207.09 571.126 205.698 570.973 204.237 571.544C203.921 571.67 203.562 571.512 203.439 571.195C203.313 570.878 203.471 570.519 203.787 570.396C205.664 569.662 207.466 569.871 208.991 571C211.234 572.661 212.505 576.054 212.227 579.646C211.852 584.53 215.61 587.481 224.272 593.05C233.203 598.79 230.101 608.258 230.07 608.352C229.981 608.609 229.743 608.771 229.488 608.771C229.421 608.771 229.353 608.76 229.288 608.738C228.966 608.629 228.793 608.278 228.903 607.956C229.021 607.605 231.713 599.298 223.606 594.086" fill="#F9F9F9"/>
<path d="M215.325 569.462C215.316 569.42 214.329 565.265 210.39 563.952C210.067 563.845 209.893 563.496 210.001 563.173C210.11 562.849 210.454 562.678 210.781 562.783C214.586 564.051 216 567.483 216.399 568.732C218.654 568.956 220.05 570.716 220.111 570.795C220.32 571.064 220.271 571.449 220.004 571.659C219.891 571.747 219.758 571.789 219.624 571.789C219.442 571.789 219.26 571.709 219.139 571.554C219.126 571.537 217.845 569.942 215.927 569.942C215.638 569.942 215.389 569.743 215.325 569.462" fill="#F9F9F9"/>
<path d="M235.408 611.36C239.206 614.264 237.689 618.982 237.673 619.03C237.587 619.287 237.346 619.451 237.089 619.451C237.025 619.451 236.958 619.44 236.895 619.418C236.571 619.312 236.397 618.964 236.503 618.641C236.555 618.481 237.751 614.702 234.659 612.339C234.388 612.132 234.337 611.745 234.544 611.474C234.749 611.207 235.136 611.153 235.408 611.36Z" fill="#F9F9F9"/>
</g>
</g>
<defs>
<filter id="filter0_f" x="81.1015" y="0.476685" width="589.093" height="476.025" filterUnits="userSpaceOnUse" color-interpolation-filters="sRGB">
<feFlood flood-opacity="0" result="BackgroundImageFix"/>
<feBlend mode="normal" in="SourceGraphic" in2="BackgroundImageFix" result="shape"/>
<feGaussianBlur stdDeviation="30" result="effect1_foregroundBlur"/>
</filter>
<filter id="filter1_d" x="120.282" y="290.353" width="516.34" height="398.6" filterUnits="userSpaceOnUse" color-interpolation-filters="sRGB">
<feFlood flood-opacity="0" result="BackgroundImageFix"/>
<feColorMatrix in="SourceAlpha" type="matrix" values="0 0 0 0 0 0 0 0 0 0 0 0 0 0 0 0 0 0 127 0"/>
<feOffset dy="4"/>
<feGaussianBlur stdDeviation="2"/>
<feColorMatrix type="matrix" values="0 0 0 0 0 0 0 0 0 0 0 0 0 0 0 0 0 0 0.25 0"/>
<feBlend mode="normal" in2="BackgroundImageFix" result="effect1_dropShadow"/>
<feBlend mode="normal" in="SourceGraphic" in2="effect1_dropShadow" result="shape"/>
</filter>
<filter id="filter2_d" x="180.962" y="119.344" width="418.604" height="154.133" filterUnits="userSpaceOnUse" color-interpolation-filters="sRGB">
<feFlood flood-opacity="0" result="BackgroundImageFix"/>
<feColorMatrix in="SourceAlpha" type="matrix" values="0 0 0 0 0 0 0 0 0 0 0 0 0 0 0 0 0 0 127 0"/>
<feOffset dy="4"/>
<feGaussianBlur stdDeviation="2"/>
<feColorMatrix type="matrix" values="0 0 0 0 0 0 0 0 0 0 0 0 0 0 0 0 0 0 0.25 0"/>
<feBlend mode="normal" in2="BackgroundImageFix" result="effect1_dropShadow"/>
<feBlend mode="normal" in="SourceGraphic" in2="effect1_dropShadow" result="shape"/>
</filter>
<filter id="filter3_d" x="31.8125" y="457.922" width="312.508" height="268.259" filterUnits="userSpaceOnUse" color-interpolation-filters="sRGB">
<feFlood flood-opacity="0" result="BackgroundImageFix"/>
<feColorMatrix in="SourceAlpha" type="matrix" values="0 0 0 0 0 0 0 0 0 0 0 0 0 0 0 0 0 0 127 0"/>
<feOffset dy="4"/>
<feGaussianBlur stdDeviation="2"/>
<feColorMatrix type="matrix" values="0 0 0 0 0 0 0 0 0 0 0 0 0 0 0 0 0 0 0.25 0"/>
<feBlend mode="normal" in2="BackgroundImageFix" result="effect1_dropShadow"/>
<feBlend mode="normal" in="SourceGraphic" in2="effect1_dropShadow" result="shape"/>
</filter>
<filter id="filter4_i" x="135.202" y="638.126" width="107.332" height="84.0548" filterUnits="userSpaceOnUse" color-interpolation-filters="sRGB">
<feFlood flood-opacity="0" result="BackgroundImageFix"/>
<feBlend mode="normal" in="SourceGraphic" in2="BackgroundImageFix" result="shape"/>
<feColorMatrix in="SourceAlpha" type="matrix" values="0 0 0 0 0 0 0 0 0 0 0 0 0 0 0 0 0 0 127 0" result="hardAlpha"/>
<feOffset dy="4"/>
<feGaussianBlur stdDeviation="2"/>
<feComposite in2="hardAlpha" operator="arithmetic" k2="-1" k3="1"/>
<feColorMatrix type="matrix" values="0 0 0 0 0 0 0 0 0 0 0 0 0 0 0 0 0 0 0.25 0"/>
<feBlend mode="normal" in2="shape" result="effect1_innerShadow"/>
</filter>
<filter id="filter5_i" x="35.8125" y="457.922" width="304.508" height="159.914" filterUnits="userSpaceOnUse" color-interpolation-filters="sRGB">
<feFlood flood-opacity="0" result="BackgroundImageFix"/>
<feBlend mode="normal" in="SourceGraphic" in2="BackgroundImageFix" result="shape"/>
<feColorMatrix in="SourceAlpha" type="matrix" values="0 0 0 0 0 0 0 0 0 0 0 0 0 0 0 0 0 0 127 0" result="hardAlpha"/>
<feOffset dy="4"/>
<feGaussianBlur stdDeviation="2"/>
<feComposite in2="hardAlpha" operator="arithmetic" k2="-1" k3="1"/>
<feColorMatrix type="matrix" values="0 0 0 0 0 0 0 0 0 0 0 0 0 0 0 0 0 0 0.25 0"/>
<feBlend mode="normal" in2="shape" result="effect1_innerShadow"/>
</filter>
<filter id="filter6_i" x="100.549" y="547.185" width="158.924" height="119" filterUnits="userSpaceOnUse" color-interpolation-filters="sRGB">
<feFlood flood-opacity="0" result="BackgroundImageFix"/>
<feBlend mode="normal" in="SourceGraphic" in2="BackgroundImageFix" result="shape"/>
<feColorMatrix in="SourceAlpha" type="matrix" values="0 0 0 0 0 0 0 0 0 0 0 0 0 0 0 0 0 0 127 0" result="hardAlpha"/>
<feOffset dy="4"/>
<feGaussianBlur stdDeviation="2"/>
<feComposite in2="hardAlpha" operator="arithmetic" k2="-1" k3="1"/>
<feColorMatrix type="matrix" values="0 0 0 0 0 0 0 0 0 0 0 0 0 0 0 0 0 0 0.25 0"/>
<feBlend mode="normal" in2="shape" result="effect1_innerShadow"/>
</filter>
<radialGradient id="paint0_angular" cx="0" cy="0" r="1" gradientUnits="userSpaceOnUse" gradientTransform="translate(313.975 526.302) rotate(145.596) scale(145.535 193.089)">
<stop stop-color="#A8E4EE"/>
<stop offset="1" stop-color="#A8E4EE" stop-opacity="0"/>
</radialGradient>
</defs>
</svg>
