<svg width="670" height="702" viewBox="0 0 670 702" fill="none" xmlns="http://www.w3.org/2000/svg">
<path d="M248.997 702H108.096C99.7632 702 93 695.237 93 686.903V576.196C93 567.863 99.7632 561.099 108.096 561.099H248.997C257.33 561.099 264.093 567.863 264.093 576.196V686.903C264.093 695.237 257.33 702 248.997 702Z" fill="#CFD8DC"/>
<path d="M168.482 561.099H108.096C99.7632 561.099 93 567.863 93 576.196V686.903C93 695.237 99.7632 702 108.096 702H168.482V561.099Z" fill="#B4BCC0"/>
<path d="M560.991 702H420.09C411.757 702 404.994 695.237 404.994 686.903V616.453C404.994 608.12 411.757 601.357 420.09 601.357H560.991C569.324 601.357 576.087 608.12 576.087 616.453V686.903C576.087 695.237 569.324 702 560.991 702Z" fill="#CFD8DC"/>
<path d="M500.605 601.357H420.09C411.757 601.357 404.994 608.12 404.994 616.453V686.903C404.994 695.237 411.757 702 420.09 702H500.605V601.357Z" fill="#B4BCC0"/>
<path d="M367.044 227.321C364.104 226.991 361.259 225.801 358.894 223.774L323.861 193.717L283.042 215.269C277.506 218.214 270.709 217.411 266.012 213.238C261.311 209.106 259.644 202.478 261.863 196.59L279.083 150.861L246.721 116.304C242.509 111.78 241.447 105.18 244.077 99.6007C246.69 93.9995 252.422 90.571 258.583 90.8972L304.178 93.4167L325.696 50.3574C328.5 44.6764 334.58 41.3882 340.862 42.0924C347.143 42.7967 352.344 47.3498 353.84 53.513L365.288 100.268L410.308 107.909C416.389 108.955 421.219 113.568 422.527 119.609C423.837 125.629 421.359 131.833 416.249 135.311L377.037 161.864L383.701 210.271C384.562 216.504 381.491 222.581 375.968 225.587C373.166 227.096 370.045 227.657 367.044 227.321V227.321Z" fill="#FFC107"/>
<path d="M420.09 702H248.997C240.664 702 233.9 695.237 233.9 686.903V455.424C233.9 447.091 240.664 440.328 248.997 440.328H420.09C428.424 440.328 435.187 447.091 435.187 455.424V686.903C435.187 695.237 428.424 702 420.09 702Z" fill="#ECEFF1"/>
<path d="M334.544 621.485C326.21 621.485 319.447 614.722 319.447 606.389V547.191C316.368 544.433 314.415 540.407 314.415 535.939C314.415 527.605 321.178 520.842 329.512 520.842H334.544C342.877 520.842 349.64 527.605 349.64 535.939V606.389C349.64 614.722 342.877 621.485 334.544 621.485Z" fill="#21616F"/>
<path d="M340.862 42.0924C334.581 41.3882 328.5 44.6764 325.676 50.3551L304.158 93.4145L258.584 90.8972C252.422 90.571 246.69 93.9995 244.077 99.6007C241.467 105.182 242.509 111.78 246.722 116.304L279.08 150.881L261.863 196.59C259.644 202.478 261.293 209.084 266.012 213.238C268.389 215.348 271.308 216.587 274.309 216.923C277.249 217.253 280.306 216.725 283.042 215.269L323.861 193.717L340.862 42.0924Z" fill="#DEA806"/>
<path d="M334.544 440.328H248.997C240.664 440.328 233.9 447.091 233.9 455.424V686.903C233.9 695.237 240.664 702 248.997 702H334.544V621.485C326.21 621.485 319.447 614.722 319.447 606.389V547.191C316.367 544.433 314.415 540.407 314.415 535.939C314.415 527.605 321.178 520.842 329.511 520.842H334.544V440.328Z" fill="#CDD0D2"/>
<path d="M334.544 520.842H329.512C321.178 520.842 314.415 527.605 314.415 535.939C314.415 540.407 316.368 544.433 319.447 547.191V606.389C319.447 614.722 326.21 621.485 334.544 621.485V520.842Z" fill="#0D3C46"/>
<g filter="url(#filter0_d)">
<g filter="url(#filter1_i)">
<path d="M360.64 350.039C363.77 368.772 362.211 412.733 362.211 419.908C362.21 434.864 359.888 441.985 359.888 449.712M289.879 350.039C293.009 368.772 293.772 413.837 291.012 421.564C285.982 435.649 282.181 437.018 277.099 435.362" stroke="#F9F9F9" stroke-width="5" stroke-linecap="round" stroke-linejoin="round"/>
</g>
<g filter="url(#filter2_i)">
<path d="M384.775 305.328C393.67 324.977 436.168 342.087 449.415 305.328C469.058 250.818 421.366 166.955 409.676 156.64M263.575 317.706C218.361 299.999 234.207 233.704 247.41 170.99" stroke="#F9F9F9" stroke-width="5" stroke-linecap="round" stroke-linejoin="round"/>
</g>
<path d="M267.101 356.796C263.749 356.445 256.812 354.439 252.419 344.315L290.671 316.139H405.333L407.775 329.181C408.892 332.993 410.558 341.81 405.333 349.722C400.039 357.736 391.088 358.817 387.63 358.918C386.565 360.446 384.607 362.538 381.775 362.78C381.206 362.83 380.058 364.139 379.041 365.3L379.027 365.315C377.328 367.255 375.216 369.666 372.092 371.318C367.955 373.507 363.659 373.914 361.293 373.944C360.271 375.393 358.385 377.258 354.939 379.688C351.099 382.396 346.791 382.961 343.853 382.961C340.228 382.961 336.635 382.083 334.698 380.725C333.794 380.092 330.838 379.607 328.226 379.178L328.216 379.176C325.046 378.657 321.456 378.066 317.9 376.901C313.315 375.398 310.781 373.925 309.414 372.88C307.618 373.378 304.152 374.187 300.56 374.187C297.661 374.187 295.193 373.658 293.229 372.605C288.806 370.242 286.302 365.808 285.066 362.899C283.235 363.446 280.539 364.067 277.773 364.067C276.692 364.067 275.661 363.97 274.713 363.781C270.25 362.888 268.081 359.272 267.101 356.796Z" fill="#914100"/>
<path d="M404.577 268.024C408.505 273.045 409.171 280.649 409.252 284.25C418.451 291.113 417.677 306.271 414.854 314.633C412.685 321.057 409.345 326.663 407.689 329.236C392.802 315.867 352.827 324.994 329.065 329.236C310.056 332.628 302.643 323.858 301.312 319.048C301.312 306.013 329.286 288.403 346.582 275.825C360.418 265.762 348.145 246.628 340.279 238.319C346.008 238.319 350.836 242.895 352.827 245.095C353.087 245.075 353.348 245.067 353.606 245.067C357.858 245.067 361.187 247.6 363.083 249.491C364.614 248.502 366.45 247.974 368.443 247.974C371.434 247.974 374.383 249.158 376.33 251.14C377.473 252.303 378.677 252.482 381.079 252.752L381.08 252.752C382.478 252.908 384.065 253.086 385.952 253.578C390.532 254.776 393.558 260.212 394.924 263.248C398.873 263.276 402.121 264.882 404.577 268.024Z" fill="#DE8843"/>
<path d="M336.352 239.215C337.732 238.617 339.179 238.315 340.656 238.315C348.544 246.616 360.852 265.731 346.976 275.784C329.631 288.35 301.577 305.942 301.577 318.965C301.577 331.988 286.571 341.812 275.119 341.812C263.667 341.812 259.935 338.469 252.66 344.253C247.494 332.385 254.101 316.161 255.796 312.367C255.78 308.279 256.748 304.951 258.68 302.463C260.278 300.406 262.183 299.393 263.667 298.896C263.904 296.515 264.569 292.613 266.29 286.568C268.794 277.782 275.627 274.074 279.449 272.649C279.167 269.122 279.779 263.314 284.637 256.398C289.347 249.694 296.449 248.287 301.577 248.287C303.281 248.287 304.743 248.445 305.777 248.601C307.487 246.383 311.22 242.895 317.769 242.895L318.342 242.904C326.14 243.143 328.63 242.557 336.352 239.215Z" fill="#F7CA63"/>
<g filter="url(#filter3_i)">
<path d="M401.087 311.807C398.805 318.548 394.698 324.39 394.657 324.447C394.069 325.279 393.95 326.453 394.356 327.427C394.388 327.503 397.441 335.02 393.286 341.3C389.592 346.882 382.755 347.315 380.747 347.315C380.461 347.315 380.287 347.306 380.264 347.304L380.212 347.309C380.874 345.641 381.584 343.332 382.082 340.285C382.853 339.83 385.107 338.286 386.852 334.882C387.017 334.562 386.934 334.143 386.666 333.947C386.401 333.749 386.052 333.849 385.887 334.17C384.717 336.451 383.27 337.825 382.333 338.545C382.683 335.726 382.845 332.376 382.652 328.439C382.633 328.064 382.36 327.772 382.053 327.799C381.74 327.821 381.502 328.144 381.52 328.518C382.033 339.013 379.922 345.232 378.611 348.022C378.443 348.205 378.294 348.412 378.176 348.65C378.165 348.67 377.173 350.592 375.815 350.709C373.693 350.891 372.192 352.6 370.602 354.413C369.301 355.895 367.825 357.575 365.803 358.641C362.654 360.306 359.209 360.485 357.876 360.485C357.389 360.485 357.091 360.464 357.059 360.459C356.425 360.407 355.81 360.665 355.348 361.18C355.061 361.5 354.851 361.898 354.733 362.338C354.522 362.671 353.577 363.937 350.264 366.269C347.768 368.025 344.837 368.393 342.817 368.393C340.047 368.393 337.782 367.679 337.057 367.173C335.485 366.071 332.927 365.653 329.69 365.124C327.044 364.689 324.043 364.198 321.205 363.27C316.242 361.647 314.777 360.242 314.754 360.242V360.245C314.419 359.787 313.971 359.51 313.491 359.396C311.77 356.961 309.858 353.024 308.818 346.788C308.757 346.419 308.456 346.181 308.152 346.255C307.845 346.329 307.646 346.687 307.708 347.056C308.693 352.965 310.416 356.918 312.088 359.529C311.07 359.838 307.934 360.7 304.776 360.7C302.868 360.7 301.32 360.39 300.176 359.78C299.418 359.376 298.751 358.857 298.165 358.283C298.162 358.004 298.108 357.723 297.958 357.483C297.531 356.798 287.751 340.669 299.637 325.077C301.007 326.229 304.03 328.198 309.442 329.182C307.014 330.606 303.349 333.887 301.569 341.039C300.579 340.071 299.96 339.179 299.947 339.159C299.747 338.868 299.39 338.826 299.149 339.064C298.907 339.302 298.87 339.73 299.069 340.021C299.142 340.129 300.057 341.443 301.475 342.67C301.517 342.721 301.564 342.76 301.619 342.793C302.891 343.863 304.542 344.835 306.36 344.835C306.548 344.835 306.739 344.825 306.931 344.803C307.242 344.768 307.472 344.434 307.442 344.061C307.412 343.686 307.146 343.424 306.824 343.447C305.243 343.634 303.735 342.845 302.537 341.895C304.811 332.034 310.845 329.824 311.86 329.524C312.937 329.642 314.07 329.732 315.307 329.764C315.518 329.769 315.726 329.771 315.934 329.771C324.083 329.771 327.507 325.693 328.877 323.025C329.288 325.361 329.582 329.903 326.742 333.612C326.53 333.889 326.545 334.319 326.776 334.574C326.884 334.693 327.022 334.753 327.161 334.753C327.313 334.753 327.465 334.679 327.577 334.533C331.493 329.418 330.163 323.103 329.702 321.401C331.088 321.575 334.586 321.545 339.775 318.192C340.589 317.666 341.42 317.103 342.26 316.53C348.172 312.52 354.283 308.364 359.28 313.861C359.51 314.115 359.87 314.099 360.08 313.819C360.293 313.542 360.276 313.112 360.045 312.859C354.445 306.695 347.672 311.292 341.701 315.348C340.868 315.914 340.044 316.473 339.236 316.995C333.008 321.02 329.356 319.97 329.322 319.96C329.178 319.914 329.02 319.938 328.887 320.031C328.756 320.125 328.661 320.277 328.624 320.455C328.555 320.791 326.726 328.697 315.33 328.404C314.153 328.374 313.075 328.289 312.049 328.176C311.971 328.148 311.891 328.136 311.807 328.152C305.109 327.374 301.594 325.051 300.232 323.901C300.274 323.52 300.201 323.122 299.979 322.814C299.855 322.641 296.948 318.446 300.174 309.278C303.277 300.459 310.696 299.039 311.009 298.984C311.394 298.916 311.724 298.615 311.882 298.191C311.924 298.077 316.18 286.804 322.742 285.989C323.16 285.938 323.52 285.611 323.678 285.143C323.709 285.046 326.999 275.444 334.433 275.716C334.969 275.78 335.49 275.247 335.585 274.575C335.592 274.53 336.267 270.084 340.894 265.087C345.176 260.462 351.446 259.252 355.933 260.069C357.094 261.006 357.79 261.958 357.801 261.971C358.209 262.554 358.803 262.906 359.437 262.939C360.07 262.98 360.691 262.684 361.139 262.144C361.857 261.283 363.036 260.807 364.455 260.807C365.999 260.807 367.573 261.393 368.465 262.298C370.603 264.469 372.813 264.716 375.154 264.976C376.31 265.105 377.504 265.238 378.896 265.6C381.484 266.276 383.708 271.018 384.282 272.622L384.308 272.67C384.884 275.551 385.453 280.311 384.554 285.711C384.492 286.081 384.691 286.439 384.998 286.512C385.036 286.521 385.073 286.525 385.11 286.525C385.375 286.525 385.611 286.302 385.665 285.979C386.442 281.32 386.186 277.162 385.735 274.153C386.003 274.248 386.281 274.301 386.572 274.27C389.371 273.965 391.425 274.756 392.935 276.675C396.152 280.764 395.825 288.555 395.822 288.628C395.765 289.726 396.267 290.756 397.092 291.24C403.399 294.933 403.225 305.489 401.087 311.807V311.807ZM291.716 350.397C291.682 350.41 288.201 351.823 284.754 351.823C284.053 351.823 283.398 351.763 282.811 351.647C279.946 351.073 279.239 347.954 279.174 347.629C279.081 347.119 278.874 346.672 278.588 346.318C280.637 344.251 282.582 340.548 282.068 334.094C282.502 334.212 282.969 334.289 283.49 334.289C284.061 334.289 284.686 334.206 285.369 334.016C285.673 333.932 285.863 333.567 285.792 333.201C285.722 332.835 285.42 332.604 285.113 332.692C280.751 333.901 279.302 330.073 279.242 329.91C279.118 329.567 278.786 329.412 278.499 329.556C278.212 329.703 278.078 330.101 278.199 330.446C278.212 330.478 278.974 332.51 280.895 333.604C281.581 340.238 279.574 343.773 277.604 345.6C277.339 345.507 277.055 345.467 276.761 345.496C276.727 345.499 276.628 345.505 276.473 345.505H276.472C274.956 345.505 269.757 344.923 266.497 337.424C262.854 329.042 268.559 315.965 269.376 314.177C270.135 316.523 271.291 318.972 273.057 320.827C273.164 320.939 273.297 320.995 273.431 320.995C273.588 320.995 273.745 320.916 273.858 320.763C274.063 320.48 274.039 320.049 273.805 319.803C271.59 317.478 270.41 314.031 269.781 311.219C269.941 307.678 271.411 306.184 272.702 305.561C272.747 305.565 272.792 305.574 272.838 305.565C273.872 305.337 276.726 305.073 278.087 306.299C277.207 308.126 277.608 309.763 277.615 309.788C277.691 310.076 277.914 310.262 278.154 310.262C278.212 310.262 278.269 310.25 278.326 310.229C278.625 310.115 278.789 309.732 278.695 309.374C278.687 309.347 278.001 306.587 281.425 304.599C281.706 304.437 281.825 304.029 281.689 303.691C281.553 303.353 281.214 303.213 280.932 303.374C279.969 303.933 279.283 304.562 278.778 305.202C278.046 304.544 277.076 304.224 276.12 304.091C276.488 303.51 276.659 302.819 276.565 302.091C276.563 302.063 276.405 299.189 278.727 291.033C280.888 283.436 288.957 281.744 289.033 281.729C289.412 281.657 289.756 281.452 290.049 281.168C292.907 281.883 296.731 283.547 299.452 287.417C299.565 287.577 299.724 287.66 299.886 287.66C300.015 287.66 300.145 287.607 300.252 287.499C300.489 287.257 300.522 286.828 300.319 286.541C297.52 282.559 293.739 280.768 290.77 279.953C290.973 279.286 290.965 278.535 290.726 277.883C290.658 277.697 289.113 273.245 293.999 266.282C297.008 261.995 301.855 261.095 305.392 261.095C307.797 261.095 309.549 261.519 309.561 261.523C310.494 261.757 311.466 261.231 311.969 260.265C312.052 260.106 314.069 256.358 319.597 256.358L319.983 256.364C320.853 256.391 321.655 256.406 322.406 256.406C324.9 256.406 326.874 256.221 328.743 255.841C325.933 257.84 322.934 260.794 320.849 264.99C318.268 264.266 316.024 265.188 315.884 265.25C315.589 265.376 315.435 265.765 315.54 266.117C315.646 266.471 315.968 266.656 316.265 266.529C316.389 266.479 318.364 265.675 320.619 266.324C320.661 266.387 320.712 266.443 320.775 266.484C320.861 266.543 320.956 266.57 321.049 266.57C321.101 266.57 321.145 266.539 321.194 266.523C322.177 266.915 323.187 267.598 324.101 268.773C324.211 268.916 324.363 268.989 324.514 268.989C324.652 268.989 324.791 268.929 324.901 268.806C325.13 268.55 325.142 268.12 324.929 267.846C323.995 266.645 322.976 265.876 321.972 265.4C326.693 256.256 336.383 253.428 336.484 253.399C336.65 253.353 336.776 253.221 336.851 253.053C337.053 252.967 337.233 252.893 337.441 252.802C338.156 252.492 338.906 252.336 339.676 252.336C344.162 252.336 348.193 257.479 348.23 257.526C348.282 257.594 348.348 257.644 348.405 257.705C345.28 258.505 342.066 260.158 339.377 263.063C335.505 267.244 334.085 271.138 333.59 273.002C327.315 273.311 323.769 279.187 322.329 282.278C321.521 280.867 319.743 278.594 316.331 277.624C316.025 277.542 315.72 277.766 315.648 278.13C315.575 278.495 315.764 278.862 316.068 278.948C319.556 279.94 321.09 282.386 321.613 283.459C315.203 284.989 311.111 293.895 310.067 296.431C307.972 296.982 301.185 299.411 298.085 308.22C295.176 316.491 296.712 321.543 297.689 323.587C290.468 333.311 290.891 343.346 292.638 350.262C292.33 350.232 292.015 350.274 291.716 350.397V350.397ZM400.359 287.196C400.289 284.036 399.702 277.364 396.246 272.958C394.085 270.201 391.228 268.792 387.753 268.767C386.552 266.103 383.889 261.333 379.86 260.282C378.199 259.85 376.803 259.694 375.573 259.557C373.459 259.321 372.4 259.163 371.394 258.143C369.681 256.404 367.087 255.365 364.455 255.365C362.701 255.365 361.086 255.828 359.739 256.696C358.071 255.036 355.142 252.814 351.401 252.814C351.174 252.814 350.944 252.821 350.716 252.838C348.964 250.908 344.716 246.893 339.676 246.893C338.38 246.893 337.111 247.158 335.901 247.683C329.126 250.619 326.941 251.133 320.1 250.924L319.597 250.915C313.851 250.915 310.577 253.98 309.076 255.928C308.169 255.79 306.886 255.652 305.392 255.652C300.893 255.652 294.662 256.888 290.53 262.776C286.268 268.85 285.731 273.951 285.979 277.049C282.625 278.301 276.631 281.558 274.434 289.275C272.924 294.585 272.341 298.012 272.133 300.103C270.831 300.539 269.16 301.429 267.758 303.236C266.063 305.422 265.214 308.344 265.227 311.935C263.74 315.267 257.944 329.517 262.476 339.942C266.336 348.821 272.432 350.58 275.377 350.888C276.238 353.059 278.144 356.231 282.065 357.014C282.898 357.18 283.804 357.265 284.754 357.265C287.185 357.265 289.554 356.72 291.162 356.241C292.248 358.792 294.449 362.681 298.335 364.753C300.061 365.676 302.229 366.14 304.776 366.14C307.933 366.14 310.978 365.431 312.556 364.994C313.758 365.911 315.984 367.203 320.013 368.521C323.137 369.542 326.292 370.061 329.077 370.516C331.374 370.892 333.977 371.318 334.772 371.875C336.475 373.065 339.632 373.836 342.817 373.836C345.398 373.836 349.184 373.339 352.558 370.964C355.586 368.834 357.243 367.198 358.141 365.927C360.22 365.901 363.995 365.544 367.63 363.624C370.375 362.175 372.231 360.061 373.724 358.36C374.621 357.338 375.637 356.18 376.138 356.136C378.627 355.924 380.347 354.089 381.283 352.749C384.321 352.66 392.186 351.712 396.838 344.684C401.43 337.745 399.965 330.012 398.984 326.669C400.442 324.412 403.38 319.493 405.288 313.856C407.772 306.519 408.453 293.218 400.359 287.196" fill="#F9F9F9"/>
<path d="M318.845 299.226C318.964 299.226 319.083 299.182 319.185 299.09C319.222 299.056 323.036 295.678 327.261 297.085C327.442 297.147 327.64 297.091 327.783 296.943C327.927 296.793 327.999 296.567 327.973 296.341C327.935 295.99 327.115 287.692 333.712 283.734C333.993 283.566 334.106 283.157 333.965 282.821C333.826 282.486 333.485 282.349 333.207 282.517C327.253 286.089 326.77 293.027 326.804 295.564C322.386 294.575 318.67 297.853 318.504 298.002C318.254 298.227 318.204 298.653 318.391 298.955C318.503 299.133 318.673 299.226 318.845 299.226Z" fill="#F9F9F9"/>
<path d="M365.832 321.324C365.6 321.577 365.581 322.006 365.791 322.286C368.134 325.396 368.51 328.706 366.85 331.604C364.575 335.582 359.2 337.683 355.582 336.01C348.714 332.84 342.948 333.877 340.531 338.715C338.442 342.891 332.712 343.52 332.655 343.526C332.372 343.554 332.151 343.827 332.136 344.165C332.133 344.215 331.842 349.127 326.265 350.801C320.617 352.488 316.88 348.141 316.725 347.955C316.504 347.691 316.145 347.691 315.923 347.957C315.703 348.223 315.703 348.653 315.923 348.918C316.069 349.094 319.016 352.552 323.671 352.552C324.566 352.552 325.525 352.424 326.539 352.119C331.807 350.541 332.955 346.365 333.202 344.82C334.701 344.576 339.46 343.5 341.503 339.414C343.616 335.181 348.858 334.364 355.173 337.28C359.306 339.188 365.2 336.894 367.785 332.374C368.936 330.365 370.313 326.265 366.633 321.373C366.422 321.095 366.064 321.073 365.832 321.324" fill="#F9F9F9"/>
<path d="M336.725 331.809C336.808 331.86 336.898 331.885 336.986 331.885C337.191 331.885 337.388 331.752 337.489 331.519C337.522 331.443 340.741 324.263 348.721 323.497C348.517 324.763 348.479 326.191 348.781 327.732C348.842 328.046 349.075 328.257 349.332 328.257C349.375 328.257 349.42 328.252 349.462 328.239C349.768 328.153 349.957 327.787 349.885 327.421C349.586 325.898 349.676 324.484 349.932 323.262C350.067 323.133 350.157 322.942 350.151 322.72C350.148 322.649 350.131 322.585 350.113 322.521C350.712 320.377 351.748 318.989 351.765 318.967C351.976 318.689 351.961 318.259 351.731 318.006C351.502 317.753 351.143 317.768 350.931 318.044C350.851 318.148 349.691 319.697 349.023 322.107C340.139 322.718 336.63 330.551 336.483 330.892C336.339 331.226 336.448 331.636 336.725 331.809" fill="#F9F9F9"/>
<path d="M359.308 278.108C360.398 277.888 361.617 278.031 362.916 278.886C363.189 279.067 363.534 278.947 363.686 278.618C363.836 278.288 363.737 277.875 363.462 277.694C358.06 274.128 353.71 280.833 353.668 280.902C353.478 281.201 353.526 281.626 353.774 281.854C353.877 281.948 353.998 281.992 354.118 281.992C354.289 281.992 354.458 281.902 354.569 281.726C354.663 281.579 356.077 279.416 358.204 278.459C360.887 285.4 356.888 290.148 356.139 290.948C355.68 290.643 355.173 290.343 354.584 290.058C347.327 286.529 342.254 294.721 338.894 300.141C337.718 302.039 336.701 303.679 335.907 304.339C332.868 306.864 326.574 305.453 326.512 305.44C326.213 305.369 325.924 305.596 325.852 305.949C325.836 306.031 324.118 314.244 318.296 314.802C312.535 315.349 311.119 311.187 311.062 311.005C310.95 310.656 310.625 310.483 310.331 310.61C310.038 310.742 309.89 311.133 310 311.486C310.064 311.69 311.547 316.214 317.263 316.214C317.621 316.214 317.996 316.197 318.386 316.159C324.008 315.619 326.242 308.952 326.805 306.878C328.45 307.182 333.632 307.884 336.553 305.457C337.5 304.67 338.517 303.03 339.805 300.953C343.145 295.566 347.723 288.183 354.157 291.319C357.43 292.91 358.83 295.061 358.094 297.375C357.348 299.724 354.476 301.647 352.797 300.932C352.503 300.802 352.178 300.989 352.073 301.344C351.967 301.697 352.121 302.087 352.416 302.213C354.704 303.197 358.17 300.957 359.154 297.861C359.527 296.685 359.907 294.063 357.13 291.685C358.344 290.233 361.905 285.133 359.308 278.108" fill="#F9F9F9"/>
<path d="M358.351 351.388C355.738 351.676 352.59 350.236 352.559 350.222C352.323 350.111 352.055 350.206 351.903 350.448C348.36 356.113 343.366 355.911 343.311 355.92C342.992 355.896 342.734 356.195 342.719 356.57C342.704 356.945 342.946 357.261 343.257 357.281C343.279 357.281 343.338 357.284 343.435 357.284C344.405 357.284 349.013 356.992 352.553 351.663C353.534 352.063 356.136 352.987 358.453 352.742C358.766 352.709 358.994 352.377 358.967 352.004C358.938 351.63 358.65 351.351 358.351 351.388Z" fill="#F9F9F9"/>
<path d="M377.348 290.643C378.471 289.547 380.281 287.56 381.325 285.264C381.474 284.934 381.373 284.521 381.099 284.341C380.823 284.162 380.479 284.283 380.33 284.612C378.902 287.754 375.749 290.399 375.718 290.426C375.526 290.586 375.435 290.868 375.488 291.14C375.54 291.412 375.726 291.617 375.955 291.659C378.568 292.129 381.451 294.487 383.301 297.668C384.73 300.124 386.239 304.188 385.31 309.594C383.968 317.416 378.269 320.513 376.05 321.438C376.175 318.655 376.696 316.626 376.705 316.591C376.801 316.232 376.635 315.85 376.337 315.736C376.042 315.628 375.721 315.82 375.626 316.178C375.581 316.344 374.966 318.746 374.891 321.958C374.758 322.118 374.686 322.346 374.732 322.583C374.755 322.704 374.82 322.791 374.886 322.875C374.907 324.886 375.159 327.138 375.891 329.336C375.98 329.603 376.193 329.764 376.417 329.764C376.487 329.764 376.559 329.748 376.628 329.714C376.919 329.574 377.061 329.18 376.944 328.831C376.278 326.83 376.049 324.749 376.03 322.878C378.102 322.088 384.879 318.857 386.421 309.87C387.431 303.989 385.787 299.566 384.231 296.889C382.463 293.85 379.91 291.557 377.348 290.643" fill="#F9F9F9"/>
<path d="M381.294 307.637C381.581 307.494 381.716 307.104 381.6 306.759C381.483 306.413 381.15 306.246 380.866 306.378C380.837 306.391 377.967 307.627 372.074 302.819C369.627 300.823 367.447 300.107 365.593 300.684C363.559 301.321 362.717 303.295 362.681 303.38C362.541 303.716 362.656 304.125 362.934 304.293C363.22 304.464 363.555 304.325 363.695 303.989C363.701 303.973 364.338 302.484 365.878 302.002C367.408 301.522 369.274 302.178 371.437 303.944C375.489 307.251 378.277 307.893 379.829 307.893C380.758 307.893 381.244 307.662 381.294 307.637Z" fill="#F9F9F9"/>
<path d="M371.946 274.122C371.972 274.442 372.19 274.696 372.456 274.73C372.483 274.735 375.234 275.161 377.798 281.312C377.897 281.552 378.098 281.689 378.306 281.689C378.391 281.689 378.478 281.666 378.559 281.617C378.839 281.449 378.952 281.041 378.812 280.705C376.535 275.239 374.036 273.843 373.019 273.492C372.608 270.461 370.795 267.171 370.715 267.025C370.542 266.711 370.19 266.628 369.929 266.836C369.668 267.045 369.597 267.467 369.771 267.78C369.79 267.814 371.711 271.299 371.946 274.122" fill="#F9F9F9"/>
<path d="M344.542 276.779C344.623 276.828 344.71 276.852 344.796 276.852C345.004 276.852 345.202 276.715 345.303 276.478C345.409 276.225 347.994 270.284 354.287 271.402C354.602 271.447 354.885 271.2 354.931 270.83C354.977 270.458 354.762 270.111 354.454 270.056C347.317 268.794 344.319 275.796 344.289 275.868C344.15 276.203 344.263 276.61 344.542 276.779" fill="#F9F9F9"/>
<path d="M367.841 336.653C367.531 336.7 367.311 337.04 367.35 337.413C367.358 337.498 368.188 346.001 363.172 351.804C362.948 352.066 362.941 352.497 363.158 352.766C363.27 352.905 363.418 352.973 363.567 352.973C363.709 352.973 363.849 352.911 363.96 352.784C369.393 346.496 368.515 337.616 368.475 337.241C368.435 336.869 368.156 336.602 367.841 336.653Z" fill="#F9F9F9"/>
<path d="M396.998 308.494C396.328 308.806 395.752 309.172 395.216 309.553C397.348 298.562 393.127 293.442 392.937 293.22C392.714 292.959 392.355 292.966 392.134 293.234C391.917 293.504 391.921 293.934 392.147 294.197C392.19 294.248 396.484 299.44 393.796 310.741C392.137 312.383 391.441 314.025 391.4 314.127C391.266 314.465 391.384 314.872 391.668 315.034C391.747 315.079 391.83 315.1 391.912 315.1C392.124 315.1 392.326 314.958 392.424 314.713C392.436 314.681 393.755 311.461 397.407 309.763C397.7 309.628 397.845 309.234 397.732 308.884C397.618 308.533 397.293 308.362 396.998 308.494" fill="#F9F9F9"/>
<path d="M293.767 298.665C301.45 292.738 305.776 289.07 305.363 282.621C305.142 279.165 306.155 275.813 307.885 274.276C308.959 273.321 310.239 273.151 311.584 273.782C311.874 273.921 312.205 273.747 312.318 273.397C312.433 273.047 312.288 272.651 311.997 272.515C310.271 271.704 308.614 271.936 307.211 273.182C305.147 275.015 303.978 278.76 304.234 282.725C304.579 288.116 301.122 291.374 293.154 297.521C284.94 303.858 287.793 314.309 287.822 314.413C287.903 314.696 288.122 314.875 288.357 314.875C288.418 314.875 288.481 314.863 288.541 314.839C288.837 314.718 288.996 314.331 288.895 313.975C288.787 313.588 286.31 304.418 293.767 298.665" fill="#F9F9F9"/>
<path d="M301.384 271.484C301.392 271.437 302.3 266.851 305.923 265.402C306.221 265.283 306.381 264.898 306.282 264.542C306.181 264.184 305.865 263.995 305.564 264.111C302.064 265.511 300.763 269.299 300.396 270.679C298.322 270.926 297.038 272.868 296.982 272.956C296.79 273.252 296.835 273.678 297.08 273.909C297.184 274.006 297.306 274.053 297.43 274.053C297.597 274.053 297.764 273.964 297.876 273.793C297.888 273.775 299.066 272.014 300.831 272.014C301.096 272.014 301.326 271.794 301.384 271.484" fill="#F9F9F9"/>
<path d="M282.911 317.733C279.418 320.939 280.814 326.147 280.828 326.199C280.907 326.483 281.129 326.664 281.365 326.664C281.424 326.664 281.485 326.652 281.544 326.628C281.841 326.511 282.002 326.126 281.904 325.77C281.856 325.594 280.757 321.422 283.6 318.814C283.849 318.585 283.897 318.157 283.706 317.859C283.517 317.564 283.161 317.505 282.911 317.733Z" fill="#F9F9F9"/>
</g>
</g>
<g filter="url(#filter4_f)">
<path d="M328.837 45.4748C334.391 32.9427 352.737 34.837 355.613 48.2397L365.902 96.1723C367.188 102.167 372.188 106.651 378.287 107.28L427.061 112.311C440.701 113.718 444.57 131.759 432.706 138.635L390.298 163.211C384.991 166.287 382.27 172.43 383.557 178.427L393.841 226.343C396.718 239.747 380.764 249.003 370.556 239.852L334.036 207.111C329.473 203.02 322.795 202.331 317.492 205.404L275.055 229.998C263.193 236.872 249.464 224.552 255.019 212.018L274.876 167.217C277.362 161.609 275.952 155.039 271.385 150.944L234.895 118.23C224.685 109.077 232.155 92.2069 245.794 93.6139L294.576 98.6457C300.674 99.2747 306.484 95.9066 308.968 90.3024L328.837 45.4748Z" fill="#FFF9EC" fill-opacity="0.4"/>
</g>
<defs>
<filter id="filter0_d" x="227.086" y="154.14" width="233.518" height="306.072" filterUnits="userSpaceOnUse" color-interpolation-filters="sRGB">
<feFlood flood-opacity="0" result="BackgroundImageFix"/>
<feColorMatrix in="SourceAlpha" type="matrix" values="0 0 0 0 0 0 0 0 0 0 0 0 0 0 0 0 0 0 127 0"/>
<feOffset dy="4"/>
<feGaussianBlur stdDeviation="2"/>
<feColorMatrix type="matrix" values="0 0 0 0 0 0 0 0 0 0 0 0 0 0 0 0 0 0 0.25 0"/>
<feBlend mode="normal" in2="BackgroundImageFix" result="effect1_dropShadow"/>
<feBlend mode="normal" in="SourceGraphic" in2="effect1_dropShadow" result="shape"/>
</filter>
<filter id="filter1_i" x="274.598" y="347.539" width="90.5009" height="108.673" filterUnits="userSpaceOnUse" color-interpolation-filters="sRGB">
<feFlood flood-opacity="0" result="BackgroundImageFix"/>
<feBlend mode="normal" in="SourceGraphic" in2="BackgroundImageFix" result="shape"/>
<feColorMatrix in="SourceAlpha" type="matrix" values="0 0 0 0 0 0 0 0 0 0 0 0 0 0 0 0 0 0 127 0" result="hardAlpha"/>
<feOffset dy="4"/>
<feGaussianBlur stdDeviation="2"/>
<feComposite in2="hardAlpha" operator="arithmetic" k2="-1" k3="1"/>
<feColorMatrix type="matrix" values="0 0 0 0 0 0 0 0 0 0 0 0 0 0 0 0 0 0 0.25 0"/>
<feBlend mode="normal" in2="shape" result="effect1_innerShadow"/>
</filter>
<filter id="filter2_i" x="231.086" y="154.14" width="225.518" height="179.307" filterUnits="userSpaceOnUse" color-interpolation-filters="sRGB">
<feFlood flood-opacity="0" result="BackgroundImageFix"/>
<feBlend mode="normal" in="SourceGraphic" in2="BackgroundImageFix" result="shape"/>
<feColorMatrix in="SourceAlpha" type="matrix" values="0 0 0 0 0 0 0 0 0 0 0 0 0 0 0 0 0 0 127 0" result="hardAlpha"/>
<feOffset dy="4"/>
<feGaussianBlur stdDeviation="2"/>
<feComposite in2="hardAlpha" operator="arithmetic" k2="-1" k3="1"/>
<feColorMatrix type="matrix" values="0 0 0 0 0 0 0 0 0 0 0 0 0 0 0 0 0 0 0.25 0"/>
<feBlend mode="normal" in2="shape" result="effect1_innerShadow"/>
</filter>
<filter id="filter3_i" x="260.776" y="246.893" width="146.182" height="130.943" filterUnits="userSpaceOnUse" color-interpolation-filters="sRGB">
<feFlood flood-opacity="0" result="BackgroundImageFix"/>
<feBlend mode="normal" in="SourceGraphic" in2="BackgroundImageFix" result="shape"/>
<feColorMatrix in="SourceAlpha" type="matrix" values="0 0 0 0 0 0 0 0 0 0 0 0 0 0 0 0 0 0 127 0" result="hardAlpha"/>
<feOffset dy="4"/>
<feGaussianBlur stdDeviation="2"/>
<feComposite in2="hardAlpha" operator="arithmetic" k2="-1" k3="1"/>
<feColorMatrix type="matrix" values="0 0 0 0 0 0 0 0 0 0 0 0 0 0 0 0 0 0 0.25 0"/>
<feBlend mode="normal" in2="shape" result="effect1_innerShadow"/>
</filter>
<filter id="filter4_f" x="193.147" y="0.0534668" width="283.628" height="280.469" filterUnits="userSpaceOnUse" color-interpolation-filters="sRGB">
<feFlood flood-opacity="0" result="BackgroundImageFix"/>
<feBlend mode="normal" in="SourceGraphic" in2="BackgroundImageFix" result="shape"/>
<feGaussianBlur stdDeviation="18.5" result="effect1_foregroundBlur"/>
</filter>
</defs>
</svg>
