<svg width="670" height="670" viewBox="0 0 670 670" fill="none" xmlns="http://www.w3.org/2000/svg">
<path d="M549.488 260.668C557.651 284.199 563.614 307.775 567.492 331.018C564.393 354.378 559.221 378.14 551.85 401.931C546.788 418.27 540.878 434.011 534.222 449.078C524.557 462.416 513.935 475.45 502.369 488.052C485.527 506.401 467.604 522.836 448.983 537.278C426.949 545.634 403.578 552.355 379.138 557.154C371.643 558.625 364.172 559.892 356.736 560.957C349.233 561.295 341.657 561.443 334.02 561.393C309.113 561.23 284.9 558.98 261.695 554.876C240.71 544.155 220.039 531.346 200.074 516.455C181.374 502.506 164.248 487.442 148.794 471.572C138.336 452.045 129.151 431.168 121.506 409.127C113.343 385.596 107.379 362.02 103.501 338.777C106.6 315.417 111.772 291.655 119.143 267.864C124.206 251.525 130.116 235.784 136.772 220.718C146.436 207.379 157.059 194.346 168.625 181.744C185.467 163.394 203.39 146.959 222.011 132.517C244.045 124.162 267.416 117.441 291.856 112.642C299.351 111.17 306.821 109.904 314.256 108.838C321.76 108.5 329.336 108.353 336.974 108.403C361.88 108.565 386.094 110.815 409.299 114.92C430.284 125.64 450.955 138.449 470.92 153.341C489.62 167.289 506.745 182.353 522.199 198.223C532.658 217.75 541.842 238.627 549.488 260.668ZM552.805 402.227C559.852 379.483 564.894 356.763 568.041 334.391C570.701 351.182 572.272 367.79 572.798 384.072C563.009 404.815 551.061 425.326 537.002 445.195C542.917 431.401 548.21 417.059 552.805 402.227ZM573.729 382.084C573.104 365.34 571.377 348.262 568.503 331.001C571.706 306.791 572.688 283.009 571.588 260.068C582.144 276.485 591.106 293.281 598.391 310.197C593.08 334.027 584.835 358.2 573.729 382.084ZM535.093 449.579C549.964 429.045 562.572 407.788 572.862 386.267C573.613 414.522 571.21 441.771 565.878 467.267C546.537 484.713 524.206 500.513 499.418 514.094C512.828 494.365 524.843 472.768 535.093 449.579ZM567.135 466.126C572.409 440.349 574.709 412.813 573.805 384.281C585.148 360.208 593.592 335.823 599.062 311.767C602.955 320.941 606.355 330.148 609.248 339.347C615.643 359.678 619.563 379.963 620.872 399.76C611.135 417.046 598.831 433.644 584.277 449.214C578.868 455 573.149 460.643 567.135 466.126ZM498.177 515.908C523.281 502.319 545.913 486.465 565.526 468.927C563.817 476.883 561.822 484.667 559.547 492.254C559.286 493.125 559.021 493.994 558.753 494.86C558.019 495.393 557.281 495.923 556.54 496.451C535.216 511.632 510.878 524.612 484.231 534.888C489.025 528.777 493.678 522.447 498.177 515.908ZM560.102 493.874C560.238 493.43 560.372 492.986 560.505 492.541C562.916 484.501 565.014 476.242 566.79 467.79C573.196 462 579.275 456.028 585.007 449.896C599.235 434.676 611.327 418.467 620.985 401.585C621.555 411.397 621.48 421.086 620.743 430.597C605.62 454.185 585.016 475.558 560.102 493.874ZM557.12 497.265C557.499 496.996 557.876 496.726 558.253 496.455C548.259 528.028 533.355 556.047 514.057 578.818C486.519 590.333 455.306 596.073 422.189 596.059C422.561 595.782 422.933 595.504 423.304 595.225C444.699 579.123 464.849 559.338 483.021 536.422C510.357 526.024 535.307 512.795 557.12 497.265ZM516.085 577.957C535.124 555.036 549.797 526.982 559.609 495.474C584.538 477.326 605.247 456.129 620.569 432.706C617.671 465.639 606.78 496.375 587.192 522.636C568.799 547.295 544.439 565.728 516.085 577.957ZM420.844 597.056C453.844 597.224 485.021 591.714 512.624 580.491C492.398 603.824 467.466 621.475 438.402 631.557C407.449 642.294 374.86 643.388 342.59 636.198C369.548 628.671 396.012 615.335 420.844 597.056ZM419.17 597.042C394.182 615.257 367.583 628.439 340.527 635.727C319.97 630.921 299.559 622.761 279.801 611.601C287.638 610.679 295.54 609.398 303.483 607.763C322.042 603.942 340.827 598.187 359.519 590.564C379.304 594.571 398.832 596.727 417.778 597.024C418.242 597.031 418.706 597.037 419.17 597.042ZM278.117 611.793C297.738 623.011 318.025 631.286 338.481 636.267C306.47 644.531 273.862 644.527 242.567 634.831C221.044 628.162 201.6 617.361 184.486 603.16C213.224 612.722 245.066 615.467 278.117 611.793ZM303.281 606.783C294.907 608.507 286.58 609.836 278.331 610.763C271.129 606.634 264.016 602.106 257.016 597.196C240.641 585.71 224.89 572.136 210.08 556.695C233.171 562.034 257.618 565.232 282.954 566.073C307.848 577.005 332.993 585.051 357.752 590.201C339.574 597.522 321.318 603.07 303.281 606.783ZM208.299 556.279C223.46 572.224 239.621 586.216 256.442 598.015C263.081 602.672 269.823 606.987 276.648 610.947C243.277 614.482 211.203 611.426 182.382 601.386C159.193 581.543 140.4 555.373 126.648 524.762C133.506 528.664 140.63 532.316 147.997 535.706C166.662 544.295 186.888 551.211 208.299 556.279ZM280.494 564.983C255.567 564.001 231.525 560.728 208.819 555.374C203.352 549.614 198.015 543.599 192.824 537.34C214.36 545.321 237.328 551.572 261.374 555.834C267.722 559.074 274.099 562.124 280.494 564.983ZM190.949 536.639C196.169 542.994 201.539 549.101 207.042 554.95C186.244 549.931 166.585 543.159 148.415 534.797C140.648 531.223 133.154 527.358 125.959 523.216C122.606 515.622 119.56 507.759 116.832 499.656C116.588 498.929 116.345 498.201 116.106 497.47C138.174 513.012 163.371 526.25 190.949 536.639ZM258.333 554.267C234.91 549.924 212.539 543.687 191.552 535.798C176.482 517.424 162.67 496.982 150.515 474.752C165.364 489.75 181.712 504.006 199.476 517.256C218.562 531.492 238.295 543.831 258.333 554.267ZM147.979 472.168C160.268 495.096 174.312 516.169 189.683 535.089C162.358 524.649 137.414 511.398 115.589 495.879C107.391 470.385 102.297 442.603 100.602 413.401C113.993 433.771 129.837 453.526 147.979 472.168ZM120.561 409.455C127.824 430.392 136.473 450.284 146.283 468.971C128.765 450.666 113.452 431.322 100.492 411.405C99.313 389.016 100.127 365.806 103.066 342.165C106.958 364.42 112.758 386.959 120.561 409.455ZM102.49 338.794C99.2874 363.004 98.3053 386.786 99.4058 409.727C88.8491 393.31 79.8877 376.514 72.6027 359.599C77.9139 335.768 86.1589 311.596 97.2644 287.711C97.89 304.455 99.6167 321.534 102.49 338.794ZM60.7916 330.749C63.8291 340.406 67.4223 350.071 71.5564 359.697C69.2877 369.925 67.5577 380.09 66.3723 390.144C63.9327 410.835 63.7995 431.058 66.0259 450.379C44.5537 424.487 30.0234 395.289 24.2687 364.14C24.1205 332.464 32.9578 301.071 49.2312 271.632C50.6427 291.03 54.5405 310.874 60.7916 330.749ZM71.9312 358.028C68.0383 348.854 64.6388 339.647 61.7456 330.449C55.351 310.118 51.4306 289.832 50.1221 270.035C59.859 252.749 72.1626 236.151 86.7169 220.582C92.1257 214.796 97.845 209.152 103.858 203.669C98.5842 229.446 96.285 256.982 97.1886 285.514C85.8461 309.587 77.4015 333.972 71.9312 358.028ZM102.953 335.405C100.293 318.613 98.7215 302.005 98.1958 285.723C107.985 264.981 119.932 244.469 133.991 224.601C128.076 238.395 122.784 252.737 118.188 267.568C111.141 290.312 106.099 313.032 102.953 335.405ZM135.9 220.217C121.029 240.751 108.421 262.008 98.1312 283.529C97.3804 255.274 99.7839 228.024 105.116 202.529C124.456 185.083 146.788 169.283 171.576 155.702C158.166 175.43 146.151 197.028 135.9 220.217ZM167.888 181.068C157.389 192.507 147.665 204.303 138.726 216.359C148.811 194.208 160.514 173.556 173.504 154.652C187.836 146.907 202.975 139.9 218.821 133.741C201.078 147.727 183.989 163.525 167.888 181.068ZM221.516 131.635C205.158 137.845 189.533 144.955 174.753 152.847C179.219 146.426 183.834 140.211 188.585 134.211C204.494 128.173 221.215 123.095 238.598 119.085C232.847 123.085 227.15 127.269 221.516 131.635ZM240.812 117.555C223.083 121.531 206.027 126.61 189.8 132.684C207.648 110.388 227.376 91.11 248.291 75.37C249.018 74.8229 249.746 74.2801 250.476 73.7416C251.382 73.7473 252.291 73.7573 253.2 73.7715C271.614 74.0602 290.583 76.1102 309.806 79.9174C286.44 89.5887 263.234 102.178 240.812 117.555ZM248.804 73.7361C248.432 74.0132 248.061 74.2915 247.689 74.5709C226.294 90.6722 206.144 110.458 187.972 133.374C160.637 143.771 135.687 157.001 113.873 172.53C113.495 172.8 113.117 173.07 112.741 173.341C122.735 141.768 137.639 113.749 156.936 90.9771C184.474 79.4627 215.687 73.7222 248.804 73.7361ZM253.216 72.7716C252.751 72.7644 252.287 72.7582 251.823 72.7532C276.811 54.5383 303.411 41.356 330.467 34.068C351.024 38.8746 371.435 47.0342 391.192 58.1949C383.356 59.1164 375.454 60.3975 367.511 62.0328C348.952 65.8537 330.167 71.6087 311.475 79.2317C291.69 75.2239 272.162 73.0687 253.216 72.7716ZM328.404 33.597C301.446 41.1245 274.982 54.4599 250.149 72.7398C217.149 72.5718 185.973 78.0816 158.37 89.3043C178.596 65.9711 203.528 48.3205 232.591 38.2389C263.544 27.5019 296.134 26.4077 328.404 33.597ZM392.876 58.0022C373.255 46.7845 352.969 38.5095 332.512 33.5283C364.524 25.2641 397.132 25.2682 428.426 34.9643C449.95 41.633 469.394 52.4344 486.507 66.6353C457.769 57.0733 425.927 54.3285 392.876 58.0022ZM394.346 58.8484C427.717 55.3135 459.79 58.3691 488.612 68.4088C511.8 88.2521 530.593 114.423 544.346 145.033C537.488 141.131 530.364 137.48 522.997 134.09C504.332 125.5 484.105 118.585 462.694 113.517C447.533 97.5716 431.372 83.5799 414.552 71.7808C407.913 67.1237 401.17 62.808 394.346 58.8484ZM545.816 145.876C532.345 115.472 513.938 89.3457 491.204 69.3338C512.091 76.9668 531.215 88.325 547.816 103.561C571.953 125.714 588.379 153.883 597.361 185.701C582.755 170.537 565.389 157.178 545.816 145.876ZM522.579 134.998C530.346 138.572 537.84 142.437 545.034 146.579C548.388 154.173 551.433 162.036 554.161 170.139C554.406 170.866 554.648 171.595 554.888 172.325C532.819 156.784 507.623 143.545 480.044 133.156C474.825 126.802 469.455 120.694 463.951 114.845C484.749 119.864 504.409 126.636 522.579 134.998ZM556.254 173.293C555.879 172.131 555.497 170.973 555.109 169.82C552.522 162.134 549.649 154.662 546.498 147.428C566.091 158.877 583.419 172.401 597.925 187.74C600.42 196.947 602.298 206.452 603.566 216.199C590.933 201.412 576.033 187.738 559.219 175.435C558.237 174.716 557.249 174.002 556.254 173.293ZM481.31 134.706C508.635 145.146 533.579 158.397 555.404 173.916C563.603 199.41 568.696 227.192 570.391 256.394C557.001 236.024 541.156 216.269 523.014 197.626C510.725 174.699 496.682 153.626 481.31 134.706ZM571.486 258.069C569.916 228.641 564.911 200.621 556.764 174.889C557.388 175.338 558.01 175.789 558.629 176.242C575.829 188.828 591.009 202.844 603.795 218.013C606.197 237.707 606.124 258.368 603.628 279.534C602.499 289.111 600.874 298.79 598.758 308.528C591.333 291.49 582.215 274.582 571.486 258.069ZM610.202 339.047C607.165 329.39 603.571 319.724 599.437 310.098C601.706 299.871 603.436 289.705 604.621 279.651C607.061 258.96 607.194 238.737 604.968 219.416C626.44 245.308 640.97 274.506 646.725 305.655C646.873 337.331 638.036 368.724 621.763 398.163C620.351 378.765 616.453 358.921 610.202 339.047ZM646.602 299.993C640.083 270.242 625.586 242.381 604.751 217.597C603.557 207.91 601.766 198.454 599.37 189.285C621.833 213.543 637.301 242.249 643.613 274.397C645.287 282.921 646.273 291.464 646.602 299.993ZM621.888 399.991C637.743 371.76 646.796 341.685 647.659 311.24C648.925 319.682 649.547 328.259 649.49 336.946C649.276 369.707 639.427 400.792 621.876 428.81C622.521 419.355 622.519 409.731 621.888 399.991ZM125.177 523.919C138.648 554.323 157.056 580.45 179.79 600.461C158.902 592.828 139.779 581.47 123.178 566.234C99.0404 544.081 82.615 515.912 73.633 484.095C88.2385 499.259 105.604 512.617 125.177 523.919ZM124.495 522.367C104.903 510.919 87.5745 497.395 73.0689 482.055C70.5737 472.849 68.6953 463.343 67.4273 453.596C80.0604 468.384 94.9604 482.057 111.774 494.361C112.756 495.079 113.744 495.793 114.739 496.502C115.115 497.664 115.496 498.822 115.884 499.975C118.472 507.661 121.345 515.133 124.495 522.367ZM66.2428 452.198C67.437 461.886 69.2282 471.341 71.6232 480.511C49.1604 456.252 33.6929 427.546 27.3804 395.398C25.7067 386.874 24.7203 378.331 24.3911 369.801C30.9107 399.553 45.4074 427.414 66.2428 452.198ZM21.5035 332.85C21.7172 300.088 31.5668 269.003 49.1179 240.986C48.4728 250.441 48.4743 260.064 49.1054 269.804C33.2512 298.036 24.1981 328.11 23.3344 358.555C22.0691 350.113 21.4469 341.536 21.5035 332.85ZM50.0088 268.211C49.439 258.398 49.514 248.709 50.2505 239.198C65.3734 215.61 85.9773 194.237 110.891 175.922C110.756 176.365 110.622 176.81 110.488 177.255C108.078 185.295 105.98 193.554 104.204 202.005C97.7971 207.796 91.7183 213.767 85.9864 219.899C71.7585 235.119 59.6663 251.329 50.0088 268.211ZM154.908 91.8383C135.869 114.759 121.196 142.814 111.384 174.322C86.4554 192.47 65.7465 213.667 50.4249 237.09C53.3229 204.156 64.2138 173.421 83.8021 147.159C102.195 122.501 126.554 104.068 154.908 91.8383ZM112.241 174.936C112.975 174.403 113.712 173.872 114.453 173.345C135.778 158.164 160.116 145.184 186.762 134.908C181.969 141.019 177.316 147.349 172.817 153.887C147.712 167.476 125.081 183.33 105.467 200.869C107.176 192.912 109.171 185.129 111.446 177.542C111.707 176.67 111.972 175.802 112.241 174.936ZM67.1987 451.782C64.7968 432.088 64.8698 411.427 67.3654 390.261C68.4946 380.685 70.1196 371.006 72.2355 361.267C79.6604 378.305 88.7786 395.213 99.5071 411.726C101.077 441.154 106.083 469.174 114.229 494.906C113.605 494.457 112.984 494.006 112.365 493.554C95.1652 480.968 79.9851 466.952 67.1987 451.782ZM570.502 258.39C571.68 280.779 570.866 303.989 567.928 327.63C564.035 305.375 558.236 282.836 550.433 260.34C543.17 239.403 534.521 219.511 524.71 200.824C542.229 219.129 557.541 238.472 570.502 258.39ZM479.441 133.998C494.511 152.371 508.323 172.813 520.479 195.043C505.629 180.045 489.281 165.789 471.518 152.539C452.432 138.303 432.699 125.964 412.661 115.529C436.084 119.871 458.454 126.108 479.441 133.998ZM478.169 132.455C456.633 124.474 433.666 118.224 409.62 113.961C403.272 110.721 396.895 107.671 390.5 104.812C415.427 105.795 439.469 109.067 462.175 114.421C467.642 120.181 472.979 126.196 478.169 132.455ZM460.914 113.1C437.823 107.761 413.375 104.563 388.04 103.722C363.146 92.7903 338.001 84.7441 313.242 79.5945C331.42 72.2733 349.675 66.7257 367.712 63.0122C376.087 61.2881 384.413 59.9594 392.663 59.0321C399.865 63.1613 406.978 67.6895 413.977 72.5995C430.352 84.0858 446.103 97.6598 460.914 113.1ZM311.573 80.272C335.977 85.2378 360.775 93.0306 385.351 103.642C362.225 103.027 338.378 104.373 314.163 107.841C289.726 108.944 266.045 112.064 243.439 116.976C265.608 101.972 288.521 89.6967 311.573 80.272ZM224.719 130.434C230.165 126.282 235.667 122.3 241.218 118.489C261.341 113.987 282.335 110.911 303.972 109.423C299.877 110.108 295.774 110.853 291.663 111.66C268.299 116.248 245.906 122.589 224.719 130.434ZM324.47 107.497C346.006 104.929 367.205 104.041 387.815 104.715C393.978 107.425 400.127 110.313 406.25 113.378C383.973 109.617 360.791 107.558 336.981 107.403C332.791 107.375 328.62 107.407 324.47 107.497ZM283.179 565.08C277.016 562.37 270.867 559.482 264.744 556.417C287.021 560.179 310.203 562.238 334.013 562.393C338.202 562.42 342.373 562.388 346.523 562.298C324.987 564.867 303.788 565.755 283.179 565.08ZM285.643 566.154C308.768 566.768 332.615 565.422 356.83 561.954C381.268 560.851 404.949 557.731 427.555 552.82C405.385 567.823 382.473 580.099 359.421 589.523C335.017 584.558 310.219 576.765 285.643 566.154ZM361.188 589.878C384.554 580.207 407.76 567.617 430.182 552.24C447.911 548.265 464.966 543.186 481.193 537.112C463.346 559.408 443.618 578.685 422.703 594.426C421.976 594.973 421.248 595.515 420.518 596.054C419.611 596.048 418.703 596.038 417.793 596.024C399.38 595.735 380.411 593.685 361.188 589.878ZM482.409 535.585C466.499 541.623 449.779 546.7 432.396 550.711C438.146 546.711 443.844 542.526 449.477 538.16C465.836 531.95 481.46 524.841 496.241 516.949C491.775 523.369 487.159 529.585 482.409 535.585ZM532.267 453.437C522.182 475.588 510.479 496.24 497.489 515.143C483.158 522.889 468.019 529.895 452.172 536.054C469.916 522.068 487.005 506.27 503.105 488.728C513.604 477.288 523.329 465.493 532.267 453.437ZM446.275 539.361C440.829 543.513 435.326 547.495 429.775 551.306C409.653 555.808 388.659 558.884 367.021 560.372C371.116 559.688 375.22 558.942 379.331 558.135C402.695 553.547 425.088 547.206 446.275 539.361Z" stroke="white"/>
<path d="M173.661 428.347C165.544 427.638 148.748 423.59 138.11 403.164L230.728 346.316H508.354L514.268 372.63C516.972 380.321 521.007 398.111 508.354 414.074C495.536 430.242 473.863 432.423 465.492 432.629C462.911 435.71 458.172 439.932 451.315 440.42C449.938 440.521 447.158 443.163 444.694 445.504L444.662 445.535C440.548 449.449 435.433 454.313 427.871 457.645C417.854 462.062 407.451 462.884 401.721 462.944C399.248 465.867 394.682 469.631 386.337 474.533C377.041 479.997 366.609 481.138 359.496 481.138C350.72 481.138 342.02 479.366 337.328 476.627C335.14 475.349 327.983 474.369 321.659 473.504L321.635 473.501C313.96 472.454 305.266 471.26 296.658 468.911C285.556 465.879 279.42 462.907 276.109 460.798C271.761 461.803 263.37 463.435 254.672 463.435C247.653 463.435 241.679 462.366 236.922 460.242C226.214 455.476 220.149 446.529 217.156 440.66C212.725 441.763 206.197 443.017 199.499 443.017C196.881 443.017 194.385 442.822 192.091 442.439C181.284 440.638 176.032 433.342 173.661 428.347Z" fill="#914100"/>
<path d="M506.521 249.23C516.031 259.361 517.646 274.704 517.84 281.968C540.113 295.815 538.24 326.399 531.405 343.268C526.153 356.231 518.067 367.541 514.056 372.731C478.012 345.759 381.222 364.175 323.689 372.731C277.662 379.577 259.712 361.881 256.491 352.178C256.491 325.877 324.223 290.348 366.1 264.97C399.601 244.668 369.885 206.062 350.84 189.298C364.71 189.298 376.4 198.53 381.222 202.968C381.85 202.929 382.483 202.913 383.108 202.913C393.402 202.913 401.464 208.022 406.054 211.839C409.762 209.842 414.206 208.777 419.032 208.777C426.274 208.777 433.414 211.167 438.128 215.165C440.896 217.511 443.811 217.873 449.627 218.418L449.628 218.418C453.013 218.733 456.855 219.091 461.426 220.084C472.515 222.501 479.842 233.468 483.149 239.595C492.711 239.651 500.574 242.892 506.521 249.23Z" fill="#DE8843"/>
<path d="M341.334 191.113C344.674 189.907 348.178 189.298 351.753 189.298C370.854 206.046 400.655 244.613 367.057 264.896C325.061 290.249 257.135 325.743 257.135 352.018C257.135 378.293 220.8 398.115 193.072 398.115C165.344 398.115 156.307 391.37 138.693 403.04C126.185 379.094 142.182 346.36 146.286 338.705C146.249 330.457 148.593 323.744 153.271 318.723C157.14 314.573 161.75 312.529 165.344 311.526C165.918 306.723 167.527 298.851 171.695 286.653C177.757 268.927 194.302 261.446 203.557 258.57C202.874 251.454 204.356 239.735 216.117 225.782C227.521 212.257 244.718 209.418 257.135 209.418C261.259 209.418 264.8 209.736 267.303 210.051C271.443 205.577 280.482 198.538 296.339 198.538L297.728 198.557C316.608 199.038 322.638 197.856 341.334 191.113Z" fill="#F7CA63"/>
<g filter="url(#filter0_i)">
<path d="M498.071 337.573C492.546 351.174 482.604 362.961 482.504 363.075C481.08 364.754 480.793 367.122 481.774 369.088C481.853 369.241 489.245 384.408 479.184 397.077C470.241 408.34 453.687 409.214 448.825 409.214C448.131 409.214 447.71 409.196 447.654 409.192L447.528 409.202C449.131 405.835 450.849 401.178 452.057 395.031C453.923 394.111 459.38 390.997 463.606 384.128C464.005 383.483 463.804 382.639 463.155 382.242C462.513 381.843 461.668 382.044 461.269 382.691C458.436 387.294 454.933 390.068 452.663 391.52C453.512 385.831 453.903 379.072 453.436 371.129C453.39 370.372 452.729 369.784 451.985 369.839C451.228 369.882 450.652 370.533 450.695 371.289C451.939 392.463 446.827 405.011 443.652 410.64C443.246 411.01 442.884 411.427 442.598 411.908C442.571 411.948 440.17 415.826 436.881 416.062C431.744 416.428 428.11 419.876 424.259 423.535C421.109 426.524 417.536 429.914 412.642 432.066C405.015 435.424 396.676 435.786 393.447 435.786C392.269 435.786 391.547 435.743 391.469 435.733C389.935 435.628 388.444 436.148 387.327 437.187C386.63 437.833 386.124 438.636 385.838 439.525C385.326 440.196 383.039 442.75 375.016 447.456C368.973 450.998 361.877 451.741 356.986 451.741C350.278 451.741 344.795 450.3 343.04 449.28C339.233 447.055 333.039 446.212 325.202 445.146C318.794 444.268 311.53 443.277 304.658 441.404C292.642 438.129 289.094 435.296 289.038 435.296V435.302C288.228 434.377 287.142 433.818 285.98 433.588C281.813 428.676 277.183 420.732 274.665 408.151C274.517 407.407 273.789 406.927 273.052 407.075C272.309 407.225 271.827 407.947 271.977 408.691C274.363 420.613 278.536 428.588 282.584 433.857C280.118 434.479 272.525 436.22 264.88 436.22C260.259 436.22 256.51 435.595 253.742 434.364C251.906 433.548 250.29 432.501 248.872 431.343C248.864 430.779 248.733 430.213 248.371 429.729C247.337 428.347 223.657 395.804 252.436 364.346C255.753 366.67 263.073 370.643 276.175 372.628C270.298 375.502 261.424 382.121 257.113 396.551C254.716 394.599 253.219 392.799 253.186 392.757C252.703 392.17 251.837 392.086 251.254 392.566C250.669 393.047 250.58 393.909 251.06 394.497C251.239 394.715 253.452 397.366 256.886 399.842C256.988 399.944 257.102 400.024 257.234 400.091C260.315 402.249 264.311 404.209 268.714 404.209C269.168 404.209 269.633 404.19 270.097 404.146C270.85 404.075 271.407 403.401 271.334 402.648C271.261 401.893 270.616 401.364 269.836 401.41C266.009 401.787 262.359 400.195 259.456 398.279C264.963 378.382 279.572 373.925 282.031 373.318C284.638 373.557 287.382 373.739 290.377 373.802C290.888 373.813 291.392 373.817 291.895 373.817C311.626 373.817 319.916 365.589 323.234 360.205C324.228 364.919 324.939 374.083 318.064 381.566C317.55 382.125 317.587 382.993 318.146 383.508C318.409 383.748 318.742 383.868 319.077 383.868C319.446 383.868 319.814 383.719 320.085 383.424C329.567 373.105 326.348 360.364 325.231 356.929C328.586 357.282 337.057 357.221 349.62 350.455C351.591 349.394 353.603 348.258 355.636 347.103C369.951 339.01 384.748 330.625 396.847 341.717C397.403 342.229 398.275 342.196 398.785 341.633C399.299 341.073 399.259 340.206 398.699 339.695C385.139 327.259 368.741 336.533 354.284 344.717C352.266 345.859 350.272 346.986 348.316 348.04C333.236 356.16 324.392 354.043 324.311 354.021C323.961 353.929 323.58 353.978 323.257 354.166C322.941 354.354 322.711 354.663 322.622 355.02C322.454 355.698 318.024 371.651 290.433 371.058C287.583 370.999 284.973 370.826 282.489 370.6C282.3 370.542 282.106 370.519 281.903 370.55C265.686 368.98 257.175 364.293 253.877 361.973C253.979 361.204 253.802 360.403 253.265 359.781C252.963 359.431 245.926 350.967 253.736 332.47C261.249 314.676 279.214 311.812 279.971 311.7C280.902 311.563 281.701 310.957 282.084 310.1C282.186 309.871 292.491 287.127 308.378 285.483C309.391 285.379 310.263 284.719 310.645 283.775C310.721 283.579 318.686 264.207 336.685 264.754C337.983 264.885 339.246 263.808 339.476 262.452C339.493 262.363 341.126 253.393 352.328 243.31C362.697 233.978 377.878 231.537 388.743 233.186C391.554 235.075 393.239 236.996 393.266 237.022C394.253 238.199 395.692 238.91 397.228 238.976C398.758 239.058 400.263 238.461 401.348 237.373C403.087 235.635 405.94 234.676 409.377 234.676C413.115 234.676 416.927 235.857 419.086 237.682C424.263 242.063 429.614 242.56 435.282 243.086C438.08 243.347 440.972 243.615 444.342 244.345C450.609 245.709 455.993 255.277 457.383 258.512L457.445 258.609C458.841 264.421 460.219 274.026 458.041 284.921C457.893 285.667 458.373 286.39 459.117 286.537C459.209 286.555 459.298 286.564 459.388 286.564C460.029 286.564 460.602 286.113 460.733 285.463C462.613 276.062 461.994 267.672 460.901 261.601C461.55 261.793 462.224 261.901 462.928 261.837C469.706 261.223 474.678 262.819 478.335 266.691C486.124 274.941 485.332 290.659 485.325 290.807C485.187 293.022 486.402 295.1 488.399 296.075C503.67 303.527 503.249 324.826 498.071 337.573V337.573ZM233.258 415.431C233.176 415.459 224.747 418.309 216.4 418.309C214.702 418.309 213.118 418.187 211.697 417.954C204.759 416.795 203.048 410.503 202.889 409.847C202.665 408.819 202.162 407.916 201.472 407.203C206.431 403.033 211.141 395.56 209.896 382.539C210.947 382.777 212.079 382.932 213.339 382.932C214.722 382.932 216.236 382.765 217.888 382.382C218.625 382.213 219.086 381.476 218.915 380.737C218.744 379.998 218.013 379.532 217.269 379.709C206.708 382.15 203.199 374.427 203.054 374.098C202.755 373.405 201.951 373.092 201.254 373.382C200.56 373.68 200.237 374.482 200.53 375.178C200.56 375.243 202.405 379.344 207.056 381.551C208.719 394.935 203.858 402.067 199.087 405.754C198.446 405.565 197.759 405.486 197.047 405.544C196.965 405.551 196.725 405.562 196.35 405.562H196.347C192.677 405.562 180.088 404.387 172.195 389.257C163.375 372.347 177.188 345.962 179.167 342.354C181.003 347.088 183.804 352.028 188.079 355.771C188.339 355.998 188.661 356.111 188.984 356.111C189.365 356.111 189.744 355.95 190.018 355.643C190.515 355.071 190.456 354.202 189.89 353.705C184.528 349.014 181.671 342.061 180.147 336.387C180.535 329.241 184.093 326.228 187.22 324.97C187.329 324.978 187.437 324.997 187.549 324.978C190.053 324.518 196.963 323.985 200.257 326.459C198.127 330.145 199.098 333.448 199.115 333.499C199.299 334.081 199.839 334.455 200.421 334.455C200.56 334.455 200.698 334.431 200.836 334.39C201.56 334.158 201.958 333.387 201.731 332.664C201.711 332.61 200.049 327.04 208.34 323.03C209.021 322.702 209.307 321.879 208.979 321.198C208.649 320.515 207.83 320.233 207.145 320.559C204.815 321.686 203.153 322.955 201.931 324.245C200.158 322.919 197.811 322.272 195.494 322.004C196.386 320.832 196.801 319.439 196.573 317.969C196.567 317.913 196.186 312.114 201.806 295.66C207.04 280.331 226.577 276.917 226.761 276.888C227.68 276.741 228.512 276.328 229.22 275.755C236.141 277.198 245.399 280.555 251.988 288.363C252.261 288.687 252.646 288.853 253.038 288.853C253.351 288.853 253.666 288.746 253.924 288.529C254.5 288.04 254.578 287.174 254.088 286.595C247.311 278.562 238.156 274.949 230.967 273.304C231.458 271.959 231.438 270.444 230.859 269.127C230.694 268.753 226.955 259.77 238.785 245.721C246.071 237.072 257.807 235.255 266.37 235.255C272.193 235.255 276.435 236.111 276.465 236.119C278.723 236.591 281.076 235.531 282.294 233.581C282.495 233.261 287.379 225.699 300.764 225.699L301.7 225.71C303.805 225.765 305.747 225.794 307.564 225.794C313.604 225.794 318.383 225.421 322.908 224.655C316.105 228.689 308.845 234.647 303.795 243.115C297.546 241.653 292.112 243.514 291.773 243.638C291.059 243.893 290.686 244.678 290.94 245.389C291.197 246.103 291.977 246.476 292.697 246.219C292.997 246.117 297.78 244.497 303.239 245.806C303.341 245.932 303.463 246.046 303.615 246.129C303.825 246.248 304.056 246.302 304.279 246.302C304.405 246.302 304.513 246.239 304.632 246.208C307.012 246.997 309.457 248.377 311.668 250.747C311.935 251.036 312.304 251.183 312.669 251.183C313.004 251.183 313.341 251.061 313.608 250.814C314.16 250.296 314.19 249.429 313.673 248.876C311.412 246.453 308.947 244.902 306.514 243.942C317.945 225.493 341.408 219.786 341.652 219.728C342.053 219.635 342.36 219.368 342.54 219.031C343.029 218.856 343.465 218.707 343.969 218.524C345.7 217.899 347.516 217.583 349.38 217.583C360.241 217.583 370.003 227.96 370.092 228.056C370.217 228.193 370.378 228.292 370.517 228.416C362.95 230.03 355.168 233.366 348.656 239.227C339.281 247.663 335.843 255.519 334.645 259.278C319.452 259.903 310.866 271.758 307.38 277.994C305.421 275.148 301.117 270.562 292.856 268.605C292.115 268.439 291.378 268.89 291.203 269.625C291.026 270.363 291.484 271.103 292.221 271.276C300.666 273.278 304.379 278.212 305.645 280.378C290.124 283.465 280.217 301.433 277.689 306.55C272.618 307.662 256.184 312.561 248.677 330.336C241.634 347.023 245.354 357.217 247.72 361.341C230.237 380.959 231.26 401.206 235.49 415.16C234.743 415.099 233.982 415.184 233.258 415.431V415.431ZM496.31 287.917C496.139 281.542 494.719 268.079 486.352 259.19C481.119 253.628 474.201 250.785 465.788 250.736C462.879 245.359 456.432 235.737 446.676 233.615C442.654 232.744 439.274 232.43 436.295 232.153C431.178 231.675 428.614 231.358 426.178 229.3C422.031 225.791 415.748 223.694 409.377 223.694C405.131 223.694 401.221 224.629 397.959 226.38C393.92 223.032 386.827 218.548 377.77 218.548C377.22 218.548 376.664 218.563 376.111 218.596C371.869 214.703 361.584 206.601 349.38 206.601C346.243 206.601 343.17 207.136 340.239 208.196C323.836 214.119 318.547 215.157 301.983 214.734L300.764 214.717C286.853 214.717 278.923 220.9 275.291 224.83C273.095 224.553 269.988 224.274 266.37 224.274C255.477 224.274 240.39 226.767 230.385 238.647C220.067 250.902 218.766 261.195 219.366 267.445C211.246 269.971 196.732 276.542 191.413 292.112C187.757 302.825 186.344 309.739 185.841 313.958C182.688 314.839 178.643 316.634 175.249 320.28C171.145 324.689 169.089 330.586 169.121 337.83C165.521 344.554 151.486 373.305 162.46 394.337C171.807 412.252 186.565 415.801 193.697 416.423C195.781 420.803 200.395 427.202 209.891 428.782C211.907 429.118 214.1 429.289 216.4 429.289C222.285 429.289 228.022 428.19 231.915 427.222C234.545 432.369 239.874 440.216 249.283 444.396C253.462 446.259 258.712 447.196 264.88 447.196C272.523 447.196 279.895 445.765 283.716 444.883C286.625 446.733 292.017 449.339 301.772 451.999C309.335 454.059 316.974 455.106 323.718 456.024C329.28 456.784 335.582 457.643 337.508 458.765C341.63 461.168 349.275 462.722 356.986 462.722C363.236 462.722 372.402 461.721 380.571 456.929C387.903 452.63 391.916 449.329 394.089 446.766C399.123 446.713 408.264 445.992 417.065 442.118C423.71 439.196 428.205 434.93 431.819 431.497C433.991 429.437 436.45 427.1 437.665 427.011C443.691 426.584 447.855 422.881 450.122 420.178C457.478 419.998 476.521 418.085 487.784 403.905C498.902 389.906 495.357 374.303 492.981 367.559C496.51 363.004 503.624 353.08 508.245 341.706C514.259 326.903 515.906 300.067 496.31 287.917" fill="#F9F9F9"/>
<path d="M298.944 312.186C299.231 312.186 299.52 312.097 299.768 311.912C299.856 311.842 309.091 305.028 319.32 307.867C319.758 307.991 320.239 307.879 320.585 307.58C320.933 307.277 321.108 306.821 321.045 306.365C320.953 305.656 318.968 288.915 334.941 280.929C335.619 280.591 335.895 279.765 335.553 279.087C335.217 278.411 334.391 278.135 333.717 278.474C319.301 285.68 318.133 299.68 318.214 304.797C307.518 302.803 298.52 309.416 298.118 309.716C297.513 310.17 297.391 311.03 297.845 311.64C298.115 311.999 298.526 312.186 298.944 312.186Z" fill="#F9F9F9"/>
<path d="M412.713 356.769C412.151 357.278 412.105 358.145 412.614 358.708C418.286 364.984 419.198 371.663 415.178 377.509C409.669 385.535 396.655 389.775 387.894 386.398C371.266 380.002 357.305 382.095 351.453 391.856C346.394 400.283 332.522 401.55 332.383 401.563C331.698 401.619 331.162 402.171 331.127 402.853C331.119 402.953 330.415 412.864 316.911 416.241C303.236 419.645 294.189 410.874 293.814 410.499C293.277 409.966 292.408 409.967 291.871 410.503C291.338 411.04 291.338 411.908 291.871 412.443C292.224 412.797 299.359 419.774 310.632 419.774C312.797 419.774 315.12 419.517 317.576 418.902C330.33 415.718 333.111 407.29 333.707 404.174C337.337 403.682 348.859 401.51 353.806 393.266C358.923 384.727 371.616 383.078 386.906 388.961C396.912 392.81 411.183 388.183 417.442 379.062C420.228 375.009 423.564 366.737 414.652 356.866C414.141 356.307 413.276 356.262 412.713 356.769" fill="#F9F9F9"/>
<path d="M342.235 377.918C342.435 378.022 342.653 378.072 342.867 378.072C343.364 378.072 343.84 377.802 344.084 377.334C344.163 377.179 351.957 362.692 371.28 361.147C370.786 363.702 370.694 366.582 371.425 369.693C371.573 370.326 372.136 370.751 372.758 370.751C372.864 370.751 372.972 370.741 373.074 370.715C373.815 370.542 374.272 369.803 374.098 369.064C373.373 365.992 373.591 363.138 374.212 360.673C374.539 360.413 374.756 360.028 374.742 359.58C374.736 359.437 374.693 359.307 374.651 359.179C376.101 354.852 378.609 352.052 378.649 352.007C379.16 351.448 379.123 350.579 378.567 350.068C378.014 349.558 377.145 349.59 376.631 350.146C376.437 350.356 373.627 353.482 372.01 358.343C350.5 359.576 342.005 375.38 341.649 376.068C341.3 376.741 341.563 377.568 342.235 377.918" fill="#F9F9F9"/>
<path d="M396.915 269.574C399.556 269.13 402.508 269.418 405.651 271.144C406.312 271.509 407.148 271.266 407.517 270.603C407.878 269.937 407.639 269.103 406.974 268.738C393.894 261.544 383.362 275.072 383.261 275.211C382.8 275.813 382.915 276.672 383.518 277.131C383.767 277.322 384.06 277.41 384.349 277.41C384.764 277.41 385.172 277.228 385.442 276.873C385.67 276.577 389.093 272.213 394.243 270.281C400.74 284.286 391.058 293.865 389.244 295.479C388.131 294.864 386.904 294.26 385.479 293.683C367.906 286.563 355.623 303.091 347.487 314.028C344.64 317.857 342.179 321.166 340.257 322.497C332.897 327.591 317.659 324.746 317.508 324.719C316.783 324.575 316.085 325.033 315.911 325.745C315.872 325.91 311.711 342.481 297.615 343.607C283.666 344.712 280.237 336.314 280.099 335.947C279.829 335.243 279.043 334.894 278.331 335.149C277.62 335.416 277.262 336.206 277.528 336.916C277.683 337.329 281.274 346.456 295.114 346.456C295.98 346.456 296.888 346.422 297.833 346.346C311.445 345.256 316.855 331.805 318.218 327.62C322.2 328.233 334.747 329.649 341.819 324.754C344.114 323.166 346.576 319.856 349.693 315.666C357.78 304.797 368.864 289.901 384.445 296.227C392.37 299.439 395.758 303.778 393.977 308.447C392.17 313.186 385.216 317.066 381.15 315.624C380.439 315.36 379.653 315.739 379.399 316.455C379.142 317.167 379.515 317.954 380.229 318.207C385.768 320.194 394.161 315.673 396.544 309.426C397.446 307.055 398.367 301.764 391.643 296.966C394.582 294.036 403.205 283.746 396.915 269.574" fill="#F9F9F9"/>
<path d="M394.598 417.426C388.272 418.006 380.65 415.101 380.574 415.073C380.001 414.85 379.353 415.041 378.985 415.528C370.407 426.959 358.315 426.551 358.181 426.57C357.41 426.521 356.785 427.123 356.749 427.88C356.713 428.637 357.298 429.275 358.052 429.315C358.105 429.315 358.247 429.322 358.483 429.322C360.83 429.322 371.987 428.733 380.558 417.98C382.934 418.787 389.234 420.652 394.845 420.158C395.603 420.09 396.155 419.421 396.089 418.668C396.02 417.914 395.322 417.351 394.598 417.426Z" fill="#F9F9F9"/>
<path d="M440.594 294.873C443.313 292.661 447.693 288.652 450.221 284.019C450.583 283.353 450.339 282.521 449.675 282.157C449.006 281.796 448.174 282.04 447.812 282.704C444.356 289.042 436.721 294.38 436.645 294.435C436.181 294.756 435.96 295.327 436.088 295.874C436.214 296.423 436.664 296.837 437.22 296.922C443.546 297.869 450.527 302.628 455.007 309.045C458.465 314.001 462.12 322.2 459.871 333.108C456.623 348.889 442.823 355.139 437.451 357.005C437.754 351.389 439.015 347.296 439.037 347.224C439.268 346.501 438.867 345.731 438.146 345.5C437.432 345.281 436.654 345.67 436.424 346.391C436.315 346.726 434.825 351.572 434.643 358.053C434.321 358.375 434.147 358.837 434.259 359.314C434.315 359.557 434.472 359.733 434.631 359.903C434.683 363.961 435.292 368.504 437.066 372.939C437.281 373.478 437.796 373.802 438.34 373.802C438.507 373.802 438.682 373.77 438.849 373.703C439.554 373.42 439.897 372.624 439.614 371.919C438.001 367.883 437.447 363.684 437.402 359.909C442.417 358.316 458.828 351.796 462.56 333.663C465.006 321.798 461.026 312.874 457.258 307.473C452.976 301.341 446.795 296.716 440.594 294.873" fill="#F9F9F9"/>
<path d="M450.151 329.162C450.846 328.873 451.171 328.086 450.892 327.39C450.609 326.691 449.802 326.354 449.115 326.621C449.043 326.647 442.094 329.141 427.827 319.44C421.902 315.413 416.624 313.968 412.134 315.133C407.21 316.418 405.17 320.401 405.084 320.572C404.745 321.25 405.022 322.075 405.697 322.413C406.388 322.759 407.2 322.478 407.539 321.8C407.553 321.768 409.096 318.763 412.825 317.791C416.528 316.823 421.047 318.147 426.284 321.709C436.094 328.382 442.845 329.678 446.603 329.678C448.852 329.678 450.029 329.212 450.151 329.162Z" fill="#F9F9F9"/>
<path d="M427.517 261.537C427.58 262.184 428.106 262.695 428.752 262.765C428.817 262.774 435.479 263.633 441.687 276.044C441.926 276.528 442.413 276.805 442.917 276.805C443.122 276.805 443.332 276.758 443.529 276.66C444.207 276.32 444.48 275.497 444.142 274.819C438.628 263.792 432.576 260.974 430.115 260.266C429.12 254.151 424.73 247.514 424.536 247.218C424.117 246.585 423.264 246.417 422.633 246.837C422.001 247.259 421.829 248.11 422.251 248.742C422.297 248.81 426.948 255.841 427.517 261.537" fill="#F9F9F9"/>
<path d="M361.162 266.897C361.359 266.995 361.571 267.043 361.778 267.043C362.281 267.043 362.762 266.767 363.006 266.289C363.262 265.778 369.522 253.793 384.757 256.049C385.521 256.139 386.205 255.641 386.317 254.894C386.429 254.143 385.909 253.443 385.161 253.331C367.883 250.786 360.623 264.913 360.55 265.058C360.214 265.735 360.488 266.556 361.162 266.897" fill="#F9F9F9"/>
<path d="M417.577 387.693C416.828 387.786 416.294 388.472 416.39 389.226C416.409 389.397 418.417 406.552 406.273 418.26C405.73 418.79 405.712 419.659 406.239 420.202C406.509 420.481 406.868 420.62 407.23 420.62C407.572 420.62 407.911 420.495 408.181 420.237C421.336 407.552 419.21 389.635 419.112 388.877C419.016 388.128 418.341 387.589 417.577 387.693Z" fill="#F9F9F9"/>
<path d="M488.172 330.885C486.549 331.514 485.154 332.253 483.858 333.022C489.018 310.847 478.799 300.517 478.339 300.067C477.798 299.541 476.929 299.556 476.396 300.097C475.87 300.641 475.88 301.51 476.426 302.039C476.531 302.143 486.928 312.618 480.418 335.419C476.403 338.732 474.717 342.044 474.619 342.25C474.294 342.933 474.58 343.753 475.268 344.08C475.459 344.171 475.66 344.214 475.856 344.214C476.37 344.214 476.86 343.927 477.097 343.434C477.127 343.369 480.32 336.871 489.163 333.446C489.871 333.173 490.223 332.378 489.95 331.672C489.673 330.964 488.887 330.618 488.172 330.885" fill="#F9F9F9"/>
<path d="M238.224 311.053C256.826 299.095 267.302 291.693 266.302 278.682C265.765 271.71 268.217 264.946 272.407 261.845C275.007 259.918 278.108 259.576 281.363 260.849C282.066 261.129 282.866 260.777 283.14 260.071C283.419 259.365 283.067 258.567 282.363 258.292C278.183 256.657 274.171 257.124 270.774 259.638C265.779 263.336 262.948 270.892 263.566 278.892C264.403 289.77 256.033 296.342 236.74 308.745C216.851 321.53 223.759 342.616 223.828 342.826C224.026 343.397 224.555 343.758 225.125 343.758C225.273 343.758 225.424 343.733 225.57 343.685C226.287 343.442 226.672 342.661 226.428 341.942C226.165 341.161 220.168 322.66 238.224 311.053" fill="#F9F9F9"/>
<path d="M256.665 256.213C256.685 256.12 258.883 246.866 267.655 243.943C268.376 243.703 268.764 242.927 268.523 242.207C268.28 241.486 267.513 241.105 266.785 241.338C258.311 244.164 255.161 251.806 254.272 254.589C249.25 255.088 246.143 259.006 246.005 259.183C245.541 259.782 245.65 260.64 246.245 261.107C246.496 261.302 246.792 261.397 247.091 261.397C247.496 261.397 247.901 261.217 248.17 260.872C248.2 260.836 251.053 257.283 255.325 257.283C255.968 257.283 256.524 256.84 256.665 256.213" fill="#F9F9F9"/>
<path d="M211.941 349.529C203.483 355.998 206.862 366.505 206.898 366.61C207.089 367.183 207.626 367.549 208.198 367.549C208.34 367.549 208.488 367.525 208.629 367.476C209.35 367.239 209.739 366.464 209.502 365.745C209.387 365.389 206.724 356.973 213.609 351.711C214.212 351.248 214.327 350.386 213.866 349.784C213.409 349.188 212.547 349.069 211.941 349.529Z" fill="#F9F9F9"/>
</g>
<defs>
<filter id="filter0_i" x="158.343" y="206.601" width="353.945" height="260.121" filterUnits="userSpaceOnUse" color-interpolation-filters="sRGB">
<feFlood flood-opacity="0" result="BackgroundImageFix"/>
<feBlend mode="normal" in="SourceGraphic" in2="BackgroundImageFix" result="shape"/>
<feColorMatrix in="SourceAlpha" type="matrix" values="0 0 0 0 0 0 0 0 0 0 0 0 0 0 0 0 0 0 127 0" result="hardAlpha"/>
<feOffset dy="4"/>
<feGaussianBlur stdDeviation="2"/>
<feComposite in2="hardAlpha" operator="arithmetic" k2="-1" k3="1"/>
<feColorMatrix type="matrix" values="0 0 0 0 0 0 0 0 0 0 0 0 0 0 0 0 0 0 0.25 0"/>
<feBlend mode="normal" in2="shape" result="effect1_innerShadow"/>
</filter>
</defs>
</svg>
