<svg width="104" height="96" viewBox="0 0 104 96" fill="none" xmlns="http://www.w3.org/2000/svg">
<g filter="url(#filter0_d)">
<path d="M96.1271 48.6964C94.6287 52.3846 91.9326 55.5809 91.9057 55.612C91.5195 56.0673 91.4415 56.7093 91.7075 57.2426C91.729 57.284 93.7337 61.3968 91.0053 64.8325C88.5801 67.8867 84.091 68.1238 82.7725 68.1238C82.5845 68.1238 82.4702 68.1189 82.4549 68.1179L82.4209 68.1206C82.8557 67.2076 83.3215 65.9447 83.649 64.2775C84.1551 64.0283 85.6349 63.1837 86.7809 61.3211C86.889 61.1461 86.8345 60.9171 86.6585 60.8096C86.4846 60.7015 86.2553 60.756 86.1472 60.9315C85.3788 62.1796 84.429 62.9317 83.8133 63.3255C84.0436 61.7828 84.1497 59.9501 84.0231 57.7961C84.0105 57.5908 83.8311 57.4311 83.6295 57.4462C83.4242 57.4578 83.268 57.6344 83.2796 57.8393C83.6169 63.5812 82.2309 66.984 81.3696 68.5105C81.2596 68.6107 81.1616 68.724 81.0839 68.8543C81.0767 68.8651 80.4255 69.9168 79.5337 69.9807C78.1405 70.0802 77.1552 71.0152 76.1109 72.0074C75.2566 72.818 74.2875 73.7372 72.9605 74.3208C70.8923 75.2314 68.6307 75.3296 67.7552 75.3296C67.4357 75.3296 67.24 75.318 67.2188 75.3153C66.8027 75.2866 66.3985 75.4278 66.0958 75.7096C65.9067 75.8845 65.7693 76.1024 65.6918 76.3435C65.5531 76.5254 64.9328 77.2181 62.7571 78.4943C61.1183 79.4547 59.194 79.6563 57.8677 79.6563C56.0488 79.6563 54.5618 79.2654 54.086 78.9888C53.0536 78.3855 51.3739 78.157 49.2488 77.8678C47.511 77.6297 45.5411 77.3609 43.6776 76.8531C40.4191 75.965 39.4569 75.1966 39.4419 75.1966V75.1983C39.222 74.9473 38.9276 74.7958 38.6125 74.7334C37.4826 73.4016 36.2268 71.2471 35.544 67.8356C35.504 67.6338 35.3066 67.5035 35.1068 67.5437C34.9052 67.5844 34.7746 67.7804 34.8151 67.982C35.4621 71.215 36.5938 73.3777 37.6916 74.8064C37.0229 74.9752 34.9639 75.4473 32.8906 75.4473C31.6375 75.4473 30.6209 75.2777 29.8702 74.9439C29.3722 74.7225 28.9342 74.4388 28.5495 74.1246C28.5476 73.9719 28.512 73.8184 28.4138 73.6871C28.1335 73.3123 21.712 64.4873 29.5161 55.9565C30.4155 56.5867 32.4005 57.6643 35.9537 58.2025C34.3598 58.9818 31.9534 60.7767 30.7845 64.6899C30.1345 64.1606 29.7283 63.6725 29.7194 63.6611C29.5884 63.502 29.3537 63.479 29.1956 63.6093C29.0369 63.7396 29.0127 63.9735 29.143 64.1329C29.1914 64.1919 29.7917 64.9108 30.7228 65.5824C30.7504 65.6101 30.7815 65.6315 30.8173 65.6498C31.6528 66.2351 32.7364 66.7666 33.9304 66.7666C34.0536 66.7666 34.1794 66.7615 34.3053 66.7494C34.5096 66.7301 34.6606 66.5475 34.6409 66.3432C34.6211 66.1384 34.4462 65.995 34.2347 66.0076C33.1968 66.1098 32.207 65.6782 31.4199 65.1585C32.913 59.7628 36.8748 58.5541 37.5416 58.3895C38.2485 58.4544 38.9928 58.5038 39.8049 58.5208C39.9433 58.5238 40.08 58.5248 40.2165 58.5248C45.567 58.5248 47.8153 56.2935 48.715 54.8337C48.9845 56.1119 49.1774 58.5971 47.3129 60.6262C47.1737 60.778 47.1836 61.0131 47.3351 61.1528C47.4064 61.2179 47.4967 61.2505 47.5878 61.2505C47.6877 61.2505 47.7877 61.21 47.861 61.1301C50.4322 58.3318 49.5594 54.8766 49.2566 53.9453C50.1662 54.0408 52.4636 54.0243 55.8704 52.1896C56.4049 51.9019 56.9505 51.5939 57.5017 51.2805C61.3836 49.0861 65.3962 46.8122 68.6771 49.82C68.8279 49.9589 69.0646 49.95 69.2027 49.7973C69.3422 49.6455 69.3313 49.4103 69.1796 49.2716C65.5023 45.8994 61.0556 48.4144 57.135 50.6335C56.588 50.9432 56.0471 51.249 55.5168 51.5347C51.4274 53.7368 49.0291 53.1626 49.0069 53.1567C48.9122 53.1318 48.8088 53.1451 48.7212 53.1959C48.6355 53.247 48.5731 53.3306 48.5489 53.4276C48.5035 53.6115 47.3023 57.9375 39.8202 57.7768C39.0473 57.7608 38.3394 57.7139 37.6657 57.6525C37.6146 57.6367 37.5621 57.6305 37.5068 57.6389C33.1092 57.2132 30.8012 55.9421 29.907 55.3131C29.9346 55.1046 29.8865 54.8872 29.7409 54.7187C29.659 54.6237 27.7508 52.3285 29.8687 47.3126C31.906 42.4871 36.7776 41.7106 36.9829 41.6802C37.2353 41.643 37.4522 41.4786 37.5559 41.2462C37.5835 41.184 40.3781 35.0164 44.6863 34.5705C44.961 34.5424 45.1976 34.3635 45.301 34.1073C45.3218 34.0543 47.4817 28.8009 52.3627 28.9495C52.7145 28.9848 53.057 28.6928 53.1195 28.3252C53.1242 28.301 53.5669 25.8684 56.6048 23.1343C59.4164 20.6035 63.5334 19.9417 66.4797 20.3888C67.242 20.9011 67.6987 21.422 67.7061 21.4291C67.9739 21.7482 68.364 21.9409 68.7805 21.9589C69.1956 21.9811 69.6035 21.8193 69.8979 21.5241C70.3694 21.0528 71.143 20.7927 72.0751 20.7927C73.0888 20.7927 74.1225 21.113 74.708 21.608C76.1119 22.796 77.5631 22.9309 79.0999 23.0736C79.8587 23.1441 80.6429 23.2169 81.5569 23.4148C83.2564 23.7847 84.7165 26.3794 85.0933 27.2567L85.1101 27.2831C85.4886 28.8592 85.8625 31.4638 85.2717 34.4183C85.2315 34.6206 85.3618 34.8165 85.5636 34.8565C85.5886 34.8614 85.6127 34.8637 85.6369 34.8637C85.8109 34.8637 85.9661 34.7415 86.0016 34.5651C86.5114 32.0158 86.3437 29.7406 86.0473 28.0945C86.2232 28.1463 86.4061 28.1756 86.5971 28.1584C88.435 27.9918 89.7833 28.4246 90.775 29.4746C92.8873 31.7117 92.6724 35.9743 92.6706 36.0143C92.6331 36.6149 92.9626 37.1785 93.5042 37.4431C97.6454 39.4638 97.5311 45.2395 96.1271 48.6964V48.6964ZM24.3153 69.8097C24.2931 69.8174 22.0073 70.5902 19.744 70.5902C19.2836 70.5902 18.854 70.5572 18.4685 70.494C16.5872 70.1796 16.123 68.4733 16.0801 68.2956C16.0194 68.0167 15.8829 67.7717 15.6956 67.5785C17.0405 66.4476 18.3177 64.4212 17.9802 60.89C18.2652 60.9546 18.5722 60.9966 18.9139 60.9966C19.2888 60.9966 19.6994 60.9514 20.1475 60.8475C20.3474 60.8016 20.4722 60.6018 20.4258 60.4014C20.3795 60.201 20.1813 60.0747 19.9794 60.1228C17.1155 60.7846 16.164 58.6904 16.1248 58.601C16.0436 58.4132 15.8257 58.3283 15.6367 58.4071C15.4484 58.4877 15.3608 58.7051 15.4402 58.8939C15.4484 58.9117 15.9488 60.0236 17.21 60.6223C17.6609 64.2516 16.3427 66.1858 15.0491 67.1857C14.8752 67.1343 14.6888 67.1129 14.4959 67.1286C14.4737 67.1304 14.4085 67.1336 14.3069 67.1336H14.3059C13.3107 67.1336 9.89695 66.8148 7.75653 62.7118C5.36466 58.1262 9.11052 50.9713 9.64699 49.9929C10.145 51.2766 10.9045 52.6163 12.0638 53.6312C12.1344 53.6927 12.2217 53.7235 12.3093 53.7235C12.4127 53.7235 12.5154 53.6798 12.5896 53.5964C12.7244 53.4415 12.7083 53.2058 12.5548 53.0711C11.1009 51.7988 10.3261 49.9132 9.913 48.3747C10.0181 46.4368 10.983 45.6198 11.8308 45.2785C11.8604 45.2808 11.8898 45.2859 11.9202 45.2807C12.5993 45.1561 14.4729 45.0115 15.3662 45.6825C14.7888 46.6821 15.0521 47.5776 15.0565 47.5914C15.1064 47.7494 15.2529 47.8508 15.4106 47.8508C15.4484 47.8508 15.4859 47.8444 15.5232 47.833C15.7196 47.7703 15.8277 47.5611 15.766 47.3652C15.7605 47.3504 15.31 45.8399 17.5582 44.7524C17.7428 44.6636 17.8205 44.4405 17.7314 44.2557C17.6421 44.0706 17.4198 43.9941 17.2342 44.0825C16.6022 44.3882 16.1517 44.7322 15.8203 45.0821C15.3393 44.7226 14.7029 44.5471 14.0747 44.4743C14.3165 44.1565 14.429 43.7787 14.3673 43.3802C14.3656 43.3649 14.2622 41.7923 15.7865 37.3303C17.2056 33.1736 22.5036 32.2477 22.5537 32.2398C22.8027 32.2001 23.0285 32.0881 23.2204 31.9326C25.0973 32.324 27.6079 33.2343 29.3947 35.3517C29.4687 35.4393 29.5731 35.4845 29.6795 35.4845C29.7641 35.4845 29.8497 35.4554 29.9196 35.3967C30.0758 35.2642 30.097 35.0292 29.964 34.8723C28.1263 32.6939 25.6436 31.714 23.6942 31.2678C23.8272 30.9031 23.8218 30.4922 23.6649 30.1352C23.6202 30.0338 22.6062 27.5977 25.8142 23.7879C27.79 21.4425 30.9725 20.9499 33.2948 20.9499C34.8738 20.9499 36.0242 21.1819 36.0324 21.1841C36.6446 21.3122 37.2827 21.0247 37.6129 20.4959C37.6674 20.409 38.9918 18.3584 42.6217 18.3584L42.8754 18.3614C43.4464 18.3764 43.973 18.3843 44.4657 18.3843C46.1035 18.3843 47.3995 18.2832 48.6267 18.0754C46.7819 19.1693 44.8129 20.7851 43.4437 23.0812C41.7489 22.6849 40.2755 23.1895 40.1834 23.2231C39.9897 23.2922 39.8888 23.5051 39.9576 23.6979C40.0272 23.8916 40.2387 23.9928 40.4341 23.9232C40.5153 23.8955 41.8123 23.456 43.2929 23.8111C43.3205 23.8452 43.3536 23.876 43.3948 23.8987C43.4518 23.9308 43.5142 23.9456 43.5749 23.9456C43.609 23.9456 43.6383 23.9286 43.6704 23.92C44.316 24.1341 44.979 24.5082 45.5786 25.1511C45.6509 25.2293 45.7509 25.2693 45.8501 25.2693C45.9409 25.2693 46.0322 25.2362 46.1045 25.1691C46.2543 25.0287 46.2624 24.7935 46.1223 24.6435C45.5091 23.9866 44.8406 23.5659 44.181 23.3055C47.2808 18.3026 53.6434 16.755 53.7095 16.7394C53.8183 16.714 53.9015 16.6417 53.9503 16.5501C54.0828 16.5028 54.2013 16.4623 54.338 16.4127C54.8073 16.2432 55.2999 16.1575 55.8052 16.1575C58.7506 16.1575 61.3976 18.9716 61.4218 18.9975C61.4559 19.0348 61.4993 19.0617 61.5371 19.0952C59.485 19.533 57.3749 20.4376 55.6088 22.027C53.0667 24.3145 52.1342 26.4451 51.8094 27.4645C47.6895 27.634 45.361 30.8486 44.4156 32.5399C43.8846 31.768 42.7174 30.5243 40.4771 29.9938C40.2762 29.9486 40.0763 30.071 40.0289 30.2704C39.9808 30.4703 40.1049 30.6711 40.3048 30.718C42.595 31.2609 43.6018 32.5989 43.9453 33.1862C39.7363 34.0234 37.0498 38.896 36.3643 40.2836C34.9891 40.5851 30.5325 41.9137 28.4967 46.7337C26.5868 51.2591 27.5955 54.0233 28.2371 55.1416C23.4961 60.4616 23.7737 65.9523 24.9206 69.7362C24.718 69.7197 24.5117 69.7429 24.3153 69.8097V69.8097ZM95.6496 35.2306C95.6032 33.502 95.218 29.8512 92.949 27.4405C91.5301 25.9323 89.654 25.1612 87.3727 25.1479C86.5838 23.69 84.8354 21.0805 82.1899 20.5053C81.0992 20.2689 80.1825 20.1837 79.3748 20.1087C77.987 19.9792 77.2916 19.893 76.6313 19.3349C75.5066 18.3833 73.8029 17.8148 72.0751 17.8148C70.9237 17.8148 69.8633 18.0682 68.9787 18.5432C67.8836 17.6352 65.96 16.4193 63.504 16.4193C63.355 16.4193 63.2039 16.4233 63.0542 16.4324C61.9037 15.3765 59.1146 13.1796 55.8052 13.1796C54.9546 13.1796 54.1211 13.3247 53.3265 13.6119C48.8784 15.2181 47.4439 15.4997 42.9521 15.3849L42.6217 15.3805C38.8492 15.3805 36.6989 17.057 35.7138 18.1228C35.1184 18.0477 34.2759 17.972 33.2948 17.972C30.3408 17.972 26.2495 18.6481 23.5363 21.8696C20.7382 25.193 20.3856 27.9841 20.5482 29.6792C18.3464 30.3642 14.4103 32.1461 12.9679 36.3682C11.9764 39.2733 11.5935 41.1485 11.457 42.2924C10.602 42.5313 9.5051 43.0182 8.58467 44.0067C7.47177 45.2025 6.91409 46.8016 6.92297 48.766C5.94653 50.5894 2.1407 58.3861 5.11641 64.0895C7.65116 68.9475 11.6532 69.9102 13.5873 70.0787C14.1524 71.2666 15.4037 73.0019 17.9787 73.4302C18.5255 73.5213 19.1202 73.5677 19.744 73.5677C21.3399 73.5677 22.8954 73.2696 23.9513 73.0073C24.6645 74.403 26.1095 76.5308 28.6611 77.6644C29.7944 78.1696 31.218 78.4237 32.8906 78.4237C34.9631 78.4237 36.9624 78.0356 37.9986 77.7965C38.7875 78.2981 40.2496 79.0049 42.8948 79.7262C44.9459 80.2848 47.0175 80.5686 48.8463 80.8176C50.3545 81.0236 52.0636 81.2568 52.5857 81.5611C53.7036 82.2125 55.7766 82.634 57.8677 82.634C59.5627 82.634 62.0483 82.3626 64.2635 81.0631C66.252 79.8974 67.3399 79.0021 67.9292 78.307C69.2945 78.2927 71.7733 78.0973 74.16 77.0468C75.9618 76.2542 77.1808 75.0974 78.161 74.1666C78.75 73.6079 79.4168 72.9742 79.7462 72.95C81.3803 72.8341 82.5094 71.83 83.1244 71.0971C85.119 71.0482 90.2832 70.5295 93.3374 66.6842C96.3524 62.8878 95.391 58.6568 94.7467 56.8278C95.7036 55.5927 97.6328 52.9015 98.8859 49.817C100.517 45.8029 100.964 38.5254 95.6496 35.2306" fill="#F9F9F9"/>
<path d="M42.1282 41.812C42.2059 41.812 42.2844 41.7878 42.3515 41.7377C42.3754 41.7187 44.8798 39.8707 47.6537 40.6406C47.7724 40.6744 47.9029 40.6441 47.9967 40.5629C48.0912 40.4807 48.1386 40.3571 48.1215 40.2335C48.0964 40.0412 47.5582 35.5013 51.8896 33.3357C52.0737 33.2439 52.1485 33.0201 52.0557 32.8362C51.9646 32.6529 51.7406 32.5779 51.5577 32.6699C47.6485 34.6241 47.3317 38.4205 47.3539 39.8083C44.4532 39.2674 42.0132 41.0609 41.9041 41.1421C41.74 41.2652 41.7069 41.4984 41.8301 41.664C41.9034 41.7612 42.0149 41.812 42.1282 41.812Z" fill="#F9F9F9"/>
<path d="M72.9799 53.9019C72.8274 54.0398 72.8148 54.275 72.953 54.4277C74.491 56.1297 74.7383 57.9406 73.6484 59.5261C72.1542 61.7025 68.6252 62.8525 66.2494 61.9367C61.7403 60.2022 57.9542 60.7698 56.3673 63.4166C54.9955 65.7018 51.2336 66.0456 51.1961 66.049C51.0103 66.0643 50.865 66.2139 50.8553 66.3989C50.8534 66.4261 50.6624 69.1136 47.0004 70.0293C43.2921 70.9525 40.8385 68.5739 40.7368 68.4722C40.5912 68.3276 40.3556 68.3281 40.21 68.4732C40.0654 68.6191 40.0654 68.8542 40.21 68.9993C40.3057 69.0953 42.2406 70.9875 45.2975 70.9875C45.8848 70.9875 46.5148 70.9177 47.1805 70.7508C50.6392 69.8874 51.3933 67.6022 51.5549 66.757C52.5395 66.6237 55.664 66.0347 57.0054 63.799C58.3932 61.4834 61.8351 61.0363 65.9814 62.6316C68.6948 63.6754 72.5648 62.4206 74.2623 59.9473C75.0176 58.8482 75.9223 56.6049 73.5057 53.9283C73.367 53.7765 73.1324 53.7644 72.9799 53.9019" fill="#F9F9F9"/>
<path d="M53.8677 59.6369C53.922 59.6651 53.981 59.6786 54.039 59.6786C54.1737 59.6786 54.303 59.6056 54.3692 59.4785C54.3906 59.4366 56.5042 55.5081 61.7439 55.0891C61.6102 55.782 61.5853 56.563 61.7834 57.4065C61.8236 57.5782 61.9761 57.6934 62.1449 57.6934C62.1735 57.6934 62.2029 57.6907 62.2305 57.6836C62.4314 57.6367 62.5555 57.4363 62.5081 57.2359C62.3117 56.4029 62.3707 55.629 62.5392 54.9605C62.6278 54.89 62.6865 54.7856 62.6828 54.6642C62.6811 54.6254 62.6695 54.5901 62.6582 54.5554C63.0515 53.382 63.7316 52.6227 63.7425 52.6106C63.8809 52.4589 63.871 52.2232 63.72 52.0848C63.5702 51.9463 63.3346 51.955 63.1951 52.1057C63.1426 52.1627 62.3806 53.0104 61.9421 54.3286C56.1088 54.6629 53.8053 58.9487 53.7088 59.1353C53.6141 59.3179 53.6854 59.5422 53.8677 59.6369" fill="#F9F9F9"/>
<path d="M68.6957 30.2565C69.4118 30.1361 70.2123 30.2141 71.0646 30.6822C71.244 30.7811 71.4705 30.7153 71.5707 30.5354C71.6687 30.355 71.6038 30.1287 71.4234 30.0298C67.8764 28.0788 65.0204 31.7475 64.993 31.785C64.8679 31.9483 64.8992 32.1813 65.0626 32.3056C65.1302 32.3575 65.2096 32.3814 65.2881 32.3814C65.4006 32.3814 65.5112 32.332 65.5845 32.2358C65.6462 32.1554 66.5745 30.9721 67.9712 30.4483C69.7328 34.2459 67.1072 36.8436 66.6154 37.2814C66.3137 37.1146 65.9808 36.9507 65.5943 36.7943C60.8291 34.8636 57.4983 39.3455 55.292 42.3114C54.5199 43.3498 53.8524 44.247 53.3312 44.608C51.3354 45.9894 47.2031 45.2178 47.1621 45.2106C46.9657 45.1716 46.7764 45.2957 46.7291 45.4887C46.7184 45.5336 45.5902 50.0272 41.7676 50.3327C37.985 50.6322 37.0552 48.3549 37.0177 48.2554C36.9444 48.0644 36.7312 47.9697 36.5382 48.039C36.3455 48.1113 36.2483 48.3255 36.3206 48.5182C36.3625 48.6303 37.3363 51.1053 41.0893 51.1053C41.3242 51.1053 41.5705 51.0959 41.8266 51.0754C45.5179 50.7798 46.9852 47.1322 47.3549 45.9973C48.4347 46.1634 51.8371 46.5476 53.7549 45.22C54.3772 44.7894 55.0447 43.8919 55.8901 42.7556C58.0831 39.8082 61.0889 35.7687 65.314 37.4842C67.4631 38.355 68.3818 39.5318 67.8989 40.798C67.4088 42.0831 65.523 43.1353 64.4205 42.7442C64.2278 42.6727 64.0146 42.7753 63.9457 42.9695C63.8761 43.1627 63.9771 43.3762 64.1708 43.4448C65.6728 43.9835 67.9487 42.7575 68.595 41.0635C68.8395 40.4204 69.0895 38.9858 67.2659 37.6846C68.063 36.89 70.4013 34.0996 68.6957 30.2565" fill="#F9F9F9"/>
<path d="M68.0674 70.3506C66.3519 70.5081 64.285 69.7202 64.2643 69.7125C64.1091 69.652 63.9334 69.7039 63.8335 69.8361C61.5075 72.9357 58.2282 72.8252 58.192 72.8304C57.9827 72.817 57.8134 72.9804 57.8035 73.1857C57.7939 73.391 57.9526 73.564 58.1569 73.5748C58.1712 73.5748 58.2097 73.5766 58.2739 73.5766C58.9103 73.5766 61.9358 73.4169 64.2601 70.5009C64.9044 70.7198 66.6127 71.2257 68.1345 71.0917C68.3398 71.0732 68.4896 70.8918 68.4718 70.6875C68.4531 70.4832 68.2638 70.3304 68.0674 70.3506Z" fill="#F9F9F9"/>
<path d="M80.5403 37.1169C81.2777 36.5172 82.4656 35.43 83.1511 34.1737C83.2493 33.9931 83.1832 33.7673 83.003 33.6686C82.8216 33.5709 82.5959 33.637 82.4979 33.8169C81.5607 35.5359 79.4901 36.9834 79.4696 36.9982C79.3438 37.0853 79.2838 37.24 79.3186 37.3885C79.3527 37.5373 79.4748 37.6496 79.6256 37.6726C81.3411 37.9295 83.234 39.22 84.4488 40.9602C85.3867 42.3041 86.3777 44.5274 85.768 47.4856C84.887 51.765 81.1449 53.4597 79.688 53.9658C79.7702 52.4428 80.1122 51.3329 80.1181 51.3134C80.1808 51.1175 80.072 50.9085 79.8765 50.846C79.6828 50.7866 79.4721 50.8919 79.4097 51.0876C79.38 51.1784 78.9761 52.4927 78.9267 54.2501C78.8394 54.3375 78.792 54.4626 78.8224 54.5919C78.8377 54.658 78.8803 54.7056 78.9233 54.7518C78.9374 55.8521 79.1027 57.0842 79.5836 58.2869C79.6419 58.433 79.7818 58.5208 79.9291 58.5208C79.9745 58.5208 80.0219 58.5122 80.0673 58.4939C80.2585 58.4172 80.3513 58.2013 80.2746 58.0103C79.8373 56.9156 79.687 55.7771 79.6749 54.7533C81.0348 54.3214 85.485 52.5534 86.4972 47.6361C87.1605 44.4186 86.0811 41.9986 85.0593 40.5338C83.8983 38.8711 82.222 37.6168 80.5403 37.1169" fill="#F9F9F9"/>
<path d="M83.1322 46.4153C83.3205 46.3371 83.4088 46.1237 83.3331 45.9349C83.2563 45.7454 83.0375 45.6538 82.8512 45.7264C82.8317 45.7333 80.9474 46.4097 77.0784 43.7789C75.4717 42.687 74.0402 42.2951 72.8227 42.611C71.4875 42.9594 70.9342 44.0397 70.911 44.0859C70.819 44.27 70.8942 44.4935 71.0771 44.5853C71.2646 44.6791 71.4848 44.6029 71.5768 44.419C71.5805 44.4104 71.999 43.5956 73.0102 43.3318C74.0143 43.0695 75.2397 43.4283 76.6599 44.3943C79.3202 46.2039 81.151 46.5552 82.1701 46.5552C82.7798 46.5552 83.0992 46.4289 83.1322 46.4153Z" fill="#F9F9F9"/>
<path d="M76.9943 28.0769C77.0116 28.2524 77.1542 28.391 77.3292 28.41C77.3469 28.4125 79.1535 28.6455 80.8369 32.0111C80.9018 32.1423 81.0338 32.2173 81.1705 32.2173C81.2261 32.2173 81.2831 32.2045 81.3366 32.1781C81.5204 32.0858 81.5945 31.8625 81.5027 31.6787C80.0075 28.6884 78.3663 27.9244 77.6988 27.7324C77.4291 26.0742 76.2385 24.2743 76.1859 24.1941C76.0724 24.0224 75.8412 23.9767 75.6699 24.0907C75.4987 24.205 75.452 24.4359 75.5663 24.6072C75.5789 24.6257 76.8401 26.5324 76.9943 28.0769" fill="#F9F9F9"/>
<path d="M59.0002 29.5305C59.0538 29.5572 59.111 29.57 59.1673 29.57C59.3038 29.57 59.4341 29.4952 59.5002 29.3657C59.5698 29.227 61.2673 25.9769 65.3988 26.5886C65.6059 26.6131 65.7914 26.4781 65.8218 26.2755C65.8521 26.0719 65.7112 25.8821 65.5084 25.8518C60.8228 25.1616 58.8542 28.9926 58.8342 29.0318C58.7431 29.2154 58.8174 29.438 59.0002 29.5305" fill="#F9F9F9"/>
<path d="M74.2988 62.2877C74.0955 62.3131 73.9509 62.4991 73.9768 62.7035C73.982 62.7499 74.5266 67.4018 71.2333 70.5769C71.0859 70.7205 71.0813 70.9562 71.2241 71.1035C71.2974 71.1793 71.3946 71.2168 71.4929 71.2168C71.5856 71.2168 71.6774 71.183 71.7507 71.1131C75.3182 67.673 74.7415 62.8145 74.7148 62.6089C74.6889 62.4059 74.5058 62.2595 74.2988 62.2877Z" fill="#F9F9F9"/>
<path d="M93.4425 46.8827C93.0026 47.0532 92.6243 47.2536 92.2726 47.4621C93.672 41.4487 90.9009 38.6474 90.776 38.5255C90.6294 38.3829 90.3938 38.3869 90.2492 38.5337C90.1065 38.681 90.1093 38.9167 90.2573 39.0603C90.2859 39.0884 93.1052 41.9289 91.3399 48.112C90.2512 49.0105 89.7939 49.9087 89.7673 49.9645C89.6792 50.1498 89.7566 50.3721 89.9432 50.4607C89.995 50.4854 90.0496 50.4973 90.1029 50.4973C90.2423 50.4973 90.375 50.4193 90.4394 50.2855C90.4473 50.268 91.3132 48.5059 93.7113 47.5771C93.9032 47.503 93.9987 47.2876 93.9247 47.0961C93.8497 46.9041 93.6365 46.8104 93.4425 46.8827" fill="#F9F9F9"/>
<path d="M25.6621 41.5046C30.7067 38.2619 33.5474 36.2547 33.2763 32.7262C33.1307 30.8358 33.7957 29.0013 34.9318 28.1604C35.637 27.638 36.4778 27.5452 37.3604 27.8904C37.5512 27.9664 37.7681 27.8709 37.8424 27.6794C37.9181 27.4879 37.8226 27.2715 37.6316 27.197C36.4982 26.7536 35.4103 26.8802 34.4891 27.562C33.1344 28.5648 32.3667 30.6139 32.5345 32.7832C32.7613 35.733 30.4915 37.5154 25.2597 40.8788C19.8662 44.3458 21.7396 50.0638 21.7583 50.1208C21.8119 50.2758 21.9555 50.3735 22.11 50.3735C22.1502 50.3735 22.1912 50.3668 22.2306 50.3537C22.4251 50.2879 22.5295 50.0761 22.4633 49.8812C22.392 49.6692 20.7659 44.6523 25.6621 41.5046" fill="#F9F9F9"/>
<path d="M30.6628 26.6333C30.6682 26.6079 31.2644 24.0986 33.6432 23.306C33.8386 23.2408 33.9438 23.0303 33.8786 22.8351C33.8127 22.6397 33.6047 22.5363 33.4073 22.5995C31.1092 23.3657 30.2551 25.4382 30.0141 26.1928C28.6522 26.3281 27.8095 27.3906 27.7722 27.4387C27.6464 27.6011 27.6757 27.8338 27.8371 27.9604C27.9052 28.0132 27.9854 28.0391 28.0666 28.0391C28.1764 28.0391 28.2862 27.9903 28.3593 27.8967C28.3674 27.8869 29.141 26.9233 30.2996 26.9233C30.4738 26.9233 30.6245 26.8033 30.6628 26.6333" fill="#F9F9F9"/>
<path d="M18.5346 51.9384C16.241 53.6926 17.1574 56.542 17.1671 56.5706C17.2189 56.7258 17.3645 56.825 17.5197 56.825C17.5582 56.825 17.5984 56.8186 17.6367 56.8053C17.8321 56.7411 17.9375 56.5309 17.8733 56.336C17.842 56.2395 17.1199 53.9572 18.987 52.5301C19.1506 52.4048 19.1817 52.1708 19.0568 52.0077C18.9327 51.8461 18.699 51.8138 18.5346 51.9384Z" fill="#F9F9F9"/>
</g>
<defs>
<filter id="filter0_d" x="0" y="13.1796" width="103.982" height="77.4544" filterUnits="userSpaceOnUse" color-interpolation-filters="sRGB">
<feFlood flood-opacity="0" result="BackgroundImageFix"/>
<feColorMatrix in="SourceAlpha" type="matrix" values="0 0 0 0 0 0 0 0 0 0 0 0 0 0 0 0 0 0 127 0"/>
<feOffset dy="4"/>
<feGaussianBlur stdDeviation="2"/>
<feColorMatrix type="matrix" values="0 0 0 0 0 0 0 0 0 0 0 0 0 0 0 0 0 0 0.25 0"/>
<feBlend mode="normal" in2="BackgroundImageFix" result="effect1_dropShadow"/>
<feBlend mode="normal" in="SourceGraphic" in2="effect1_dropShadow" result="shape"/>
</filter>
</defs>
</svg>
