<svg width="270" height="270" viewBox="0 0 270 270" fill="none" xmlns="http://www.w3.org/2000/svg">
<path d="M218.981 72.2988L205.691 151.558C205.058 155.513 201.736 158.203 197.939 158.203H71.3767C67.5799 158.203 64.2576 155.513 63.6248 151.558L50.3352 72.2988L71.3767 47.4609H84.8235L117.097 25.9453H152.219L184.493 47.4609H197.939L218.981 72.2988Z" fill="#BCC4C6"/>
<path d="M218.981 72.2988L205.691 151.558C205.058 155.513 201.736 158.203 197.939 158.203H134.658V25.9453H152.218L184.492 47.4609H197.939L218.981 72.2988Z" fill="#95A2A5"/>
<path d="M176.265 87.4857C171.678 82.1073 165.508 79.1014 156.964 79.1014C153.801 69.9251 144.942 63.2811 134.658 63.2811C124.374 63.2811 115.515 69.9251 112.352 79.1014C103.808 79.1014 97.6379 82.1073 93.0505 87.4857C88.4632 92.8651 86.5647 99.826 87.6721 106.787L95.2654 151.558C95.8982 155.355 99.2204 158.203 103.017 158.203H166.299C170.095 158.203 173.418 155.355 174.051 151.558L181.644 106.787C182.751 99.826 180.853 92.8651 176.265 87.4857Z" fill="#65A0AC"/>
<path d="M181.644 106.787L174.051 151.558C173.418 155.355 170.095 158.203 166.299 158.203H134.658V63.2811C144.942 63.2811 153.801 69.9251 156.964 79.1014C165.508 79.1014 171.678 82.1073 176.265 87.4857C180.853 92.8651 182.751 99.826 181.644 106.787Z" fill="#478491"/>
<path d="M205.849 206.719H63.4666V254.18H205.849V206.719Z" fill="#BCC4C6"/>
<path d="M182.119 142.383H87.197C74.0656 142.383 63.4666 152.982 63.4666 166.113C63.4666 179.244 74.0656 189.844 87.197 189.844H182.119C195.25 189.844 205.849 179.244 205.849 166.113C205.849 152.982 195.25 142.383 182.119 142.383Z" fill="#67AEBC"/>
<path d="M134.658 0C121.527 0 110.927 10.5991 110.927 23.7305C110.927 36.8619 121.527 47.4609 134.658 47.4609C147.789 47.4609 158.388 36.8619 158.388 23.7305C158.388 10.5991 147.789 0 134.658 0Z" fill="#E1EBEE"/>
<path d="M213.76 79.1016C200.674 79.1016 190.029 68.4566 190.029 55.3711C190.029 42.2856 200.674 31.6406 213.76 31.6406C226.845 31.6406 237.49 42.2856 237.49 55.3711C237.49 68.4566 226.845 79.1016 213.76 79.1016Z" fill="#B2CCD1"/>
<path d="M55.5564 79.1016C42.4709 79.1016 31.8259 68.4566 31.8259 55.3711C31.8259 42.2856 42.4709 31.6406 55.5564 31.6406C68.6419 31.6406 79.2869 42.2856 79.2869 55.3711C79.2869 68.4566 68.6419 79.1016 55.5564 79.1016Z" fill="#E1EBEE"/>
<path d="M205.849 166.113C205.849 179.244 195.25 189.844 182.119 189.844H134.658V142.383H182.119C195.25 142.383 205.849 152.982 205.849 166.113Z" fill="#65A0AC"/>
<path d="M205.849 206.719H134.658V254.18H205.849V206.719Z" fill="#95A2A5"/>
<path d="M158.388 23.7305C158.388 36.8619 147.789 47.4609 134.658 47.4609V0C147.789 0 158.388 10.5991 158.388 23.7305Z" fill="#B2CCD1"/>
<path d="M237.49 223.962V185.414C246.825 180.035 253.31 169.91 253.31 158.203C253.31 140.8 239.072 126.562 221.67 126.562C204.268 126.562 190.029 140.8 190.029 158.203V166.113C190.029 170.542 186.549 174.023 182.119 174.023H87.1971C82.7669 174.023 79.287 170.542 79.287 166.113V158.203C79.287 140.8 65.0482 126.562 47.6464 126.562C30.2445 126.562 16.0057 140.8 16.0057 158.203C16.0057 169.91 22.4915 180.035 31.826 185.414V223.962C31.826 235.986 26.9217 247.851 18.3793 256.552C16.0057 258.767 15.3734 262.09 16.6385 265.096C17.9042 268.102 20.7518 270 23.9159 270H71.3768C75.807 270 79.287 266.519 79.287 262.09V230.449C79.287 226.019 82.7669 222.539 87.1971 222.539H182.119C186.549 222.539 190.029 226.019 190.029 230.449V262.09C190.029 266.519 193.509 270 197.939 270H245.4C248.564 270 251.412 268.102 252.678 265.096C253.943 262.09 253.31 258.767 250.937 256.552C242.394 247.851 237.49 235.986 237.49 223.962Z" fill="#CEDDE1"/>
<path d="M250.937 256.552C253.31 258.767 253.943 262.09 252.677 265.096C251.412 268.102 248.564 270 245.4 270H197.939C193.509 270 190.029 266.519 190.029 262.09V230.449C190.029 226.019 186.549 222.539 182.119 222.539H134.658V174.023H182.119C186.549 174.023 190.029 170.542 190.029 166.113V158.203C190.029 140.8 204.268 126.562 221.67 126.562C239.071 126.562 253.31 140.8 253.31 158.203C253.31 169.91 246.824 180.035 237.49 185.414V223.962C237.49 235.986 242.394 247.851 250.937 256.552Z" fill="#B2C4C8"/>
<g filter="url(#filter0_i)">
<path d="M178.688 100.198C195.013 94.6733 206.007 61.3882 200.723 52.5868C197.592 47.3712 175.903 48.6386 166.09 54.4751" stroke="#F9F9F9" stroke-width="5" stroke-linecap="round" stroke-linejoin="round"/>
</g>
<g filter="url(#filter1_i)">
<path d="M149.412 126.885C152.311 146.129 179.043 129.801 174.77 144.415C170.36 159.5 161.907 188.852 169.258 188.852" stroke="#F9F9F9" stroke-width="5" stroke-linecap="round" stroke-linejoin="round"/>
</g>
<g filter="url(#filter2_i)">
<path d="M111.789 128.361C114.688 147.604 141.42 131.276 137.147 145.891C132.737 160.975 124.284 190.328 131.635 190.328" stroke="#F9F9F9" stroke-width="5" stroke-linecap="round" stroke-linejoin="round"/>
</g>
<path d="M183.451 109.637C186.018 109.057 191.217 107.031 193.732 100.031L161.618 85.8698L72.7699 97.9557L72.0227 106.634C71.4921 109.213 70.9754 115.082 75.7196 119.64C80.5255 124.256 87.5564 124.011 90.2442 123.712C91.2043 124.586 92.9046 125.731 95.1206 125.588C95.5655 125.561 96.5701 126.285 97.4606 126.927L97.4723 126.936C98.9591 128.009 100.808 129.343 103.373 130.08C106.771 131.058 110.136 130.868 111.972 130.638C112.891 131.466 114.516 132.471 117.4 133.677C120.613 135.021 124.001 134.932 126.278 134.622C129.086 134.24 131.793 133.294 133.175 132.213C133.82 131.709 136.068 131.084 138.054 130.532L138.062 130.53C140.472 129.861 143.203 129.1 145.855 127.974C149.276 126.52 151.11 125.302 152.078 124.483C153.513 124.615 156.27 124.772 159.053 124.393C161.3 124.088 163.165 123.486 164.595 122.599C167.814 120.607 169.365 117.48 170.068 115.472C171.534 115.632 173.678 115.749 175.821 115.457C176.659 115.343 177.449 115.172 178.167 114.95C181.547 113.903 182.91 111.339 183.451 109.637Z" fill="#914100"/>
<path d="M69.1295 66.8088C66.5271 70.4649 66.6784 75.4453 66.9324 77.7786C60.4072 83.1795 62.3381 92.8857 65.26 97.9868C67.5051 101.907 70.5851 105.174 72.0947 106.661C82.4554 96.4596 114.232 98.1395 133.017 98.3733C148.045 98.5603 153.019 92.1158 153.628 88.8702C152.483 80.4533 129.26 72.0316 114.753 65.733C103.148 60.6942 110.977 47.0459 116.343 40.8516C111.904 41.4554 108.565 44.919 107.215 46.549C107.012 46.5641 106.809 46.5863 106.609 46.6135C103.314 47.0617 100.957 49.0478 99.654 50.4689C98.3805 49.9915 96.9119 49.8441 95.3675 50.0542C93.0499 50.3695 90.8687 51.445 89.5341 52.9299C88.7505 53.8011 87.8335 54.0438 85.9957 54.4713L85.9952 54.4714C84.9257 54.7196 83.7119 55.0014 82.2923 55.5182C78.849 56.7746 76.9813 60.6032 76.1899 62.7079C73.1323 63.142 70.7568 64.5215 69.1295 66.8088Z" fill="#DE8843"/>
<path d="M119.464 41.016C118.343 40.7755 117.195 40.733 116.051 40.8887C110.667 47.0801 102.809 60.72 114.444 65.7484C128.988 72.0338 152.271 80.4359 153.415 88.8446C154.559 97.2533 167.05 102.015 175.923 100.808C184.797 99.6008 187.396 97.0488 193.541 100.017C196.501 91.809 189.957 82.0296 188.31 79.7584C187.963 77.1173 186.92 75.0709 185.205 73.6678C183.786 72.508 182.222 72.0546 181.028 71.8901C180.635 70.378 179.777 67.9286 177.912 64.2066C175.201 58.7977 169.58 57.1238 166.493 56.6063C166.402 54.2991 165.418 50.6134 161.046 46.66C156.808 42.8281 151.181 42.6682 147.207 43.2088C145.887 43.3883 144.768 43.6442 143.981 43.854C142.461 42.6023 139.262 40.7432 134.187 41.4335L133.744 41.4999C127.722 42.476 125.741 42.3602 119.464 41.016Z" fill="#F7CA63"/>
<g filter="url(#filter3_i)">
<path d="M75.6795 94.7115C78.0398 98.8235 81.7347 102.163 81.7714 102.195C82.3003 102.67 82.4953 103.416 82.267 104.088C82.2483 104.14 80.5428 109.315 84.3143 112.932C87.6666 116.147 93.0024 115.706 94.5583 115.495C94.7802 115.464 94.9143 115.44 94.9322 115.437L94.9728 115.434C94.3131 114.427 93.5606 113.011 92.9065 111.096C92.2692 110.883 90.3872 110.124 88.7358 108.11C88.5802 107.921 88.6078 107.642 88.7981 107.487C88.9861 107.331 89.2654 107.359 89.4211 107.548C90.5283 108.898 91.7699 109.633 92.5597 109.999C92.0404 108.215 91.6209 106.07 91.4245 103.507C91.4064 103.263 91.5925 103.046 91.8328 103.031C92.077 103.012 92.2897 103.195 92.3089 103.439C92.8326 110.269 95.0146 114.063 96.276 115.726C96.4219 115.826 96.5557 115.944 96.6684 116.085C96.6786 116.097 97.6159 117.234 98.6786 117.166C100.339 117.06 101.652 118.005 103.043 119.008C104.182 119.828 105.473 120.757 107.133 121.233C109.719 121.975 112.404 121.728 113.437 121.588C113.815 121.536 114.044 121.491 114.068 121.485C114.555 121.384 115.054 121.486 115.457 121.77C115.708 121.946 115.905 122.181 116.035 122.453C116.228 122.645 117.071 123.363 119.844 124.52C121.932 125.39 124.235 125.319 125.801 125.106C127.947 124.814 129.639 124.114 130.156 123.712C131.278 122.834 133.223 122.294 135.685 121.612C137.697 121.052 139.979 120.419 142.097 119.52C145.8 117.949 146.812 116.888 146.83 116.885L146.83 116.887C147.049 116.556 147.372 116.33 147.734 116.206C148.854 114.453 149.99 111.708 150.248 107.573C150.263 107.328 150.475 107.143 150.717 107.158C150.962 107.174 151.147 107.384 151.132 107.628C150.887 111.548 149.899 114.282 148.833 116.144C149.649 116.236 152.154 116.462 154.601 116.13C156.08 115.928 157.253 115.565 158.085 115.051C158.637 114.709 159.108 114.304 159.512 113.872C159.49 113.691 159.507 113.504 159.602 113.334C159.872 112.846 166.034 101.401 155.455 92.5861C154.494 93.4742 152.325 95.0646 148.218 96.2701C150.224 96.9339 153.352 98.6659 155.36 103.096C156.042 102.367 156.443 101.726 156.452 101.711C156.581 101.502 156.854 101.438 157.061 101.566C157.27 101.694 157.336 101.966 157.208 102.175C157.16 102.253 156.567 103.198 155.576 104.14C155.548 104.177 155.514 104.207 155.475 104.234C154.583 105.059 153.39 105.86 151.981 106.052C151.835 106.072 151.686 106.086 151.535 106.092C151.291 106.102 151.084 105.911 151.074 105.666C151.065 105.422 151.248 105.224 151.5 105.205C152.741 105.159 153.84 104.491 154.685 103.751C152.057 97.6233 147.187 96.833 146.374 96.7458C145.55 96.9359 144.68 97.1136 143.724 97.264C143.561 97.2898 143.4 97.3129 143.239 97.3348C136.925 98.1937 133.913 95.9215 132.617 94.3431C132.504 95.8948 132.676 98.8586 135.202 100.954C135.39 101.111 135.416 101.39 135.26 101.579C135.186 101.667 135.085 101.72 134.978 101.735C134.86 101.751 134.735 101.719 134.636 101.637C131.152 98.747 131.628 94.5293 131.835 93.3817C130.777 93.6404 128.063 93.9897 123.748 92.3714C123.071 92.1177 122.378 91.8418 121.677 91.5605C116.744 89.5939 111.643 87.5545 108.254 91.6308C108.099 91.819 107.818 91.8465 107.63 91.6884C107.442 91.5317 107.417 91.2524 107.573 91.0644C111.372 86.4944 117.023 88.7486 122.006 90.7381C122.701 91.0157 123.389 91.2897 124.061 91.5418C129.24 93.4841 131.978 92.4214 132.003 92.4109C132.111 92.3663 132.235 92.3654 132.347 92.4113C132.456 92.4578 132.543 92.5465 132.587 92.6571C132.671 92.8668 134.783 97.7792 143.587 96.3885C144.496 96.2455 145.324 96.0765 146.109 95.8958C146.167 95.869 146.228 95.8533 146.295 95.8543C151.416 94.646 153.936 92.7755 154.89 91.8896C154.824 91.648 154.846 91.3837 154.991 91.1614C155.072 91.0362 156.956 88.0212 153.651 82.4418C150.472 77.0742 144.598 76.9398 144.351 76.9369C144.047 76.9335 143.765 76.7743 143.605 76.5166C143.563 76.4477 139.274 69.6178 134.119 69.7831C133.79 69.794 133.482 69.6209 133.319 69.3352C133.286 69.2759 129.894 63.423 124.157 64.3819C123.748 64.48 123.297 64.1905 123.164 63.7666C123.154 63.7388 122.241 60.9391 118.217 58.2002C114.493 55.6649 109.528 55.5447 106.123 56.5454C105.306 57.2723 104.85 57.9604 104.843 57.97C104.578 58.3895 104.148 58.6796 103.66 58.7677C103.173 58.8606 102.666 58.735 102.271 58.434C101.639 57.9535 100.684 57.7707 99.5845 57.9203C98.3882 58.0831 97.2197 58.627 96.6082 59.3052C95.1421 60.9325 93.4512 61.3247 91.6604 61.7398C90.7763 61.9449 89.8625 62.1567 88.8156 62.5369C86.8694 63.2463 85.5628 66.5428 85.259 67.6385L85.2434 67.6724C85.0497 69.5931 85.0266 72.7269 86.1981 76.1187C86.278 76.3511 86.1557 76.6032 85.9239 76.6828C85.8953 76.6926 85.8671 76.6991 85.8386 76.703C85.6333 76.7309 85.4305 76.6117 85.3603 76.4092C84.3494 73.4825 84.1821 70.7706 84.2676 68.7803C84.0683 68.8697 83.8572 68.9337 83.6291 68.944C81.4334 69.0425 79.9117 69.7697 78.9098 71.168C76.7762 74.1473 77.7141 79.1432 77.7226 79.1901C77.8633 79.8929 77.565 80.6109 76.9682 81.01C72.4055 84.0595 73.4675 90.8573 75.6795 94.7115V94.7115ZM163.816 108.1C163.844 108.105 166.665 108.65 169.336 108.287C169.88 108.213 170.381 108.105 170.826 107.969C172.996 107.296 173.27 105.208 173.292 104.991C173.319 104.652 173.44 104.341 173.63 104.083C171.862 102.964 170.029 100.778 169.861 96.5564C169.535 96.6784 169.179 96.7772 168.776 96.8321C168.333 96.8923 167.842 96.9049 167.296 96.8542C167.053 96.8321 166.873 96.6163 166.896 96.3724C166.918 96.1285 167.132 95.9476 167.378 95.972C170.864 96.2932 171.651 93.669 171.683 93.5572C171.748 93.3226 171.992 93.1874 172.228 93.25C172.463 93.315 172.601 93.5575 172.538 93.793C172.531 93.8153 172.119 95.2078 170.726 96.1168C170.777 100.472 172.643 102.543 174.33 103.516C174.527 103.427 174.744 103.372 174.974 103.359C175 103.358 175.078 103.351 175.198 103.335L175.199 103.335C176.373 103.175 180.351 102.251 182.218 97.0652C184.305 91.2696 178.736 83.4272 177.945 82.3587C177.564 83.9535 176.883 85.6564 175.677 87.0403C175.604 87.1241 175.506 87.1746 175.402 87.1886C175.28 87.2052 175.152 87.1702 175.051 87.0837C174.867 86.9224 174.848 86.6417 175.008 86.4581C176.52 84.7232 177.131 82.3736 177.372 80.4916C176.937 78.2216 175.667 77.4123 174.611 77.1456C174.577 77.153 174.543 77.1638 174.506 77.1626C173.685 77.1246 171.451 77.2547 170.504 78.1899C171.346 79.2769 171.179 80.376 171.176 80.393C171.143 80.5874 170.986 80.7306 170.8 80.7559C170.755 80.762 170.71 80.7604 170.664 80.753C170.422 80.7106 170.261 80.481 170.302 80.2399C170.306 80.2215 170.596 78.3667 167.768 77.4442C167.536 77.369 167.408 77.1182 167.484 76.8858C167.559 76.653 167.81 76.5271 168.043 76.6015C168.838 76.8609 169.425 77.1945 169.872 77.5543C170.382 77.0528 171.105 76.7436 171.834 76.5568C171.498 76.2205 171.304 75.7927 171.313 75.3125C171.313 75.2942 171.182 73.4217 168.667 68.4007C166.325 63.723 159.924 63.4809 159.864 63.4796C159.564 63.4727 159.279 63.3767 159.028 63.2241C156.876 63.9873 154.059 65.4646 152.29 68.2503C152.217 68.3656 152.101 68.4356 151.975 68.4527C151.876 68.4663 151.77 68.4457 151.678 68.3876C151.472 68.2563 151.41 67.9824 151.541 67.7759C153.36 64.91 156.133 63.3551 158.362 62.5156C158.146 62.1066 158.087 61.6208 158.215 61.1742C158.251 61.0474 159.057 58.0098 154.659 54.0287C151.951 51.5779 148.116 51.5075 145.376 51.8803C143.512 52.1338 142.192 52.5923 142.182 52.5962C141.481 52.8456 140.681 52.6088 140.207 52.0377C140.128 51.944 138.236 49.7366 133.953 50.3193L133.654 50.3635C132.982 50.473 132.362 50.5668 131.781 50.6459C129.848 50.9088 128.302 50.9975 126.821 50.9493C129.173 51.9441 131.756 53.5349 133.741 56.0248C135.677 55.285 137.497 55.644 137.611 55.6689C137.851 55.7193 138.004 55.9544 137.954 56.1929C137.903 56.4327 137.669 56.586 137.428 56.5353C137.327 56.5157 135.726 56.2052 134.036 56.862C134.009 56.9066 133.975 56.9483 133.93 56.9817C133.868 57.0287 133.796 57.0562 133.725 57.066C133.684 57.0714 133.647 57.0561 133.608 57.051C132.88 57.4074 132.158 57.9553 131.553 58.8102C131.481 58.9141 131.369 58.9773 131.252 58.9933C131.145 59.0079 131.032 58.9835 130.936 58.9159C130.736 58.7742 130.689 58.498 130.83 58.2985C131.449 57.4248 132.17 56.821 132.907 56.4079C128.445 51.0014 120.688 50.1963 120.608 50.1886C120.475 50.1761 120.365 50.1041 120.293 50.0039C120.129 49.9693 119.983 49.9405 119.813 49.9039C119.232 49.7792 118.637 49.7572 118.041 49.8384C114.565 50.3112 111.893 54.0571 111.869 54.0916C111.834 54.141 111.787 54.1797 111.748 54.2254C114.24 54.4126 116.876 55.1414 119.215 56.7336C122.582 59.0251 124.025 61.3897 124.572 62.5406C129.461 62.0792 132.725 65.4991 134.112 67.3433C134.615 66.3471 135.793 64.692 138.351 63.7063C138.581 63.6207 138.837 63.7331 138.925 63.9608C139.014 64.189 138.899 64.4459 138.671 64.5333C136.055 65.5417 135.082 67.2822 134.771 68.0305C139.873 68.3429 143.825 73.6619 144.857 75.1893C146.528 75.3244 152.001 76.1769 155.177 81.5383C158.158 86.5723 157.411 89.9964 156.833 91.4192C163.282 96.9363 163.836 103.461 163.09 108.11C163.326 108.058 163.574 108.052 163.816 108.1V108.1ZM74.0813 78.7434C73.8585 76.696 73.727 72.3257 76.0177 69.1166C77.4501 67.1089 79.5404 65.8977 82.2305 65.5157C82.9275 63.6686 84.5718 60.3084 87.6016 59.2048C88.8508 58.7508 89.919 58.5031 90.86 58.285C92.477 57.9093 93.2839 57.696 93.9735 56.9313C95.1481 55.6278 97.0674 54.6834 99.1065 54.406C100.465 54.2212 101.757 54.35 102.878 54.7686C104.024 53.5211 106.099 51.7775 108.997 51.3832C109.173 51.3593 109.352 51.3397 109.53 51.3265C110.719 49.8957 113.657 46.8553 117.563 46.324C118.567 46.1875 119.574 46.2249 120.558 46.4363C126.065 47.6177 127.803 47.7197 133.085 46.8632L133.475 46.805C137.927 46.1993 140.733 47.8326 142.067 48.9323C142.758 48.7481 143.74 48.5235 144.898 48.366C148.384 47.8918 153.32 48.0329 157.04 51.3991C160.875 54.872 161.739 58.1093 161.82 60.1358C164.528 60.5907 169.459 62.0617 171.839 66.8128C173.476 70.0821 174.229 72.2335 174.573 73.5617C175.621 73.7063 176.993 74.1048 178.238 75.1236C179.743 76.3562 180.658 78.1537 180.963 80.4735C182.408 82.4685 188.151 91.0587 185.555 98.2672C183.344 104.407 178.775 106.186 176.52 106.695C176.044 108.188 174.845 110.436 171.875 111.355C171.245 111.551 170.55 111.701 169.814 111.801C167.931 112.057 166.047 111.955 164.759 111.815C164.141 113.577 162.778 116.32 159.949 118.067C158.692 118.845 157.053 119.374 155.079 119.642C152.633 119.975 150.211 119.838 148.95 119.722C148.1 120.441 146.488 121.509 143.482 122.785C141.151 123.774 138.752 124.441 136.634 125.029C134.887 125.514 132.907 126.063 132.34 126.506C131.125 127.455 128.746 128.285 126.279 128.62C124.278 128.893 121.301 128.971 118.479 127.793C115.945 126.737 114.517 125.855 113.71 125.129C112.097 125.332 109.14 125.499 106.155 124.642C103.901 123.996 102.277 122.827 100.971 121.885C100.186 121.321 99.2972 120.68 98.9045 120.704C96.9575 120.83 95.4637 119.826 94.6204 119.06C92.2587 119.322 86.0809 119.539 81.8593 115.492C77.6918 111.495 78.1471 106.348 78.6139 104.086C77.2863 102.782 74.5775 99.9158 72.6036 96.4768C70.0346 92.0015 68.3389 83.4848 74.0813 78.7434" fill="#F9F9F9"/>
<path d="M138.3 77.9192C138.209 77.9317 138.112 77.9157 138.025 77.8674C137.994 77.8488 134.741 76.0699 131.591 77.4238C131.457 77.4828 131.298 77.4679 131.174 77.3871C131.049 77.3053 130.974 77.167 130.974 77.0184C130.973 76.7875 130.879 71.3434 125.42 69.4831C125.188 69.4043 125.064 69.1521 125.144 68.9203C125.222 68.6893 125.474 68.5648 125.705 68.6441C130.632 70.3226 131.615 74.7521 131.812 76.3934C135.148 75.2894 138.316 77.0143 138.457 77.0926C138.671 77.2115 138.747 77.4814 138.628 77.6966C138.558 77.8231 138.434 77.901 138.3 77.9192Z" fill="#F9F9F9"/>
<path d="M103.833 97.1403C104.035 97.2786 104.088 97.5541 103.949 97.7565C102.407 100.012 102.406 102.189 103.947 103.885C106.06 106.214 110.409 107.004 113.066 105.542C118.108 102.771 122.668 102.833 124.965 105.702C126.951 108.179 131.446 107.98 131.491 107.979C131.712 107.967 131.908 108.12 131.949 108.337C131.956 108.368 132.612 111.509 137.081 112.002C141.606 112.496 144.119 109.295 144.223 109.159C144.372 108.965 144.65 108.928 144.845 109.076C145.039 109.225 145.077 109.502 144.929 109.697C144.832 109.825 142.852 112.369 139.245 112.86C138.551 112.954 137.797 112.973 136.984 112.883C132.764 112.419 131.507 109.843 131.181 108.872C129.998 108.872 126.216 108.679 124.274 106.256C122.264 103.746 118.131 103.771 113.493 106.319C110.459 107.986 105.69 107.127 103.29 104.481C102.222 103.305 100.794 100.803 103.217 97.2559C103.356 97.0545 103.631 97.0026 103.833 97.1403" fill="#F9F9F9"/>
<path d="M127.308 100.842C127.248 100.884 127.181 100.91 127.112 100.919C126.953 100.941 126.789 100.875 126.69 100.736C126.658 100.69 123.533 96.3929 117.283 96.7396C117.552 97.5359 117.706 98.4536 117.608 99.4807C117.588 99.6899 117.427 99.8503 117.227 99.8774C117.194 99.882 117.159 99.8835 117.125 99.8795C116.88 99.8565 116.702 99.6399 116.725 99.3958C116.823 98.3812 116.63 97.4774 116.323 96.7156C116.207 96.6465 116.121 96.5327 116.106 96.3889C116.102 96.3429 116.11 96.2994 116.118 96.2565C115.465 94.9349 114.541 94.148 114.526 94.1355C114.338 93.9786 114.312 93.6989 114.468 93.5113C114.623 93.3239 114.902 93.2963 115.091 93.4518C115.162 93.5106 116.198 94.3886 116.927 95.8739C123.864 95.3321 127.271 100.02 127.415 100.225C127.556 100.425 127.508 100.701 127.308 100.842" fill="#F9F9F9"/>
<path d="M105.093 68.5487C104.228 68.5216 103.296 68.7421 102.365 69.4314C102.169 69.5769 101.892 69.5356 101.744 69.3393C101.6 69.1422 101.64 68.8647 101.837 68.719C105.71 65.8473 109.669 69.7182 109.708 69.7581C109.882 69.9308 109.882 70.2107 109.709 70.3837C109.638 70.4557 109.548 70.4967 109.455 70.5093C109.322 70.5274 109.184 70.4869 109.082 70.3851C108.996 70.3001 107.711 69.0527 105.978 68.6587C104.509 73.4233 108.025 76.0674 108.675 76.505C109.005 76.2597 109.371 76.0129 109.802 75.7662C115.116 72.7228 119.766 77.4774 122.846 80.6233C123.924 81.7248 124.856 82.6765 125.529 83.0189C128.106 84.3287 132.858 82.7547 132.906 82.7397C133.131 82.6621 133.374 82.7782 133.461 82.9984C133.481 83.0496 135.534 88.1715 140.094 87.9184C144.606 87.6647 145.338 84.8278 145.366 84.7044C145.422 84.4673 145.658 84.3212 145.897 84.3721C146.136 84.4265 146.285 84.6636 146.231 84.9027C146.2 85.0416 145.448 88.1188 141.019 88.7213C140.741 88.759 140.449 88.7875 140.144 88.8044C135.74 89.0481 133.423 84.9789 132.804 83.699C131.557 84.0683 127.603 85.0679 125.127 83.8091C124.323 83.4008 123.391 82.4488 122.211 81.2435C119.15 78.1173 114.954 73.8327 110.244 76.5355C107.847 77.9082 106.952 79.4444 107.725 80.8611C108.51 82.2991 110.904 83.2381 112.143 82.5995C112.359 82.4841 112.627 82.5711 112.739 82.7892C112.852 83.006 112.767 83.2741 112.55 83.3862C110.864 84.263 107.981 83.1817 106.946 81.2862C106.554 80.5666 106.029 78.9136 107.972 77.0853C106.904 76.2755 103.697 73.3579 105.093 68.5487" fill="#F9F9F9"/>
<path d="M112.27 115.764C114.32 115.674 116.633 114.412 116.656 114.4C116.829 114.304 117.045 114.337 117.184 114.477C120.427 117.761 124.279 117.104 124.322 117.105C124.567 117.055 124.793 117.221 124.838 117.462C124.882 117.702 124.723 117.932 124.483 117.978C124.466 117.98 124.421 117.988 124.346 117.999C123.595 118.101 119.998 118.398 116.787 115.33C116.062 115.692 114.127 116.563 112.31 116.649C112.065 116.66 111.859 116.47 111.847 116.226C111.836 115.982 112.035 115.771 112.27 115.764Z" fill="#F9F9F9"/>
<path d="M92.2144 78.5439C91.248 77.9546 89.6716 76.8622 88.6609 75.4897C88.516 75.2923 88.5578 75.0152 88.7546 74.8698C88.9529 74.7254 89.23 74.7672 89.3745 74.9637C90.7565 76.8419 93.4324 78.2177 93.4589 78.2319C93.6214 78.3145 93.717 78.4875 93.6998 78.6684C93.6835 78.8494 93.5574 79.0016 93.3832 79.0528C91.3999 79.6314 89.3732 81.4583 88.2189 83.707C87.3277 85.4435 86.5151 88.2264 87.7096 91.6196C89.4362 96.5284 94.1245 97.9277 95.9251 98.2911C95.5836 96.5069 95.0018 95.2519 94.9917 95.2299C94.8863 95.0087 94.9811 94.7446 95.2018 94.6395C95.4208 94.5382 95.6864 94.6288 95.7915 94.8497C95.841 94.9521 96.5287 96.4382 96.8691 98.5043C96.9862 98.5934 97.0622 98.7334 97.0471 98.8909C97.0397 98.9714 96.997 99.0345 96.9537 99.0958C97.1138 100.397 97.1164 101.877 96.7419 103.374C96.6967 103.555 96.5456 103.682 96.3718 103.705C96.3182 103.713 96.2609 103.71 96.2044 103.696C95.9664 103.636 95.8222 103.396 95.8821 103.158C96.2224 101.796 96.217 100.428 96.0669 99.2182C94.3927 98.9269 88.8572 97.5548 86.8732 91.9143C85.5739 88.2236 86.4592 85.1944 87.43 83.3017C88.5332 81.1532 90.3101 79.4038 92.2144 78.5439" fill="#F9F9F9"/>
<path d="M90.6495 89.9326C90.4148 89.8705 90.2763 89.6328 90.3354 89.3979C90.3955 89.1619 90.6391 89.0187 90.8706 89.0744C90.8947 89.0795 93.227 89.5752 97.3706 85.8495C99.0914 84.3029 100.718 83.6107 102.205 83.788C103.837 83.9848 104.663 85.1709 104.698 85.2217C104.836 85.4241 104.783 85.7001 104.582 85.8378C104.376 85.9785 104.104 85.9239 103.966 85.7217C103.96 85.7121 103.336 84.8177 102.1 84.6687C100.873 84.5203 99.4841 85.1405 97.9633 86.5086C95.1142 89.0711 93.0101 89.7797 91.8074 89.9433C91.0878 90.0412 90.6907 89.9433 90.6495 89.9326Z" fill="#F9F9F9"/>
<path d="M94.9494 67.3067C94.9572 67.5165 94.8111 67.703 94.6077 67.7535C94.5871 67.7593 92.4925 68.3242 91.0462 72.5663C90.9907 72.7317 90.8469 72.8414 90.6856 72.8633C90.6201 72.8722 90.5507 72.8662 90.4833 72.8437C90.2515 72.7643 90.1283 72.5126 90.2071 72.2809C91.4916 68.512 93.3058 67.3469 94.0627 67.0132C94.1148 65.013 95.2309 62.6977 95.2801 62.5946C95.3865 62.3737 95.652 62.2827 95.8724 62.3898C96.0929 62.4971 96.185 62.7622 96.0776 62.9827C96.0658 63.0065 94.8835 65.4592 94.9494 67.3067" fill="#F9F9F9"/>
<path d="M116.418 66.1341C116.359 66.1742 116.293 66.1985 116.227 66.2075C116.066 66.2295 115.9 66.1621 115.801 66.0199C115.697 65.8674 113.172 62.3043 108.394 63.6895C108.154 63.7515 107.913 63.622 107.845 63.3878C107.776 63.1525 107.912 62.9059 108.147 62.8375C113.565 61.2708 116.504 65.4758 116.534 65.5189C116.671 65.721 116.619 65.9956 116.418 66.1341" fill="#F9F9F9"/>
<path d="M103.623 107.25C103.867 107.247 104.067 107.444 104.07 107.689C104.071 107.744 104.175 113.322 108.571 116.54C108.768 116.686 108.812 116.963 108.667 117.16C108.592 117.261 108.484 117.321 108.368 117.337C108.258 117.352 108.144 117.327 108.047 117.256C103.284 113.769 103.185 107.943 103.183 107.696C103.181 107.452 103.374 107.25 103.623 107.25Z" fill="#F9F9F9"/>
<path d="M78.5564 92.1411C79.103 92.2717 79.5816 92.4474 80.0301 92.637C77.4133 85.7651 80.2339 82.0144 80.3617 81.8505C80.5118 81.6586 80.7905 81.6255 80.9847 81.7755C81.1767 81.9265 81.2113 82.205 81.0597 82.3983C81.0304 82.4361 78.1593 86.2408 81.2352 93.2543C82.6643 94.1399 83.3481 95.1265 83.3885 95.188C83.5222 95.3926 83.4665 95.6674 83.2605 95.8019C83.2033 95.8393 83.1409 95.8621 83.078 95.8706C82.9134 95.893 82.7442 95.8223 82.6468 95.6748C82.6346 95.6554 81.3299 93.7148 78.3508 93.0037C78.1123 92.9471 77.9651 92.7082 78.0217 92.4704C78.0794 92.2318 78.3159 92.0869 78.5564 92.1411" fill="#F9F9F9"/>
<path d="M157.683 74.9135C151.21 71.8965 147.535 69.9838 147.289 65.7762C147.157 63.5218 146.078 61.4637 144.602 60.6536C143.686 60.1504 142.679 60.1758 141.692 60.7249C141.479 60.8452 141.208 60.7674 141.09 60.5533C140.97 60.3395 141.048 60.0688 141.261 59.9502C142.527 59.2449 143.832 59.2196 145.028 59.8764C146.788 60.8424 148.023 63.1374 148.173 65.7244C148.379 69.2419 151.344 70.981 158.058 74.1103C164.98 77.336 163.687 84.3848 163.674 84.4551C163.635 84.6465 163.481 84.7849 163.299 84.8097C163.252 84.8162 163.202 84.8149 163.154 84.8058C162.914 84.7592 162.756 84.5261 162.803 84.2855C162.853 84.0239 163.967 77.8422 157.683 74.9135" fill="#F9F9F9"/>
<path d="M149.394 58.1656C149.383 58.1364 148.277 55.2708 145.342 54.7173C145.101 54.6718 144.944 54.4403 144.989 54.1995C145.035 53.9582 145.264 53.8028 145.507 53.8457C148.343 54.381 149.683 56.6898 150.089 57.5416C151.718 57.4826 152.883 58.6012 152.934 58.652C153.109 58.8235 153.112 59.1028 152.942 59.2781C152.87 59.3513 152.779 59.3948 152.683 59.4078C152.554 59.4255 152.416 59.3854 152.315 59.2868C152.304 59.2764 151.236 58.2634 149.869 58.4494C149.663 58.4774 149.466 58.3601 149.394 58.1656" fill="#F9F9F9"/>
<path d="M167.77 86.081C170.758 87.783 170.134 91.2928 170.127 91.3281C170.091 91.5196 169.935 91.66 169.752 91.6849C169.707 91.6911 169.658 91.69 169.611 91.6804C169.37 91.6361 169.212 91.4049 169.256 91.1645C169.278 91.0456 169.764 88.2363 167.331 86.8519C167.118 86.7303 167.044 86.4592 167.165 86.2466C167.285 86.036 167.556 85.9603 167.77 86.081Z" fill="#F9F9F9"/>
</g>
<g clip-path="url(#clip0)">
<path d="M197.624 206.794C198.204 204.356 199.112 200.22 198.024 198.987C195.254 195.845 189.675 193.717 185.685 192.293C180.058 190.285 179.634 183.361 177.118 182.765C174.601 182.17 174.055 190.281 167.778 188.795C163.037 187.673 163.777 183.512 163.538 183.111C162.385 182.705 161.302 182.582 161.302 182.582C161.302 182.582 157.251 187.373 155.964 196.931L197.624 206.794Z" fill="#8DC8D3"/>
<path d="M198.024 198.987C195.254 195.845 189.674 193.717 185.685 192.293C180.058 190.285 179.634 183.361 177.117 182.765C176.637 182.651 176.228 182.856 175.837 183.25C177.383 185.431 178.584 190.078 183.025 191.664C187.015 193.088 192.594 195.215 195.364 198.357C196.452 199.59 195.544 203.726 194.964 206.164L197.624 206.794C198.204 204.356 199.111 200.22 198.024 198.987V198.987Z" fill="#B8FFFB"/>
<path d="M167.129 191.532C172.765 192.866 175.516 188.666 176.86 186.537C176.86 186.537 178.573 183.967 177.737 183.062C177.547 182.923 177.347 182.822 177.131 182.769C177.121 182.767 177.111 182.765 177.101 182.762C174.599 182.207 174.04 190.278 167.777 188.795C163.037 187.673 163.777 183.512 163.538 183.111C162.385 182.706 161.301 182.582 161.301 182.582C159.816 188.855 165.144 191.062 167.129 191.532V191.532Z" fill="#FFD54F"/>
<path d="M177.737 183.062C177.547 182.923 177.347 182.822 177.131 182.769C177.121 182.767 177.111 182.765 177.101 182.762C176.298 182.584 175.696 183.294 175.041 184.29C174.714 185.136 174.2 185.907 174.2 185.907C172.973 187.851 170.572 191.521 165.874 191.129C166.356 191.321 166.791 191.452 167.129 191.532C172.765 192.866 175.516 188.666 176.86 186.536C176.86 186.536 178.573 183.967 177.737 183.062Z" fill="#FFC328"/>
<path d="M172.652 195.368L157.04 191.672C156.605 193.226 156.227 194.979 155.964 196.931L183.008 203.334C183.008 203.334 182.306 202.226 181.216 200.843C179.045 198.087 176.029 196.167 172.652 195.368V195.368Z" fill="#546E7A"/>
<path d="M181.216 200.843C179.045 198.087 176.029 196.167 172.652 195.368L169.992 194.738C173.369 195.537 176.385 197.458 178.556 200.213C179.646 201.596 180.348 202.704 180.348 202.704L183.008 203.334C183.008 203.334 182.306 202.226 181.216 200.843V200.843Z" fill="#455A64"/>
<path d="M198.5 201.885L192.774 200.888C191.163 200.607 189.515 201.217 188.434 202.494L186.937 204.264L197.624 206.794C197.95 205.422 198.381 203.512 198.5 201.885Z" fill="#546E7A"/>
<path d="M198.501 201.885L195.827 201.419C195.691 203.01 195.28 204.838 194.964 206.164L197.624 206.794C197.951 205.422 198.381 203.512 198.501 201.885V201.885Z" fill="#455A64"/>
<path d="M178.275 189.408L178.274 189.407C177.79 188.818 177.868 187.93 178.449 187.425L180.552 185.6C181.132 185.096 181.994 185.164 182.478 185.753L182.478 185.753C182.963 186.343 182.884 187.231 182.303 187.735L180.201 189.561C179.62 190.065 178.758 189.996 178.275 189.408V189.408Z" fill="#E4E4E4"/>
<path d="M181.625 192.786L181.624 192.785C181.077 192.257 181.058 191.367 181.58 190.799L183.471 188.744C183.993 188.176 184.858 188.144 185.405 188.672L185.405 188.673C185.952 189.202 185.971 190.091 185.449 190.659L183.558 192.714C183.036 193.282 182.171 193.314 181.625 192.786Z" fill="#E4E4E4"/>
<path d="M185.703 195.964L185.702 195.964C185.062 195.56 184.868 194.696 185.27 194.033L186.723 191.635C187.124 190.972 187.968 190.762 188.608 191.165L188.609 191.166C189.25 191.569 189.444 192.434 189.042 193.097L187.589 195.495C187.187 196.157 186.343 196.367 185.703 195.964Z" fill="#E4E4E4"/>
<path d="M198.68 207.275L197.982 210.224C197.907 210.541 197.598 210.738 197.291 210.665L154.337 200.497C154.03 200.424 153.842 200.109 153.917 199.792L154.615 196.843C154.69 196.526 154.999 196.329 155.306 196.402L198.26 206.571C198.567 206.643 198.755 206.958 198.68 207.275Z" fill="#F3F3F3"/>
<path d="M198.284 206.576L195.624 205.946C195.918 206.016 196.093 206.341 196.014 206.672L195.329 209.568C195.25 209.899 194.949 210.111 194.655 210.042L197.315 210.671C197.608 210.741 197.91 210.529 197.988 210.198L198.674 207.301C198.753 206.97 198.578 206.646 198.284 206.576V206.576Z" fill="#E4E4E4"/>
<path d="M157.476 199.505L157.087 201.148L155.796 200.842L156.185 199.199C156.272 198.832 156.631 198.603 156.988 198.687C157.344 198.771 157.563 199.138 157.476 199.505Z" fill="#546E7A"/>
<path d="M162.319 200.651L161.93 202.294L160.639 201.988L161.028 200.346C161.115 199.979 161.474 199.749 161.831 199.834C162.187 199.918 162.406 200.284 162.319 200.651Z" fill="#546E7A"/>
<path d="M167.162 201.798L166.773 203.441L165.482 203.135L165.871 201.492C165.958 201.125 166.317 200.896 166.674 200.98C167.03 201.065 167.249 201.431 167.162 201.798Z" fill="#546E7A"/>
<path d="M172.005 202.945L171.617 204.587L170.326 204.282L170.714 202.639C170.801 202.272 171.16 202.042 171.517 202.127C171.874 202.211 172.092 202.577 172.005 202.945Z" fill="#546E7A"/>
<path d="M176.848 204.091L176.459 205.734L175.168 205.428L175.557 203.785C175.644 203.418 176.004 203.189 176.36 203.273C176.716 203.358 176.935 203.724 176.848 204.091Z" fill="#546E7A"/>
<path d="M181.691 205.238L181.302 206.88L180.011 206.575L180.4 204.932C180.487 204.565 180.847 204.336 181.203 204.42C181.56 204.504 181.778 204.871 181.691 205.238Z" fill="#546E7A"/>
<path d="M186.535 206.384L186.146 208.027L184.855 207.721L185.244 206.079C185.331 205.712 185.69 205.482 186.047 205.567C186.403 205.651 186.622 206.017 186.535 206.384Z" fill="#546E7A"/>
<path d="M191.378 207.531L190.989 209.174L189.698 208.868L190.087 207.225C190.174 206.858 190.534 206.629 190.89 206.713C191.246 206.797 191.465 207.164 191.378 207.531Z" fill="#546E7A"/>
<path d="M196.221 208.677L195.832 210.32L194.541 210.014L194.93 208.372C195.017 208.005 195.376 207.775 195.733 207.86C196.09 207.944 196.308 208.31 196.221 208.677Z" fill="#546E7A"/>
</g>
<g clip-path="url(#clip1)">
<path d="M140.963 218.157C142.914 216.584 146.163 213.868 146.058 212.228C145.789 208.048 142.679 202.95 140.396 199.383C137.175 194.35 141.076 188.615 139.451 186.604C137.825 184.593 132.429 190.673 128.374 185.657C125.312 181.868 128.444 179.03 128.499 178.567C127.836 177.541 127.055 176.78 127.055 176.78C127.055 176.78 120.919 178.09 114.052 184.862L140.963 218.157Z" fill="#8DC8D3"/>
<path d="M146.058 212.228C145.789 208.048 142.679 202.95 140.396 199.383C137.175 194.35 141.076 188.615 139.451 186.604C139.14 186.22 138.692 186.131 138.142 186.204C138.03 188.875 136.135 193.285 138.677 197.257C140.961 200.825 144.071 205.922 144.339 210.102C144.445 211.742 141.196 214.458 139.245 216.031L140.963 218.157C142.914 216.584 146.163 213.868 146.058 212.228V212.228Z" fill="#B8FFFB"/>
<path d="M126.186 187.425C129.827 191.929 134.573 190.29 136.939 189.429C136.939 189.429 139.866 188.446 139.759 187.218C139.694 186.991 139.597 186.79 139.459 186.615C139.453 186.608 139.446 186.599 139.439 186.591C137.8 184.621 132.42 190.662 128.374 185.657C125.311 181.868 128.443 179.03 128.499 178.567C127.836 177.541 127.055 176.78 127.055 176.78C122.041 180.832 124.904 185.838 126.186 187.425V187.425Z" fill="#FFD54F"/>
<path d="M139.759 187.218C139.694 186.991 139.597 186.789 139.459 186.615C139.453 186.608 139.446 186.599 139.439 186.591C138.914 185.959 138.003 186.152 136.876 186.539C136.099 187.008 135.221 187.303 135.221 187.303C133.06 188.09 128.916 189.523 125.44 186.337C125.704 186.785 125.968 187.154 126.186 187.425C129.827 191.929 134.573 190.29 136.939 189.429C136.939 189.429 139.867 188.446 139.759 187.218Z" fill="#FFC328"/>
<path d="M128.207 193.838L118.122 181.361C116.826 182.324 115.454 183.479 114.052 184.862L131.522 206.476C131.522 206.476 131.644 205.17 131.629 203.409C131.598 199.901 130.388 196.537 128.207 193.838V193.838Z" fill="#546E7A"/>
<path d="M131.629 203.409C131.598 199.901 130.388 196.537 128.206 193.838L126.488 191.712C128.67 194.411 129.88 197.776 129.911 201.284C129.926 203.045 129.803 204.35 129.803 204.35L131.522 206.476C131.522 206.476 131.644 205.17 131.629 203.409V203.409Z" fill="#455A64"/>
<path d="M144.661 214.811L140.742 210.518C139.639 209.31 137.963 208.784 136.327 209.133L134.06 209.616L140.963 218.157C142.061 217.272 143.57 216.025 144.661 214.811Z" fill="#546E7A"/>
<path d="M144.661 214.811L142.831 212.807C141.751 213.982 140.306 215.175 139.245 216.031L140.963 218.157C142.061 217.272 143.57 216.025 144.661 214.811V214.811Z" fill="#455A64"/>
<path d="M136.301 192.565L136.301 192.565C136.279 191.802 136.884 191.148 137.652 191.105L140.432 190.947C141.2 190.904 141.84 191.486 141.862 192.248L141.862 192.248C141.884 193.011 141.279 193.665 140.51 193.708L137.73 193.865C136.963 193.909 136.323 193.327 136.301 192.565V192.565Z" fill="#E4E4E4"/>
<path d="M136.883 197.287L136.883 197.287C136.774 196.534 137.303 195.818 138.064 195.689L140.817 195.221C141.577 195.091 142.281 195.596 142.39 196.348L142.39 196.348C142.499 197.101 141.97 197.817 141.209 197.946L138.456 198.414C137.696 198.544 136.992 198.039 136.883 197.287Z" fill="#E4E4E4"/>
<path d="M138.163 202.297L138.163 202.296C137.903 201.585 138.279 200.783 139.002 200.504L141.619 199.497C142.342 199.219 143.138 199.569 143.398 200.28L143.398 200.281C143.658 200.992 143.282 201.794 142.558 202.073L139.942 203.08C139.219 203.358 138.423 203.008 138.163 202.297Z" fill="#E4E4E4"/>
<path d="M141.504 219.184L139.147 221.089C138.894 221.294 138.529 221.261 138.33 221.015L110.583 186.686C110.385 186.44 110.429 186.076 110.682 185.871L113.039 183.966C113.292 183.762 113.657 183.795 113.856 184.04L141.603 218.37C141.801 218.615 141.757 218.98 141.504 219.184Z" fill="#F3F3F3"/>
<path d="M141.619 218.389L139.9 216.263C140.09 216.498 140.03 216.862 139.765 217.075L137.45 218.946C137.186 219.16 136.817 219.143 136.627 218.908L138.346 221.034C138.536 221.269 138.904 221.286 139.168 221.072L141.483 219.201C141.748 218.987 141.808 218.624 141.619 218.389V218.389Z" fill="#E4E4E4"/>
<path d="M113.672 187.822L112.36 188.883L111.526 187.852L112.838 186.79C113.132 186.553 113.556 186.591 113.787 186.877C114.017 187.162 113.966 187.585 113.672 187.822Z" fill="#546E7A"/>
<path d="M116.801 191.693L115.488 192.754L114.654 191.722L115.967 190.661C116.26 190.424 116.685 190.462 116.915 190.747C117.145 191.032 117.094 191.456 116.801 191.693Z" fill="#546E7A"/>
<path d="M119.929 195.563L118.616 196.624L117.782 195.593L119.095 194.531C119.389 194.294 119.814 194.333 120.044 194.618C120.274 194.903 120.223 195.326 119.929 195.563Z" fill="#546E7A"/>
<path d="M123.058 199.434L121.745 200.496L120.911 199.464L122.224 198.403C122.518 198.166 122.942 198.204 123.173 198.489C123.403 198.774 123.351 199.197 123.058 199.434Z" fill="#546E7A"/>
<path d="M126.187 203.305L124.874 204.366L124.04 203.334L125.353 202.273C125.646 202.036 126.071 202.075 126.301 202.36C126.531 202.644 126.48 203.068 126.187 203.305Z" fill="#546E7A"/>
<path d="M129.315 207.176L128.002 208.237L127.168 207.205L128.481 206.144C128.774 205.907 129.199 205.945 129.429 206.23C129.66 206.516 129.608 206.938 129.315 207.176Z" fill="#546E7A"/>
<path d="M132.444 211.047L131.131 212.108L130.297 211.076L131.61 210.015C131.903 209.778 132.328 209.816 132.558 210.101C132.789 210.386 132.737 210.81 132.444 211.047Z" fill="#546E7A"/>
<path d="M135.572 214.917L134.259 215.979L133.425 214.947L134.738 213.886C135.032 213.648 135.457 213.687 135.687 213.972C135.917 214.257 135.866 214.68 135.572 214.917Z" fill="#546E7A"/>
<path d="M138.701 218.788L137.388 219.849L136.554 218.817L137.867 217.756C138.16 217.519 138.585 217.558 138.815 217.842C139.046 218.128 138.994 218.551 138.701 218.788Z" fill="#546E7A"/>
</g>
<g filter="url(#filter4_i)">
<path d="M89.9646 111.763C74.5157 119.403 43.2027 103.648 40.7131 93.6885C39.2377 87.7869 55.4672 73.3434 66.5327 70.5289" stroke="#F9F9F9" stroke-width="5" stroke-linecap="round" stroke-linejoin="round"/>
</g>
<g clip-path="url(#clip2)" filter="url(#filter5_d)">
<path d="M120.637 18.8151L125.796 41.9922L123.746 45.5623L93.6863 54.9504L89.9692 53.1813L81.0203 31.188L84.2741 28.9413L90.5063 34.7302C91.7056 35.8498 93.3274 36.1638 94.8507 35.6C96.3657 35.0098 97.372 33.7285 97.5358 32.0952L98.2929 24.856L102.831 23.4386L107.574 28.9602C108.638 30.21 110.195 30.6908 111.776 30.314C113.376 29.9022 114.504 28.7294 114.853 27.1263L116.683 18.8195L120.637 18.8151Z" fill="#FFDE33"/>
<path d="M120.637 18.8151L125.796 41.9921L123.746 45.5622L108.716 50.2563L100.562 24.1472L102.831 23.4386L107.574 28.9602C108.638 30.21 110.195 30.6908 111.776 30.3139C113.376 29.9022 114.504 28.7294 114.853 27.1263L116.683 18.8195L120.637 18.8151Z" fill="#FFBC33"/>
<path d="M119.989 20.3655C117.781 21.0552 115.423 19.8199 114.734 17.6117C114.044 15.4036 115.279 13.0463 117.487 12.3567C119.696 11.667 122.053 12.9023 122.743 15.1105C123.432 17.3186 122.197 19.6759 119.989 20.3655Z" fill="#B2C4C8"/>
<path d="M98.206 44.7487C98.9432 44.5185 99.3542 43.7342 99.124 42.997C98.8937 42.2598 98.1095 41.8489 97.3723 42.0791C96.6351 42.3093 96.2241 43.0936 96.4544 43.8308C96.6846 44.568 97.4689 44.979 98.206 44.7487Z" fill="#5A9DAB"/>
<path d="M92.8668 46.4162C93.604 46.186 94.015 45.4017 93.7848 44.6645C93.5545 43.9273 92.7703 43.5163 92.0331 43.7466C91.2959 43.9768 90.8849 44.7611 91.1151 45.4983C91.3454 46.2355 92.1296 46.6464 92.8668 46.4162Z" fill="#478490"/>
<path d="M114.224 39.7462C114.961 39.5159 115.372 38.7317 115.142 37.9945C114.912 37.2573 114.127 36.8463 113.39 37.0765C112.653 37.3068 112.242 38.091 112.472 38.8282C112.702 39.5654 113.487 39.9764 114.224 39.7462Z" fill="#67AEBC"/>
<path d="M119.563 38.0786C120.3 37.8483 120.711 37.0641 120.481 36.3269C120.251 35.5897 119.466 35.1787 118.729 35.4089C117.992 35.6392 117.581 36.4234 117.811 37.1606C118.042 37.8978 118.826 38.3088 119.563 38.0786Z" fill="#67AEBC"/>
<path d="M98.7111 18.2208C96.4952 18.9128 95.2653 21.26 95.9573 23.4759C96.6493 25.6916 98.9965 26.9217 101.212 26.2297C103.428 25.5376 104.658 23.1903 103.966 20.9746C103.274 18.7587 100.927 17.5287 98.7111 18.2208Z" fill="#CDDDE1"/>
<path d="M103.966 20.9745C104.658 23.1902 103.428 25.5375 101.212 26.2296L98.7111 18.2207C100.927 17.5287 103.274 18.7586 103.966 20.9745Z" fill="#B2C4C8"/>
<path d="M125.796 41.992L127.353 48.9479C127.516 49.6588 127.096 50.3761 126.402 50.5929L94.366 60.598C93.6719 60.8148 92.918 60.4643 92.6477 59.7868L89.9692 53.1812L125.796 41.992Z" fill="#2D6E7C"/>
<path d="M125.796 41.9921L127.353 48.948C127.516 49.6589 127.096 50.3762 126.401 50.593L110.384 55.5956L107.882 47.5867L125.796 41.9921Z" fill="#0D3C46"/>
<path d="M104.547 36.9082C102.332 37.6002 101.102 39.9474 101.794 42.1633C102.486 44.379 104.833 45.6091 107.049 44.9171C109.265 44.225 110.494 41.8777 109.802 39.662C109.11 37.4461 106.763 36.2161 104.547 36.9082Z" fill="#478490"/>
<path d="M109.802 39.6619C110.494 41.8776 109.265 44.2249 107.049 44.917L104.547 36.9081C106.763 36.216 109.11 37.446 109.802 39.6619Z" fill="#67AEBC"/>
<path d="M82.436 32.0938C80.2279 32.7834 77.8706 31.5482 77.1809 29.34C76.4913 27.1319 77.7266 24.7746 79.9347 24.0849C82.1429 23.3953 84.5002 24.6306 85.1898 26.8387C85.8795 29.0469 84.6442 31.4042 82.436 32.0938Z" fill="#CDDDE1"/>
</g>
<defs>
<filter id="filter0_i" x="145.988" y="32.6115" width="72.551" height="76.5528" filterUnits="userSpaceOnUse" color-interpolation-filters="sRGB">
<feFlood flood-opacity="0" result="BackgroundImageFix"/>
<feBlend mode="normal" in="SourceGraphic" in2="BackgroundImageFix" result="shape"/>
<feColorMatrix in="SourceAlpha" type="matrix" values="0 0 0 0 0 0 0 0 0 0 0 0 0 0 0 0 0 0 127 0" result="hardAlpha"/>
<feOffset dy="4"/>
<feGaussianBlur stdDeviation="2"/>
<feComposite in2="hardAlpha" operator="arithmetic" k2="-1" k3="1"/>
<feColorMatrix type="matrix" values="0 0 0 0 0 0 0 0 0 0 0 0 0 0 0 0 0 0 0.25 0"/>
<feBlend mode="normal" in2="shape" result="effect1_innerShadow"/>
</filter>
<filter id="filter1_i" x="146.912" y="124.385" width="30.8201" height="70.9676" filterUnits="userSpaceOnUse" color-interpolation-filters="sRGB">
<feFlood flood-opacity="0" result="BackgroundImageFix"/>
<feBlend mode="normal" in="SourceGraphic" in2="BackgroundImageFix" result="shape"/>
<feColorMatrix in="SourceAlpha" type="matrix" values="0 0 0 0 0 0 0 0 0 0 0 0 0 0 0 0 0 0 127 0" result="hardAlpha"/>
<feOffset dy="4"/>
<feGaussianBlur stdDeviation="2"/>
<feComposite in2="hardAlpha" operator="arithmetic" k2="-1" k3="1"/>
<feColorMatrix type="matrix" values="0 0 0 0 0 0 0 0 0 0 0 0 0 0 0 0 0 0 0.25 0"/>
<feBlend mode="normal" in2="shape" result="effect1_innerShadow"/>
</filter>
<filter id="filter2_i" x="109.289" y="125.86" width="30.8201" height="70.9676" filterUnits="userSpaceOnUse" color-interpolation-filters="sRGB">
<feFlood flood-opacity="0" result="BackgroundImageFix"/>
<feBlend mode="normal" in="SourceGraphic" in2="BackgroundImageFix" result="shape"/>
<feColorMatrix in="SourceAlpha" type="matrix" values="0 0 0 0 0 0 0 0 0 0 0 0 0 0 0 0 0 0 127 0" result="hardAlpha"/>
<feOffset dy="4"/>
<feGaussianBlur stdDeviation="2"/>
<feComposite in2="hardAlpha" operator="arithmetic" k2="-1" k3="1"/>
<feColorMatrix type="matrix" values="0 0 0 0 0 0 0 0 0 0 0 0 0 0 0 0 0 0 0.25 0"/>
<feBlend mode="normal" in2="shape" result="effect1_innerShadow"/>
</filter>
<filter id="filter3_i" x="65.4282" y="38.0076" width="124.421" height="101.374" filterUnits="userSpaceOnUse" color-interpolation-filters="sRGB">
<feFlood flood-opacity="0" result="BackgroundImageFix"/>
<feBlend mode="normal" in="SourceGraphic" in2="BackgroundImageFix" result="shape"/>
<feColorMatrix in="SourceAlpha" type="matrix" values="0 0 0 0 0 0 0 0 0 0 0 0 0 0 0 0 0 0 127 0" result="hardAlpha"/>
<feOffset dy="4"/>
<feGaussianBlur stdDeviation="2"/>
<feComposite in2="hardAlpha" operator="arithmetic" k2="-1" k3="1"/>
<feColorMatrix type="matrix" values="0 0 0 0 0 0 0 0 0 0 0 0 0 0 0 0 0 0 0.25 0"/>
<feBlend mode="normal" in2="shape" result="effect1_innerShadow"/>
</filter>
<filter id="filter4_i" x="38.119" y="68.0283" width="54.3461" height="52.2578" filterUnits="userSpaceOnUse" color-interpolation-filters="sRGB">
<feFlood flood-opacity="0" result="BackgroundImageFix"/>
<feBlend mode="normal" in="SourceGraphic" in2="BackgroundImageFix" result="shape"/>
<feColorMatrix in="SourceAlpha" type="matrix" values="0 0 0 0 0 0 0 0 0 0 0 0 0 0 0 0 0 0 127 0" result="hardAlpha"/>
<feOffset dy="4"/>
<feGaussianBlur stdDeviation="2"/>
<feComposite in2="hardAlpha" operator="arithmetic" k2="-1" k3="1"/>
<feColorMatrix type="matrix" values="0 0 0 0 0 0 0 0 0 0 0 0 0 0 0 0 0 0 0.25 0"/>
<feBlend mode="normal" in2="shape" result="effect1_innerShadow"/>
</filter>
<filter id="filter5_d" x="70.6519" y="7.01257" width="67.7912" height="67.7912" filterUnits="userSpaceOnUse" color-interpolation-filters="sRGB">
<feFlood flood-opacity="0" result="BackgroundImageFix"/>
<feColorMatrix in="SourceAlpha" type="matrix" values="0 0 0 0 0 0 0 0 0 0 0 0 0 0 0 0 0 0 127 0"/>
<feOffset dy="4"/>
<feGaussianBlur stdDeviation="2"/>
<feColorMatrix type="matrix" values="0 0 0 0 0 0 0 0 0 0 0 0 0 0 0 0 0 0 0.25 0"/>
<feBlend mode="normal" in2="BackgroundImageFix" result="effect1_dropShadow"/>
<feBlend mode="normal" in="SourceGraphic" in2="effect1_dropShadow" result="shape"/>
</filter>
<clipPath id="clip0">
<rect width="45.2834" height="46.6445" fill="white" transform="translate(161.746 166.721) rotate(13.319)"/>
</clipPath>
<clipPath id="clip1">
<rect width="45.2834" height="46.6445" fill="white" transform="translate(137.113 164.508) rotate(51.0528)"/>
</clipPath>
<clipPath id="clip2">
<rect width="47.732" height="47.732" fill="white" transform="translate(74.6519 21.2421) rotate(-17.3443)"/>
</clipPath>
</defs>
</svg>
