<svg width="276" height="270" viewBox="0 0 276 270" fill="none" xmlns="http://www.w3.org/2000/svg">
<g filter="url(#filter0_i)">
<path d="M126.699 146.899C123.675 164.993 120.066 203.847 129.816 214.506C139.567 225.166 156.818 227.207 164.225 226.894" stroke="#F9F9F9" stroke-width="5" stroke-linecap="round" stroke-linejoin="round"/>
</g>
<g filter="url(#filter1_i)">
<path d="M152.106 115.669C191.998 100.045 240.258 131.635 248.315 86.6812M249.481 71.7314C249.481 77.4725 249.079 82.4206 248.315 86.6812M248.315 86.6812C251.771 85.0201 260.598 82.3879 268.265 85.1479C274.105 87.2506 272.115 88.9261 266.892 90.0877M254.081 91.6645C258.872 91.3651 263.545 90.8319 266.892 90.0877M266.892 90.0877C272.154 92.6008 277.492 97.0351 266.892 98.6927M254.081 99.3311C259.8 99.3976 263.957 99.1516 266.892 98.6927M266.892 98.6927C272.716 101.717 277.695 107.381 251.015 105.848" stroke="#F9F9F9" stroke-width="5" stroke-linecap="round" stroke-linejoin="round"/>
</g>
<path d="M177.619 153.426C181.505 153.087 189.545 151.149 194.638 141.37L150.298 114.154H17.3867L14.5552 126.752C13.2607 130.434 11.3291 138.951 17.3867 146.593C23.5231 154.333 33.899 155.377 37.9065 155.476C39.142 156.951 41.4107 158.972 44.6938 159.206C45.3528 159.254 46.6837 160.519 47.8633 161.64L47.8788 161.655C49.8481 163.528 52.2973 165.857 55.9175 167.452C60.7128 169.567 65.693 169.96 68.4362 169.989C69.6202 171.388 71.8061 173.191 75.8012 175.537C80.2519 178.153 85.246 178.699 88.6516 178.699C92.8529 178.699 97.0181 177.851 99.264 176.54C100.312 175.928 103.738 175.459 106.765 175.045L106.777 175.043C110.451 174.542 114.614 173.97 118.735 172.846C124.05 171.394 126.987 169.971 128.572 168.961C130.654 169.443 134.671 170.224 138.835 170.224C142.195 170.224 145.056 169.713 147.333 168.696C152.459 166.414 155.363 162.13 156.795 159.321C158.917 159.849 162.042 160.449 165.249 160.449C166.502 160.449 167.697 160.356 168.796 160.172C173.969 159.31 176.483 155.817 177.619 153.426Z" fill="#914100"/>
<path d="M18.2628 67.6792C13.7099 72.5293 12.937 79.8746 12.8439 83.3524C2.18086 89.9813 3.07758 104.623 6.35001 112.699C8.86436 118.905 12.7354 124.32 14.6556 126.805C31.9112 113.892 78.2488 122.708 105.793 126.805C127.828 130.082 136.421 121.61 137.963 116.965C137.963 104.373 105.537 87.3642 85.4885 75.2146C69.4499 65.495 83.6763 47.0131 92.7943 38.987C86.1539 38.987 80.5572 43.4071 78.2488 45.5315C77.9483 45.5132 77.6453 45.5052 77.3462 45.5052C72.418 45.5052 68.5583 47.9514 66.3609 49.7784C64.5858 48.8227 62.4581 48.3128 60.1478 48.3128C56.6807 48.3128 53.2622 49.4567 51.0054 51.3711C49.6803 52.4941 48.285 52.6674 45.5003 52.928L45.4999 52.9281C43.8793 53.079 42.04 53.2503 39.8517 53.7258C34.5432 54.8831 31.0351 60.1333 29.4521 63.0665C24.8745 63.0933 21.1098 64.6448 18.2628 67.6792Z" fill="#DE8843"/>
<path d="M97.3457 39.852C95.7468 39.2747 94.0694 38.983 92.3578 38.983C83.2137 47.0012 68.9466 65.4651 85.0311 75.1752C105.137 87.3128 137.656 104.306 137.656 116.885C137.656 129.464 155.051 138.953 168.325 138.953C181.6 138.953 185.926 135.724 194.359 141.311C200.347 129.847 192.689 114.176 190.724 110.511C190.742 106.562 189.619 103.348 187.38 100.945C185.528 98.9579 183.321 97.9793 181.6 97.4992C181.325 95.1998 180.555 91.4308 178.56 85.5915C175.657 77.1052 167.736 73.5236 163.306 72.1468C163.633 68.7398 162.923 63.1297 157.293 56.4498C151.833 49.9746 143.6 48.6156 137.656 48.6156C135.681 48.6156 133.986 48.7679 132.788 48.9187C130.806 46.7765 126.479 43.4068 118.887 43.4068L118.222 43.4157C109.183 43.6463 106.297 43.0804 97.3457 39.852Z" fill="#F7CA63"/>
<g filter="url(#filter2_i)">
<path d="M22.3085 109.971C24.9537 116.482 29.7135 122.125 29.761 122.179C30.4428 122.983 30.5804 124.117 30.1108 125.058C30.0729 125.131 26.5337 132.392 31.3506 138.458C35.6321 143.849 43.5572 144.268 45.8849 144.268C46.2168 144.268 46.4185 144.259 46.4455 144.258L46.5056 144.262C45.738 142.651 44.9156 140.421 44.3375 137.478C43.444 137.038 40.8314 135.547 38.8083 132.258C38.6175 131.95 38.7138 131.545 39.0244 131.355C39.3315 131.165 39.7362 131.261 39.9271 131.571C41.2836 133.774 42.9604 135.102 44.0473 135.797C43.6409 133.073 43.4536 129.838 43.677 126.035C43.6993 125.673 44.016 125.391 44.3719 125.418C44.7343 125.438 45.0101 125.75 44.9896 126.112C44.3941 136.248 46.8411 142.256 48.3615 144.951C48.5558 145.128 48.7287 145.328 48.8659 145.558C48.8786 145.577 50.0282 147.433 51.6026 147.546C54.0622 147.722 55.8018 149.372 57.6454 151.124C59.1536 152.555 60.8643 154.178 63.2072 155.208C66.8583 156.816 70.8509 156.989 72.3966 156.989C72.9607 156.989 73.3062 156.969 73.3437 156.964C74.0782 156.913 74.7917 157.163 75.3263 157.66C75.66 157.969 75.9026 158.354 76.0394 158.779C76.2842 159.1 77.3794 160.323 81.2205 162.576C84.1135 164.272 87.5107 164.628 89.8522 164.628C93.0633 164.628 95.6885 163.938 96.5284 163.449C98.3511 162.384 101.317 161.981 105.068 161.47C108.136 161.05 111.614 160.575 114.904 159.679C120.656 158.111 122.355 156.754 122.381 156.754V156.757C122.77 156.314 123.289 156.047 123.846 155.937C125.84 153.586 128.057 149.782 129.263 143.759C129.333 143.403 129.682 143.173 130.035 143.244C130.391 143.316 130.621 143.662 130.55 144.018C129.407 149.725 127.41 153.543 125.471 156.066C126.652 156.364 130.287 157.197 133.947 157.197C136.159 157.197 137.954 156.898 139.279 156.308C140.159 155.918 140.932 155.417 141.611 154.862C141.615 154.592 141.677 154.321 141.851 154.09C142.346 153.428 153.682 137.848 139.905 122.788C138.317 123.9 134.812 125.803 128.54 126.753C131.353 128.129 135.602 131.297 137.665 138.206C138.813 137.271 139.53 136.41 139.546 136.39C139.777 136.109 140.191 136.068 140.471 136.298C140.751 136.528 140.793 136.941 140.563 137.223C140.478 137.327 139.418 138.596 137.774 139.781C137.726 139.83 137.671 139.868 137.607 139.9C136.132 140.934 134.22 141.872 132.111 141.872C131.894 141.872 131.672 141.863 131.45 141.842C131.089 141.808 130.822 141.485 130.857 141.125C130.892 140.763 131.201 140.51 131.574 140.532C133.407 140.712 135.154 139.95 136.544 139.033C133.908 129.507 126.913 127.374 125.736 127.083C124.488 127.198 123.174 127.285 121.741 127.315C121.496 127.32 121.255 127.322 121.014 127.322C111.568 127.322 107.599 123.383 106.011 120.805C105.535 123.062 105.194 127.449 108.486 131.032C108.732 131.3 108.714 131.715 108.447 131.961C108.321 132.076 108.161 132.134 108.001 132.134C107.824 132.134 107.648 132.062 107.518 131.921C102.979 126.981 104.52 120.881 105.054 119.237C103.449 119.406 99.3927 119.377 93.3783 116.138C92.4347 115.63 91.4715 115.086 90.4983 114.533C83.6452 110.659 76.5613 106.644 70.769 111.954C70.5029 112.199 70.0851 112.184 69.8411 111.914C69.595 111.646 69.6142 111.231 69.8821 110.986C76.374 105.033 84.2242 109.473 91.1456 113.39C92.1115 113.937 93.0664 114.477 94.0026 114.981C101.222 118.869 105.456 117.855 105.495 117.845C105.662 117.801 105.845 117.824 106 117.914C106.151 118.004 106.261 118.152 106.304 118.323C106.384 118.648 108.505 126.285 121.714 126.001C123.078 125.973 124.328 125.89 125.517 125.782C125.607 125.754 125.7 125.743 125.798 125.758C133.561 125.006 137.636 122.762 139.215 121.652C139.166 121.284 139.251 120.9 139.508 120.602C139.652 120.435 143.021 116.383 139.282 107.528C135.685 99.0086 127.085 97.6377 126.723 97.5841C126.277 97.5183 125.894 97.2282 125.711 96.8178C125.662 96.708 120.729 85.8197 113.123 85.0325C112.638 84.9828 112.22 84.667 112.038 84.2148C112.001 84.1211 108.188 74.8468 99.5709 75.109C98.9497 75.1713 98.345 74.6559 98.2348 74.0068C98.2265 73.9641 97.445 69.6696 92.0818 64.8427C87.1181 60.3748 79.85 59.2064 74.6484 59.9958C73.3027 60.9002 72.4963 61.8198 72.4833 61.8325C72.0106 62.3957 71.3219 62.736 70.5865 62.7678C69.8538 62.807 69.1336 62.5212 68.6139 62.0002C67.7814 61.1681 66.4157 60.7089 64.7703 60.7089C62.9807 60.7089 61.1558 61.2744 60.122 62.1483C57.6436 64.2455 55.0816 64.4838 52.3685 64.7356C51.0289 64.8602 49.6444 64.9887 48.0308 65.3381C45.0306 65.9911 42.4529 70.5718 41.7877 72.1205L41.758 72.1671C41.0898 74.9496 40.4298 79.5478 41.4727 84.7637C41.5437 85.1209 41.3137 85.4668 40.9573 85.5374C40.9133 85.5461 40.8706 85.55 40.8279 85.55C40.5208 85.55 40.2468 85.3343 40.1841 85.0229C39.2841 80.5223 39.5803 76.5057 40.1035 73.5995C39.7929 73.691 39.4701 73.7429 39.1329 73.7124C35.8882 73.4183 33.5079 74.1824 31.7571 76.0361C28.028 79.9856 28.4074 87.5108 28.4105 87.5814C28.4767 88.6417 27.8951 89.6367 26.9389 90.1037C19.628 93.6712 19.8297 103.868 22.3085 109.971V109.971ZM149.086 147.244C149.125 147.258 153.161 148.622 157.156 148.622C157.969 148.622 158.728 148.564 159.408 148.452C162.73 147.897 163.549 144.885 163.625 144.571C163.732 144.079 163.973 143.646 164.303 143.305C161.929 141.309 159.674 137.731 160.27 131.497C159.767 131.611 159.225 131.686 158.622 131.686C157.96 131.686 157.235 131.606 156.444 131.422C156.091 131.341 155.871 130.989 155.953 130.635C156.035 130.281 156.384 130.058 156.741 130.143C161.797 131.311 163.477 127.614 163.546 127.456C163.689 127.125 164.074 126.975 164.408 127.114C164.74 127.256 164.895 127.64 164.754 127.973C164.74 128.005 163.857 129.968 161.63 131.025C160.834 137.432 163.161 140.847 165.445 142.612C165.752 142.521 166.081 142.483 166.422 142.511C166.461 142.514 166.576 142.52 166.755 142.52H166.757C168.514 142.52 174.541 141.957 178.319 134.714C182.542 126.618 175.929 113.987 174.982 112.259C174.103 114.526 172.762 116.891 170.715 118.683C170.591 118.791 170.436 118.845 170.282 118.845C170.099 118.845 169.918 118.768 169.787 118.621C169.549 118.348 169.577 117.932 169.848 117.694C172.415 115.448 173.783 112.119 174.512 109.403C174.327 105.981 172.623 104.539 171.126 103.937C171.074 103.941 171.022 103.95 170.969 103.941C169.77 103.721 166.462 103.465 164.885 104.65C165.904 106.415 165.44 107.995 165.432 108.02C165.344 108.299 165.085 108.478 164.807 108.478C164.74 108.478 164.674 108.466 164.608 108.446C164.261 108.336 164.07 107.966 164.179 107.62C164.189 107.594 164.984 104.928 161.015 103.008C160.689 102.851 160.552 102.457 160.709 102.131C160.867 101.804 161.26 101.669 161.587 101.825C162.703 102.365 163.498 102.972 164.083 103.59C164.933 102.955 166.056 102.645 167.165 102.517C166.738 101.956 166.54 101.289 166.649 100.585C166.652 100.558 166.834 97.7819 164.143 89.9046C161.638 82.5663 152.285 80.9318 152.196 80.9178C151.757 80.8477 151.358 80.6499 151.019 80.3755C147.706 81.0664 143.273 82.6735 140.119 86.4117C139.988 86.5663 139.804 86.6461 139.616 86.6461C139.467 86.6461 139.316 86.5947 139.192 86.491C138.917 86.257 138.879 85.8423 139.114 85.5652C142.358 81.7194 146.741 79.9895 150.183 79.2018C149.948 78.558 149.957 77.8326 150.235 77.2023C150.313 77.0232 152.103 72.7226 146.44 65.9968C142.952 61.856 137.333 60.9864 133.234 60.9864C130.446 60.9864 128.415 61.396 128.401 61.3999C127.32 61.626 126.193 61.1185 125.61 60.1849C125.514 60.0315 123.176 56.4114 116.768 56.4114L116.32 56.4166C115.312 56.4432 114.382 56.4571 113.512 56.4571C110.621 56.4571 108.333 56.2785 106.167 55.9117C109.423 57.8429 112.899 60.6954 115.317 64.7491C118.309 64.0494 120.91 64.9403 121.072 64.9996C121.414 65.1215 121.593 65.4975 121.471 65.8377C121.348 66.1797 120.975 66.3583 120.63 66.2355C120.486 66.1867 118.197 65.4108 115.583 66.0377C115.534 66.0978 115.476 66.1523 115.403 66.1923C115.302 66.249 115.192 66.2751 115.085 66.2751C115.025 66.2751 114.973 66.245 114.916 66.2298C113.777 66.6079 112.606 67.2684 111.548 68.4032C111.42 68.5413 111.243 68.6119 111.068 68.6119C110.908 68.6119 110.747 68.5535 110.619 68.435C110.355 68.1871 110.34 67.772 110.588 67.5071C111.67 66.3474 112.851 65.6047 114.015 65.1451C108.542 56.3129 97.3099 53.5806 97.1932 53.5531C97.0011 53.5083 96.8543 53.3806 96.768 53.219C96.5341 53.1354 96.325 53.0639 96.0836 52.9763C95.255 52.6771 94.3855 52.5259 93.4933 52.5259C88.2935 52.5259 83.6204 57.4939 83.5777 57.5397C83.5176 57.6054 83.4409 57.6529 83.3743 57.7122C86.997 58.485 90.7222 60.0821 93.8401 62.888C98.328 66.9264 99.9743 70.6877 100.548 72.4873C107.821 72.7866 111.932 78.4617 113.601 81.4476C114.538 80.0849 116.599 77.8893 120.554 76.9526C120.909 76.8729 121.261 77.089 121.345 77.441C121.43 77.7939 121.211 78.1485 120.858 78.2312C116.815 79.1897 115.037 81.5517 114.431 82.5885C121.862 84.0666 126.605 92.6688 127.815 95.1184C130.243 95.6507 138.11 97.9962 141.704 106.506C145.076 114.495 143.295 119.375 142.163 121.349C150.532 130.741 150.042 140.434 148.018 147.115C148.375 147.085 148.739 147.126 149.086 147.244V147.244ZM23.1514 86.1978C23.2333 83.1461 23.9134 76.7009 27.9191 72.4451C30.424 69.7825 33.7362 68.4211 37.7637 68.3976C39.1564 65.8238 42.2429 61.2169 46.9134 60.2014C48.8389 59.7841 50.4573 59.6338 51.8832 59.5014C54.3332 59.2727 55.5609 59.1206 56.7266 58.1352C58.7123 56.4554 61.7199 55.4517 64.7703 55.4517C66.803 55.4517 68.6749 55.8991 70.2367 56.7377C72.1701 55.1345 75.5659 52.9881 79.9018 52.9881C80.1649 52.9881 80.4315 52.9951 80.696 53.0112C82.7269 51.1471 87.651 47.2686 93.4933 47.2686C94.995 47.2686 96.4665 47.5247 97.8693 48.0318C105.722 50.8674 108.255 51.3645 116.184 51.1619L116.768 51.1541C123.428 51.1541 127.224 54.1138 128.963 55.9953C130.014 55.8629 131.502 55.7292 133.234 55.7292C138.449 55.7292 145.672 56.9228 150.461 62.6101C155.401 68.4773 156.024 73.4048 155.737 76.3972C159.624 77.6065 166.573 80.7523 169.119 88.2061C170.869 93.3349 171.546 96.6453 171.786 98.6649C173.296 99.0866 175.232 99.9461 176.857 101.691C178.822 103.802 179.807 106.625 179.791 110.093C181.515 113.312 188.234 127.077 182.98 137.146C178.505 145.722 171.44 147.422 168.026 147.719C167.028 149.816 164.819 152.88 160.273 153.636C159.308 153.797 158.258 153.879 157.156 153.879C154.339 153.879 151.593 153.352 149.729 152.889C148.47 155.353 145.919 159.11 141.414 161.111C139.413 162.003 136.9 162.452 133.947 162.452C130.288 162.452 126.759 161.766 124.93 161.344C123.537 162.23 120.956 163.478 116.286 164.751C112.665 165.737 109.007 166.238 105.779 166.678C103.116 167.042 100.099 167.453 99.1771 167.99C97.2037 169.141 93.5438 169.885 89.8522 169.885C86.8598 169.885 82.4716 169.405 78.5609 167.111C75.0505 165.053 73.1298 163.473 72.0895 162.246C69.6791 162.22 65.3031 161.875 61.0896 160.021C57.9085 158.622 55.7565 156.579 54.0261 154.936C52.9862 153.95 51.8091 152.831 51.2275 152.788C48.3427 152.584 46.3493 150.811 45.2636 149.517C41.7424 149.431 32.6253 148.515 27.2334 141.727C21.9108 135.024 23.608 127.555 24.7454 124.326C23.056 122.145 19.6502 117.394 17.438 111.949C14.5589 104.862 13.7699 92.0145 23.1514 86.1978" fill="#F9F9F9"/>
<path d="M117.639 97.8181C117.502 97.8181 117.363 97.7754 117.245 97.6869C117.202 97.6534 112.781 94.3909 107.884 95.7501C107.675 95.8097 107.444 95.7562 107.279 95.6128C107.112 95.4678 107.028 95.2495 107.058 95.0313C107.103 94.6919 108.053 86.677 100.406 82.8538C100.081 82.6918 99.949 82.2966 100.113 81.9721C100.274 81.6484 100.669 81.516 100.992 81.6785C107.893 85.1283 108.453 91.8306 108.413 94.2807C113.534 93.3257 117.842 96.492 118.035 96.6353C118.324 96.8527 118.383 97.2644 118.165 97.5567C118.036 97.7283 117.839 97.8181 117.639 97.8181Z" fill="#F9F9F9"/>
<path d="M63.1741 119.163C63.4433 119.407 63.4655 119.822 63.2215 120.091C60.5062 123.096 60.0697 126.293 61.9939 129.092C64.6317 132.935 70.8618 134.965 75.0561 133.348C83.0166 130.286 89.7006 131.288 92.5022 135.96C94.9239 139.995 101.565 140.602 101.631 140.608C101.959 140.635 102.216 140.899 102.233 141.226C102.237 141.274 102.574 146.018 109.039 147.635C115.585 149.264 119.917 145.065 120.096 144.886C120.353 144.631 120.77 144.631 121.027 144.888C121.282 145.145 121.282 145.56 121.027 145.816C120.858 145.986 117.442 149.326 112.045 149.326C111.008 149.326 109.896 149.203 108.721 148.909C102.615 147.384 101.283 143.35 100.998 141.858C99.2598 141.623 93.7438 140.583 91.3756 136.636C88.9256 132.548 82.8493 131.758 75.5292 134.575C70.7389 136.417 63.9068 134.202 60.91 129.836C59.5765 127.895 57.9795 123.935 62.2457 119.21C62.4905 118.942 62.9048 118.92 63.1741 119.163" fill="#F9F9F9"/>
<path d="M96.9134 129.29C96.8175 129.34 96.7134 129.364 96.611 129.364C96.3732 129.364 96.1449 129.235 96.0282 129.011C95.9903 128.937 92.259 122.001 83.0086 121.262C83.2448 122.485 83.2887 123.864 82.9389 125.353C82.8679 125.656 82.5987 125.859 82.3007 125.859C82.2502 125.859 82.1983 125.854 82.1495 125.842C81.7949 125.759 81.5758 125.405 81.6595 125.052C82.0062 123.581 81.9021 122.215 81.6046 121.035C81.4482 120.91 81.3445 120.726 81.351 120.511C81.3541 120.443 81.3746 120.381 81.3946 120.319C80.7002 118.248 79.4996 116.907 79.4804 116.886C79.236 116.618 79.2534 116.202 79.52 115.958C79.7845 115.713 80.2005 115.728 80.4466 115.995C80.5394 116.095 81.8847 117.592 82.6588 119.919C92.9569 120.509 97.0236 128.075 97.1939 128.405C97.3612 128.727 97.2353 129.123 96.9134 129.29" fill="#F9F9F9"/>
<path d="M70.7369 77.4202C69.4726 77.2076 68.0594 77.3452 66.5547 78.1716C66.238 78.3463 65.8381 78.23 65.6612 77.9125C65.4883 77.594 65.6029 77.1945 65.9213 77.0198C72.1832 73.5757 77.2253 80.0523 77.2737 80.1185C77.4945 80.4069 77.4392 80.8182 77.1508 81.0377C77.0314 81.1292 76.8912 81.1715 76.7526 81.1715C76.554 81.1715 76.3588 81.0843 76.2294 80.9144C76.1205 80.7724 74.4816 78.6835 72.0159 77.7587C68.9059 84.4632 73.5411 89.0491 74.4093 89.822C74.9421 89.5275 75.5298 89.2382 76.212 88.962C84.6246 85.5536 90.5049 93.4661 94.4 98.702C95.7631 100.535 96.9415 102.119 97.8615 102.757C101.385 105.195 108.68 103.833 108.753 103.82C109.099 103.752 109.433 103.971 109.517 104.311C109.536 104.391 111.528 112.324 118.276 112.863C124.954 113.392 126.595 109.371 126.662 109.196C126.791 108.859 127.167 108.691 127.508 108.814C127.848 108.941 128.02 109.319 127.892 109.66C127.818 109.857 126.099 114.227 119.474 114.227C119.059 114.227 118.624 114.21 118.172 114.174C111.655 113.652 109.065 107.213 108.412 105.209C106.506 105.502 100.499 106.181 97.1136 103.837C96.0149 103.077 94.8365 101.492 93.344 99.4862C89.4724 94.2829 84.1659 87.1515 76.7069 90.1801C72.9129 91.7174 71.291 93.795 72.1436 96.0303C73.0087 98.2991 76.3379 100.157 78.2843 99.4661C78.6246 99.3398 79.001 99.521 79.1225 99.8639C79.2454 100.205 79.0672 100.582 78.7252 100.703C76.0735 101.654 72.0556 99.4897 70.9146 96.499C70.4829 95.3637 70.0416 92.8309 73.261 90.5338C71.8539 89.131 67.7257 84.2048 70.7369 77.4202" fill="#F9F9F9"/>
<path d="M71.8456 148.202C74.8741 148.48 78.5231 147.089 78.5596 147.076C78.8337 146.969 79.1438 147.06 79.3203 147.294C83.4266 152.766 89.2158 152.571 89.2799 152.58C89.6493 152.556 89.9481 152.845 89.9656 153.207C89.9826 153.57 89.7024 153.875 89.3417 153.894C89.3165 153.894 89.2485 153.897 89.1352 153.897C88.0117 153.897 82.6703 153.615 78.5671 148.467C77.4296 148.854 74.4137 149.747 71.7271 149.51C71.3646 149.478 71.1002 149.158 71.1316 148.797C71.1647 148.436 71.4988 148.166 71.8456 148.202Z" fill="#F9F9F9"/>
<path d="M49.8247 89.5277C48.5231 88.4691 46.4259 86.5497 45.2157 84.3318C45.0423 84.0129 45.1591 83.6143 45.4771 83.4401C45.7973 83.2675 46.1959 83.3843 46.3688 83.7019C48.0234 86.7366 51.6788 89.292 51.715 89.3181C51.9372 89.4719 52.043 89.7451 51.9816 90.0073C51.9215 90.27 51.7059 90.4682 51.4397 90.5088C48.4111 90.9623 45.0693 93.2406 42.9247 96.3128C41.2688 98.6853 39.5193 102.61 40.5957 107.833C42.151 115.388 48.7574 118.38 51.3294 119.273C51.1844 116.584 50.5806 114.625 50.5701 114.59C50.4595 114.245 50.6516 113.876 50.9966 113.765C51.3386 113.66 51.7106 113.846 51.8209 114.192C51.8731 114.352 52.5863 116.672 52.6734 119.775C52.8276 119.929 52.9113 120.15 52.8577 120.378C52.8307 120.495 52.7553 120.579 52.6795 120.661C52.6547 122.603 52.3628 124.778 51.5137 126.902C51.4109 127.16 51.1639 127.315 50.9038 127.315C50.8237 127.315 50.74 127.299 50.6599 127.267C50.3223 127.132 50.1584 126.75 50.2939 126.413C51.0659 124.481 51.3312 122.471 51.3525 120.663C48.9517 119.901 41.0954 116.78 39.3084 108.099C38.1374 102.418 40.0429 98.1459 41.8469 95.56C43.8966 92.6246 46.8559 90.4103 49.8247 89.5277" fill="#F9F9F9"/>
<path d="M45.2508 105.943C44.9184 105.805 44.7625 105.428 44.8962 105.094C45.0317 104.76 45.4181 104.598 45.747 104.726C45.7814 104.738 49.108 105.933 55.9384 101.288C58.7748 99.3605 61.302 98.6687 63.4514 99.2264C65.8087 99.8415 66.7854 101.749 66.8263 101.83C66.9888 102.155 66.856 102.55 66.5331 102.712C66.2021 102.877 65.8135 102.743 65.651 102.418C65.6444 102.403 64.9056 100.965 63.1204 100.499C61.3477 100.036 59.1843 100.669 56.6772 102.375C51.9806 105.569 48.7486 106.19 46.9494 106.19C45.8729 106.19 45.3092 105.967 45.2508 105.943Z" fill="#F9F9F9"/>
<path d="M56.0869 73.5692C56.0564 73.879 55.8046 74.1238 55.4957 74.1573C55.4643 74.1617 52.275 74.5729 49.3031 80.5146C49.1885 80.7464 48.9554 80.8788 48.7141 80.8788C48.6161 80.8788 48.5154 80.8562 48.4209 80.8096C48.0964 80.6466 47.9657 80.2524 48.1277 79.9278C50.7673 74.6487 53.6647 73.3 54.8431 72.9611C55.3193 70.0336 57.4212 66.856 57.514 66.7144C57.7144 66.4112 58.1226 66.3306 58.4249 66.5319C58.7273 66.7336 58.8096 67.1414 58.6079 67.4437C58.5857 67.4764 56.3591 70.8426 56.0869 73.5692" fill="#F9F9F9"/>
<path d="M87.8534 76.1364C87.7588 76.1835 87.6578 76.2061 87.5584 76.2061C87.3175 76.2061 87.0875 76.0741 86.9708 75.8454C86.8479 75.6006 83.8511 69.8628 76.5572 70.9427C76.1917 70.9859 75.8641 70.7476 75.8105 70.3899C75.757 70.0305 76.0057 69.6955 76.3638 69.6419C84.6357 68.4234 88.1113 75.1867 88.1466 75.256C88.3073 75.5801 88.1762 75.973 87.8534 76.1364" fill="#F9F9F9"/>
<path d="M60.8455 133.97C61.2045 134.014 61.4598 134.343 61.414 134.704C61.4049 134.786 60.4434 142.998 66.2575 148.604C66.5176 148.857 66.5258 149.273 66.2736 149.533C66.1442 149.667 65.9726 149.733 65.7992 149.733C65.6354 149.733 65.4733 149.674 65.3439 149.55C59.0459 143.477 60.064 134.9 60.111 134.537C60.1568 134.178 60.48 133.92 60.8455 133.97Z" fill="#F9F9F9"/>
<path d="M27.0476 106.77C27.8244 107.071 28.4922 107.425 29.113 107.793C26.6425 97.1768 31.5347 92.2315 31.7551 92.0162C32.0139 91.7644 32.4299 91.7714 32.6852 92.0306C32.937 92.2907 32.9322 92.7067 32.6708 92.9603C32.6203 93.0099 27.6431 98.0246 30.7597 108.94C32.6817 110.527 33.489 112.112 33.536 112.211C33.6915 112.538 33.5548 112.93 33.2254 113.087C33.1339 113.13 33.0376 113.151 32.9435 113.151C32.6974 113.151 32.4631 113.014 32.3493 112.778C32.3354 112.747 30.8067 109.636 26.5732 107.996C26.2343 107.865 26.0657 107.485 26.1964 107.147C26.3288 106.808 26.7052 106.642 27.0476 106.77" fill="#F9F9F9"/>
<path d="M146.709 97.276C137.803 91.5512 132.788 88.0077 133.267 81.7785C133.524 78.4411 132.35 75.2025 130.344 73.7179C129.099 72.7956 127.615 72.6318 126.057 73.2413C125.72 73.3755 125.337 73.2069 125.206 72.8688C125.072 72.5308 125.241 72.1487 125.578 72.0171C127.579 71.2343 129.499 71.4578 131.126 72.6615C133.517 74.4319 134.873 78.0494 134.576 81.8792C134.176 87.0868 138.183 90.2334 147.419 96.1712C156.941 102.292 153.634 112.387 153.601 112.487C153.506 112.761 153.253 112.933 152.98 112.933C152.909 112.933 152.837 112.922 152.767 112.898C152.424 112.782 152.239 112.408 152.356 112.064C152.482 111.69 155.353 102.833 146.709 97.276" fill="#F9F9F9"/>
<path d="M137.88 71.021C137.87 70.9761 136.817 66.5461 132.618 65.1468C132.273 65.0318 132.087 64.6602 132.202 64.3156C132.319 63.9706 132.686 63.788 133.034 63.8996C137.091 65.2522 138.599 68.9112 139.025 70.2434C141.429 70.4821 142.917 72.3579 142.983 72.4429C143.205 72.7295 143.153 73.1404 142.868 73.3638C142.748 73.4571 142.606 73.5028 142.463 73.5028C142.269 73.5028 142.075 73.4166 141.946 73.2514C141.932 73.234 140.566 71.5329 138.521 71.5329C138.213 71.5329 137.947 71.3211 137.88 71.021" fill="#F9F9F9"/>
<path d="M159.292 115.694C163.342 118.791 161.724 123.821 161.707 123.872C161.615 124.146 161.358 124.321 161.084 124.321C161.016 124.321 160.945 124.309 160.878 124.286C160.533 124.173 160.347 123.801 160.46 123.457C160.515 123.287 161.79 119.258 158.494 116.738C158.205 116.517 158.15 116.104 158.371 115.816C158.59 115.531 159.002 115.474 159.292 115.694Z" fill="#F9F9F9"/>
</g>
<g filter="url(#filter3_i)">
<path d="M51.5014 122.691C35.4461 117.146 3.00011 135.021 3 152.614C2.99991 167.564 50.5074 146.353 69.6995 161.814" stroke="#F9F9F9" stroke-width="5" stroke-linecap="round" stroke-linejoin="round"/>
</g>
<g clip-path="url(#clip0)">
<path d="M171.193 226.559C171.196 223.523 171.109 218.393 169.435 217.243C165.167 214.313 157.78 213.362 152.527 212.796C145.116 211.999 142.61 203.955 139.383 203.955C136.156 203.955 137.824 213.67 129.774 213.67C123.695 213.67 123.398 208.558 122.992 208.153C121.476 207.996 120.124 208.153 120.124 208.153C120.124 208.153 116.583 214.932 117.768 226.559H171.193Z" fill="#8DC8D3"/>
<path d="M169.434 217.243C165.167 214.313 157.78 213.362 152.527 212.796C145.116 211.999 142.61 203.955 139.383 203.955C138.766 203.955 138.329 204.31 137.968 204.883C140.472 207.023 143.266 212.167 149.115 212.796C154.369 213.362 161.756 214.313 166.023 217.243C167.698 218.393 167.785 223.523 167.782 226.559H171.193C171.196 223.523 171.109 218.393 169.434 217.243V217.243Z" fill="#B8FFFB"/>
<path d="M129.774 217.078C137.002 217.078 139.134 211.358 140.154 208.472C140.154 208.472 141.497 204.965 140.22 204.132C139.95 204.02 139.678 203.958 139.4 203.955C139.388 203.956 139.375 203.956 139.362 203.956C136.164 203.999 137.806 213.67 129.774 213.67C123.695 213.67 123.398 208.558 122.992 208.153C121.476 207.996 120.124 208.153 120.124 208.153C120.124 215.963 127.228 217.078 129.774 217.078V217.078Z" fill="#FFD54F"/>
<path d="M140.22 204.132C139.95 204.02 139.678 203.958 139.4 203.955C139.388 203.955 139.374 203.956 139.361 203.956C138.336 203.97 137.808 204.974 137.3 206.332C137.145 207.42 136.743 208.472 136.743 208.472C135.812 211.107 133.952 216.104 128.133 216.953C128.774 217.045 129.34 217.077 129.774 217.077C137.002 217.077 139.134 211.358 140.154 208.472C140.154 208.472 141.496 204.965 140.22 204.132Z" fill="#FFC328"/>
<path d="M137.583 220.058H117.563C117.481 222.012 117.526 224.184 117.768 226.559H152.449C152.449 226.559 151.279 225.449 149.557 224.123C146.129 221.48 141.914 220.058 137.583 220.058V220.058Z" fill="#546E7A"/>
<path d="M149.557 224.123C146.129 221.48 141.914 220.058 137.583 220.058H134.172C138.503 220.058 142.718 221.48 146.146 224.123C147.868 225.449 149.038 226.559 149.038 226.559H152.449C152.449 226.559 151.279 225.449 149.557 224.123V224.123Z" fill="#455A64"/>
<path d="M170.846 220.527L163.606 220.95C161.568 221.069 159.743 222.248 158.797 224.055L157.487 226.559H171.193C171.195 224.85 171.168 222.479 170.846 220.527Z" fill="#546E7A"/>
<path d="M170.846 220.527L167.465 220.724C167.758 222.637 167.784 224.907 167.782 226.559H171.193C171.195 224.85 171.168 222.479 170.846 220.527V220.527Z" fill="#455A64"/>
<path d="M142.698 211.462L142.697 211.462C141.939 210.902 141.779 209.834 142.34 209.077L144.368 206.337C144.928 205.581 145.995 205.422 146.751 205.981L146.752 205.981C147.51 206.541 147.67 207.609 147.109 208.367L145.081 211.106C144.521 211.862 143.454 212.021 142.698 211.462V211.462Z" fill="#E4E4E4"/>
<path d="M147.737 214.51L147.736 214.51C146.92 214.039 146.641 212.996 147.112 212.18L148.817 209.23C149.288 208.415 150.33 208.136 151.145 208.606L151.146 208.606C151.962 209.077 152.241 210.12 151.77 210.936L150.065 213.886C149.594 214.701 148.552 214.98 147.737 214.51Z" fill="#E4E4E4"/>
<path d="M153.603 217.119L153.602 217.119C152.708 216.822 152.224 215.856 152.522 214.963L153.597 211.73C153.894 210.837 154.859 210.354 155.752 210.65L155.753 210.651C156.647 210.948 157.131 211.913 156.833 212.807L155.758 216.039C155.461 216.932 154.497 217.416 153.603 217.119Z" fill="#E4E4E4"/>
<path d="M172.614 226.831V230.503C172.614 230.897 172.295 231.216 171.901 231.216H116.817C116.423 231.216 116.104 230.897 116.104 230.503V226.831C116.104 226.437 116.423 226.118 116.817 226.118H171.901C172.295 226.118 172.614 226.437 172.614 226.831Z" fill="#F3F3F3"/>
<path d="M171.932 226.118H168.521C168.898 226.118 169.203 226.452 169.203 226.864V230.47C169.203 230.882 168.898 231.216 168.521 231.216H171.932C172.309 231.216 172.614 230.882 172.614 230.47V226.864C172.614 226.452 172.309 226.118 171.932 226.118V226.118Z" fill="#E4E4E4"/>
<path d="M120.343 229.171V231.216H118.688V229.171C118.688 228.714 119.057 228.343 119.516 228.343C119.972 228.343 120.343 228.714 120.343 229.171Z" fill="#546E7A"/>
<path d="M126.554 229.171V231.216H124.898V229.171C124.898 228.714 125.269 228.343 125.726 228.343C126.183 228.343 126.554 228.714 126.554 229.171Z" fill="#546E7A"/>
<path d="M132.764 229.171V231.216H131.109V229.171C131.109 228.714 131.48 228.343 131.937 228.343C132.394 228.343 132.764 228.714 132.764 229.171Z" fill="#546E7A"/>
<path d="M138.976 229.171V231.216H137.321V229.171C137.321 228.714 137.69 228.343 138.148 228.343C138.605 228.343 138.976 228.714 138.976 229.171Z" fill="#546E7A"/>
<path d="M145.187 229.171V231.216H143.531V229.171C143.531 228.714 143.902 228.343 144.359 228.343C144.816 228.343 145.187 228.714 145.187 229.171Z" fill="#546E7A"/>
<path d="M151.397 229.171V231.216H149.742V229.171C149.742 228.714 150.113 228.343 150.569 228.343C151.028 228.343 151.397 228.714 151.397 229.171Z" fill="#546E7A"/>
<path d="M157.609 229.171V231.216H155.953V229.171C155.953 228.714 156.323 228.343 156.781 228.343C157.238 228.343 157.609 228.714 157.609 229.171Z" fill="#546E7A"/>
<path d="M163.82 229.171V231.216H162.164V229.171C162.164 228.714 162.535 228.343 162.992 228.343C163.449 228.343 163.82 228.714 163.82 229.171Z" fill="#546E7A"/>
<path d="M170.03 229.171V231.216H168.375V229.171C168.375 228.714 168.746 228.343 169.203 228.343C169.661 228.343 170.03 228.714 170.03 229.171Z" fill="#546E7A"/>
</g>
<g filter="url(#filter4_i)">
<path d="M76.497 154.145C73.4734 172.239 69.8639 211.093 79.6146 221.752C89.3652 232.412 106.616 234.453 114.023 234.14" stroke="#F9F9F9" stroke-width="5" stroke-linecap="round" stroke-linejoin="round"/>
</g>
<path d="M119.644 241.202C120.516 238.049 121.885 232.695 120.361 230.991C116.477 226.649 108.578 223.413 102.927 221.227C94.9574 218.144 94.4836 209.027 90.9137 208.045C87.3438 207.063 86.4138 217.662 77.5091 215.213C70.7838 213.363 71.9155 207.963 71.5826 207.418C69.9502 206.794 68.4101 206.546 68.4101 206.546C68.4101 206.546 62.5558 212.51 60.5457 224.948L119.644 241.202Z" fill="#8DC8D3"/>
<path d="M120.361 230.991C116.477 226.649 108.578 223.413 102.927 221.227C94.9574 218.144 94.4836 209.027 90.9137 208.045C90.2319 207.857 89.6464 208.093 89.0831 208.579C91.2423 211.563 92.8629 217.756 99.1541 220.19C104.804 222.375 112.704 225.611 116.587 229.953C118.112 231.657 116.742 237.011 115.871 240.164L119.644 241.202C120.516 238.049 121.885 232.695 120.361 230.991V230.991Z" fill="#B8FFFB"/>
<path d="M76.5356 218.752C84.5309 220.951 88.5236 215.659 90.4764 212.972C90.4764 212.972 92.9632 209.738 91.7895 208.483C91.5222 208.285 91.2391 208.138 90.933 208.051C90.9193 208.047 90.9043 208.043 90.89 208.039C87.3401 207.112 86.3939 217.656 77.5092 215.213C70.784 213.363 71.9157 207.963 71.5828 207.418C69.9503 206.794 68.4103 206.546 68.4103 206.546C66.1789 214.658 73.7195 217.978 76.5356 218.752V218.752Z" fill="#FFD54F"/>
<path d="M91.7894 208.483C91.5221 208.285 91.239 208.138 90.9329 208.051C90.9192 208.047 90.9043 208.043 90.8899 208.039C89.7516 207.742 88.8809 208.625 87.9303 209.88C87.4484 210.964 86.7031 211.934 86.7031 211.934C84.92 214.388 81.4353 219.012 74.7563 218.123C75.4386 218.414 76.0557 218.62 76.5355 218.752C84.5308 220.951 88.5235 215.659 90.4763 212.972C90.4763 212.972 92.9631 209.738 91.7894 208.483Z" fill="#FFC328"/>
<path d="M84.3226 224.224L62.1759 218.133C61.5273 220.138 60.9562 222.408 60.5457 224.948L98.9103 235.5C98.9103 235.5 97.9322 233.991 96.4073 232.089C93.3696 228.301 89.113 225.542 84.3226 224.224V224.224Z" fill="#546E7A"/>
<path d="M96.4073 232.089C93.3695 228.301 89.1129 225.542 84.3226 224.224L80.5493 223.186C85.3396 224.504 89.5962 227.263 92.634 231.051C94.1589 232.953 95.137 234.462 95.137 234.462L98.9103 235.499C98.9103 235.499 97.9322 233.991 96.4073 232.089V232.089Z" fill="#455A64"/>
<path d="M120.984 234.831L112.854 233.067C110.566 232.571 108.21 233.24 106.648 234.83L104.483 237.032L119.645 241.202C120.135 239.428 120.783 236.957 120.984 234.831Z" fill="#546E7A"/>
<path d="M120.984 234.831L117.188 234.007C116.965 236.084 116.345 238.449 115.871 240.164L119.644 241.202C120.135 239.428 120.783 236.957 120.984 234.831V234.831Z" fill="#455A64"/>
<path d="M92.4358 216.852L92.4354 216.851C91.7572 216.039 91.8854 214.881 92.722 214.265L95.7481 212.037C96.5834 211.421 97.8089 211.58 98.4862 212.391L98.4866 212.392C99.1649 213.204 99.0366 214.362 98.2 214.978L95.1739 217.206C94.3385 217.821 93.1131 217.662 92.4358 216.852V216.852Z" fill="#E4E4E4"/>
<path d="M97.1398 221.55L97.1391 221.55C96.3708 220.813 96.3597 219.644 97.1141 218.94L99.8432 216.394C100.597 215.691 101.829 215.718 102.596 216.454L102.597 216.455C103.365 217.192 103.376 218.361 102.622 219.065L99.8928 221.611C99.1394 222.314 97.9072 222.287 97.1398 221.55Z" fill="#E4E4E4"/>
<path d="M102.884 226.045L102.882 226.044C101.978 225.464 101.719 224.314 102.303 223.476L104.416 220.446C105 219.608 106.205 219.4 107.108 219.98L107.11 219.981C108.014 220.561 108.273 221.711 107.689 222.549L105.576 225.579C104.992 226.416 103.787 226.625 102.884 226.045Z" fill="#E4E4E4"/>
<path d="M121.139 241.917L120.09 245.732C119.977 246.141 119.533 246.375 119.097 246.255L58.1631 229.496C57.7272 229.376 57.4655 228.948 57.5781 228.539L58.6271 224.724C58.7397 224.315 59.1837 224.081 59.6195 224.201L120.554 240.96C120.99 241.08 121.251 241.508 121.139 241.917Z" fill="#F3F3F3"/>
<path d="M120.588 240.969L116.815 239.931C117.232 240.046 117.474 240.486 117.356 240.914L116.326 244.659C116.208 245.087 115.775 245.342 115.358 245.227L119.131 246.265C119.548 246.379 119.982 246.125 120.099 245.697L121.129 241.951C121.247 241.523 121.005 241.084 120.588 240.969V240.969Z" fill="#E4E4E4"/>
<path d="M62.6483 228.445L62.064 230.569L60.2326 230.065L60.8169 227.941C60.9474 227.466 61.4624 227.194 61.969 227.333C62.4745 227.472 62.7788 227.97 62.6483 228.445Z" fill="#546E7A"/>
<path d="M69.5185 230.334L68.9342 232.458L67.1028 231.955L67.6871 229.83C67.8176 229.356 68.3338 229.083 68.8393 229.222C69.3448 229.361 69.649 229.859 69.5185 230.334Z" fill="#546E7A"/>
<path d="M76.3886 232.224L75.8044 234.348L73.9729 233.844L74.5572 231.72C74.6878 231.245 75.2039 230.973 75.7094 231.112C76.2149 231.251 76.5192 231.749 76.3886 232.224Z" fill="#546E7A"/>
<path d="M83.2601 234.114L82.6758 236.238L80.8444 235.734L81.4287 233.61C81.5592 233.135 82.0742 232.863 82.5809 233.002C83.0863 233.141 83.3906 233.639 83.2601 234.114Z" fill="#546E7A"/>
<path d="M90.1302 236.003L89.5459 238.127L87.7145 237.624L88.2988 235.499C88.4293 235.025 88.9455 234.752 89.451 234.891C89.9564 235.03 90.2607 235.528 90.1302 236.003Z" fill="#546E7A"/>
<path d="M97.0003 237.893L96.416 240.017L94.5846 239.513L95.1689 237.389C95.2995 236.914 95.8156 236.642 96.3211 236.781C96.8278 236.92 97.1309 237.418 97.0003 237.893Z" fill="#546E7A"/>
<path d="M103.872 239.783L103.288 241.907L101.456 241.403L102.04 239.279C102.171 238.804 102.686 238.532 103.193 238.671C103.698 238.81 104.002 239.308 103.872 239.783Z" fill="#546E7A"/>
<path d="M110.742 241.672L110.158 243.796L108.326 243.293L108.911 241.168C109.041 240.694 109.557 240.421 110.063 240.56C110.568 240.699 110.873 241.197 110.742 241.672Z" fill="#546E7A"/>
<path d="M117.612 243.562L117.028 245.686L115.197 245.182L115.781 243.058C115.911 242.583 116.428 242.311 116.933 242.45C117.44 242.589 117.743 243.087 117.612 243.562Z" fill="#546E7A"/>
<defs>
<filter id="filter0_i" x="120.966" y="144.399" width="45.7592" height="89.0252" filterUnits="userSpaceOnUse" color-interpolation-filters="sRGB">
<feFlood flood-opacity="0" result="BackgroundImageFix"/>
<feBlend mode="normal" in="SourceGraphic" in2="BackgroundImageFix" result="shape"/>
<feColorMatrix in="SourceAlpha" type="matrix" values="0 0 0 0 0 0 0 0 0 0 0 0 0 0 0 0 0 0 127 0" result="hardAlpha"/>
<feOffset dy="4"/>
<feGaussianBlur stdDeviation="2"/>
<feComposite in2="hardAlpha" operator="arithmetic" k2="-1" k3="1"/>
<feColorMatrix type="matrix" values="0 0 0 0 0 0 0 0 0 0 0 0 0 0 0 0 0 0 0.25 0"/>
<feBlend mode="normal" in2="shape" result="effect1_innerShadow"/>
</filter>
<filter id="filter1_i" x="149.605" y="69.2314" width="125.895" height="52.9378" filterUnits="userSpaceOnUse" color-interpolation-filters="sRGB">
<feFlood flood-opacity="0" result="BackgroundImageFix"/>
<feBlend mode="normal" in="SourceGraphic" in2="BackgroundImageFix" result="shape"/>
<feColorMatrix in="SourceAlpha" type="matrix" values="0 0 0 0 0 0 0 0 0 0 0 0 0 0 0 0 0 0 127 0" result="hardAlpha"/>
<feOffset dy="4"/>
<feGaussianBlur stdDeviation="2"/>
<feComposite in2="hardAlpha" operator="arithmetic" k2="-1" k3="1"/>
<feColorMatrix type="matrix" values="0 0 0 0 0 0 0 0 0 0 0 0 0 0 0 0 0 0 0.25 0"/>
<feBlend mode="normal" in2="shape" result="effect1_innerShadow"/>
</filter>
<filter id="filter2_i" x="15.5024" y="47.2686" width="169.449" height="126.616" filterUnits="userSpaceOnUse" color-interpolation-filters="sRGB">
<feFlood flood-opacity="0" result="BackgroundImageFix"/>
<feBlend mode="normal" in="SourceGraphic" in2="BackgroundImageFix" result="shape"/>
<feColorMatrix in="SourceAlpha" type="matrix" values="0 0 0 0 0 0 0 0 0 0 0 0 0 0 0 0 0 0 127 0" result="hardAlpha"/>
<feOffset dy="4"/>
<feGaussianBlur stdDeviation="2"/>
<feComposite in2="hardAlpha" operator="arithmetic" k2="-1" k3="1"/>
<feColorMatrix type="matrix" values="0 0 0 0 0 0 0 0 0 0 0 0 0 0 0 0 0 0 0.25 0"/>
<feBlend mode="normal" in2="shape" result="effect1_innerShadow"/>
</filter>
<filter id="filter3_i" x="0.5" y="119.163" width="71.6996" height="49.1512" filterUnits="userSpaceOnUse" color-interpolation-filters="sRGB">
<feFlood flood-opacity="0" result="BackgroundImageFix"/>
<feBlend mode="normal" in="SourceGraphic" in2="BackgroundImageFix" result="shape"/>
<feColorMatrix in="SourceAlpha" type="matrix" values="0 0 0 0 0 0 0 0 0 0 0 0 0 0 0 0 0 0 127 0" result="hardAlpha"/>
<feOffset dy="4"/>
<feGaussianBlur stdDeviation="2"/>
<feComposite in2="hardAlpha" operator="arithmetic" k2="-1" k3="1"/>
<feColorMatrix type="matrix" values="0 0 0 0 0 0 0 0 0 0 0 0 0 0 0 0 0 0 0.25 0"/>
<feBlend mode="normal" in2="shape" result="effect1_innerShadow"/>
</filter>
<filter id="filter4_i" x="70.7637" y="151.645" width="45.7592" height="89.0252" filterUnits="userSpaceOnUse" color-interpolation-filters="sRGB">
<feFlood flood-opacity="0" result="BackgroundImageFix"/>
<feBlend mode="normal" in="SourceGraphic" in2="BackgroundImageFix" result="shape"/>
<feColorMatrix in="SourceAlpha" type="matrix" values="0 0 0 0 0 0 0 0 0 0 0 0 0 0 0 0 0 0 127 0" result="hardAlpha"/>
<feOffset dy="4"/>
<feGaussianBlur stdDeviation="2"/>
<feComposite in2="hardAlpha" operator="arithmetic" k2="-1" k3="1"/>
<feColorMatrix type="matrix" values="0 0 0 0 0 0 0 0 0 0 0 0 0 0 0 0 0 0 0.25 0"/>
<feBlend mode="normal" in2="shape" result="effect1_innerShadow"/>
</filter>
<clipPath id="clip0">
<rect width="56.5101" height="56.5101" fill="white" transform="translate(116.104 189.33)"/>
</clipPath>
</defs>
</svg>
