<svg width="270" height="270" viewBox="0 0 270 270" fill="none" xmlns="http://www.w3.org/2000/svg">
<g filter="url(#filter0_i)">
<path d="M152.067 142.149C160.275 157.448 166.249 168.03 170.343 188.154C174.124 206.744 110.278 220.277 120.004 219.867" stroke="#F9F9F9" stroke-width="5" stroke-linecap="round" stroke-linejoin="round"/>
</g>
<g filter="url(#filter1_i)">
<path d="M94.1814 133.789C102.389 149.087 108.363 159.67 112.457 179.793C116.238 198.384 52.3921 211.916 62.1184 211.506" stroke="#F9F9F9" stroke-width="5" stroke-linecap="round" stroke-linejoin="round"/>
</g>
<path d="M205.941 119.389C209.098 118.573 215.442 115.494 218.157 103.926L177.399 78.2756L67.6512 93.1412L67.2324 107.627C66.7244 111.912 66.427 121.707 72.593 129.625C78.8392 137.644 87.5658 137.658 90.8899 137.321C92.1348 138.842 94.3161 140.861 97.0626 140.757C97.6141 140.737 98.9056 142.011 100.05 143.14L100.066 143.155C101.977 145.042 104.354 147.387 107.587 148.776C111.868 150.618 116.04 150.504 118.31 150.229C119.501 151.671 121.58 153.453 125.237 155.645C129.31 158.089 133.517 158.145 136.329 157.764C139.798 157.295 143.108 155.875 144.763 154.148C145.535 153.343 148.293 152.433 150.729 151.628L150.739 151.625C153.696 150.65 157.046 149.542 160.277 147.816C164.445 145.589 166.654 143.66 167.809 142.347C169.601 142.656 173.037 143.085 176.475 142.62C179.25 142.244 181.534 141.348 183.259 139.95C187.145 136.81 188.89 131.668 189.645 128.348C191.477 128.705 194.149 129.03 196.796 128.671C197.831 128.531 198.804 128.292 199.683 127.963C203.824 126.415 205.367 122.205 205.941 119.389Z" fill="#914100"/>
<path d="M61.2943 40.7729C58.2738 46.737 58.7546 55.0847 59.2076 59.0066C51.4128 67.6547 54.3838 84.0222 58.3163 92.7395C61.3379 99.438 65.3591 105.095 67.3232 107.675C79.6043 91.2217 119.209 95.9548 142.577 97.4815C161.271 98.7028 167.076 88.2136 167.642 82.8164C165.723 68.6549 136.357 53.1513 117.952 41.7291C103.228 32.5913 112.159 10.2134 118.465 0.166749C112.982 0.90945 109.034 6.50669 107.452 9.1542C107.201 9.16715 106.95 9.1921 106.703 9.22555C102.633 9.77675 99.819 12.9596 98.2828 15.2603C96.6715 14.3839 94.837 14.0484 92.9293 14.3068C90.0665 14.6946 87.418 16.3634 85.8461 18.769C84.9231 20.1802 83.7968 20.5313 81.5371 21.1359C80.2221 21.4869 78.7295 21.8853 76.995 22.6649C72.788 24.5602 70.6911 30.8575 69.8309 34.3335C66.0551 34.8756 63.183 37.0416 61.2943 40.7729Z" fill="#DE8843"/>
<path d="M122.356 0.630497C120.947 0.160009 119.518 0.0196077 118.105 0.211048C111.776 10.2518 102.808 32.6139 117.568 41.7358C136.019 53.1383 165.459 68.6128 167.376 82.7604C169.292 96.908 185.101 105.635 196.062 104.15C207.023 102.666 210.104 98.5502 217.918 103.891C221.116 90.3275 212.405 73.5587 210.224 69.6566C209.637 65.2137 208.221 61.7244 206.006 59.2716C204.174 57.2441 202.202 56.3903 200.708 56.0427C200.131 53.4873 198.921 49.3345 196.383 42.9903C192.694 33.7703 185.608 30.628 181.74 29.5751C181.491 25.7067 180.05 19.4764 174.384 12.5932C168.889 5.92124 161.884 5.31361 156.975 5.97845C155.345 6.19927 153.969 6.56013 153.002 6.86372C151.039 4.67613 146.953 1.37016 140.684 2.21923L140.137 2.30362C132.708 3.57397 130.238 3.26032 122.356 0.630497Z" fill="#F7CA63"/>
<path d="M71.078 87.8854C74.2542 94.9126 79.0441 100.727 79.0916 100.783C79.777 101.611 80.0634 102.87 79.819 103.982C79.7989 104.068 77.9827 112.63 82.8841 118.913C87.2408 124.499 93.8485 124.083 95.7705 123.823C96.0446 123.786 96.2098 123.753 96.2319 123.748L96.2822 123.747C95.4029 122.02 94.384 119.604 93.4583 116.359C92.6535 115.964 90.2691 114.579 88.0977 111.107C87.8931 110.781 87.911 110.316 88.1385 110.067C88.3631 109.818 88.7119 109.881 88.9166 110.208C90.3725 112.535 91.9593 113.841 92.9627 114.501C92.2122 111.483 91.5646 107.865 91.1698 103.563C91.133 103.153 91.3515 102.801 91.6495 102.791C91.9519 102.773 92.2271 103.093 92.2653 103.502C93.3178 114.97 96.2535 121.453 97.9195 124.314C98.1069 124.491 98.2801 124.696 98.4285 124.94C98.4418 124.96 99.674 126.92 100.991 126.87C103.049 126.793 104.737 128.455 106.526 130.219C107.989 131.659 109.649 133.293 111.741 134.19C115 135.59 118.323 135.338 119.6 135.165C120.066 135.102 120.348 135.04 120.378 135.031C120.977 134.892 121.604 135.092 122.121 135.592C122.444 135.902 122.703 136.308 122.88 136.771C123.131 137.105 124.222 138.357 127.737 140.462C130.384 142.045 133.243 142.066 135.177 141.804C137.828 141.445 139.891 140.375 140.51 139.732C141.853 138.33 144.24 137.545 147.26 136.551C149.729 135.735 152.528 134.812 155.108 133.436C159.62 131.029 160.815 129.313 160.837 129.31L160.838 129.314C161.091 128.772 161.479 128.413 161.922 128.227C163.211 125.36 164.462 120.834 164.54 113.925C164.544 113.516 164.797 113.219 165.099 113.259C165.404 113.3 165.647 113.663 165.642 114.072C165.568 120.619 164.5 125.137 163.284 128.19C164.304 128.393 167.433 128.924 170.455 128.515C172.282 128.267 173.718 127.73 174.722 126.919C175.389 126.381 175.951 125.731 176.427 125.031C176.389 124.728 176.4 124.416 176.508 124.136C176.815 123.336 183.803 104.546 170.132 89.148C168.99 90.577 166.387 93.1086 161.352 94.8788C163.885 96.1114 167.876 99.2003 170.632 106.739C171.437 105.56 171.898 104.511 171.908 104.486C172.056 104.144 172.392 104.053 172.658 104.28C172.924 104.507 173.022 104.967 172.875 105.309C172.82 105.436 172.138 106.982 170.962 108.499C170.929 108.56 170.89 108.608 170.842 108.652C169.782 109.979 168.345 111.248 166.604 111.484C166.425 111.508 166.24 111.523 166.053 111.524C165.75 111.526 165.481 111.193 165.455 110.784C165.429 110.373 165.645 110.054 165.957 110.037C167.497 110.035 168.824 108.982 169.832 107.795C166.204 97.3765 160.104 95.7589 159.087 95.5638C158.074 95.8322 157.003 96.0772 155.823 96.2713C155.622 96.3045 155.423 96.3335 155.224 96.3604C147.425 97.4169 143.547 93.4306 141.843 90.7096C141.794 93.3008 142.181 98.2734 145.445 101.934C145.689 102.208 145.737 102.677 145.554 102.984C145.468 103.128 145.345 103.21 145.212 103.228C145.066 103.248 144.91 103.187 144.781 103.043C140.281 97.9944 140.624 90.9616 140.815 89.0527C139.514 89.4219 136.161 89.8427 130.701 86.8725C129.845 86.4068 128.967 85.903 128.079 85.3896C121.83 81.7989 115.369 78.0761 111.395 84.6962C111.213 85.0018 110.865 85.0309 110.623 84.7549C110.379 84.4811 110.331 84.012 110.515 83.7067C114.969 76.2847 122.127 80.4004 128.439 84.0325C129.32 84.5394 130.191 85.0397 131.041 85.5023C137.594 89.0673 140.936 87.4536 140.966 87.4375C141.098 87.3693 141.252 87.3753 141.394 87.459C141.532 87.5435 141.646 87.6972 141.707 87.885C141.823 88.2411 144.737 96.5934 155.601 94.7971C156.723 94.6126 157.743 94.3798 158.708 94.1247C158.778 94.0833 158.853 94.0607 158.936 94.0664C165.232 92.3529 168.255 89.3734 169.389 87.9479C169.293 87.5393 169.305 87.0982 169.471 86.7348C169.565 86.53 171.73 81.596 167.293 72.0547C163.026 62.8758 155.715 62.2958 155.408 62.276C155.03 62.2519 154.669 61.9684 154.456 61.5273C154.399 61.4093 148.666 49.715 142.266 49.6803C141.858 49.6787 141.465 49.3702 141.245 48.882C141.201 48.7808 136.639 38.7764 129.564 40.0351C129.061 40.1747 128.483 39.6627 128.293 38.9449C128.28 38.8979 126.98 34.1552 121.816 29.3263C117.037 24.8564 110.858 24.3552 106.683 25.8248C105.709 26.9925 105.184 28.1169 105.175 28.1326C104.87 28.819 104.353 29.2787 103.751 29.3967C103.152 29.5228 102.514 29.2819 102.005 28.754C101.191 27.9113 99.9935 27.5476 98.6349 27.7317C97.1572 27.9318 95.7365 28.7719 95.016 29.8704C93.2891 32.5063 91.2099 33.0608 89.0079 33.6475C87.9208 33.9375 86.7972 34.2368 85.518 34.8103C83.1401 35.8803 81.7095 41.3206 81.3962 43.1368L81.3788 43.1925C81.2509 46.3966 81.4064 51.6421 83.0622 57.3917C83.1753 57.7856 83.038 58.2003 82.7545 58.3195C82.7195 58.3343 82.6849 58.3435 82.6496 58.3482C82.396 58.3826 82.1369 58.1707 82.0377 57.8274C80.6088 52.8662 80.2416 48.3156 80.2308 44.9886C79.9883 45.1262 79.7297 45.2206 79.4466 45.224C76.7226 45.2562 74.8735 46.3818 73.7102 48.6624C71.2327 53.5215 72.6925 61.9427 72.7057 62.0218C72.922 63.2069 72.5933 64.391 71.8749 65.0232C66.3816 69.8532 68.1015 81.2988 71.078 87.8854ZM181.439 115.628C181.474 115.639 185.014 116.722 188.313 116.275C188.984 116.184 189.601 116.033 190.146 115.832C192.804 114.836 193.022 111.356 193.037 110.995C193.05 110.43 193.183 109.916 193.404 109.495C191.14 107.515 188.733 103.744 188.275 96.6661C187.877 96.8507 187.441 96.9946 186.943 97.0621C186.396 97.1361 185.786 97.1275 185.104 97.0098C184.801 96.9581 184.565 96.5859 184.579 96.1789C184.592 95.7719 184.847 95.4819 185.155 95.5376C189.507 96.2862 190.331 91.94 190.364 91.7548C190.432 91.3659 190.727 91.1544 191.024 91.2733C191.32 91.3964 191.506 91.8107 191.441 92.2012C191.434 92.2381 191.003 94.5447 189.326 95.9824C189.645 103.278 192.087 106.858 194.241 108.588C194.481 108.452 194.747 108.372 195.032 108.365C195.065 108.364 195.161 108.358 195.309 108.338L195.311 108.338C196.761 108.141 201.652 106.834 203.669 98.2648C205.922 88.6875 198.537 75.2206 197.492 73.3839C197.111 76.031 196.365 78.841 194.948 81.0851C194.861 81.221 194.742 81.2995 194.614 81.3168C194.464 81.3372 194.302 81.2708 194.172 81.1199C193.934 80.8388 193.894 80.3677 194.081 80.0699C195.858 77.2565 196.481 73.3597 196.669 70.2232C195.995 66.3963 194.368 64.9645 193.041 64.4543C192.998 64.4646 192.957 64.4807 192.911 64.4764C191.888 64.363 189.117 64.4459 187.996 65.9545C189.106 67.8253 188.963 69.6554 188.961 69.6837C188.93 70.0071 188.744 70.2374 188.514 70.2685C188.459 70.276 188.403 70.2707 188.345 70.2555C188.042 70.1698 187.828 69.7757 187.866 69.3745C187.869 69.344 188.12 66.2559 184.55 64.5406C184.257 64.4007 184.084 63.9731 184.164 63.5885C184.245 63.2034 184.548 63.0076 184.842 63.1464C185.846 63.6287 186.595 64.2227 187.172 64.852C187.777 64.0432 188.657 63.5692 189.554 63.3006C189.116 62.7173 188.85 61.9893 188.833 61.1859C188.831 61.1552 188.559 58.0122 185.137 49.4536C181.95 41.4804 173.978 40.6882 173.903 40.6824C173.529 40.6527 173.17 40.4748 172.848 40.2041C170.218 41.3517 166.803 43.6549 164.767 48.2121C164.683 48.4007 164.543 48.511 164.388 48.532C164.265 48.5487 164.132 48.5078 164.014 48.4049C163.751 48.1727 163.657 47.7104 163.809 47.3725C165.901 42.6843 169.257 40.2484 171.979 38.9776C171.687 38.2797 171.584 37.4629 171.717 36.7229C171.755 36.5127 172.578 31.4756 166.877 24.5445C163.366 20.2775 158.594 19.9279 155.209 20.3865C152.907 20.6982 151.292 21.386 151.281 21.392C150.423 21.7672 149.415 21.3224 148.792 20.3376C148.689 20.1759 146.207 16.3658 140.916 17.0825L140.547 17.1385C139.718 17.2811 138.953 17.4008 138.234 17.4981C135.847 17.8215 133.93 17.8765 132.086 17.7062C135.069 19.514 138.374 22.3335 140.988 26.6222C143.351 25.5007 145.635 26.2117 145.778 26.2602C146.079 26.3591 146.284 26.762 146.235 27.1583C146.186 27.5567 145.905 27.7993 145.601 27.6997C145.475 27.6609 143.466 27.0444 141.404 28.0418C141.372 28.1148 141.333 28.1826 141.279 28.2358C141.204 28.3108 141.117 28.3525 141.029 28.3645C140.979 28.3712 140.932 28.3432 140.883 28.3324C139.999 28.8851 139.133 29.7588 138.432 31.1536C138.348 31.3232 138.213 31.4223 138.068 31.4419C137.936 31.4598 137.794 31.4122 137.67 31.2932C137.414 31.044 137.339 30.5786 137.503 30.2531C138.22 28.8277 139.082 27.8603 139.973 27.2132C134.109 17.8917 124.418 16.075 124.317 16.0572C124.152 16.0282 124.011 15.9011 123.915 15.7289C123.709 15.661 123.526 15.604 123.313 15.5326C122.583 15.2886 121.842 15.2159 121.105 15.3157C116.812 15.8972 113.71 22.0074 113.682 22.0637C113.642 22.1444 113.586 22.2063 113.54 22.2804C116.649 22.7444 119.968 24.124 122.97 26.9311C127.291 30.9711 129.224 35.0174 129.971 36.9773C136.023 36.5004 140.282 42.4234 142.115 45.5949C142.681 43.9575 144.048 41.2576 147.171 39.7618C147.452 39.6325 147.776 39.836 147.899 40.2226C148.023 40.6099 147.896 41.0333 147.617 41.1658C144.425 42.696 143.317 45.5513 142.974 46.7853C149.335 47.6166 154.562 56.761 155.934 59.3807C158.02 59.7079 164.874 61.4659 169.138 70.6344C173.139 79.2427 172.412 84.9305 171.777 87.2777C180.119 96.9046 181.191 107.862 180.537 115.601C180.828 115.528 181.135 115.534 181.439 115.628ZM68.1525 61.0538C67.7552 57.6125 67.3348 50.2874 69.9941 45.053C71.6568 41.7781 74.1843 39.8765 77.5063 39.3996C78.2642 36.3491 80.111 30.8226 83.8128 29.1581C85.3392 28.4733 86.6526 28.1233 87.8098 27.8149C89.798 27.2836 90.7885 26.9753 91.601 25.7366C92.9847 23.6252 95.3153 22.16 97.834 21.8188C99.5124 21.5915 101.126 21.8853 102.544 22.6538C103.896 20.6345 106.373 17.8406 109.953 17.3556C110.17 17.3262 110.392 17.3043 110.612 17.2928C112.005 14.9691 115.48 10.0562 120.305 9.40276C121.544 9.23481 122.799 9.35832 124.034 9.77174C130.95 12.0826 133.117 12.3584 139.634 11.2437L140.115 11.1696C145.614 10.4247 149.199 13.3289 150.922 15.2506C151.77 14.9841 152.978 14.6673 154.408 14.4736C158.714 13.8903 164.86 14.4249 169.681 20.2857C174.654 26.332 175.919 31.8044 176.138 35.2021C179.532 36.1274 185.749 38.8883 188.987 46.9868C191.213 52.5593 192.276 56.2069 192.783 58.4514C194.093 58.7569 195.823 59.507 197.431 61.2881C199.375 63.4427 200.618 66.5076 201.133 70.4099C203.047 73.8374 210.692 88.5669 207.888 100.479C205.499 110.625 199.924 113.327 197.15 114.043C196.646 116.514 195.289 120.206 191.65 121.565C190.877 121.854 190.023 122.064 189.114 122.187C186.787 122.502 184.44 122.217 182.83 121.905C182.166 124.817 180.631 129.327 177.217 132.082C175.7 133.309 173.694 134.094 171.255 134.425C168.234 134.834 165.215 134.458 163.641 134.188C162.626 135.34 160.684 137.032 157.022 138.986C154.182 140.5 151.239 141.473 148.64 142.328C146.497 143.035 144.068 143.836 143.389 144.543C141.935 146.057 139.026 147.303 135.978 147.716C133.507 148.051 129.81 148.003 126.232 145.86C123.02 143.938 121.193 142.375 120.147 141.111C118.153 141.353 114.487 141.454 110.725 139.839C107.885 138.621 105.797 136.565 104.118 134.911C103.109 133.918 101.967 132.791 101.48 132.808C99.0668 132.9 97.1507 131.13 96.0572 129.796C93.1365 130.093 85.4688 130.083 79.9824 123.051C74.5664 116.108 74.8299 107.517 75.2772 103.758C73.5501 101.495 70.014 96.5322 67.3578 90.6551C63.9008 83.0069 61.2921 68.6451 68.1525 61.0538Z" fill="#F9F9F9"/>
<path d="M147.943 63.5551C147.83 63.5705 147.709 63.5379 147.598 63.4517C147.558 63.4187 143.41 60.2439 139.573 62.3203C139.409 62.4108 139.211 62.3764 139.052 62.2337C138.893 62.0892 138.79 61.8531 138.782 61.6042C138.767 61.2176 138.33 52.097 131.434 48.6523C131.141 48.5064 130.972 48.0767 131.057 47.6934C131.141 47.3114 131.447 47.1182 131.739 47.2648C137.963 50.373 139.446 57.8485 139.787 60.6084C143.87 58.9617 147.909 62.041 148.09 62.1806C148.362 62.3927 148.473 62.8492 148.338 63.2023C148.257 63.4098 148.108 63.5327 147.943 63.5551Z" fill="#F9F9F9"/>
<path d="M106.222 93.6535C106.481 93.8973 106.563 94.3618 106.402 94.6923C104.618 98.3753 104.745 102.02 106.76 104.953C109.523 108.979 114.977 110.566 118.194 108.278C124.301 103.944 129.972 104.323 132.998 109.265C135.612 113.532 141.188 113.472 141.244 113.471C141.519 113.465 141.771 113.733 141.835 114.099C141.845 114.152 142.846 119.451 148.43 120.546C154.085 121.647 157.022 116.439 157.142 116.217C157.316 115.902 157.659 115.856 157.911 116.115C158.161 116.376 158.224 116.843 158.052 117.16C157.938 117.369 155.627 121.509 151.171 122.112C150.314 122.228 149.377 122.214 148.362 122.014C143.088 120.983 141.374 116.594 140.911 114.948C139.44 114.878 134.727 114.325 132.17 110.151C129.524 105.827 124.387 105.619 118.771 109.605C115.097 112.213 109.118 110.486 105.978 105.91C104.582 103.877 102.659 99.6016 105.462 93.8098C105.624 93.4811 105.962 93.4107 106.222 93.6535Z" fill="#F9F9F9"/>
<path d="M135.624 101.27C135.552 101.337 135.47 101.375 135.385 101.387C135.189 101.413 134.981 101.294 134.85 101.055C134.808 100.976 130.67 93.5927 122.919 93.7953C123.301 95.1447 123.547 96.6906 123.485 98.4044C123.473 98.7533 123.281 99.0122 123.035 99.0456C122.993 99.0512 122.95 99.0516 122.908 99.0429C122.602 98.9895 122.367 98.6161 122.383 98.2089C122.445 96.516 122.151 94.9911 121.725 93.6971C121.577 93.5745 121.464 93.3788 121.436 93.137C121.428 93.0597 121.436 92.9874 121.443 92.9161C120.554 90.6639 119.358 89.2906 119.339 89.2687C119.097 88.9948 119.048 88.5249 119.231 88.2202C119.412 87.9157 119.758 87.8864 120.001 88.1582C120.093 88.261 121.432 89.7936 122.426 92.3244C131.019 91.8365 135.53 99.8913 135.721 100.243C135.908 100.587 135.864 101.046 135.624 101.27Z" fill="#F9F9F9"/>
<path d="M106.108 45.8594C105.031 45.7617 103.885 46.0746 102.769 47.1723C102.534 47.4042 102.186 47.3181 101.991 46.9807C101.8 46.6419 101.834 46.1798 102.07 45.9477C106.716 41.3737 111.866 48.094 111.916 48.1631C112.142 48.4628 112.159 48.9315 111.955 49.2107C111.87 49.3269 111.761 49.3901 111.646 49.4056C111.482 49.4279 111.308 49.3517 111.175 49.1751C111.064 49.0275 109.392 46.8614 107.215 46.097C105.669 53.9854 110.195 58.6248 111.029 59.3969C111.424 59.0061 111.866 58.615 112.387 58.2281C118.814 53.4537 124.875 61.6952 128.889 67.1485C130.294 69.0578 131.508 70.7075 132.365 71.3214C135.646 73.6702 141.462 71.3221 141.52 71.2998C141.796 71.1836 142.105 71.3927 142.226 71.7665C142.253 71.8536 145.106 80.553 150.761 80.4048C156.356 80.2527 157.099 75.5473 157.127 75.3424C157.182 74.9487 157.467 74.7185 157.767 74.818C158.068 74.9235 158.267 75.3296 158.213 75.7266C158.182 75.9573 157.429 81.0639 151.958 81.8049C151.615 81.8513 151.254 81.8813 150.875 81.8912C145.414 82.0331 142.294 75.0802 141.45 72.8998C139.921 73.4428 135.064 74.8775 131.912 72.6202C130.889 71.8881 129.674 70.2379 128.136 68.1485C124.147 62.7294 118.679 55.3022 112.981 59.5427C110.082 61.6961 109.06 64.2142 110.104 66.6328C111.164 69.0878 114.196 70.8046 115.698 69.8103C115.96 69.6302 116.298 69.7919 116.451 70.1639C116.604 70.5338 116.515 70.9776 116.251 71.152C114.206 72.5182 110.559 70.5335 109.161 67.2975C108.631 66.0689 107.881 63.2696 110.189 60.326C108.814 58.9057 104.655 53.8269 106.108 45.8594Z" fill="#F9F9F9"/>
<path d="M117.806 125.344C120.349 125.318 123.15 123.345 123.178 123.326C123.388 123.175 123.658 123.243 123.84 123.486C128.064 129.181 132.815 128.314 132.869 128.318C133.17 128.25 133.461 128.541 133.531 128.946C133.6 129.352 133.415 129.727 133.12 129.789C133.099 129.792 133.044 129.803 132.95 129.815C132.022 129.941 127.569 130.221 123.397 124.89C122.516 125.452 120.162 126.794 117.908 126.828C117.603 126.832 117.336 126.502 117.307 126.093C117.279 125.683 117.514 125.342 117.806 125.344Z" fill="#F9F9F9"/>
<path d="M90.6844 61.8156C89.4483 60.7706 87.4243 58.8464 86.0871 56.4873C85.8954 56.1481 85.931 55.6867 86.1671 55.4551C86.4052 55.2253 86.7521 55.312 86.9433 55.6499C88.7718 58.8779 92.1795 61.3432 92.2133 61.3685C92.4202 61.5166 92.5492 61.812 92.5385 62.1138C92.5289 62.416 92.381 62.6631 92.1674 62.7384C89.7357 63.5872 87.3234 66.5235 86.0206 70.2186C85.0147 73.0721 84.1681 77.6823 85.8525 83.4356C88.2877 91.7586 94.1985 94.3848 96.4584 95.102C95.929 92.0942 95.132 89.9579 95.1181 89.9204C94.974 89.5437 95.0764 89.1072 95.3445 88.9447C95.6109 88.7883 95.9465 88.9559 96.0901 89.3322C96.1577 89.5066 97.1 92.0364 97.6446 95.5162C97.7954 95.6724 97.8982 95.9114 97.8887 96.1742C97.8842 96.3085 97.8348 96.4115 97.7846 96.5116C98.06 98.6991 98.1503 101.178 97.7727 103.661C97.7271 103.963 97.5468 104.165 97.332 104.194C97.2659 104.203 97.1945 104.195 97.1234 104.168C96.824 104.053 96.6306 103.643 96.6911 103.248C97.0341 100.989 96.947 98.6982 96.6893 96.6629C94.5907 96.074 87.6281 93.4421 84.8301 83.8785C82.9978 77.6208 83.9203 72.6026 85.016 69.4924C86.2612 65.9618 88.3674 63.1403 90.6844 61.8156Z" fill="#F9F9F9"/>
<path d="M89.4083 80.7891C89.1127 80.671 88.9266 80.2646 88.9862 79.8748C89.0471 79.4834 89.3416 79.2584 89.6327 79.3656C89.663 79.3755 92.5917 80.3464 97.5241 74.359C99.5725 71.8737 101.554 70.8129 103.414 71.1997C105.454 71.6279 106.551 73.6637 106.597 73.7507C106.781 74.0981 106.731 74.5569 106.489 74.7752C106.241 74.9984 105.9 74.8905 105.716 74.5436C105.708 74.5272 104.879 72.992 103.334 72.6679C101.8 72.3453 100.11 73.2997 98.2997 75.4983C94.9083 79.6165 92.334 80.6757 90.8484 80.8769C89.9596 80.9973 89.4601 80.8095 89.4083 80.7891Z" fill="#F9F9F9"/>
<path d="M93.4239 43.1667C93.4459 43.5185 93.2752 43.822 93.0253 43.8943C93.0001 43.9027 90.4292 44.7219 88.8804 51.737C88.8211 52.0104 88.6489 52.1854 88.4496 52.2124C88.3686 52.2234 88.2821 52.2092 88.1969 52.1673C87.9041 52.0204 87.7362 51.5916 87.8205 51.2085C89.1958 44.9758 91.3828 43.1348 92.3042 42.6218C92.2514 39.276 93.5029 35.4672 93.558 35.2975C93.6773 34.9341 94.0021 34.7978 94.2824 34.9904C94.5627 35.1834 94.6928 35.6328 94.5723 35.9954C94.559 36.0346 93.2333 40.0696 93.4239 43.1667Z" fill="#F9F9F9"/>
<path d="M120.045 42.5012C119.974 42.5646 119.894 42.6014 119.812 42.6125C119.613 42.6395 119.403 42.5168 119.272 42.2726C119.133 42.011 115.785 35.8928 109.926 37.9233C109.631 38.0126 109.324 37.7813 109.226 37.385C109.127 36.9868 109.281 36.5822 109.569 36.4818C116.213 34.1862 120.113 41.4042 120.153 41.4782C120.335 41.8247 120.287 42.2813 120.045 42.5012Z" fill="#F9F9F9"/>
<path d="M106.555 110.567C106.858 110.577 107.119 110.918 107.136 111.329C107.141 111.422 107.598 120.766 113.253 126.42C113.506 126.677 113.577 127.144 113.408 127.464C113.322 127.629 113.19 127.723 113.047 127.742C112.911 127.761 112.769 127.712 112.643 127.587C106.517 121.461 106.051 111.7 106.035 111.287C106.018 110.879 106.246 110.552 106.555 110.567Z" fill="#F9F9F9"/>
<path d="M74.5036 83.7558C75.1908 84.0074 75.7961 84.3306 76.3648 84.6752C72.7076 73.0116 75.9938 66.9023 76.143 66.6356C76.3183 66.3235 76.6629 66.2848 76.9132 66.5478C77.1607 66.8121 77.2202 67.2806 77.043 67.595C77.0088 67.6565 73.663 73.8531 77.8993 85.7816C79.7281 87.3506 80.6362 89.0437 80.69 89.1492C80.8683 89.4998 80.8151 89.9565 80.567 90.1693C80.4981 90.2285 80.4218 90.2628 80.3441 90.2733C80.1409 90.3008 79.9264 90.1722 79.7965 89.9194C79.7803 89.8862 78.0441 86.5583 74.2986 85.1876C73.9988 85.0785 73.8017 84.6696 73.8581 84.2748C73.9158 83.8788 74.2014 83.6505 74.5036 83.7558Z" fill="#F9F9F9"/>
<path d="M171.864 59.6942C163.638 54.2516 158.957 50.8272 158.404 43.7676C158.107 39.9853 156.644 36.4742 154.762 35.0287C153.594 34.1307 152.343 34.1125 151.149 34.9723C150.892 35.1608 150.55 35.014 150.39 34.6485C150.228 34.2832 150.309 33.8347 150.567 33.649C152.1 32.5447 153.72 32.5813 155.247 33.7532C157.491 35.4769 159.161 39.3939 159.5 43.7343C159.963 49.6361 163.751 52.727 172.282 58.3721C181.077 64.1912 179.884 75.9145 179.872 76.0314C179.835 76.3497 179.652 76.572 179.427 76.6025C179.369 76.6105 179.307 76.6054 179.246 76.5872C178.945 76.4948 178.736 76.095 178.78 75.6949C178.827 75.2599 179.848 64.9774 171.864 59.6942Z" fill="#F9F9F9"/>
<path d="M160.574 31.1526C160.559 31.1032 159.015 26.2385 155.334 25.1344C155.032 25.0436 154.822 24.6465 154.864 24.246C154.908 23.845 155.183 23.5986 155.488 23.6851C159.044 24.7526 160.846 28.6992 161.401 30.1499C163.422 30.1495 164.937 32.0929 165.004 32.1811C165.231 32.4786 165.251 32.9465 165.05 33.2297C164.965 33.348 164.855 33.4152 164.736 33.4313C164.576 33.453 164.403 33.3776 164.271 33.2064C164.257 33.1884 162.87 31.4278 161.181 31.6566C160.927 31.691 160.675 31.4826 160.574 31.1526Z" fill="#F9F9F9"/>
<path d="M185.06 79.0012C188.876 82.0315 188.306 87.87 188.3 87.9288C188.266 88.2472 188.08 88.4729 187.854 88.5035C187.798 88.5111 187.738 88.5064 187.678 88.4875C187.376 88.3987 187.166 88.002 187.207 87.6023C187.227 87.4045 187.665 82.7303 184.56 80.2655C184.288 80.0489 184.18 79.5905 184.318 79.242C184.455 78.8965 184.787 78.7862 185.06 79.0012Z" fill="#F9F9F9"/>
<path d="M161.551 263.873C163.761 260.554 167.394 254.881 166.398 252.406C163.859 246.1 156.471 239.691 151.136 235.255C143.61 228.997 146.715 218.378 143.185 216.033C139.655 213.687 134.42 225.526 125.615 219.676C118.965 215.258 122.355 209.451 122.206 208.713C120.662 207.44 119.069 206.629 119.069 206.629C119.069 206.629 110.269 211.47 103.116 225.049L161.551 263.873Z" fill="#8DC8D3"/>
<path d="M166.398 252.406C163.859 246.1 156.471 239.691 151.136 235.255C143.61 228.997 146.714 218.378 143.185 216.033C142.511 215.585 141.774 215.655 140.962 216.02C142.147 220.18 141.464 227.836 147.405 232.776C152.74 237.212 160.128 243.621 162.667 249.927C163.663 252.402 160.03 258.076 157.82 261.394L161.551 263.873C163.761 260.554 167.394 254.881 166.398 252.406V252.406Z" fill="#B8FFFB"/>
<path d="M123.139 223.403C131.044 228.656 137.533 223.949 140.745 221.535C140.745 221.535 144.762 218.674 143.972 216.835C143.757 216.516 143.505 216.25 143.203 216.046C143.19 216.037 143.175 216.028 143.161 216.018C139.631 213.742 134.4 225.513 125.615 219.676C118.965 215.258 122.355 209.451 122.206 208.713C120.662 207.44 119.069 206.629 119.069 206.629C113.394 215.171 120.354 221.553 123.139 223.403V223.403Z" fill="#FFD54F"/>
<path d="M143.972 216.835C143.757 216.516 143.505 216.25 143.203 216.046C143.19 216.037 143.175 216.027 143.161 216.018C142.029 215.288 140.722 216.004 139.179 217.119C138.219 218.197 137.014 219.056 137.014 219.056C134.081 221.261 128.416 225.375 121.435 222.074C122.068 222.641 122.664 223.088 123.139 223.403C131.044 228.656 137.533 223.949 140.745 221.534C140.745 221.534 144.762 218.674 143.972 216.835Z" fill="#FFC328"/>
<path d="M129.514 232.339L107.616 217.79C106.107 219.867 104.577 222.276 103.116 225.049L141.05 250.252C141.05 250.252 140.576 248.188 139.657 245.486C137.828 240.104 134.25 235.485 129.514 232.339V232.339Z" fill="#546E7A"/>
<path d="M139.657 245.486C137.828 240.104 134.251 235.485 129.514 232.339L125.783 229.86C130.52 233.007 134.097 237.625 135.927 243.007C136.845 245.709 137.319 247.773 137.319 247.773L141.05 250.252C141.05 250.252 140.576 248.187 139.657 245.486V245.486Z" fill="#455A64"/>
<path d="M165.555 257.023L157.328 252.224C155.013 250.874 152.16 250.836 149.813 252.126L146.56 253.913L161.551 263.873C162.795 262.006 164.489 259.392 165.555 257.023Z" fill="#546E7A"/>
<path d="M165.555 257.023L161.714 254.782C160.644 257.087 159.023 259.589 157.82 261.394L161.551 263.873C162.795 262.006 164.489 259.392 165.555 257.023V257.023Z" fill="#455A64"/>
<path d="M141.354 226.653L141.354 226.652C140.932 225.489 141.534 224.205 142.697 223.784L146.906 222.262C148.068 221.841 149.351 222.442 149.772 223.603L149.772 223.604C150.194 224.767 149.593 226.052 148.429 226.473L144.22 227.995C143.058 228.415 141.776 227.814 141.354 226.653V226.653Z" fill="#E4E4E4"/>
<path d="M144.652 233.649L144.651 233.648C144.101 232.54 144.553 231.196 145.662 230.646L149.671 228.658C150.778 228.109 152.12 228.561 152.67 229.667L152.67 229.668C153.221 230.776 152.768 232.12 151.66 232.67L147.651 234.658C146.544 235.207 145.202 234.755 144.652 233.649Z" fill="#E4E4E4"/>
<path d="M149.172 240.766L149.171 240.764C148.409 239.79 148.582 238.382 149.556 237.621L153.082 234.867C154.055 234.106 155.462 234.278 156.223 235.251L156.224 235.253C156.986 236.227 156.814 237.635 155.839 238.396L152.314 241.15C151.34 241.911 149.934 241.739 149.172 240.766Z" fill="#E4E4E4"/>
<path d="M162.908 265.204L160.239 269.22C159.953 269.651 159.372 269.768 158.941 269.482L98.6917 229.452C98.2607 229.166 98.1436 228.585 98.4299 228.154L101.098 224.138C101.385 223.707 101.965 223.59 102.396 223.876L162.646 263.906C163.077 264.192 163.194 264.773 162.908 265.204Z" fill="#F3F3F3"/>
<path d="M162.68 263.928L158.949 261.449C159.361 261.723 159.453 262.31 159.153 262.761L156.533 266.705C156.233 267.156 155.656 267.299 155.244 267.025L158.975 269.504C159.387 269.778 159.964 269.635 160.263 269.184L162.884 265.239C163.184 264.789 163.092 264.201 162.68 263.928V263.928Z" fill="#E4E4E4"/>
<path d="M104.035 229.778L102.549 232.015L100.738 230.812L102.224 228.575C102.556 228.075 103.23 227.938 103.731 228.271C104.231 228.603 104.367 229.278 104.035 229.778Z" fill="#546E7A"/>
<path d="M110.828 234.291L109.342 236.528L107.531 235.325L109.017 233.088C109.349 232.588 110.024 232.452 110.524 232.784C111.024 233.116 111.16 233.791 110.828 234.291Z" fill="#546E7A"/>
<path d="M117.621 238.804L116.135 241.041L114.324 239.838L115.81 237.601C116.142 237.101 116.817 236.965 117.317 237.297C117.817 237.629 117.953 238.304 117.621 238.804Z" fill="#546E7A"/>
<path d="M124.415 243.318L122.929 245.555L121.118 244.352L122.604 242.115C122.936 241.615 123.61 241.478 124.111 241.811C124.611 242.143 124.747 242.818 124.415 243.318Z" fill="#546E7A"/>
<path d="M131.208 247.831L129.722 250.068L127.911 248.865L129.397 246.628C129.729 246.129 130.404 245.992 130.904 246.324C131.404 246.657 131.54 247.332 131.208 247.831Z" fill="#546E7A"/>
<path d="M138.001 252.345L136.515 254.582L134.704 253.379L136.19 251.142C136.522 250.642 137.198 250.506 137.697 250.838C138.198 251.171 138.333 251.845 138.001 252.345Z" fill="#546E7A"/>
<path d="M144.795 256.859L143.309 259.096L141.498 257.893L142.985 255.656C143.317 255.156 143.991 255.019 144.492 255.352C144.991 255.684 145.128 256.359 144.795 256.859Z" fill="#546E7A"/>
<path d="M151.588 261.372L150.102 263.609L148.291 262.406L149.778 260.169C150.11 259.669 150.785 259.533 151.285 259.865C151.784 260.197 151.92 260.872 151.588 261.372Z" fill="#546E7A"/>
<path d="M158.381 265.885L156.895 268.122L155.084 266.919L156.571 264.682C156.903 264.182 157.578 264.046 158.078 264.378C158.579 264.711 158.713 265.385 158.381 265.885Z" fill="#546E7A"/>
<path d="M87.6752 255.038C90.1246 253.241 94.2034 250.126 94.0694 248.002C93.7279 242.589 89.8157 235.664 86.9437 230.804C82.8924 223.949 87.7882 217.023 85.7441 214.243C83.7 211.464 76.9269 218.659 71.8281 211.726C67.9772 206.49 71.9089 203.204 71.9786 202.615C71.1446 201.216 70.1621 200.145 70.1621 200.145C70.1621 200.145 62.4553 201.113 53.8355 209.026L87.6752 255.038Z" fill="#8DC8D3"/>
<path d="M94.0694 248.002C93.7279 242.589 89.8157 235.664 86.9438 230.804C82.8925 223.949 87.7882 217.023 85.7441 214.243C85.3536 213.712 84.7902 213.546 84.0993 213.575C83.9614 217 81.5852 222.455 84.7832 227.866C87.6551 232.726 91.5673 239.652 91.9088 245.064C92.0428 247.188 87.964 250.303 85.5146 252.1L87.6751 255.038C90.1246 253.241 94.2034 250.126 94.0694 248.002V248.002Z" fill="#B8FFFB"/>
<path d="M69.0814 213.746C73.6595 219.971 79.6196 218.417 82.5913 217.586C82.5913 217.586 86.268 216.663 86.1315 215.07C86.05 214.771 85.9279 214.499 85.7542 214.259C85.7463 214.248 85.7377 214.237 85.7294 214.226C83.6688 211.497 76.9151 218.644 71.8277 211.727C67.9769 206.491 71.9085 203.205 71.9783 202.615C71.1442 201.217 70.1617 200.145 70.1617 200.145C63.8675 204.774 67.4689 211.554 69.0814 213.746V213.746Z" fill="#FFD54F"/>
<path d="M86.1314 215.069C86.0498 214.771 85.9278 214.499 85.7541 214.259C85.7462 214.248 85.7376 214.237 85.7293 214.226C85.0685 213.351 83.9247 213.492 82.5085 213.858C81.5332 214.371 80.4306 214.648 80.4306 214.648C77.7171 215.407 72.5121 216.768 68.1427 212.259C68.474 212.866 68.8065 213.373 69.0813 213.746C73.6593 219.971 79.6195 218.417 82.5912 217.586C82.5912 217.586 86.2678 216.663 86.1314 215.069Z" fill="#FFC328"/>
<path d="M71.6259 222.239L58.9448 204.996C57.3184 206.084 55.596 207.41 53.8355 209.026L75.803 238.895C75.803 238.895 75.9558 237.229 75.9348 234.96C75.8929 230.441 74.3689 225.968 71.6259 222.239V222.239Z" fill="#546E7A"/>
<path d="M75.9348 234.96C75.8929 230.441 74.3688 225.968 71.6259 222.239L69.4653 219.301C72.2083 223.03 73.7323 227.503 73.7742 232.022C73.7952 234.291 73.6424 235.957 73.6424 235.957L75.8029 238.895C75.8029 238.895 75.9557 237.229 75.9348 234.96V234.96Z" fill="#455A64"/>
<path d="M92.317 251.164L87.3901 245.179C86.0035 243.494 83.8973 242.621 81.8421 242.878L78.9941 243.234L87.6752 255.038C89.0535 254.027 90.9478 252.598 92.317 251.164Z" fill="#546E7A"/>
<path d="M92.317 251.164L90.0165 248.369C88.6602 249.755 86.847 251.122 85.5146 252.1L87.6751 255.038C89.0534 254.027 90.9478 252.598 92.317 251.164V251.164Z" fill="#455A64"/>
<path d="M81.7929 221.548L81.7929 221.548C81.7642 220.563 82.5239 219.792 83.4892 219.826L86.9816 219.949C87.9456 219.983 88.7498 220.807 88.7785 221.79L88.7785 221.791C88.8072 222.776 88.0475 223.546 87.0822 223.512L83.5898 223.389C82.6258 223.355 81.8217 222.531 81.7929 221.548V221.548Z" fill="#E4E4E4"/>
<path d="M82.529 227.695L82.5289 227.694C82.3913 226.712 83.0551 225.853 84.011 225.775L87.4689 225.495C88.4237 225.418 89.3085 226.15 89.4459 227.13L89.446 227.131C89.5836 228.113 88.9198 228.972 87.9639 229.05L84.506 229.33C83.5513 229.407 82.6665 228.675 82.529 227.695Z" fill="#E4E4E4"/>
<path d="M84.142 234.294L84.1415 234.292C83.8145 233.347 84.2862 232.358 85.1948 232.084L88.4811 231.094C89.3889 230.821 90.3894 231.365 90.7161 232.31L90.7166 232.311C91.0436 233.257 90.5719 234.246 89.6633 234.52L86.377 235.509C85.4692 235.783 84.4687 235.239 84.142 234.294Z" fill="#E4E4E4"/>
<path d="M88.3561 256.423L85.3967 258.6C85.0791 258.833 84.62 258.748 84.3705 258.408L49.4797 210.967C49.2301 210.628 49.2851 210.164 49.6027 209.931L52.5621 207.754C52.8797 207.521 53.3388 207.606 53.5883 207.946L88.4791 255.386C88.7287 255.726 88.6737 256.19 88.3561 256.423Z" fill="#F3F3F3"/>
<path d="M84.049 258.654C84.1128 258.741 84.1548 258.821 84.1795 258.883L83.0866 259.687C83.0342 259.645 82.9701 259.581 82.9063 259.494L48.0155 212.053C47.9517 211.967 47.9097 211.886 47.8851 211.824L48.9779 211.02C49.0303 211.062 49.0944 211.126 49.1582 211.213L84.049 258.654Z" fill="#D0CFCF" stroke="#D0CFCF" stroke-linecap="round" stroke-linejoin="round"/>
<path d="M88.4988 255.413L86.3383 252.475C86.5769 252.8 86.5012 253.261 86.1691 253.505L83.2628 255.642C82.9307 255.886 82.468 255.822 82.2293 255.497L84.3899 258.435C84.6286 258.759 85.0912 258.824 85.4233 258.58L88.3296 256.443C88.6618 256.198 88.7375 255.737 88.4988 255.413V255.413Z" fill="#E4E4E4"/>
<path d="M53.3613 212.792L51.713 214.005L50.6643 212.579L52.3126 211.367C52.6809 211.096 53.2139 211.194 53.5041 211.589C53.7935 211.982 53.7295 212.522 53.3613 212.792Z" fill="#546E7A"/>
<path d="M57.2955 218.141L55.6472 219.353L54.5985 217.928L56.2468 216.715C56.6151 216.444 57.1488 216.544 57.4383 216.938C57.7277 217.331 57.6637 217.87 57.2955 218.141Z" fill="#546E7A"/>
<path d="M61.2293 223.49L59.581 224.702L58.5324 223.276L60.1806 222.064C60.5489 221.793 61.0827 221.893 61.3721 222.286C61.6615 222.68 61.5976 223.219 61.2293 223.49Z" fill="#546E7A"/>
<path d="M65.1637 228.84L63.5155 230.052L62.4668 228.626L64.1151 227.414C64.4833 227.143 65.0164 227.242 65.3066 227.636C65.596 228.03 65.532 228.569 65.1637 228.84Z" fill="#546E7A"/>
<path d="M69.0976 234.189L67.4493 235.401L66.4007 233.975L68.0489 232.763C68.4172 232.492 68.951 232.591 69.2404 232.985C69.5298 233.379 69.4658 233.918 69.0976 234.189Z" fill="#546E7A"/>
<path d="M73.0315 239.537L71.3833 240.75L70.3346 239.324L71.9829 238.111C72.3511 237.841 72.8849 237.94 73.1744 238.334C73.4645 238.728 73.3998 239.266 73.0315 239.537Z" fill="#546E7A"/>
<path d="M76.966 244.887L75.3177 246.099L74.2691 244.674L75.9173 243.461C76.2856 243.191 76.8187 243.289 77.1088 243.684C77.3982 244.077 77.3342 244.616 76.966 244.887Z" fill="#546E7A"/>
<path d="M80.8998 250.236L79.2516 251.448L78.2029 250.022L79.8512 248.81C80.2194 248.539 80.7532 248.639 81.0426 249.032C81.3321 249.426 81.2681 249.965 80.8998 250.236Z" fill="#546E7A"/>
<path d="M84.8337 255.585L83.1854 256.797L82.1367 255.371L83.785 254.159C84.1533 253.888 84.687 253.988 84.9765 254.381C85.2666 254.776 85.2019 255.314 84.8337 255.585Z" fill="#546E7A"/>
<g filter="url(#filter2_i)">
<path d="M185.432 101.136C237.817 80.6206 248.367 63.8187 234.776 54.2543C229.768 50.7307 216.654 48.7173 202.056 50.2274C205.747 52.912 210.513 57.4758 200.042 54.2543" stroke="#F9F9F9" stroke-width="5" stroke-linecap="round" stroke-linejoin="round"/>
</g>
<path d="M161.785 53.2477C165.309 43.6835 175.678 26.3672 188.968 33.6159C191.608 35.0562 193.816 37.6083 195.591 40.4948C202.963 44.9575 201.049 52.8196 201.049 55.7647C201.049 53.7347 199.23 46.4122 195.591 40.4948C195.403 40.3809 195.209 40.2692 195.008 40.1599C181.719 32.9113 172.86 46.2005 169.336 55.7647L161.785 53.2477Z" fill="#092328"/>
<path d="M161.785 53.2477C165.309 43.6835 175.678 26.3672 188.968 33.6159C197.022 38.009 201.049 52.7444 201.049 55.7647C201.049 52.7444 203.062 44.5531 195.008 40.1599C181.719 32.9113 172.86 46.2005 169.336 55.7647L161.785 53.2477Z" stroke="#092328" stroke-linecap="round" stroke-linejoin="round"/>
<g filter="url(#filter3_d)">
<path d="M164.732 54.0434C173.02 55.3076 177.054 73.9281 173.743 95.6331C170.432 117.338 161.03 133.909 152.743 132.645L57.0818 112.647C48.7941 111.383 44.3832 98.1111 47.694 76.4061C51.0047 54.7011 59.3651 43.9295 67.6528 45.1936L164.732 54.0434Z" fill="#BDC5C7"/>
</g>
<path d="M57.2116 151.95C60.9021 154.661 62.5966 159.362 61.5006 163.849C59.8131 171.865 44.4727 185.682 44.4727 185.682C44.4727 185.682 35.0965 167.288 36.3917 159.2C36.9751 154.618 40.2405 150.836 44.6571 149.626L45.8319 143.281L58.3863 145.606L57.2116 151.95Z" fill="#F29C1F"/>
<path d="M41.9581 129.04L67.1028 133.697L64.1538 149.622C63.8281 151.381 62.1568 152.546 60.4207 152.225L41.5622 148.733C39.8264 148.411 38.683 146.725 39.0088 144.965L41.9578 129.04L41.9581 129.04Z" fill="#5E757A"/>
<path d="M37.1527 115.667L75.3728 122.745L72.4238 138.67C72.0981 140.429 70.4081 141.591 68.6488 141.265L36.7987 135.367C35.0398 135.041 33.8776 133.351 34.2033 131.592L37.1523 115.667L37.1527 115.667Z" fill="#BDC5C7"/>
<path d="M53.17 29.1682L71.2271 5.69162C72.8875 3.91137 75.3169 3.10094 77.6816 3.53883C80.0463 3.97672 82.0241 5.60328 82.9373 7.86011L91.3905 36.2459L53.17 29.1682V29.1682Z" fill="#E64C3C"/>
<path d="M53.794 27.203L91.5116 34.1876C94.9836 34.8305 97.2753 38.1734 96.6307 41.6546L81.4571 123.594C80.8125 127.075 77.4753 129.376 74.0037 128.733L36.2861 121.748C32.8142 121.105 30.5225 117.762 31.1671 114.281L46.3406 32.3423C46.9852 28.8611 50.3225 26.5602 53.794 27.203Z" fill="#95A2A5"/>
<g filter="url(#filter4_d)">
<path d="M120.248 174.512C124.435 177.533 126.395 182.828 125.208 187.916C123.393 197.002 106.258 212.816 106.258 212.816C106.258 212.816 95.4978 192.13 96.8702 182.967C97.4783 177.778 101.117 173.461 106.079 172.038L106.707 168.443L120.876 170.918L120.248 174.512Z" fill="#F29C1F"/>
</g>
<g filter="url(#filter5_d)">
<path d="M102.774 149.04L131.153 153.996L128.014 171.969C127.667 173.954 125.798 175.286 123.839 174.944L102.555 171.227C100.596 170.885 99.2885 168.999 99.6353 167.013L102.774 149.04Z" fill="#5E757A"/>
</g>
<g filter="url(#filter6_d)">
<path d="M97.2074 134.031L140.343 141.564L137.204 159.537C136.857 161.522 134.967 162.851 132.981 162.504L97.0352 156.226C95.0501 155.879 93.7215 153.989 94.0682 152.004L97.207 134.031L97.2074 134.031Z" fill="#BDC5C7"/>
</g>
<g filter="url(#filter7_d)">
<path d="M114.256 36.4078L134.327 9.75443C136.177 7.72993 138.904 6.78906 141.572 7.25507C144.241 7.72108 146.488 9.53067 147.542 12.0624L157.391 43.941L114.256 36.4078V36.4078Z" fill="#E64C3C"/>
</g>
<g filter="url(#filter8_d)">
<path d="M114.936 34.1871L157.504 41.6212C161.423 42.3055 164.043 46.0448 163.357 49.9737L147.207 142.451C146.52 146.379 142.788 149.009 138.87 148.325L96.3015 140.891C92.3831 140.207 89.7631 136.467 90.4492 132.538L106.599 40.0621C107.285 36.1332 111.018 33.5028 114.936 34.1871Z" fill="#95A2A5"/>
</g>
<g filter="url(#filter9_i)">
<path d="M204.573 50.2274C208.264 52.912 210.513 57.4758 200.042 54.2543" stroke="#F9F9F9" stroke-width="5" stroke-linecap="round" stroke-linejoin="round"/>
</g>
<defs>
<filter id="filter0_i" x="116.495" y="139.649" width="56.5141" height="86.7273" filterUnits="userSpaceOnUse" color-interpolation-filters="sRGB">
<feFlood flood-opacity="0" result="BackgroundImageFix"/>
<feBlend mode="normal" in="SourceGraphic" in2="BackgroundImageFix" result="shape"/>
<feColorMatrix in="SourceAlpha" type="matrix" values="0 0 0 0 0 0 0 0 0 0 0 0 0 0 0 0 0 0 127 0" result="hardAlpha"/>
<feOffset dy="4"/>
<feGaussianBlur stdDeviation="2"/>
<feComposite in2="hardAlpha" operator="arithmetic" k2="-1" k3="1"/>
<feColorMatrix type="matrix" values="0 0 0 0 0 0 0 0 0 0 0 0 0 0 0 0 0 0 0.25 0"/>
<feBlend mode="normal" in2="shape" result="effect1_innerShadow"/>
</filter>
<filter id="filter1_i" x="58.6088" y="131.288" width="56.5141" height="86.7273" filterUnits="userSpaceOnUse" color-interpolation-filters="sRGB">
<feFlood flood-opacity="0" result="BackgroundImageFix"/>
<feBlend mode="normal" in="SourceGraphic" in2="BackgroundImageFix" result="shape"/>
<feColorMatrix in="SourceAlpha" type="matrix" values="0 0 0 0 0 0 0 0 0 0 0 0 0 0 0 0 0 0 127 0" result="hardAlpha"/>
<feOffset dy="4"/>
<feGaussianBlur stdDeviation="2"/>
<feComposite in2="hardAlpha" operator="arithmetic" k2="-1" k3="1"/>
<feColorMatrix type="matrix" values="0 0 0 0 0 0 0 0 0 0 0 0 0 0 0 0 0 0 0.25 0"/>
<feBlend mode="normal" in2="shape" result="effect1_innerShadow"/>
</filter>
<filter id="filter2_i" x="182.931" y="47.2201" width="59.7394" height="60.417" filterUnits="userSpaceOnUse" color-interpolation-filters="sRGB">
<feFlood flood-opacity="0" result="BackgroundImageFix"/>
<feBlend mode="normal" in="SourceGraphic" in2="BackgroundImageFix" result="shape"/>
<feColorMatrix in="SourceAlpha" type="matrix" values="0 0 0 0 0 0 0 0 0 0 0 0 0 0 0 0 0 0 127 0" result="hardAlpha"/>
<feOffset dy="4"/>
<feGaussianBlur stdDeviation="2"/>
<feComposite in2="hardAlpha" operator="arithmetic" k2="-1" k3="1"/>
<feColorMatrix type="matrix" values="0 0 0 0 0 0 0 0 0 0 0 0 0 0 0 0 0 0 0.25 0"/>
<feBlend mode="normal" in2="shape" result="effect1_innerShadow"/>
</filter>
<filter id="filter3_d" x="37.6992" y="37.1053" width="146.039" height="105.828" filterUnits="userSpaceOnUse" color-interpolation-filters="sRGB">
<feFlood flood-opacity="0" result="BackgroundImageFix"/>
<feColorMatrix in="SourceAlpha" type="matrix" values="0 0 0 0 0 0 0 0 0 0 0 0 0 0 0 0 0 0 127 0"/>
<feOffset dy="4"/>
<feGaussianBlur stdDeviation="2"/>
<feColorMatrix type="matrix" values="0 0 0 0 0 0 0 0 0 0 0 0 0 0 0 0 0 0 0.25 0"/>
<feBlend mode="normal" in2="BackgroundImageFix" result="effect1_dropShadow"/>
<feBlend mode="normal" in="SourceGraphic" in2="effect1_dropShadow" result="shape"/>
</filter>
<filter id="filter4_d" x="88.0691" y="167.202" width="43.9118" height="56.0916" filterUnits="userSpaceOnUse" color-interpolation-filters="sRGB">
<feFlood flood-opacity="0" result="BackgroundImageFix"/>
<feColorMatrix in="SourceAlpha" type="matrix" values="0 0 0 0 0 0 0 0 0 0 0 0 0 0 0 0 0 0 127 0"/>
<feOffset dy="4"/>
<feGaussianBlur stdDeviation="2"/>
<feColorMatrix type="matrix" values="0 0 0 0 0 0 0 0 0 0 0 0 0 0 0 0 0 0 0.25 0"/>
<feBlend mode="normal" in2="BackgroundImageFix" result="effect1_dropShadow"/>
<feBlend mode="normal" in="SourceGraphic" in2="effect1_dropShadow" result="shape"/>
</filter>
<filter id="filter5_d" x="95.0074" y="149.04" width="40.1453" height="34.5238" filterUnits="userSpaceOnUse" color-interpolation-filters="sRGB">
<feFlood flood-opacity="0" result="BackgroundImageFix"/>
<feColorMatrix in="SourceAlpha" type="matrix" values="0 0 0 0 0 0 0 0 0 0 0 0 0 0 0 0 0 0 127 0"/>
<feOffset dy="4"/>
<feGaussianBlur stdDeviation="2"/>
<feColorMatrix type="matrix" values="0 0 0 0 0 0 0 0 0 0 0 0 0 0 0 0 0 0 0.25 0"/>
<feBlend mode="normal" in2="BackgroundImageFix" result="effect1_dropShadow"/>
<feBlend mode="normal" in="SourceGraphic" in2="effect1_dropShadow" result="shape"/>
</filter>
<filter id="filter6_d" x="89.4404" y="134.031" width="54.9022" height="37.101" filterUnits="userSpaceOnUse" color-interpolation-filters="sRGB">
<feFlood flood-opacity="0" result="BackgroundImageFix"/>
<feColorMatrix in="SourceAlpha" type="matrix" values="0 0 0 0 0 0 0 0 0 0 0 0 0 0 0 0 0 0 127 0"/>
<feOffset dy="4"/>
<feGaussianBlur stdDeviation="2"/>
<feColorMatrix type="matrix" values="0 0 0 0 0 0 0 0 0 0 0 0 0 0 0 0 0 0 0.25 0"/>
<feBlend mode="normal" in2="BackgroundImageFix" result="effect1_dropShadow"/>
<feBlend mode="normal" in="SourceGraphic" in2="effect1_dropShadow" result="shape"/>
</filter>
<filter id="filter7_d" x="110.256" y="3.48853" width="56.8846" height="48.4524" filterUnits="userSpaceOnUse" color-interpolation-filters="sRGB">
<feFlood flood-opacity="0" result="BackgroundImageFix"/>
<feColorMatrix in="SourceAlpha" type="matrix" values="0 0 0 0 0 0 0 0 0 0 0 0 0 0 0 0 0 0 127 0"/>
<feOffset dy="4"/>
<feGaussianBlur stdDeviation="2"/>
<feColorMatrix type="matrix" values="0 0 0 0 0 0 0 0 0 0 0 0 0 0 0 0 0 0 0.25 0"/>
<feBlend mode="normal" in2="BackgroundImageFix" result="effect1_dropShadow"/>
<feBlend mode="normal" in="SourceGraphic" in2="effect1_dropShadow" result="shape"/>
</filter>
<filter id="filter8_d" x="85.2069" y="32.9481" width="83.392" height="124.616" filterUnits="userSpaceOnUse" color-interpolation-filters="sRGB">
<feFlood flood-opacity="0" result="BackgroundImageFix"/>
<feColorMatrix in="SourceAlpha" type="matrix" values="0 0 0 0 0 0 0 0 0 0 0 0 0 0 0 0 0 0 127 0"/>
<feOffset dy="4"/>
<feGaussianBlur stdDeviation="2"/>
<feColorMatrix type="matrix" values="0 0 0 0 0 0 0 0 0 0 0 0 0 0 0 0 0 0 0.25 0"/>
<feBlend mode="normal" in2="BackgroundImageFix" result="effect1_dropShadow"/>
<feBlend mode="normal" in="SourceGraphic" in2="effect1_dropShadow" result="shape"/>
</filter>
<filter id="filter9_i" x="197.542" y="47.7272" width="12.6121" height="14.135" filterUnits="userSpaceOnUse" color-interpolation-filters="sRGB">
<feFlood flood-opacity="0" result="BackgroundImageFix"/>
<feBlend mode="normal" in="SourceGraphic" in2="BackgroundImageFix" result="shape"/>
<feColorMatrix in="SourceAlpha" type="matrix" values="0 0 0 0 0 0 0 0 0 0 0 0 0 0 0 0 0 0 127 0" result="hardAlpha"/>
<feOffset dy="4"/>
<feGaussianBlur stdDeviation="2"/>
<feComposite in2="hardAlpha" operator="arithmetic" k2="-1" k3="1"/>
<feColorMatrix type="matrix" values="0 0 0 0 0 0 0 0 0 0 0 0 0 0 0 0 0 0 0.25 0"/>
<feBlend mode="normal" in2="shape" result="effect1_innerShadow"/>
</filter>
</defs>
</svg>
