<svg width="267" height="267" viewBox="0 0 267 267" fill="none" xmlns="http://www.w3.org/2000/svg">
<g clip-path="url(#clip0)">
<path d="M0.00598145 133.294C0.00598145 59.793 59.805 0 133.294 0C206.787 0 266.583 59.793 266.583 133.294C266.583 168.057 253.396 200.704 229.354 225.666L172.127 205.761V184.384C185.08 177.214 193.246 163.547 193.246 148.523V70.677C193.246 48.06 174.853 29.67 152.239 29.67H114.355C91.741 29.67 73.348 48.06 73.348 70.677V148.534C73.348 163.558 81.52 177.225 94.476 184.395V205.244L36.86 225.288C13.061 200.374 0.00598145 167.858 0.00598145 133.294Z" fill="#0D3C46"/>
<path d="M133.294 266.589C101.315 266.589 71.012 255.372 46.915 234.8L107.431 213.759L107.02 208.991C106.984 208.54 106.921 208.091 106.867 207.645C106.825 207.333 106.762 207.027 106.762 206.721V176.516L103.042 174.919C92.474 170.385 85.64 160.027 85.64 148.533V70.677C85.64 56.823 95.503 45.232 108.569 42.55C110.44 42.163 112.37 41.968 114.349 41.968H152.233C154.214 41.968 156.142 42.163 158.015 42.55C171.081 45.238 180.942 56.823 180.942 70.677V148.534C180.942 160.028 174.109 170.38 163.541 174.92L159.817 176.517V206.722C159.817 207.202 159.745 207.659 159.679 208.126L159.012 214.222L219.228 235.16C195.197 255.492 165.048 266.589 133.294 266.589Z" fill="#0D3C46"/>
</g>
<defs>
<clipPath id="clip0">
<rect width="266.589" height="266.589" fill="white"/>
</clipPath>
</defs>
</svg>
